G04 (created by PCBNEW (2013-07-07 BZR 4022)-stable) date 1/6/2015 11:11:16 AM*
%MOIN*%
G04 Gerber Fmt 3.4, Leading zero omitted, Abs format*
%FSLAX34Y34*%
G01*
G70*
G90*
G04 APERTURE LIST*
%ADD10C,0.005*%
%ADD11C,0.00393701*%
%ADD12C,0.00787402*%
%ADD13C,0.011811*%
G04 APERTURE END LIST*
G54D10*
G54D11*
X74803Y-48818D02*
X49606Y-48818D01*
X74803Y-26771D02*
X49606Y-26771D01*
X74803Y-48818D02*
X74803Y-26771D01*
X49606Y-27165D02*
X49606Y-26771D01*
X49606Y-26771D02*
X49606Y-27165D01*
X49606Y-48818D02*
X49606Y-27165D01*
G54D12*
X54564Y-34379D02*
X54884Y-34699D01*
X54884Y-34379D02*
X54564Y-34699D01*
X54564Y-35379D02*
X54884Y-35699D01*
X54884Y-35379D02*
X54564Y-35699D01*
X54564Y-36922D02*
X54884Y-37242D01*
X54884Y-36922D02*
X54564Y-37242D01*
X54564Y-39922D02*
X54884Y-40242D01*
X54884Y-39922D02*
X54564Y-40242D01*
X62044Y-31229D02*
X62364Y-31549D01*
X62364Y-31229D02*
X62044Y-31549D01*
X62044Y-32229D02*
X62364Y-32549D01*
X62364Y-32229D02*
X62044Y-32549D01*
X52904Y-27452D02*
G75*
G03X52904Y-27452I-200J0D01*
G74*
G01*
X52904Y-28452D02*
G75*
G03X52904Y-28452I-200J0D01*
G74*
G01*
X53904Y-27452D02*
G75*
G03X53904Y-27452I-200J0D01*
G74*
G01*
X53904Y-28452D02*
G75*
G03X53904Y-28452I-200J0D01*
G74*
G01*
X54526Y-44681D02*
G75*
G03X54526Y-44681I-200J0D01*
G74*
G01*
X54904Y-27452D02*
G75*
G03X54904Y-27452I-200J0D01*
G74*
G01*
X54904Y-28452D02*
G75*
G03X54904Y-28452I-200J0D01*
G74*
G01*
X55526Y-44681D02*
G75*
G03X55526Y-44681I-200J0D01*
G74*
G01*
X55904Y-27452D02*
G75*
G03X55904Y-27452I-200J0D01*
G74*
G01*
X55904Y-28452D02*
G75*
G03X55904Y-28452I-200J0D01*
G74*
G01*
X56526Y-44681D02*
G75*
G03X56526Y-44681I-200J0D01*
G74*
G01*
X56904Y-27452D02*
G75*
G03X56904Y-27452I-200J0D01*
G74*
G01*
X56904Y-28452D02*
G75*
G03X56904Y-28452I-200J0D01*
G74*
G01*
X57904Y-27452D02*
G75*
G03X57904Y-27452I-200J0D01*
G74*
G01*
X57904Y-28452D02*
G75*
G03X57904Y-28452I-200J0D01*
G74*
G01*
X58526Y-44681D02*
G75*
G03X58526Y-44681I-200J0D01*
G74*
G01*
X58904Y-27452D02*
G75*
G03X58904Y-27452I-200J0D01*
G74*
G01*
X58904Y-28452D02*
G75*
G03X58904Y-28452I-200J0D01*
G74*
G01*
X59526Y-44681D02*
G75*
G03X59526Y-44681I-200J0D01*
G74*
G01*
X59904Y-27452D02*
G75*
G03X59904Y-27452I-200J0D01*
G74*
G01*
X59904Y-28452D02*
G75*
G03X59904Y-28452I-200J0D01*
G74*
G01*
X60526Y-44681D02*
G75*
G03X60526Y-44681I-200J0D01*
G74*
G01*
X60904Y-27452D02*
G75*
G03X60904Y-27452I-200J0D01*
G74*
G01*
X60904Y-28452D02*
G75*
G03X60904Y-28452I-200J0D01*
G74*
G01*
X61904Y-27452D02*
G75*
G03X61904Y-27452I-200J0D01*
G74*
G01*
X61904Y-28452D02*
G75*
G03X61904Y-28452I-200J0D01*
G74*
G01*
X62904Y-27452D02*
G75*
G03X62904Y-27452I-200J0D01*
G74*
G01*
X62904Y-28452D02*
G75*
G03X62904Y-28452I-200J0D01*
G74*
G01*
X63904Y-27452D02*
G75*
G03X63904Y-27452I-200J0D01*
G74*
G01*
X63904Y-28452D02*
G75*
G03X63904Y-28452I-200J0D01*
G74*
G01*
X64904Y-27452D02*
G75*
G03X64904Y-27452I-200J0D01*
G74*
G01*
X64904Y-28452D02*
G75*
G03X64904Y-28452I-200J0D01*
G74*
G01*
X65904Y-27452D02*
G75*
G03X65904Y-27452I-200J0D01*
G74*
G01*
X65904Y-28452D02*
G75*
G03X65904Y-28452I-200J0D01*
G74*
G01*
X66904Y-27452D02*
G75*
G03X66904Y-27452I-200J0D01*
G74*
G01*
X66904Y-28452D02*
G75*
G03X66904Y-28452I-200J0D01*
G74*
G01*
X67904Y-27452D02*
G75*
G03X67904Y-27452I-200J0D01*
G74*
G01*
X67904Y-28452D02*
G75*
G03X67904Y-28452I-200J0D01*
G74*
G01*
X68904Y-27452D02*
G75*
G03X68904Y-27452I-200J0D01*
G74*
G01*
X68904Y-28452D02*
G75*
G03X68904Y-28452I-200J0D01*
G74*
G01*
X69904Y-27452D02*
G75*
G03X69904Y-27452I-200J0D01*
G74*
G01*
X69904Y-28452D02*
G75*
G03X69904Y-28452I-200J0D01*
G74*
G01*
X70904Y-27452D02*
G75*
G03X70904Y-27452I-200J0D01*
G74*
G01*
X70904Y-28452D02*
G75*
G03X70904Y-28452I-200J0D01*
G74*
G01*
X71904Y-27452D02*
G75*
G03X71904Y-27452I-200J0D01*
G74*
G01*
X71904Y-28452D02*
G75*
G03X71904Y-28452I-200J0D01*
G74*
G01*
X64173Y-31058D02*
X64173Y-31508D01*
X63948Y-31283D02*
X64398Y-31283D01*
X64173Y-32058D02*
X64173Y-32508D01*
X63948Y-32283D02*
X64398Y-32283D01*
X64173Y-33058D02*
X64173Y-33508D01*
X63948Y-33283D02*
X64398Y-33283D01*
X51393Y-34645D02*
X51393Y-34220D01*
X50968Y-34220D01*
X50968Y-34645D01*
X51393Y-34645D01*
X51393Y-36645D02*
X51393Y-36220D01*
X50968Y-36220D01*
X50968Y-36645D01*
X51393Y-36645D01*
X51393Y-40550D02*
X51393Y-40126D01*
X50968Y-40126D01*
X50968Y-40550D01*
X51393Y-40550D01*
X51393Y-42550D02*
X51393Y-42126D01*
X50968Y-42126D01*
X50968Y-42550D01*
X51393Y-42550D01*
X50787Y-28552D02*
X51387Y-27952D01*
X50787Y-27352D01*
X50187Y-27952D01*
X50787Y-28552D01*
X50787Y-48237D02*
X51387Y-47637D01*
X50787Y-47037D01*
X50187Y-47637D01*
X50787Y-48237D01*
X70673Y-32883D02*
X71273Y-32283D01*
X70673Y-31683D01*
X70073Y-32283D01*
X70673Y-32883D01*
X73622Y-28552D02*
X74222Y-27952D01*
X73622Y-27352D01*
X73022Y-27952D01*
X73622Y-28552D01*
X73622Y-48237D02*
X74222Y-47637D01*
X73622Y-47037D01*
X73022Y-47637D01*
X73622Y-48237D01*
G54D13*
X50655Y-50615D02*
X50655Y-49434D01*
X50936Y-49434D01*
X51105Y-49491D01*
X51217Y-49603D01*
X51273Y-49715D01*
X51330Y-49940D01*
X51330Y-50109D01*
X51273Y-50334D01*
X51217Y-50447D01*
X51105Y-50559D01*
X50936Y-50615D01*
X50655Y-50615D01*
X51836Y-50615D02*
X51836Y-49828D01*
X51836Y-50053D02*
X51892Y-49940D01*
X51948Y-49884D01*
X52061Y-49828D01*
X52173Y-49828D01*
X52567Y-50615D02*
X52567Y-49828D01*
X52567Y-49434D02*
X52511Y-49491D01*
X52567Y-49547D01*
X52623Y-49491D01*
X52567Y-49434D01*
X52567Y-49547D01*
X53298Y-50615D02*
X53186Y-50559D01*
X53129Y-50447D01*
X53129Y-49434D01*
X53917Y-50615D02*
X53804Y-50559D01*
X53748Y-50447D01*
X53748Y-49434D01*
X55267Y-50615D02*
X55267Y-49434D01*
X55660Y-50278D01*
X56054Y-49434D01*
X56054Y-50615D01*
X57123Y-50615D02*
X57123Y-49997D01*
X57066Y-49884D01*
X56954Y-49828D01*
X56729Y-49828D01*
X56616Y-49884D01*
X57123Y-50559D02*
X57010Y-50615D01*
X56729Y-50615D01*
X56616Y-50559D01*
X56560Y-50447D01*
X56560Y-50334D01*
X56616Y-50222D01*
X56729Y-50165D01*
X57010Y-50165D01*
X57123Y-50109D01*
X57685Y-49828D02*
X57685Y-51009D01*
X57685Y-49884D02*
X57798Y-49828D01*
X58023Y-49828D01*
X58135Y-49884D01*
X58191Y-49940D01*
X58248Y-50053D01*
X58248Y-50390D01*
X58191Y-50503D01*
X58135Y-50559D01*
X58023Y-50615D01*
X57798Y-50615D01*
X57685Y-50559D01*
X58754Y-50503D02*
X58810Y-50559D01*
X58754Y-50615D01*
X58697Y-50559D01*
X58754Y-50503D01*
X58754Y-50615D01*
X58754Y-49884D02*
X58810Y-49940D01*
X58754Y-49997D01*
X58697Y-49940D01*
X58754Y-49884D01*
X58754Y-49997D01*
X49266Y-52458D02*
X49586Y-52778D01*
X49586Y-52458D02*
X49266Y-52778D01*
X50880Y-51915D02*
X50992Y-51915D01*
X51105Y-51971D01*
X51161Y-52027D01*
X51217Y-52140D01*
X51273Y-52365D01*
X51273Y-52646D01*
X51217Y-52871D01*
X51161Y-52983D01*
X51105Y-53039D01*
X50992Y-53096D01*
X50880Y-53096D01*
X50767Y-53039D01*
X50711Y-52983D01*
X50655Y-52871D01*
X50598Y-52646D01*
X50598Y-52365D01*
X50655Y-52140D01*
X50711Y-52027D01*
X50767Y-51971D01*
X50880Y-51915D01*
X51780Y-52983D02*
X51836Y-53039D01*
X51780Y-53096D01*
X51723Y-53039D01*
X51780Y-52983D01*
X51780Y-53096D01*
X52511Y-52421D02*
X52398Y-52365D01*
X52342Y-52308D01*
X52286Y-52196D01*
X52286Y-52140D01*
X52342Y-52027D01*
X52398Y-51971D01*
X52511Y-51915D01*
X52736Y-51915D01*
X52848Y-51971D01*
X52904Y-52027D01*
X52961Y-52140D01*
X52961Y-52196D01*
X52904Y-52308D01*
X52848Y-52365D01*
X52736Y-52421D01*
X52511Y-52421D01*
X52398Y-52477D01*
X52342Y-52533D01*
X52286Y-52646D01*
X52286Y-52871D01*
X52342Y-52983D01*
X52398Y-53039D01*
X52511Y-53096D01*
X52736Y-53096D01*
X52848Y-53039D01*
X52904Y-52983D01*
X52961Y-52871D01*
X52961Y-52646D01*
X52904Y-52533D01*
X52848Y-52477D01*
X52736Y-52421D01*
X54086Y-53096D02*
X53411Y-53096D01*
X53748Y-53096D02*
X53748Y-51915D01*
X53636Y-52083D01*
X53523Y-52196D01*
X53411Y-52252D01*
X54592Y-53096D02*
X54592Y-52308D01*
X54592Y-52421D02*
X54648Y-52365D01*
X54760Y-52308D01*
X54929Y-52308D01*
X55042Y-52365D01*
X55098Y-52477D01*
X55098Y-53096D01*
X55098Y-52477D02*
X55154Y-52365D01*
X55267Y-52308D01*
X55435Y-52308D01*
X55548Y-52365D01*
X55604Y-52477D01*
X55604Y-53096D01*
X56167Y-53096D02*
X56167Y-52308D01*
X56167Y-52421D02*
X56223Y-52365D01*
X56335Y-52308D01*
X56504Y-52308D01*
X56616Y-52365D01*
X56673Y-52477D01*
X56673Y-53096D01*
X56673Y-52477D02*
X56729Y-52365D01*
X56841Y-52308D01*
X57010Y-52308D01*
X57123Y-52365D01*
X57179Y-52477D01*
X57179Y-53096D01*
X59485Y-51858D02*
X58473Y-53377D01*
X61003Y-51915D02*
X61116Y-51915D01*
X61228Y-51971D01*
X61285Y-52027D01*
X61341Y-52140D01*
X61397Y-52365D01*
X61397Y-52646D01*
X61341Y-52871D01*
X61285Y-52983D01*
X61228Y-53039D01*
X61116Y-53096D01*
X61003Y-53096D01*
X60891Y-53039D01*
X60835Y-52983D01*
X60778Y-52871D01*
X60722Y-52646D01*
X60722Y-52365D01*
X60778Y-52140D01*
X60835Y-52027D01*
X60891Y-51971D01*
X61003Y-51915D01*
X61903Y-52983D02*
X61960Y-53039D01*
X61903Y-53096D01*
X61847Y-53039D01*
X61903Y-52983D01*
X61903Y-53096D01*
X62691Y-51915D02*
X62803Y-51915D01*
X62916Y-51971D01*
X62972Y-52027D01*
X63028Y-52140D01*
X63084Y-52365D01*
X63084Y-52646D01*
X63028Y-52871D01*
X62972Y-52983D01*
X62916Y-53039D01*
X62803Y-53096D01*
X62691Y-53096D01*
X62578Y-53039D01*
X62522Y-52983D01*
X62466Y-52871D01*
X62410Y-52646D01*
X62410Y-52365D01*
X62466Y-52140D01*
X62522Y-52027D01*
X62578Y-51971D01*
X62691Y-51915D01*
X63478Y-51915D02*
X64209Y-51915D01*
X63816Y-52365D01*
X63984Y-52365D01*
X64097Y-52421D01*
X64153Y-52477D01*
X64209Y-52589D01*
X64209Y-52871D01*
X64153Y-52983D01*
X64097Y-53039D01*
X63984Y-53096D01*
X63647Y-53096D01*
X63534Y-53039D01*
X63478Y-52983D01*
X64659Y-52027D02*
X64715Y-51971D01*
X64828Y-51915D01*
X65109Y-51915D01*
X65222Y-51971D01*
X65278Y-52027D01*
X65334Y-52140D01*
X65334Y-52252D01*
X65278Y-52421D01*
X64603Y-53096D01*
X65334Y-53096D01*
X65784Y-51915D02*
X65784Y-52140D01*
X66234Y-51915D02*
X66234Y-52140D01*
X67978Y-53546D02*
X67921Y-53489D01*
X67809Y-53321D01*
X67753Y-53208D01*
X67696Y-53039D01*
X67640Y-52758D01*
X67640Y-52533D01*
X67696Y-52252D01*
X67753Y-52083D01*
X67809Y-51971D01*
X67921Y-51802D01*
X67978Y-51746D01*
X68934Y-51915D02*
X68709Y-51915D01*
X68596Y-51971D01*
X68540Y-52027D01*
X68428Y-52196D01*
X68371Y-52421D01*
X68371Y-52871D01*
X68428Y-52983D01*
X68484Y-53039D01*
X68596Y-53096D01*
X68821Y-53096D01*
X68934Y-53039D01*
X68990Y-52983D01*
X69046Y-52871D01*
X69046Y-52589D01*
X68990Y-52477D01*
X68934Y-52421D01*
X68821Y-52365D01*
X68596Y-52365D01*
X68484Y-52421D01*
X68428Y-52477D01*
X68371Y-52589D01*
X70452Y-53096D02*
X70452Y-51915D01*
X70958Y-53096D02*
X70958Y-52477D01*
X70902Y-52365D01*
X70790Y-52308D01*
X70621Y-52308D01*
X70508Y-52365D01*
X70452Y-52421D01*
X71690Y-53096D02*
X71577Y-53039D01*
X71521Y-52983D01*
X71465Y-52871D01*
X71465Y-52533D01*
X71521Y-52421D01*
X71577Y-52365D01*
X71690Y-52308D01*
X71858Y-52308D01*
X71971Y-52365D01*
X72027Y-52421D01*
X72083Y-52533D01*
X72083Y-52871D01*
X72027Y-52983D01*
X71971Y-53039D01*
X71858Y-53096D01*
X71690Y-53096D01*
X72758Y-53096D02*
X72646Y-53039D01*
X72589Y-52927D01*
X72589Y-51915D01*
X73658Y-53039D02*
X73546Y-53096D01*
X73321Y-53096D01*
X73208Y-53039D01*
X73152Y-52927D01*
X73152Y-52477D01*
X73208Y-52365D01*
X73321Y-52308D01*
X73546Y-52308D01*
X73658Y-52365D01*
X73714Y-52477D01*
X73714Y-52589D01*
X73152Y-52702D01*
X74164Y-53039D02*
X74277Y-53096D01*
X74502Y-53096D01*
X74614Y-53039D01*
X74670Y-52927D01*
X74670Y-52871D01*
X74614Y-52758D01*
X74502Y-52702D01*
X74333Y-52702D01*
X74221Y-52646D01*
X74164Y-52533D01*
X74164Y-52477D01*
X74221Y-52365D01*
X74333Y-52308D01*
X74502Y-52308D01*
X74614Y-52365D01*
X75064Y-53546D02*
X75120Y-53489D01*
X75233Y-53321D01*
X75289Y-53208D01*
X75345Y-53039D01*
X75402Y-52758D01*
X75402Y-52533D01*
X75345Y-52252D01*
X75289Y-52083D01*
X75233Y-51971D01*
X75120Y-51802D01*
X75064Y-51746D01*
G54D12*
X49586Y-54177D02*
G75*
G03X49586Y-54177I-200J0D01*
G74*
G01*
G54D13*
X51273Y-54655D02*
X50598Y-54655D01*
X50936Y-54655D02*
X50936Y-53474D01*
X50823Y-53642D01*
X50711Y-53755D01*
X50598Y-53811D01*
X51780Y-54542D02*
X51836Y-54598D01*
X51780Y-54655D01*
X51723Y-54598D01*
X51780Y-54542D01*
X51780Y-54655D01*
X52567Y-53474D02*
X52679Y-53474D01*
X52792Y-53530D01*
X52848Y-53586D01*
X52904Y-53699D01*
X52961Y-53924D01*
X52961Y-54205D01*
X52904Y-54430D01*
X52848Y-54542D01*
X52792Y-54598D01*
X52679Y-54655D01*
X52567Y-54655D01*
X52455Y-54598D01*
X52398Y-54542D01*
X52342Y-54430D01*
X52286Y-54205D01*
X52286Y-53924D01*
X52342Y-53699D01*
X52398Y-53586D01*
X52455Y-53530D01*
X52567Y-53474D01*
X53411Y-53586D02*
X53467Y-53530D01*
X53579Y-53474D01*
X53861Y-53474D01*
X53973Y-53530D01*
X54029Y-53586D01*
X54086Y-53699D01*
X54086Y-53811D01*
X54029Y-53980D01*
X53354Y-54655D01*
X54086Y-54655D01*
X54592Y-54655D02*
X54592Y-53867D01*
X54592Y-53980D02*
X54648Y-53924D01*
X54760Y-53867D01*
X54929Y-53867D01*
X55042Y-53924D01*
X55098Y-54036D01*
X55098Y-54655D01*
X55098Y-54036D02*
X55154Y-53924D01*
X55267Y-53867D01*
X55435Y-53867D01*
X55548Y-53924D01*
X55604Y-54036D01*
X55604Y-54655D01*
X56167Y-54655D02*
X56167Y-53867D01*
X56167Y-53980D02*
X56223Y-53924D01*
X56335Y-53867D01*
X56504Y-53867D01*
X56616Y-53924D01*
X56673Y-54036D01*
X56673Y-54655D01*
X56673Y-54036D02*
X56729Y-53924D01*
X56841Y-53867D01*
X57010Y-53867D01*
X57123Y-53924D01*
X57179Y-54036D01*
X57179Y-54655D01*
X59485Y-53417D02*
X58473Y-54936D01*
X61003Y-53474D02*
X61116Y-53474D01*
X61228Y-53530D01*
X61285Y-53586D01*
X61341Y-53699D01*
X61397Y-53924D01*
X61397Y-54205D01*
X61341Y-54430D01*
X61285Y-54542D01*
X61228Y-54598D01*
X61116Y-54655D01*
X61003Y-54655D01*
X60891Y-54598D01*
X60835Y-54542D01*
X60778Y-54430D01*
X60722Y-54205D01*
X60722Y-53924D01*
X60778Y-53699D01*
X60835Y-53586D01*
X60891Y-53530D01*
X61003Y-53474D01*
X61903Y-54542D02*
X61960Y-54598D01*
X61903Y-54655D01*
X61847Y-54598D01*
X61903Y-54542D01*
X61903Y-54655D01*
X62691Y-53474D02*
X62803Y-53474D01*
X62916Y-53530D01*
X62972Y-53586D01*
X63028Y-53699D01*
X63084Y-53924D01*
X63084Y-54205D01*
X63028Y-54430D01*
X62972Y-54542D01*
X62916Y-54598D01*
X62803Y-54655D01*
X62691Y-54655D01*
X62578Y-54598D01*
X62522Y-54542D01*
X62466Y-54430D01*
X62410Y-54205D01*
X62410Y-53924D01*
X62466Y-53699D01*
X62522Y-53586D01*
X62578Y-53530D01*
X62691Y-53474D01*
X64097Y-53867D02*
X64097Y-54655D01*
X63816Y-53417D02*
X63534Y-54261D01*
X64266Y-54261D01*
X64940Y-53474D02*
X65053Y-53474D01*
X65165Y-53530D01*
X65222Y-53586D01*
X65278Y-53699D01*
X65334Y-53924D01*
X65334Y-54205D01*
X65278Y-54430D01*
X65222Y-54542D01*
X65165Y-54598D01*
X65053Y-54655D01*
X64940Y-54655D01*
X64828Y-54598D01*
X64772Y-54542D01*
X64715Y-54430D01*
X64659Y-54205D01*
X64659Y-53924D01*
X64715Y-53699D01*
X64772Y-53586D01*
X64828Y-53530D01*
X64940Y-53474D01*
X65784Y-53474D02*
X65784Y-53699D01*
X66234Y-53474D02*
X66234Y-53699D01*
X67978Y-55105D02*
X67921Y-55048D01*
X67809Y-54880D01*
X67753Y-54767D01*
X67696Y-54598D01*
X67640Y-54317D01*
X67640Y-54092D01*
X67696Y-53811D01*
X67753Y-53642D01*
X67809Y-53530D01*
X67921Y-53361D01*
X67978Y-53305D01*
X68934Y-53867D02*
X68934Y-54655D01*
X68652Y-53417D02*
X68371Y-54261D01*
X69102Y-54261D01*
X70059Y-53474D02*
X69834Y-53474D01*
X69721Y-53530D01*
X69665Y-53586D01*
X69552Y-53755D01*
X69496Y-53980D01*
X69496Y-54430D01*
X69552Y-54542D01*
X69609Y-54598D01*
X69721Y-54655D01*
X69946Y-54655D01*
X70059Y-54598D01*
X70115Y-54542D01*
X70171Y-54430D01*
X70171Y-54149D01*
X70115Y-54036D01*
X70059Y-53980D01*
X69946Y-53924D01*
X69721Y-53924D01*
X69609Y-53980D01*
X69552Y-54036D01*
X69496Y-54149D01*
X71577Y-54655D02*
X71577Y-53474D01*
X72083Y-54655D02*
X72083Y-54036D01*
X72027Y-53924D01*
X71915Y-53867D01*
X71746Y-53867D01*
X71633Y-53924D01*
X71577Y-53980D01*
X72814Y-54655D02*
X72702Y-54598D01*
X72646Y-54542D01*
X72589Y-54430D01*
X72589Y-54092D01*
X72646Y-53980D01*
X72702Y-53924D01*
X72814Y-53867D01*
X72983Y-53867D01*
X73096Y-53924D01*
X73152Y-53980D01*
X73208Y-54092D01*
X73208Y-54430D01*
X73152Y-54542D01*
X73096Y-54598D01*
X72983Y-54655D01*
X72814Y-54655D01*
X73883Y-54655D02*
X73771Y-54598D01*
X73714Y-54486D01*
X73714Y-53474D01*
X74783Y-54598D02*
X74670Y-54655D01*
X74446Y-54655D01*
X74333Y-54598D01*
X74277Y-54486D01*
X74277Y-54036D01*
X74333Y-53924D01*
X74446Y-53867D01*
X74670Y-53867D01*
X74783Y-53924D01*
X74839Y-54036D01*
X74839Y-54149D01*
X74277Y-54261D01*
X75289Y-54598D02*
X75402Y-54655D01*
X75627Y-54655D01*
X75739Y-54598D01*
X75795Y-54486D01*
X75795Y-54430D01*
X75739Y-54317D01*
X75627Y-54261D01*
X75458Y-54261D01*
X75345Y-54205D01*
X75289Y-54092D01*
X75289Y-54036D01*
X75345Y-53924D01*
X75458Y-53867D01*
X75627Y-53867D01*
X75739Y-53924D01*
X76189Y-55105D02*
X76245Y-55048D01*
X76358Y-54880D01*
X76414Y-54767D01*
X76470Y-54598D01*
X76526Y-54317D01*
X76526Y-54092D01*
X76470Y-53811D01*
X76414Y-53642D01*
X76358Y-53530D01*
X76245Y-53361D01*
X76189Y-53305D01*
X49361Y-55511D02*
X49361Y-55961D01*
X49136Y-55736D02*
X49586Y-55736D01*
X51273Y-56214D02*
X50598Y-56214D01*
X50936Y-56214D02*
X50936Y-55033D01*
X50823Y-55201D01*
X50711Y-55314D01*
X50598Y-55370D01*
X51780Y-56101D02*
X51836Y-56158D01*
X51780Y-56214D01*
X51723Y-56158D01*
X51780Y-56101D01*
X51780Y-56214D01*
X52961Y-56214D02*
X52286Y-56214D01*
X52623Y-56214D02*
X52623Y-55033D01*
X52511Y-55201D01*
X52398Y-55314D01*
X52286Y-55370D01*
X53973Y-55426D02*
X53973Y-56214D01*
X53692Y-54976D02*
X53411Y-55820D01*
X54142Y-55820D01*
X54592Y-56214D02*
X54592Y-55426D01*
X54592Y-55539D02*
X54648Y-55483D01*
X54760Y-55426D01*
X54929Y-55426D01*
X55042Y-55483D01*
X55098Y-55595D01*
X55098Y-56214D01*
X55098Y-55595D02*
X55154Y-55483D01*
X55267Y-55426D01*
X55435Y-55426D01*
X55548Y-55483D01*
X55604Y-55595D01*
X55604Y-56214D01*
X56167Y-56214D02*
X56167Y-55426D01*
X56167Y-55539D02*
X56223Y-55483D01*
X56335Y-55426D01*
X56504Y-55426D01*
X56616Y-55483D01*
X56673Y-55595D01*
X56673Y-56214D01*
X56673Y-55595D02*
X56729Y-55483D01*
X56841Y-55426D01*
X57010Y-55426D01*
X57123Y-55483D01*
X57179Y-55595D01*
X57179Y-56214D01*
X59485Y-54976D02*
X58473Y-56495D01*
X61003Y-55033D02*
X61116Y-55033D01*
X61228Y-55089D01*
X61285Y-55145D01*
X61341Y-55258D01*
X61397Y-55483D01*
X61397Y-55764D01*
X61341Y-55989D01*
X61285Y-56101D01*
X61228Y-56158D01*
X61116Y-56214D01*
X61003Y-56214D01*
X60891Y-56158D01*
X60835Y-56101D01*
X60778Y-55989D01*
X60722Y-55764D01*
X60722Y-55483D01*
X60778Y-55258D01*
X60835Y-55145D01*
X60891Y-55089D01*
X61003Y-55033D01*
X61903Y-56101D02*
X61960Y-56158D01*
X61903Y-56214D01*
X61847Y-56158D01*
X61903Y-56101D01*
X61903Y-56214D01*
X62691Y-55033D02*
X62803Y-55033D01*
X62916Y-55089D01*
X62972Y-55145D01*
X63028Y-55258D01*
X63084Y-55483D01*
X63084Y-55764D01*
X63028Y-55989D01*
X62972Y-56101D01*
X62916Y-56158D01*
X62803Y-56214D01*
X62691Y-56214D01*
X62578Y-56158D01*
X62522Y-56101D01*
X62466Y-55989D01*
X62410Y-55764D01*
X62410Y-55483D01*
X62466Y-55258D01*
X62522Y-55145D01*
X62578Y-55089D01*
X62691Y-55033D01*
X64097Y-55426D02*
X64097Y-56214D01*
X63816Y-54976D02*
X63534Y-55820D01*
X64266Y-55820D01*
X65278Y-55033D02*
X64715Y-55033D01*
X64659Y-55595D01*
X64715Y-55539D01*
X64828Y-55483D01*
X65109Y-55483D01*
X65222Y-55539D01*
X65278Y-55595D01*
X65334Y-55708D01*
X65334Y-55989D01*
X65278Y-56101D01*
X65222Y-56158D01*
X65109Y-56214D01*
X64828Y-56214D01*
X64715Y-56158D01*
X64659Y-56101D01*
X65784Y-55033D02*
X65784Y-55258D01*
X66234Y-55033D02*
X66234Y-55258D01*
X67978Y-56664D02*
X67921Y-56607D01*
X67809Y-56439D01*
X67753Y-56326D01*
X67696Y-56158D01*
X67640Y-55876D01*
X67640Y-55651D01*
X67696Y-55370D01*
X67753Y-55201D01*
X67809Y-55089D01*
X67921Y-54920D01*
X67978Y-54864D01*
X68315Y-55033D02*
X69046Y-55033D01*
X68652Y-55483D01*
X68821Y-55483D01*
X68934Y-55539D01*
X68990Y-55595D01*
X69046Y-55708D01*
X69046Y-55989D01*
X68990Y-56101D01*
X68934Y-56158D01*
X68821Y-56214D01*
X68484Y-56214D01*
X68371Y-56158D01*
X68315Y-56101D01*
X70452Y-56214D02*
X70452Y-55033D01*
X70958Y-56214D02*
X70958Y-55595D01*
X70902Y-55483D01*
X70790Y-55426D01*
X70621Y-55426D01*
X70508Y-55483D01*
X70452Y-55539D01*
X71690Y-56214D02*
X71577Y-56158D01*
X71521Y-56101D01*
X71465Y-55989D01*
X71465Y-55651D01*
X71521Y-55539D01*
X71577Y-55483D01*
X71690Y-55426D01*
X71858Y-55426D01*
X71971Y-55483D01*
X72027Y-55539D01*
X72083Y-55651D01*
X72083Y-55989D01*
X72027Y-56101D01*
X71971Y-56158D01*
X71858Y-56214D01*
X71690Y-56214D01*
X72758Y-56214D02*
X72646Y-56158D01*
X72589Y-56045D01*
X72589Y-55033D01*
X73658Y-56158D02*
X73546Y-56214D01*
X73321Y-56214D01*
X73208Y-56158D01*
X73152Y-56045D01*
X73152Y-55595D01*
X73208Y-55483D01*
X73321Y-55426D01*
X73546Y-55426D01*
X73658Y-55483D01*
X73714Y-55595D01*
X73714Y-55708D01*
X73152Y-55820D01*
X74164Y-56158D02*
X74277Y-56214D01*
X74502Y-56214D01*
X74614Y-56158D01*
X74670Y-56045D01*
X74670Y-55989D01*
X74614Y-55876D01*
X74502Y-55820D01*
X74333Y-55820D01*
X74221Y-55764D01*
X74164Y-55651D01*
X74164Y-55595D01*
X74221Y-55483D01*
X74333Y-55426D01*
X74502Y-55426D01*
X74614Y-55483D01*
X75064Y-56664D02*
X75120Y-56607D01*
X75233Y-56439D01*
X75289Y-56326D01*
X75345Y-56158D01*
X75402Y-55876D01*
X75402Y-55651D01*
X75345Y-55370D01*
X75289Y-55201D01*
X75233Y-55089D01*
X75120Y-54920D01*
X75064Y-54864D01*
G54D12*
X49498Y-57507D02*
X49498Y-57083D01*
X49074Y-57083D01*
X49074Y-57507D01*
X49498Y-57507D01*
G54D13*
X51273Y-57773D02*
X50598Y-57773D01*
X50936Y-57773D02*
X50936Y-56592D01*
X50823Y-56760D01*
X50711Y-56873D01*
X50598Y-56929D01*
X51780Y-57660D02*
X51836Y-57717D01*
X51780Y-57773D01*
X51723Y-57717D01*
X51780Y-57660D01*
X51780Y-57773D01*
X52904Y-56592D02*
X52342Y-56592D01*
X52286Y-57154D01*
X52342Y-57098D01*
X52455Y-57042D01*
X52736Y-57042D01*
X52848Y-57098D01*
X52904Y-57154D01*
X52961Y-57267D01*
X52961Y-57548D01*
X52904Y-57660D01*
X52848Y-57717D01*
X52736Y-57773D01*
X52455Y-57773D01*
X52342Y-57717D01*
X52286Y-57660D01*
X53411Y-56704D02*
X53467Y-56648D01*
X53579Y-56592D01*
X53861Y-56592D01*
X53973Y-56648D01*
X54029Y-56704D01*
X54086Y-56817D01*
X54086Y-56929D01*
X54029Y-57098D01*
X53354Y-57773D01*
X54086Y-57773D01*
X54592Y-57773D02*
X54592Y-56985D01*
X54592Y-57098D02*
X54648Y-57042D01*
X54760Y-56985D01*
X54929Y-56985D01*
X55042Y-57042D01*
X55098Y-57154D01*
X55098Y-57773D01*
X55098Y-57154D02*
X55154Y-57042D01*
X55267Y-56985D01*
X55435Y-56985D01*
X55548Y-57042D01*
X55604Y-57154D01*
X55604Y-57773D01*
X56167Y-57773D02*
X56167Y-56985D01*
X56167Y-57098D02*
X56223Y-57042D01*
X56335Y-56985D01*
X56504Y-56985D01*
X56616Y-57042D01*
X56673Y-57154D01*
X56673Y-57773D01*
X56673Y-57154D02*
X56729Y-57042D01*
X56841Y-56985D01*
X57010Y-56985D01*
X57123Y-57042D01*
X57179Y-57154D01*
X57179Y-57773D01*
X59485Y-56535D02*
X58473Y-58054D01*
X61003Y-56592D02*
X61116Y-56592D01*
X61228Y-56648D01*
X61285Y-56704D01*
X61341Y-56817D01*
X61397Y-57042D01*
X61397Y-57323D01*
X61341Y-57548D01*
X61285Y-57660D01*
X61228Y-57717D01*
X61116Y-57773D01*
X61003Y-57773D01*
X60891Y-57717D01*
X60835Y-57660D01*
X60778Y-57548D01*
X60722Y-57323D01*
X60722Y-57042D01*
X60778Y-56817D01*
X60835Y-56704D01*
X60891Y-56648D01*
X61003Y-56592D01*
X61903Y-57660D02*
X61960Y-57717D01*
X61903Y-57773D01*
X61847Y-57717D01*
X61903Y-57660D01*
X61903Y-57773D01*
X62691Y-56592D02*
X62803Y-56592D01*
X62916Y-56648D01*
X62972Y-56704D01*
X63028Y-56817D01*
X63084Y-57042D01*
X63084Y-57323D01*
X63028Y-57548D01*
X62972Y-57660D01*
X62916Y-57717D01*
X62803Y-57773D01*
X62691Y-57773D01*
X62578Y-57717D01*
X62522Y-57660D01*
X62466Y-57548D01*
X62410Y-57323D01*
X62410Y-57042D01*
X62466Y-56817D01*
X62522Y-56704D01*
X62578Y-56648D01*
X62691Y-56592D01*
X64097Y-56592D02*
X63872Y-56592D01*
X63759Y-56648D01*
X63703Y-56704D01*
X63591Y-56873D01*
X63534Y-57098D01*
X63534Y-57548D01*
X63591Y-57660D01*
X63647Y-57717D01*
X63759Y-57773D01*
X63984Y-57773D01*
X64097Y-57717D01*
X64153Y-57660D01*
X64209Y-57548D01*
X64209Y-57267D01*
X64153Y-57154D01*
X64097Y-57098D01*
X63984Y-57042D01*
X63759Y-57042D01*
X63647Y-57098D01*
X63591Y-57154D01*
X63534Y-57267D01*
X64940Y-56592D02*
X65053Y-56592D01*
X65165Y-56648D01*
X65222Y-56704D01*
X65278Y-56817D01*
X65334Y-57042D01*
X65334Y-57323D01*
X65278Y-57548D01*
X65222Y-57660D01*
X65165Y-57717D01*
X65053Y-57773D01*
X64940Y-57773D01*
X64828Y-57717D01*
X64772Y-57660D01*
X64715Y-57548D01*
X64659Y-57323D01*
X64659Y-57042D01*
X64715Y-56817D01*
X64772Y-56704D01*
X64828Y-56648D01*
X64940Y-56592D01*
X65784Y-56592D02*
X65784Y-56817D01*
X66234Y-56592D02*
X66234Y-56817D01*
X67978Y-58223D02*
X67921Y-58167D01*
X67809Y-57998D01*
X67753Y-57885D01*
X67696Y-57717D01*
X67640Y-57435D01*
X67640Y-57210D01*
X67696Y-56929D01*
X67753Y-56760D01*
X67809Y-56648D01*
X67921Y-56479D01*
X67978Y-56423D01*
X68934Y-56985D02*
X68934Y-57773D01*
X68652Y-56535D02*
X68371Y-57379D01*
X69102Y-57379D01*
X70452Y-57773D02*
X70452Y-56592D01*
X70958Y-57773D02*
X70958Y-57154D01*
X70902Y-57042D01*
X70790Y-56985D01*
X70621Y-56985D01*
X70508Y-57042D01*
X70452Y-57098D01*
X71690Y-57773D02*
X71577Y-57717D01*
X71521Y-57660D01*
X71465Y-57548D01*
X71465Y-57210D01*
X71521Y-57098D01*
X71577Y-57042D01*
X71690Y-56985D01*
X71858Y-56985D01*
X71971Y-57042D01*
X72027Y-57098D01*
X72083Y-57210D01*
X72083Y-57548D01*
X72027Y-57660D01*
X71971Y-57717D01*
X71858Y-57773D01*
X71690Y-57773D01*
X72758Y-57773D02*
X72646Y-57717D01*
X72589Y-57604D01*
X72589Y-56592D01*
X73658Y-57717D02*
X73546Y-57773D01*
X73321Y-57773D01*
X73208Y-57717D01*
X73152Y-57604D01*
X73152Y-57154D01*
X73208Y-57042D01*
X73321Y-56985D01*
X73546Y-56985D01*
X73658Y-57042D01*
X73714Y-57154D01*
X73714Y-57267D01*
X73152Y-57379D01*
X74164Y-57717D02*
X74277Y-57773D01*
X74502Y-57773D01*
X74614Y-57717D01*
X74670Y-57604D01*
X74670Y-57548D01*
X74614Y-57435D01*
X74502Y-57379D01*
X74333Y-57379D01*
X74221Y-57323D01*
X74164Y-57210D01*
X74164Y-57154D01*
X74221Y-57042D01*
X74333Y-56985D01*
X74502Y-56985D01*
X74614Y-57042D01*
X75064Y-58223D02*
X75120Y-58167D01*
X75233Y-57998D01*
X75289Y-57885D01*
X75345Y-57717D01*
X75402Y-57435D01*
X75402Y-57210D01*
X75345Y-56929D01*
X75289Y-56760D01*
X75233Y-56648D01*
X75120Y-56479D01*
X75064Y-56423D01*
G54D12*
X48986Y-59454D02*
X49586Y-58854D01*
X48986Y-58254D01*
X48386Y-58854D01*
X48986Y-59454D01*
G54D13*
X50542Y-58151D02*
X51273Y-58151D01*
X50880Y-58601D01*
X51048Y-58601D01*
X51161Y-58657D01*
X51217Y-58713D01*
X51273Y-58826D01*
X51273Y-59107D01*
X51217Y-59219D01*
X51161Y-59276D01*
X51048Y-59332D01*
X50711Y-59332D01*
X50598Y-59276D01*
X50542Y-59219D01*
X51780Y-59219D02*
X51836Y-59276D01*
X51780Y-59332D01*
X51723Y-59276D01*
X51780Y-59219D01*
X51780Y-59332D01*
X52567Y-58151D02*
X52679Y-58151D01*
X52792Y-58207D01*
X52848Y-58263D01*
X52904Y-58376D01*
X52961Y-58601D01*
X52961Y-58882D01*
X52904Y-59107D01*
X52848Y-59219D01*
X52792Y-59276D01*
X52679Y-59332D01*
X52567Y-59332D01*
X52455Y-59276D01*
X52398Y-59219D01*
X52342Y-59107D01*
X52286Y-58882D01*
X52286Y-58601D01*
X52342Y-58376D01*
X52398Y-58263D01*
X52455Y-58207D01*
X52567Y-58151D01*
X54029Y-58151D02*
X53467Y-58151D01*
X53411Y-58713D01*
X53467Y-58657D01*
X53579Y-58601D01*
X53861Y-58601D01*
X53973Y-58657D01*
X54029Y-58713D01*
X54086Y-58826D01*
X54086Y-59107D01*
X54029Y-59219D01*
X53973Y-59276D01*
X53861Y-59332D01*
X53579Y-59332D01*
X53467Y-59276D01*
X53411Y-59219D01*
X54592Y-59332D02*
X54592Y-58544D01*
X54592Y-58657D02*
X54648Y-58601D01*
X54760Y-58544D01*
X54929Y-58544D01*
X55042Y-58601D01*
X55098Y-58713D01*
X55098Y-59332D01*
X55098Y-58713D02*
X55154Y-58601D01*
X55267Y-58544D01*
X55435Y-58544D01*
X55548Y-58601D01*
X55604Y-58713D01*
X55604Y-59332D01*
X56167Y-59332D02*
X56167Y-58544D01*
X56167Y-58657D02*
X56223Y-58601D01*
X56335Y-58544D01*
X56504Y-58544D01*
X56616Y-58601D01*
X56673Y-58713D01*
X56673Y-59332D01*
X56673Y-58713D02*
X56729Y-58601D01*
X56841Y-58544D01*
X57010Y-58544D01*
X57123Y-58601D01*
X57179Y-58713D01*
X57179Y-59332D01*
X59485Y-58095D02*
X58473Y-59613D01*
X61003Y-58151D02*
X61116Y-58151D01*
X61228Y-58207D01*
X61285Y-58263D01*
X61341Y-58376D01*
X61397Y-58601D01*
X61397Y-58882D01*
X61341Y-59107D01*
X61285Y-59219D01*
X61228Y-59276D01*
X61116Y-59332D01*
X61003Y-59332D01*
X60891Y-59276D01*
X60835Y-59219D01*
X60778Y-59107D01*
X60722Y-58882D01*
X60722Y-58601D01*
X60778Y-58376D01*
X60835Y-58263D01*
X60891Y-58207D01*
X61003Y-58151D01*
X61903Y-59219D02*
X61960Y-59276D01*
X61903Y-59332D01*
X61847Y-59276D01*
X61903Y-59219D01*
X61903Y-59332D01*
X63084Y-59332D02*
X62410Y-59332D01*
X62747Y-59332D02*
X62747Y-58151D01*
X62634Y-58320D01*
X62522Y-58432D01*
X62410Y-58488D01*
X63534Y-58263D02*
X63591Y-58207D01*
X63703Y-58151D01*
X63984Y-58151D01*
X64097Y-58207D01*
X64153Y-58263D01*
X64209Y-58376D01*
X64209Y-58488D01*
X64153Y-58657D01*
X63478Y-59332D01*
X64209Y-59332D01*
X64940Y-58151D02*
X65053Y-58151D01*
X65165Y-58207D01*
X65222Y-58263D01*
X65278Y-58376D01*
X65334Y-58601D01*
X65334Y-58882D01*
X65278Y-59107D01*
X65222Y-59219D01*
X65165Y-59276D01*
X65053Y-59332D01*
X64940Y-59332D01*
X64828Y-59276D01*
X64772Y-59219D01*
X64715Y-59107D01*
X64659Y-58882D01*
X64659Y-58601D01*
X64715Y-58376D01*
X64772Y-58263D01*
X64828Y-58207D01*
X64940Y-58151D01*
X65784Y-58151D02*
X65784Y-58376D01*
X66234Y-58151D02*
X66234Y-58376D01*
X67978Y-59782D02*
X67921Y-59726D01*
X67809Y-59557D01*
X67753Y-59444D01*
X67696Y-59276D01*
X67640Y-58994D01*
X67640Y-58769D01*
X67696Y-58488D01*
X67753Y-58320D01*
X67809Y-58207D01*
X67921Y-58038D01*
X67978Y-57982D01*
X68990Y-58151D02*
X68428Y-58151D01*
X68371Y-58713D01*
X68428Y-58657D01*
X68540Y-58601D01*
X68821Y-58601D01*
X68934Y-58657D01*
X68990Y-58713D01*
X69046Y-58826D01*
X69046Y-59107D01*
X68990Y-59219D01*
X68934Y-59276D01*
X68821Y-59332D01*
X68540Y-59332D01*
X68428Y-59276D01*
X68371Y-59219D01*
X70452Y-59332D02*
X70452Y-58151D01*
X70958Y-59332D02*
X70958Y-58713D01*
X70902Y-58601D01*
X70790Y-58544D01*
X70621Y-58544D01*
X70508Y-58601D01*
X70452Y-58657D01*
X71690Y-59332D02*
X71577Y-59276D01*
X71521Y-59219D01*
X71465Y-59107D01*
X71465Y-58769D01*
X71521Y-58657D01*
X71577Y-58601D01*
X71690Y-58544D01*
X71858Y-58544D01*
X71971Y-58601D01*
X72027Y-58657D01*
X72083Y-58769D01*
X72083Y-59107D01*
X72027Y-59219D01*
X71971Y-59276D01*
X71858Y-59332D01*
X71690Y-59332D01*
X72758Y-59332D02*
X72646Y-59276D01*
X72589Y-59163D01*
X72589Y-58151D01*
X73658Y-59276D02*
X73546Y-59332D01*
X73321Y-59332D01*
X73208Y-59276D01*
X73152Y-59163D01*
X73152Y-58713D01*
X73208Y-58601D01*
X73321Y-58544D01*
X73546Y-58544D01*
X73658Y-58601D01*
X73714Y-58713D01*
X73714Y-58826D01*
X73152Y-58938D01*
X74164Y-59276D02*
X74277Y-59332D01*
X74502Y-59332D01*
X74614Y-59276D01*
X74670Y-59163D01*
X74670Y-59107D01*
X74614Y-58994D01*
X74502Y-58938D01*
X74333Y-58938D01*
X74221Y-58882D01*
X74164Y-58769D01*
X74164Y-58713D01*
X74221Y-58601D01*
X74333Y-58544D01*
X74502Y-58544D01*
X74614Y-58601D01*
X75064Y-59782D02*
X75120Y-59726D01*
X75233Y-59557D01*
X75289Y-59444D01*
X75345Y-59276D01*
X75402Y-58994D01*
X75402Y-58769D01*
X75345Y-58488D01*
X75289Y-58320D01*
X75233Y-58207D01*
X75120Y-58038D01*
X75064Y-57982D01*
M02*
