G04 (created by PCBNEW (2013-07-07 BZR 4022)-stable) date 1/6/2015 11:11:12 AM*
%MOIN*%
G04 Gerber Fmt 3.4, Leading zero omitted, Abs format*
%FSLAX34Y34*%
G01*
G70*
G90*
G04 APERTURE LIST*
%ADD10C,0.00590551*%
%ADD11C,0.055*%
%ADD12R,0.06X0.06*%
%ADD13C,0.06*%
%ADD14R,0.35X0.35*%
%ADD15C,0.07*%
%ADD16R,0.07X0.07*%
%ADD17C,0.066*%
%ADD18C,0.16*%
%ADD19R,0.1X0.1*%
%ADD20C,0.1*%
%ADD21C,0.0393701*%
%ADD22C,0.01*%
G04 APERTURE END LIST*
G54D10*
G54D11*
X54724Y-40082D03*
X54724Y-37082D03*
G54D12*
X52704Y-28452D03*
G54D13*
X52704Y-27452D03*
X57704Y-28452D03*
X53704Y-27452D03*
X58704Y-28452D03*
X54704Y-27452D03*
X59704Y-28452D03*
X55704Y-27452D03*
X60704Y-28452D03*
X56704Y-27452D03*
X61704Y-28452D03*
X57704Y-27452D03*
X62704Y-28452D03*
X58704Y-27452D03*
X63704Y-28452D03*
X59704Y-27452D03*
X64704Y-28452D03*
X60704Y-27452D03*
X65704Y-28452D03*
X61704Y-27452D03*
X66704Y-28452D03*
X62704Y-27452D03*
X67704Y-28452D03*
X63704Y-27452D03*
X64704Y-27452D03*
X68704Y-28452D03*
X65704Y-27452D03*
X67704Y-27452D03*
X68704Y-27452D03*
X69704Y-27452D03*
X70704Y-27452D03*
X69704Y-28452D03*
X70704Y-28452D03*
X53704Y-28452D03*
X54704Y-28452D03*
X55704Y-28452D03*
X56704Y-28452D03*
X71704Y-28452D03*
X71704Y-27452D03*
X66704Y-27452D03*
G54D14*
X70673Y-32283D03*
G54D15*
X64173Y-31283D03*
G54D16*
X64173Y-32283D03*
G54D15*
X64173Y-33283D03*
G54D17*
X54724Y-35539D03*
X54724Y-34539D03*
G54D11*
X62204Y-31389D03*
X62204Y-32389D03*
G54D12*
X54326Y-44681D03*
G54D13*
X55326Y-44681D03*
X56326Y-44681D03*
G54D12*
X58326Y-44681D03*
G54D13*
X59326Y-44681D03*
X60326Y-44681D03*
G54D18*
X50787Y-27952D03*
X50787Y-47637D03*
X73622Y-47637D03*
X73622Y-27952D03*
G54D19*
X51181Y-34433D03*
G54D20*
X51181Y-36433D03*
G54D19*
X51181Y-40338D03*
G54D20*
X51181Y-42338D03*
G54D21*
X54724Y-35539D02*
X54724Y-37082D01*
X51181Y-36433D02*
X51181Y-40338D01*
G54D22*
X64173Y-33283D02*
X57929Y-33283D01*
X57929Y-33283D02*
X52704Y-28452D01*
G54D10*
G36*
X73750Y-46587D02*
X73414Y-46587D01*
X73028Y-46747D01*
X72732Y-47042D01*
X72673Y-47184D01*
X72673Y-33983D01*
X72673Y-30483D01*
X72635Y-30392D01*
X72565Y-30321D01*
X72473Y-30283D01*
X72373Y-30283D01*
X68873Y-30283D01*
X68781Y-30321D01*
X68711Y-30391D01*
X68673Y-30483D01*
X68673Y-30582D01*
X68673Y-34082D01*
X68711Y-34174D01*
X68781Y-34245D01*
X68873Y-34283D01*
X68972Y-34283D01*
X72472Y-34283D01*
X72564Y-34245D01*
X72635Y-34175D01*
X72673Y-34083D01*
X72673Y-33983D01*
X72673Y-47184D01*
X72572Y-47428D01*
X72572Y-47599D01*
X64777Y-47599D01*
X60876Y-47599D01*
X60876Y-44572D01*
X60793Y-44369D01*
X60638Y-44215D01*
X60436Y-44131D01*
X60217Y-44131D01*
X60015Y-44214D01*
X59860Y-44369D01*
X59829Y-44444D01*
X59808Y-44393D01*
X59712Y-44365D01*
X59641Y-44436D01*
X59641Y-44295D01*
X59614Y-44199D01*
X59408Y-44126D01*
X59190Y-44137D01*
X59038Y-44199D01*
X59011Y-44295D01*
X59326Y-44610D01*
X59641Y-44295D01*
X59641Y-44436D01*
X59397Y-44681D01*
X59712Y-44996D01*
X59808Y-44968D01*
X59827Y-44913D01*
X59860Y-44992D01*
X60014Y-45147D01*
X60216Y-45231D01*
X60435Y-45231D01*
X60637Y-45147D01*
X60792Y-44993D01*
X60876Y-44790D01*
X60876Y-44572D01*
X60876Y-47599D01*
X59641Y-47599D01*
X59641Y-45067D01*
X59326Y-44751D01*
X59256Y-44822D01*
X59256Y-44681D01*
X58940Y-44365D01*
X58876Y-44384D01*
X58876Y-44331D01*
X58838Y-44239D01*
X58768Y-44169D01*
X58676Y-44131D01*
X58577Y-44131D01*
X57977Y-44131D01*
X57885Y-44169D01*
X57814Y-44239D01*
X57776Y-44331D01*
X57776Y-44430D01*
X57776Y-45030D01*
X57814Y-45122D01*
X57884Y-45192D01*
X57976Y-45231D01*
X58076Y-45231D01*
X58676Y-45231D01*
X58768Y-45193D01*
X58838Y-45122D01*
X58876Y-45031D01*
X58876Y-44977D01*
X58940Y-44996D01*
X59256Y-44681D01*
X59256Y-44822D01*
X59011Y-45067D01*
X59038Y-45162D01*
X59245Y-45235D01*
X59463Y-45224D01*
X59614Y-45162D01*
X59641Y-45067D01*
X59641Y-47599D01*
X56876Y-47599D01*
X56876Y-44572D01*
X56793Y-44369D01*
X56638Y-44215D01*
X56436Y-44131D01*
X56217Y-44131D01*
X56015Y-44214D01*
X55860Y-44369D01*
X55829Y-44444D01*
X55808Y-44393D01*
X55712Y-44365D01*
X55641Y-44436D01*
X55641Y-44295D01*
X55614Y-44199D01*
X55408Y-44126D01*
X55304Y-44131D01*
X55304Y-35424D01*
X55216Y-35211D01*
X55053Y-35047D01*
X55032Y-35039D01*
X55052Y-35031D01*
X55215Y-34868D01*
X55304Y-34655D01*
X55304Y-34424D01*
X55216Y-34211D01*
X55053Y-34047D01*
X54840Y-33959D01*
X54609Y-33959D01*
X54396Y-34047D01*
X54232Y-34210D01*
X54144Y-34423D01*
X54144Y-34654D01*
X54232Y-34867D01*
X54395Y-35030D01*
X54415Y-35039D01*
X54396Y-35047D01*
X54232Y-35210D01*
X54144Y-35423D01*
X54144Y-35654D01*
X54232Y-35867D01*
X54277Y-35912D01*
X54277Y-36789D01*
X54199Y-36977D01*
X54199Y-37186D01*
X54279Y-37379D01*
X54426Y-37527D01*
X54619Y-37607D01*
X54828Y-37607D01*
X55021Y-37528D01*
X55169Y-37380D01*
X55249Y-37187D01*
X55249Y-36978D01*
X55171Y-36789D01*
X55171Y-35912D01*
X55215Y-35868D01*
X55304Y-35655D01*
X55304Y-35424D01*
X55304Y-44131D01*
X55254Y-44134D01*
X55254Y-40158D01*
X55242Y-39949D01*
X55184Y-39809D01*
X55092Y-39785D01*
X55021Y-39856D01*
X55021Y-39714D01*
X54997Y-39622D01*
X54800Y-39552D01*
X54591Y-39564D01*
X54451Y-39622D01*
X54427Y-39714D01*
X54724Y-40011D01*
X55021Y-39714D01*
X55021Y-39856D01*
X54795Y-40082D01*
X55092Y-40379D01*
X55184Y-40355D01*
X55254Y-40158D01*
X55254Y-44134D01*
X55190Y-44137D01*
X55038Y-44199D01*
X55021Y-44260D01*
X55021Y-40450D01*
X54724Y-40153D01*
X54653Y-40224D01*
X54653Y-40082D01*
X54356Y-39785D01*
X54263Y-39809D01*
X54194Y-40006D01*
X54205Y-40215D01*
X54263Y-40355D01*
X54356Y-40379D01*
X54653Y-40082D01*
X54653Y-40224D01*
X54427Y-40450D01*
X54451Y-40543D01*
X54648Y-40612D01*
X54857Y-40601D01*
X54997Y-40543D01*
X55021Y-40450D01*
X55021Y-44260D01*
X55011Y-44295D01*
X55326Y-44610D01*
X55641Y-44295D01*
X55641Y-44436D01*
X55397Y-44681D01*
X55712Y-44996D01*
X55808Y-44968D01*
X55827Y-44913D01*
X55860Y-44992D01*
X56014Y-45147D01*
X56216Y-45231D01*
X56435Y-45231D01*
X56637Y-45147D01*
X56792Y-44993D01*
X56876Y-44790D01*
X56876Y-44572D01*
X56876Y-47599D01*
X55641Y-47599D01*
X55641Y-45067D01*
X55326Y-44751D01*
X55256Y-44822D01*
X55256Y-44681D01*
X54940Y-44365D01*
X54876Y-44384D01*
X54876Y-44331D01*
X54838Y-44239D01*
X54768Y-44169D01*
X54676Y-44131D01*
X54577Y-44131D01*
X53977Y-44131D01*
X53885Y-44169D01*
X53814Y-44239D01*
X53776Y-44331D01*
X53776Y-44430D01*
X53776Y-45030D01*
X53814Y-45122D01*
X53884Y-45192D01*
X53976Y-45231D01*
X54076Y-45231D01*
X54676Y-45231D01*
X54768Y-45193D01*
X54838Y-45122D01*
X54876Y-45031D01*
X54876Y-44977D01*
X54940Y-44996D01*
X55256Y-44681D01*
X55256Y-44822D01*
X55011Y-45067D01*
X55038Y-45162D01*
X55245Y-45235D01*
X55463Y-45224D01*
X55614Y-45162D01*
X55641Y-45067D01*
X55641Y-47599D01*
X51934Y-47599D01*
X51934Y-42468D01*
X51926Y-42169D01*
X51827Y-41930D01*
X51711Y-41878D01*
X51641Y-41949D01*
X51641Y-41807D01*
X51589Y-41691D01*
X51310Y-41584D01*
X51012Y-41592D01*
X50773Y-41691D01*
X50721Y-41807D01*
X51181Y-42267D01*
X51641Y-41807D01*
X51641Y-41949D01*
X51251Y-42338D01*
X51711Y-42798D01*
X51827Y-42746D01*
X51934Y-42468D01*
X51934Y-47599D01*
X51837Y-47599D01*
X51837Y-47429D01*
X51678Y-47043D01*
X51641Y-47006D01*
X51641Y-42869D01*
X51181Y-42409D01*
X50721Y-42869D01*
X50773Y-42985D01*
X51051Y-43092D01*
X51349Y-43084D01*
X51589Y-42985D01*
X51641Y-42869D01*
X51641Y-47006D01*
X51382Y-46748D01*
X50997Y-46587D01*
X50666Y-46587D01*
X50563Y-42759D01*
X50650Y-42798D01*
X51110Y-42338D01*
X50650Y-41878D01*
X50540Y-41927D01*
X50516Y-41027D01*
X50539Y-41050D01*
X50631Y-41088D01*
X50730Y-41088D01*
X51730Y-41088D01*
X51822Y-41050D01*
X51892Y-40980D01*
X51931Y-40888D01*
X51931Y-40789D01*
X51931Y-39789D01*
X51893Y-39697D01*
X51822Y-39626D01*
X51731Y-39588D01*
X51631Y-39588D01*
X51627Y-39588D01*
X51627Y-37046D01*
X51816Y-36858D01*
X51930Y-36582D01*
X51931Y-36284D01*
X51931Y-36284D01*
X51931Y-34883D01*
X51931Y-33883D01*
X51893Y-33791D01*
X51822Y-33721D01*
X51731Y-33683D01*
X51631Y-33683D01*
X50631Y-33683D01*
X50539Y-33721D01*
X50469Y-33791D01*
X50431Y-33883D01*
X50431Y-33982D01*
X50431Y-34982D01*
X50469Y-35074D01*
X50539Y-35144D01*
X50631Y-35183D01*
X50730Y-35183D01*
X51730Y-35183D01*
X51822Y-35145D01*
X51892Y-35074D01*
X51931Y-34983D01*
X51931Y-34883D01*
X51931Y-36284D01*
X51817Y-36008D01*
X51606Y-35797D01*
X51330Y-35683D01*
X51032Y-35682D01*
X50756Y-35796D01*
X50545Y-36007D01*
X50431Y-36283D01*
X50430Y-36581D01*
X50544Y-36857D01*
X50734Y-37047D01*
X50734Y-39588D01*
X50631Y-39588D01*
X50539Y-39626D01*
X50480Y-39686D01*
X50197Y-29231D01*
X51351Y-29231D01*
X52154Y-28160D01*
X52154Y-28202D01*
X52154Y-28802D01*
X52192Y-28894D01*
X52262Y-28964D01*
X52354Y-29002D01*
X52454Y-29002D01*
X52857Y-29002D01*
X57721Y-33507D01*
X57821Y-33568D01*
X57937Y-33587D01*
X57952Y-33583D01*
X63647Y-33583D01*
X63664Y-33622D01*
X63832Y-33791D01*
X64053Y-33883D01*
X64292Y-33883D01*
X64512Y-33792D01*
X64681Y-33623D01*
X64773Y-33403D01*
X64773Y-33164D01*
X64682Y-32944D01*
X64607Y-32869D01*
X64664Y-32845D01*
X64735Y-32775D01*
X64773Y-32683D01*
X64773Y-32583D01*
X64773Y-31883D01*
X64735Y-31792D01*
X64665Y-31721D01*
X64618Y-31702D01*
X64640Y-31679D01*
X64595Y-31634D01*
X64695Y-31601D01*
X64777Y-31377D01*
X64767Y-31138D01*
X64695Y-30965D01*
X64595Y-30932D01*
X64524Y-31002D01*
X64524Y-30861D01*
X64491Y-30760D01*
X64266Y-30678D01*
X64028Y-30689D01*
X63855Y-30760D01*
X63821Y-30861D01*
X64173Y-31212D01*
X64524Y-30861D01*
X64524Y-31002D01*
X64243Y-31283D01*
X64249Y-31289D01*
X64178Y-31359D01*
X64173Y-31354D01*
X64167Y-31359D01*
X64102Y-31294D01*
X64096Y-31289D01*
X64102Y-31283D01*
X63751Y-30932D01*
X63650Y-30965D01*
X63568Y-31189D01*
X63578Y-31428D01*
X63650Y-31601D01*
X63751Y-31634D01*
X63705Y-31679D01*
X63728Y-31702D01*
X63681Y-31721D01*
X63611Y-31791D01*
X63573Y-31883D01*
X63573Y-31982D01*
X63573Y-32682D01*
X63611Y-32774D01*
X63681Y-32845D01*
X63738Y-32869D01*
X63664Y-32943D01*
X63648Y-32983D01*
X62734Y-32983D01*
X62734Y-31465D01*
X62723Y-31257D01*
X62665Y-31116D01*
X62572Y-31092D01*
X62501Y-31163D01*
X62501Y-31021D01*
X62477Y-30929D01*
X62280Y-30859D01*
X62071Y-30871D01*
X61931Y-30929D01*
X61907Y-31021D01*
X62204Y-31319D01*
X62501Y-31021D01*
X62501Y-31163D01*
X62275Y-31389D01*
X62572Y-31686D01*
X62665Y-31662D01*
X62734Y-31465D01*
X62734Y-32983D01*
X62729Y-32983D01*
X62729Y-32285D01*
X62650Y-32092D01*
X62502Y-31944D01*
X62375Y-31892D01*
X62477Y-31850D01*
X62501Y-31757D01*
X62204Y-31460D01*
X62134Y-31531D01*
X62134Y-31389D01*
X61836Y-31092D01*
X61744Y-31116D01*
X61674Y-31313D01*
X61686Y-31522D01*
X61744Y-31662D01*
X61836Y-31686D01*
X62134Y-31389D01*
X62134Y-31531D01*
X61907Y-31757D01*
X61931Y-31850D01*
X62041Y-31889D01*
X61907Y-31944D01*
X61759Y-32091D01*
X61679Y-32284D01*
X61679Y-32493D01*
X61759Y-32686D01*
X61906Y-32834D01*
X62099Y-32914D01*
X62308Y-32914D01*
X62501Y-32835D01*
X62649Y-32687D01*
X62729Y-32494D01*
X62729Y-32285D01*
X62729Y-32983D01*
X58038Y-32983D01*
X53740Y-29002D01*
X53813Y-29002D01*
X54015Y-28919D01*
X54170Y-28764D01*
X54204Y-28682D01*
X54238Y-28763D01*
X54392Y-28918D01*
X54594Y-29002D01*
X54813Y-29002D01*
X55015Y-28919D01*
X55170Y-28764D01*
X55204Y-28682D01*
X55238Y-28763D01*
X55392Y-28918D01*
X55594Y-29002D01*
X55813Y-29002D01*
X56015Y-28919D01*
X56170Y-28764D01*
X56204Y-28682D01*
X56238Y-28763D01*
X56392Y-28918D01*
X56594Y-29002D01*
X56813Y-29002D01*
X57015Y-28919D01*
X57170Y-28764D01*
X57204Y-28682D01*
X57238Y-28763D01*
X57392Y-28918D01*
X57594Y-29002D01*
X57813Y-29002D01*
X58015Y-28919D01*
X58170Y-28764D01*
X58204Y-28682D01*
X58238Y-28763D01*
X58392Y-28918D01*
X58594Y-29002D01*
X58813Y-29002D01*
X59015Y-28919D01*
X59170Y-28764D01*
X59204Y-28682D01*
X59238Y-28763D01*
X59392Y-28918D01*
X59594Y-29002D01*
X59813Y-29002D01*
X60015Y-28919D01*
X60170Y-28764D01*
X60204Y-28682D01*
X60238Y-28763D01*
X60392Y-28918D01*
X60594Y-29002D01*
X60813Y-29002D01*
X61015Y-28919D01*
X61170Y-28764D01*
X61204Y-28682D01*
X61238Y-28763D01*
X61392Y-28918D01*
X61594Y-29002D01*
X61813Y-29002D01*
X62015Y-28919D01*
X62170Y-28764D01*
X62204Y-28682D01*
X62238Y-28763D01*
X62392Y-28918D01*
X62594Y-29002D01*
X62813Y-29002D01*
X63015Y-28919D01*
X63170Y-28764D01*
X63204Y-28682D01*
X63238Y-28763D01*
X63392Y-28918D01*
X63594Y-29002D01*
X63813Y-29002D01*
X64015Y-28919D01*
X64170Y-28764D01*
X64204Y-28682D01*
X64238Y-28763D01*
X64392Y-28918D01*
X64594Y-29002D01*
X64813Y-29002D01*
X65015Y-28919D01*
X65170Y-28764D01*
X65204Y-28682D01*
X65238Y-28763D01*
X65392Y-28918D01*
X65594Y-29002D01*
X65813Y-29002D01*
X66015Y-28919D01*
X66170Y-28764D01*
X66204Y-28682D01*
X66238Y-28763D01*
X66392Y-28918D01*
X66594Y-29002D01*
X66813Y-29002D01*
X67015Y-28919D01*
X67170Y-28764D01*
X67204Y-28682D01*
X67238Y-28763D01*
X67392Y-28918D01*
X67594Y-29002D01*
X67813Y-29002D01*
X68015Y-28919D01*
X68170Y-28764D01*
X68204Y-28682D01*
X68238Y-28763D01*
X68392Y-28918D01*
X68594Y-29002D01*
X68813Y-29002D01*
X69015Y-28919D01*
X69170Y-28764D01*
X69204Y-28682D01*
X69238Y-28763D01*
X69392Y-28918D01*
X69594Y-29002D01*
X69813Y-29002D01*
X70015Y-28919D01*
X70170Y-28764D01*
X70204Y-28682D01*
X70238Y-28763D01*
X70392Y-28918D01*
X70594Y-29002D01*
X70813Y-29002D01*
X71015Y-28919D01*
X71170Y-28764D01*
X71204Y-28682D01*
X71238Y-28763D01*
X71392Y-28918D01*
X71594Y-29002D01*
X71813Y-29002D01*
X72015Y-28919D01*
X72170Y-28764D01*
X72254Y-28562D01*
X72254Y-28343D01*
X72171Y-28141D01*
X72016Y-27986D01*
X71934Y-27952D01*
X72015Y-27919D01*
X72170Y-27764D01*
X72254Y-27562D01*
X72254Y-27343D01*
X72208Y-27231D01*
X72858Y-27231D01*
X72732Y-27357D01*
X72572Y-27742D01*
X72571Y-28160D01*
X72731Y-28546D01*
X73026Y-28842D01*
X73320Y-28964D01*
X73750Y-46587D01*
X73750Y-46587D01*
G37*
G54D22*
X73750Y-46587D02*
X73414Y-46587D01*
X73028Y-46747D01*
X72732Y-47042D01*
X72673Y-47184D01*
X72673Y-33983D01*
X72673Y-30483D01*
X72635Y-30392D01*
X72565Y-30321D01*
X72473Y-30283D01*
X72373Y-30283D01*
X68873Y-30283D01*
X68781Y-30321D01*
X68711Y-30391D01*
X68673Y-30483D01*
X68673Y-30582D01*
X68673Y-34082D01*
X68711Y-34174D01*
X68781Y-34245D01*
X68873Y-34283D01*
X68972Y-34283D01*
X72472Y-34283D01*
X72564Y-34245D01*
X72635Y-34175D01*
X72673Y-34083D01*
X72673Y-33983D01*
X72673Y-47184D01*
X72572Y-47428D01*
X72572Y-47599D01*
X64777Y-47599D01*
X60876Y-47599D01*
X60876Y-44572D01*
X60793Y-44369D01*
X60638Y-44215D01*
X60436Y-44131D01*
X60217Y-44131D01*
X60015Y-44214D01*
X59860Y-44369D01*
X59829Y-44444D01*
X59808Y-44393D01*
X59712Y-44365D01*
X59641Y-44436D01*
X59641Y-44295D01*
X59614Y-44199D01*
X59408Y-44126D01*
X59190Y-44137D01*
X59038Y-44199D01*
X59011Y-44295D01*
X59326Y-44610D01*
X59641Y-44295D01*
X59641Y-44436D01*
X59397Y-44681D01*
X59712Y-44996D01*
X59808Y-44968D01*
X59827Y-44913D01*
X59860Y-44992D01*
X60014Y-45147D01*
X60216Y-45231D01*
X60435Y-45231D01*
X60637Y-45147D01*
X60792Y-44993D01*
X60876Y-44790D01*
X60876Y-44572D01*
X60876Y-47599D01*
X59641Y-47599D01*
X59641Y-45067D01*
X59326Y-44751D01*
X59256Y-44822D01*
X59256Y-44681D01*
X58940Y-44365D01*
X58876Y-44384D01*
X58876Y-44331D01*
X58838Y-44239D01*
X58768Y-44169D01*
X58676Y-44131D01*
X58577Y-44131D01*
X57977Y-44131D01*
X57885Y-44169D01*
X57814Y-44239D01*
X57776Y-44331D01*
X57776Y-44430D01*
X57776Y-45030D01*
X57814Y-45122D01*
X57884Y-45192D01*
X57976Y-45231D01*
X58076Y-45231D01*
X58676Y-45231D01*
X58768Y-45193D01*
X58838Y-45122D01*
X58876Y-45031D01*
X58876Y-44977D01*
X58940Y-44996D01*
X59256Y-44681D01*
X59256Y-44822D01*
X59011Y-45067D01*
X59038Y-45162D01*
X59245Y-45235D01*
X59463Y-45224D01*
X59614Y-45162D01*
X59641Y-45067D01*
X59641Y-47599D01*
X56876Y-47599D01*
X56876Y-44572D01*
X56793Y-44369D01*
X56638Y-44215D01*
X56436Y-44131D01*
X56217Y-44131D01*
X56015Y-44214D01*
X55860Y-44369D01*
X55829Y-44444D01*
X55808Y-44393D01*
X55712Y-44365D01*
X55641Y-44436D01*
X55641Y-44295D01*
X55614Y-44199D01*
X55408Y-44126D01*
X55304Y-44131D01*
X55304Y-35424D01*
X55216Y-35211D01*
X55053Y-35047D01*
X55032Y-35039D01*
X55052Y-35031D01*
X55215Y-34868D01*
X55304Y-34655D01*
X55304Y-34424D01*
X55216Y-34211D01*
X55053Y-34047D01*
X54840Y-33959D01*
X54609Y-33959D01*
X54396Y-34047D01*
X54232Y-34210D01*
X54144Y-34423D01*
X54144Y-34654D01*
X54232Y-34867D01*
X54395Y-35030D01*
X54415Y-35039D01*
X54396Y-35047D01*
X54232Y-35210D01*
X54144Y-35423D01*
X54144Y-35654D01*
X54232Y-35867D01*
X54277Y-35912D01*
X54277Y-36789D01*
X54199Y-36977D01*
X54199Y-37186D01*
X54279Y-37379D01*
X54426Y-37527D01*
X54619Y-37607D01*
X54828Y-37607D01*
X55021Y-37528D01*
X55169Y-37380D01*
X55249Y-37187D01*
X55249Y-36978D01*
X55171Y-36789D01*
X55171Y-35912D01*
X55215Y-35868D01*
X55304Y-35655D01*
X55304Y-35424D01*
X55304Y-44131D01*
X55254Y-44134D01*
X55254Y-40158D01*
X55242Y-39949D01*
X55184Y-39809D01*
X55092Y-39785D01*
X55021Y-39856D01*
X55021Y-39714D01*
X54997Y-39622D01*
X54800Y-39552D01*
X54591Y-39564D01*
X54451Y-39622D01*
X54427Y-39714D01*
X54724Y-40011D01*
X55021Y-39714D01*
X55021Y-39856D01*
X54795Y-40082D01*
X55092Y-40379D01*
X55184Y-40355D01*
X55254Y-40158D01*
X55254Y-44134D01*
X55190Y-44137D01*
X55038Y-44199D01*
X55021Y-44260D01*
X55021Y-40450D01*
X54724Y-40153D01*
X54653Y-40224D01*
X54653Y-40082D01*
X54356Y-39785D01*
X54263Y-39809D01*
X54194Y-40006D01*
X54205Y-40215D01*
X54263Y-40355D01*
X54356Y-40379D01*
X54653Y-40082D01*
X54653Y-40224D01*
X54427Y-40450D01*
X54451Y-40543D01*
X54648Y-40612D01*
X54857Y-40601D01*
X54997Y-40543D01*
X55021Y-40450D01*
X55021Y-44260D01*
X55011Y-44295D01*
X55326Y-44610D01*
X55641Y-44295D01*
X55641Y-44436D01*
X55397Y-44681D01*
X55712Y-44996D01*
X55808Y-44968D01*
X55827Y-44913D01*
X55860Y-44992D01*
X56014Y-45147D01*
X56216Y-45231D01*
X56435Y-45231D01*
X56637Y-45147D01*
X56792Y-44993D01*
X56876Y-44790D01*
X56876Y-44572D01*
X56876Y-47599D01*
X55641Y-47599D01*
X55641Y-45067D01*
X55326Y-44751D01*
X55256Y-44822D01*
X55256Y-44681D01*
X54940Y-44365D01*
X54876Y-44384D01*
X54876Y-44331D01*
X54838Y-44239D01*
X54768Y-44169D01*
X54676Y-44131D01*
X54577Y-44131D01*
X53977Y-44131D01*
X53885Y-44169D01*
X53814Y-44239D01*
X53776Y-44331D01*
X53776Y-44430D01*
X53776Y-45030D01*
X53814Y-45122D01*
X53884Y-45192D01*
X53976Y-45231D01*
X54076Y-45231D01*
X54676Y-45231D01*
X54768Y-45193D01*
X54838Y-45122D01*
X54876Y-45031D01*
X54876Y-44977D01*
X54940Y-44996D01*
X55256Y-44681D01*
X55256Y-44822D01*
X55011Y-45067D01*
X55038Y-45162D01*
X55245Y-45235D01*
X55463Y-45224D01*
X55614Y-45162D01*
X55641Y-45067D01*
X55641Y-47599D01*
X51934Y-47599D01*
X51934Y-42468D01*
X51926Y-42169D01*
X51827Y-41930D01*
X51711Y-41878D01*
X51641Y-41949D01*
X51641Y-41807D01*
X51589Y-41691D01*
X51310Y-41584D01*
X51012Y-41592D01*
X50773Y-41691D01*
X50721Y-41807D01*
X51181Y-42267D01*
X51641Y-41807D01*
X51641Y-41949D01*
X51251Y-42338D01*
X51711Y-42798D01*
X51827Y-42746D01*
X51934Y-42468D01*
X51934Y-47599D01*
X51837Y-47599D01*
X51837Y-47429D01*
X51678Y-47043D01*
X51641Y-47006D01*
X51641Y-42869D01*
X51181Y-42409D01*
X50721Y-42869D01*
X50773Y-42985D01*
X51051Y-43092D01*
X51349Y-43084D01*
X51589Y-42985D01*
X51641Y-42869D01*
X51641Y-47006D01*
X51382Y-46748D01*
X50997Y-46587D01*
X50666Y-46587D01*
X50563Y-42759D01*
X50650Y-42798D01*
X51110Y-42338D01*
X50650Y-41878D01*
X50540Y-41927D01*
X50516Y-41027D01*
X50539Y-41050D01*
X50631Y-41088D01*
X50730Y-41088D01*
X51730Y-41088D01*
X51822Y-41050D01*
X51892Y-40980D01*
X51931Y-40888D01*
X51931Y-40789D01*
X51931Y-39789D01*
X51893Y-39697D01*
X51822Y-39626D01*
X51731Y-39588D01*
X51631Y-39588D01*
X51627Y-39588D01*
X51627Y-37046D01*
X51816Y-36858D01*
X51930Y-36582D01*
X51931Y-36284D01*
X51931Y-36284D01*
X51931Y-34883D01*
X51931Y-33883D01*
X51893Y-33791D01*
X51822Y-33721D01*
X51731Y-33683D01*
X51631Y-33683D01*
X50631Y-33683D01*
X50539Y-33721D01*
X50469Y-33791D01*
X50431Y-33883D01*
X50431Y-33982D01*
X50431Y-34982D01*
X50469Y-35074D01*
X50539Y-35144D01*
X50631Y-35183D01*
X50730Y-35183D01*
X51730Y-35183D01*
X51822Y-35145D01*
X51892Y-35074D01*
X51931Y-34983D01*
X51931Y-34883D01*
X51931Y-36284D01*
X51817Y-36008D01*
X51606Y-35797D01*
X51330Y-35683D01*
X51032Y-35682D01*
X50756Y-35796D01*
X50545Y-36007D01*
X50431Y-36283D01*
X50430Y-36581D01*
X50544Y-36857D01*
X50734Y-37047D01*
X50734Y-39588D01*
X50631Y-39588D01*
X50539Y-39626D01*
X50480Y-39686D01*
X50197Y-29231D01*
X51351Y-29231D01*
X52154Y-28160D01*
X52154Y-28202D01*
X52154Y-28802D01*
X52192Y-28894D01*
X52262Y-28964D01*
X52354Y-29002D01*
X52454Y-29002D01*
X52857Y-29002D01*
X57721Y-33507D01*
X57821Y-33568D01*
X57937Y-33587D01*
X57952Y-33583D01*
X63647Y-33583D01*
X63664Y-33622D01*
X63832Y-33791D01*
X64053Y-33883D01*
X64292Y-33883D01*
X64512Y-33792D01*
X64681Y-33623D01*
X64773Y-33403D01*
X64773Y-33164D01*
X64682Y-32944D01*
X64607Y-32869D01*
X64664Y-32845D01*
X64735Y-32775D01*
X64773Y-32683D01*
X64773Y-32583D01*
X64773Y-31883D01*
X64735Y-31792D01*
X64665Y-31721D01*
X64618Y-31702D01*
X64640Y-31679D01*
X64595Y-31634D01*
X64695Y-31601D01*
X64777Y-31377D01*
X64767Y-31138D01*
X64695Y-30965D01*
X64595Y-30932D01*
X64524Y-31002D01*
X64524Y-30861D01*
X64491Y-30760D01*
X64266Y-30678D01*
X64028Y-30689D01*
X63855Y-30760D01*
X63821Y-30861D01*
X64173Y-31212D01*
X64524Y-30861D01*
X64524Y-31002D01*
X64243Y-31283D01*
X64249Y-31289D01*
X64178Y-31359D01*
X64173Y-31354D01*
X64167Y-31359D01*
X64102Y-31294D01*
X64096Y-31289D01*
X64102Y-31283D01*
X63751Y-30932D01*
X63650Y-30965D01*
X63568Y-31189D01*
X63578Y-31428D01*
X63650Y-31601D01*
X63751Y-31634D01*
X63705Y-31679D01*
X63728Y-31702D01*
X63681Y-31721D01*
X63611Y-31791D01*
X63573Y-31883D01*
X63573Y-31982D01*
X63573Y-32682D01*
X63611Y-32774D01*
X63681Y-32845D01*
X63738Y-32869D01*
X63664Y-32943D01*
X63648Y-32983D01*
X62734Y-32983D01*
X62734Y-31465D01*
X62723Y-31257D01*
X62665Y-31116D01*
X62572Y-31092D01*
X62501Y-31163D01*
X62501Y-31021D01*
X62477Y-30929D01*
X62280Y-30859D01*
X62071Y-30871D01*
X61931Y-30929D01*
X61907Y-31021D01*
X62204Y-31319D01*
X62501Y-31021D01*
X62501Y-31163D01*
X62275Y-31389D01*
X62572Y-31686D01*
X62665Y-31662D01*
X62734Y-31465D01*
X62734Y-32983D01*
X62729Y-32983D01*
X62729Y-32285D01*
X62650Y-32092D01*
X62502Y-31944D01*
X62375Y-31892D01*
X62477Y-31850D01*
X62501Y-31757D01*
X62204Y-31460D01*
X62134Y-31531D01*
X62134Y-31389D01*
X61836Y-31092D01*
X61744Y-31116D01*
X61674Y-31313D01*
X61686Y-31522D01*
X61744Y-31662D01*
X61836Y-31686D01*
X62134Y-31389D01*
X62134Y-31531D01*
X61907Y-31757D01*
X61931Y-31850D01*
X62041Y-31889D01*
X61907Y-31944D01*
X61759Y-32091D01*
X61679Y-32284D01*
X61679Y-32493D01*
X61759Y-32686D01*
X61906Y-32834D01*
X62099Y-32914D01*
X62308Y-32914D01*
X62501Y-32835D01*
X62649Y-32687D01*
X62729Y-32494D01*
X62729Y-32285D01*
X62729Y-32983D01*
X58038Y-32983D01*
X53740Y-29002D01*
X53813Y-29002D01*
X54015Y-28919D01*
X54170Y-28764D01*
X54204Y-28682D01*
X54238Y-28763D01*
X54392Y-28918D01*
X54594Y-29002D01*
X54813Y-29002D01*
X55015Y-28919D01*
X55170Y-28764D01*
X55204Y-28682D01*
X55238Y-28763D01*
X55392Y-28918D01*
X55594Y-29002D01*
X55813Y-29002D01*
X56015Y-28919D01*
X56170Y-28764D01*
X56204Y-28682D01*
X56238Y-28763D01*
X56392Y-28918D01*
X56594Y-29002D01*
X56813Y-29002D01*
X57015Y-28919D01*
X57170Y-28764D01*
X57204Y-28682D01*
X57238Y-28763D01*
X57392Y-28918D01*
X57594Y-29002D01*
X57813Y-29002D01*
X58015Y-28919D01*
X58170Y-28764D01*
X58204Y-28682D01*
X58238Y-28763D01*
X58392Y-28918D01*
X58594Y-29002D01*
X58813Y-29002D01*
X59015Y-28919D01*
X59170Y-28764D01*
X59204Y-28682D01*
X59238Y-28763D01*
X59392Y-28918D01*
X59594Y-29002D01*
X59813Y-29002D01*
X60015Y-28919D01*
X60170Y-28764D01*
X60204Y-28682D01*
X60238Y-28763D01*
X60392Y-28918D01*
X60594Y-29002D01*
X60813Y-29002D01*
X61015Y-28919D01*
X61170Y-28764D01*
X61204Y-28682D01*
X61238Y-28763D01*
X61392Y-28918D01*
X61594Y-29002D01*
X61813Y-29002D01*
X62015Y-28919D01*
X62170Y-28764D01*
X62204Y-28682D01*
X62238Y-28763D01*
X62392Y-28918D01*
X62594Y-29002D01*
X62813Y-29002D01*
X63015Y-28919D01*
X63170Y-28764D01*
X63204Y-28682D01*
X63238Y-28763D01*
X63392Y-28918D01*
X63594Y-29002D01*
X63813Y-29002D01*
X64015Y-28919D01*
X64170Y-28764D01*
X64204Y-28682D01*
X64238Y-28763D01*
X64392Y-28918D01*
X64594Y-29002D01*
X64813Y-29002D01*
X65015Y-28919D01*
X65170Y-28764D01*
X65204Y-28682D01*
X65238Y-28763D01*
X65392Y-28918D01*
X65594Y-29002D01*
X65813Y-29002D01*
X66015Y-28919D01*
X66170Y-28764D01*
X66204Y-28682D01*
X66238Y-28763D01*
X66392Y-28918D01*
X66594Y-29002D01*
X66813Y-29002D01*
X67015Y-28919D01*
X67170Y-28764D01*
X67204Y-28682D01*
X67238Y-28763D01*
X67392Y-28918D01*
X67594Y-29002D01*
X67813Y-29002D01*
X68015Y-28919D01*
X68170Y-28764D01*
X68204Y-28682D01*
X68238Y-28763D01*
X68392Y-28918D01*
X68594Y-29002D01*
X68813Y-29002D01*
X69015Y-28919D01*
X69170Y-28764D01*
X69204Y-28682D01*
X69238Y-28763D01*
X69392Y-28918D01*
X69594Y-29002D01*
X69813Y-29002D01*
X70015Y-28919D01*
X70170Y-28764D01*
X70204Y-28682D01*
X70238Y-28763D01*
X70392Y-28918D01*
X70594Y-29002D01*
X70813Y-29002D01*
X71015Y-28919D01*
X71170Y-28764D01*
X71204Y-28682D01*
X71238Y-28763D01*
X71392Y-28918D01*
X71594Y-29002D01*
X71813Y-29002D01*
X72015Y-28919D01*
X72170Y-28764D01*
X72254Y-28562D01*
X72254Y-28343D01*
X72171Y-28141D01*
X72016Y-27986D01*
X71934Y-27952D01*
X72015Y-27919D01*
X72170Y-27764D01*
X72254Y-27562D01*
X72254Y-27343D01*
X72208Y-27231D01*
X72858Y-27231D01*
X72732Y-27357D01*
X72572Y-27742D01*
X72571Y-28160D01*
X72731Y-28546D01*
X73026Y-28842D01*
X73320Y-28964D01*
X73750Y-46587D01*
M02*
