G04 (created by PCBNEW (2013-07-07 BZR 4022)-stable) date 1/6/2015 11:11:12 AM*
%MOIN*%
G04 Gerber Fmt 3.4, Leading zero omitted, Abs format*
%FSLAX34Y34*%
G01*
G70*
G90*
G04 APERTURE LIST*
%ADD10C,0.00590551*%
%ADD11C,0.055*%
%ADD12R,0.06X0.06*%
%ADD13C,0.06*%
%ADD14R,0.35X0.35*%
%ADD15C,0.07*%
%ADD16R,0.07X0.07*%
%ADD17C,0.066*%
%ADD18C,0.16*%
%ADD19R,0.1X0.1*%
%ADD20C,0.1*%
%ADD21C,0.01*%
G04 APERTURE END LIST*
G54D10*
G54D11*
X54724Y-40082D03*
X54724Y-37082D03*
G54D12*
X52704Y-28452D03*
G54D13*
X52704Y-27452D03*
X57704Y-28452D03*
X53704Y-27452D03*
X58704Y-28452D03*
X54704Y-27452D03*
X59704Y-28452D03*
X55704Y-27452D03*
X60704Y-28452D03*
X56704Y-27452D03*
X61704Y-28452D03*
X57704Y-27452D03*
X62704Y-28452D03*
X58704Y-27452D03*
X63704Y-28452D03*
X59704Y-27452D03*
X64704Y-28452D03*
X60704Y-27452D03*
X65704Y-28452D03*
X61704Y-27452D03*
X66704Y-28452D03*
X62704Y-27452D03*
X67704Y-28452D03*
X63704Y-27452D03*
X64704Y-27452D03*
X68704Y-28452D03*
X65704Y-27452D03*
X67704Y-27452D03*
X68704Y-27452D03*
X69704Y-27452D03*
X70704Y-27452D03*
X69704Y-28452D03*
X70704Y-28452D03*
X53704Y-28452D03*
X54704Y-28452D03*
X55704Y-28452D03*
X56704Y-28452D03*
X71704Y-28452D03*
X71704Y-27452D03*
X66704Y-27452D03*
G54D14*
X70673Y-32283D03*
G54D15*
X64173Y-31283D03*
G54D16*
X64173Y-32283D03*
G54D15*
X64173Y-33283D03*
G54D17*
X54724Y-35539D03*
X54724Y-34539D03*
G54D11*
X62204Y-31389D03*
X62204Y-32389D03*
G54D12*
X54326Y-44681D03*
G54D13*
X55326Y-44681D03*
X56326Y-44681D03*
G54D12*
X58326Y-44681D03*
G54D13*
X59326Y-44681D03*
X60326Y-44681D03*
G54D18*
X50787Y-27952D03*
X50787Y-47637D03*
X73622Y-47637D03*
X73622Y-27952D03*
G54D19*
X51181Y-34433D03*
G54D20*
X51181Y-36433D03*
G54D19*
X51181Y-40338D03*
G54D20*
X51181Y-42338D03*
G54D21*
X55704Y-28452D02*
X56326Y-42681D01*
X56326Y-42681D02*
X54326Y-44681D01*
X52704Y-28452D02*
X52704Y-27452D01*
X57704Y-28452D02*
X58326Y-44681D01*
G54D10*
G36*
X74276Y-43631D02*
X72673Y-43631D01*
X72673Y-33983D01*
X72673Y-30483D01*
X72635Y-30392D01*
X72565Y-30321D01*
X72473Y-30283D01*
X72373Y-30283D01*
X68873Y-30283D01*
X68781Y-30321D01*
X68711Y-30391D01*
X68673Y-30483D01*
X68673Y-30582D01*
X68673Y-34082D01*
X68711Y-34174D01*
X68781Y-34245D01*
X68873Y-34283D01*
X68972Y-34283D01*
X72472Y-34283D01*
X72564Y-34245D01*
X72635Y-34175D01*
X72673Y-34083D01*
X72673Y-33983D01*
X72673Y-43631D01*
X71776Y-43631D01*
X71776Y-46131D01*
X64773Y-46131D01*
X64773Y-33164D01*
X64773Y-31164D01*
X64682Y-30944D01*
X64513Y-30775D01*
X64293Y-30683D01*
X64054Y-30683D01*
X63833Y-30774D01*
X63664Y-30943D01*
X63573Y-31163D01*
X63573Y-31402D01*
X63664Y-31622D01*
X63739Y-31697D01*
X63681Y-31721D01*
X63611Y-31791D01*
X63573Y-31883D01*
X63573Y-31982D01*
X63573Y-32170D01*
X63635Y-32233D01*
X64123Y-32233D01*
X64123Y-32225D01*
X64223Y-32225D01*
X64223Y-32233D01*
X64710Y-32233D01*
X64773Y-32170D01*
X64773Y-31982D01*
X64773Y-31883D01*
X64735Y-31791D01*
X64664Y-31721D01*
X64607Y-31697D01*
X64681Y-31623D01*
X64773Y-31403D01*
X64773Y-31164D01*
X64773Y-33164D01*
X64682Y-32944D01*
X64607Y-32869D01*
X64664Y-32845D01*
X64735Y-32775D01*
X64773Y-32683D01*
X64773Y-32583D01*
X64773Y-32395D01*
X64710Y-32333D01*
X64223Y-32333D01*
X64223Y-32341D01*
X64123Y-32341D01*
X64123Y-32333D01*
X63635Y-32333D01*
X63573Y-32395D01*
X63573Y-32583D01*
X63573Y-32683D01*
X63611Y-32775D01*
X63681Y-32845D01*
X63738Y-32869D01*
X63664Y-32943D01*
X63573Y-33163D01*
X63573Y-33402D01*
X63664Y-33622D01*
X63832Y-33791D01*
X64053Y-33883D01*
X64292Y-33883D01*
X64512Y-33792D01*
X64681Y-33623D01*
X64773Y-33403D01*
X64773Y-33164D01*
X64773Y-46131D01*
X62734Y-46131D01*
X62734Y-32465D01*
X62729Y-32377D01*
X62729Y-31285D01*
X62650Y-31092D01*
X62502Y-30944D01*
X62309Y-30864D01*
X62100Y-30864D01*
X61907Y-30944D01*
X61759Y-31091D01*
X61679Y-31284D01*
X61679Y-31493D01*
X61759Y-31686D01*
X61906Y-31834D01*
X62033Y-31887D01*
X61931Y-31929D01*
X61907Y-32021D01*
X62204Y-32319D01*
X62501Y-32021D01*
X62477Y-31929D01*
X62367Y-31890D01*
X62501Y-31835D01*
X62649Y-31687D01*
X62729Y-31494D01*
X62729Y-31285D01*
X62729Y-32377D01*
X62723Y-32257D01*
X62665Y-32116D01*
X62572Y-32092D01*
X62275Y-32389D01*
X62572Y-32686D01*
X62665Y-32662D01*
X62734Y-32465D01*
X62734Y-46131D01*
X62501Y-46131D01*
X62501Y-32757D01*
X62204Y-32460D01*
X62134Y-32531D01*
X62134Y-32389D01*
X61836Y-32092D01*
X61744Y-32116D01*
X61674Y-32313D01*
X61686Y-32522D01*
X61744Y-32662D01*
X61836Y-32686D01*
X62134Y-32389D01*
X62134Y-32531D01*
X61907Y-32757D01*
X61931Y-32850D01*
X62128Y-32919D01*
X62337Y-32908D01*
X62477Y-32850D01*
X62501Y-32757D01*
X62501Y-46131D01*
X60881Y-46131D01*
X60881Y-44762D01*
X60870Y-44544D01*
X60808Y-44393D01*
X60712Y-44365D01*
X60641Y-44436D01*
X60641Y-44295D01*
X60614Y-44199D01*
X60408Y-44126D01*
X60190Y-44137D01*
X60038Y-44199D01*
X60011Y-44295D01*
X60326Y-44610D01*
X60641Y-44295D01*
X60641Y-44436D01*
X60397Y-44681D01*
X60712Y-44996D01*
X60808Y-44968D01*
X60881Y-44762D01*
X60881Y-46131D01*
X60641Y-46131D01*
X60641Y-45067D01*
X60326Y-44751D01*
X60011Y-45067D01*
X60038Y-45162D01*
X60245Y-45235D01*
X60463Y-45224D01*
X60614Y-45162D01*
X60641Y-45067D01*
X60641Y-46131D01*
X57019Y-46131D01*
X57019Y-28838D01*
X56704Y-28523D01*
X56389Y-28838D01*
X56416Y-28934D01*
X56622Y-29007D01*
X56841Y-28996D01*
X56992Y-28934D01*
X57019Y-28838D01*
X57019Y-46131D01*
X56881Y-46131D01*
X56881Y-44762D01*
X56870Y-44544D01*
X56808Y-44393D01*
X56712Y-44365D01*
X56641Y-44436D01*
X56641Y-44295D01*
X56614Y-44199D01*
X56408Y-44126D01*
X56190Y-44137D01*
X56038Y-44199D01*
X56011Y-44295D01*
X56326Y-44610D01*
X56641Y-44295D01*
X56641Y-44436D01*
X56397Y-44681D01*
X56712Y-44996D01*
X56808Y-44968D01*
X56881Y-44762D01*
X56881Y-46131D01*
X56641Y-46131D01*
X56641Y-45067D01*
X56326Y-44751D01*
X56011Y-45067D01*
X56038Y-45162D01*
X56245Y-45235D01*
X56463Y-45224D01*
X56614Y-45162D01*
X56641Y-45067D01*
X56641Y-46131D01*
X52876Y-46131D01*
X52876Y-44137D01*
X51931Y-43999D01*
X51931Y-42190D01*
X51931Y-36284D01*
X51931Y-36284D01*
X51931Y-34982D01*
X51931Y-33883D01*
X51893Y-33791D01*
X51822Y-33721D01*
X51731Y-33683D01*
X51631Y-33683D01*
X51293Y-33683D01*
X51231Y-33745D01*
X51231Y-34383D01*
X51868Y-34383D01*
X51931Y-34320D01*
X51931Y-33883D01*
X51931Y-34982D01*
X51931Y-34545D01*
X51868Y-34483D01*
X51231Y-34483D01*
X51231Y-35120D01*
X51293Y-35183D01*
X51631Y-35183D01*
X51731Y-35183D01*
X51822Y-35144D01*
X51893Y-35074D01*
X51931Y-34982D01*
X51931Y-36284D01*
X51817Y-36008D01*
X51606Y-35797D01*
X51330Y-35683D01*
X51131Y-35683D01*
X51131Y-35120D01*
X51131Y-34483D01*
X51131Y-34383D01*
X51131Y-33745D01*
X51068Y-33683D01*
X50730Y-33683D01*
X50631Y-33683D01*
X50539Y-33721D01*
X50469Y-33791D01*
X50431Y-33883D01*
X50431Y-34320D01*
X50493Y-34383D01*
X51131Y-34383D01*
X51131Y-34483D01*
X50493Y-34483D01*
X50431Y-34545D01*
X50431Y-34982D01*
X50469Y-35074D01*
X50539Y-35144D01*
X50631Y-35183D01*
X50730Y-35183D01*
X51068Y-35183D01*
X51131Y-35120D01*
X51131Y-35683D01*
X51032Y-35682D01*
X50756Y-35796D01*
X50545Y-36007D01*
X50431Y-36283D01*
X50430Y-36581D01*
X50544Y-36857D01*
X50755Y-37068D01*
X51031Y-37182D01*
X51329Y-37183D01*
X51605Y-37069D01*
X51816Y-36858D01*
X51930Y-36582D01*
X51931Y-36284D01*
X51931Y-42190D01*
X51931Y-42189D01*
X51931Y-40789D01*
X51931Y-39789D01*
X51893Y-39697D01*
X51822Y-39626D01*
X51731Y-39588D01*
X51631Y-39588D01*
X50631Y-39588D01*
X50539Y-39626D01*
X50469Y-39696D01*
X50431Y-39788D01*
X50431Y-39888D01*
X50431Y-40888D01*
X50469Y-40980D01*
X50539Y-41050D01*
X50631Y-41088D01*
X50730Y-41088D01*
X51730Y-41088D01*
X51822Y-41050D01*
X51892Y-40980D01*
X51931Y-40888D01*
X51931Y-40789D01*
X51931Y-42189D01*
X51817Y-41914D01*
X51606Y-41703D01*
X51330Y-41588D01*
X51032Y-41588D01*
X50756Y-41702D01*
X50545Y-41913D01*
X50431Y-42188D01*
X50430Y-42487D01*
X50544Y-42762D01*
X50755Y-42974D01*
X51031Y-43088D01*
X51329Y-43088D01*
X51605Y-42974D01*
X51816Y-42763D01*
X51930Y-42488D01*
X51931Y-42190D01*
X51931Y-43999D01*
X50195Y-43744D01*
X50195Y-28843D01*
X50577Y-29002D01*
X50995Y-29002D01*
X51381Y-28843D01*
X51438Y-28786D01*
X52154Y-28757D01*
X52154Y-28802D01*
X52192Y-28894D01*
X52262Y-28964D01*
X52354Y-29002D01*
X52454Y-29002D01*
X53054Y-29002D01*
X53146Y-28964D01*
X53216Y-28894D01*
X53254Y-28802D01*
X53254Y-28780D01*
X53392Y-28918D01*
X53594Y-29002D01*
X53813Y-29002D01*
X54015Y-28919D01*
X54170Y-28764D01*
X54204Y-28682D01*
X54238Y-28763D01*
X54392Y-28918D01*
X54594Y-29002D01*
X54813Y-29002D01*
X55015Y-28919D01*
X55170Y-28764D01*
X55204Y-28682D01*
X55238Y-28763D01*
X55392Y-28918D01*
X55425Y-28932D01*
X56020Y-42563D01*
X55309Y-43274D01*
X55309Y-34628D01*
X55298Y-34397D01*
X55230Y-34233D01*
X55132Y-34202D01*
X55061Y-34273D01*
X55061Y-34131D01*
X55030Y-34033D01*
X54813Y-33954D01*
X54582Y-33965D01*
X54418Y-34033D01*
X54387Y-34131D01*
X54724Y-34468D01*
X55061Y-34131D01*
X55061Y-34273D01*
X54795Y-34539D01*
X55132Y-34876D01*
X55230Y-34845D01*
X55309Y-34628D01*
X55309Y-43274D01*
X55304Y-43279D01*
X55304Y-35424D01*
X55216Y-35211D01*
X55053Y-35047D01*
X55032Y-35039D01*
X55061Y-34947D01*
X54724Y-34610D01*
X54653Y-34680D01*
X54653Y-34539D01*
X54316Y-34202D01*
X54218Y-34233D01*
X54139Y-34450D01*
X54150Y-34680D01*
X54218Y-34845D01*
X54316Y-34876D01*
X54653Y-34539D01*
X54653Y-34680D01*
X54387Y-34947D01*
X54416Y-35039D01*
X54396Y-35047D01*
X54232Y-35210D01*
X54144Y-35423D01*
X54144Y-35654D01*
X54232Y-35867D01*
X54395Y-36030D01*
X54608Y-36119D01*
X54839Y-36119D01*
X55052Y-36031D01*
X55215Y-35868D01*
X55304Y-35655D01*
X55304Y-35424D01*
X55304Y-43279D01*
X55249Y-43334D01*
X55249Y-39978D01*
X55249Y-36978D01*
X55169Y-36785D01*
X55022Y-36637D01*
X54829Y-36557D01*
X54620Y-36557D01*
X54427Y-36637D01*
X54279Y-36784D01*
X54199Y-36977D01*
X54199Y-37186D01*
X54279Y-37379D01*
X54426Y-37527D01*
X54619Y-37607D01*
X54828Y-37607D01*
X55021Y-37528D01*
X55169Y-37380D01*
X55249Y-37187D01*
X55249Y-36978D01*
X55249Y-39978D01*
X55169Y-39785D01*
X55022Y-39637D01*
X54829Y-39557D01*
X54620Y-39557D01*
X54427Y-39637D01*
X54279Y-39784D01*
X54199Y-39977D01*
X54199Y-40186D01*
X54279Y-40379D01*
X54426Y-40527D01*
X54619Y-40607D01*
X54828Y-40607D01*
X55021Y-40528D01*
X55169Y-40380D01*
X55249Y-40187D01*
X55249Y-39978D01*
X55249Y-43334D01*
X54452Y-44131D01*
X53977Y-44131D01*
X53885Y-44169D01*
X53814Y-44239D01*
X53776Y-44331D01*
X53776Y-44430D01*
X53776Y-45030D01*
X53814Y-45122D01*
X53884Y-45192D01*
X53976Y-45231D01*
X54076Y-45231D01*
X54676Y-45231D01*
X54768Y-45193D01*
X54838Y-45122D01*
X54876Y-45031D01*
X54876Y-45008D01*
X55014Y-45147D01*
X55216Y-45231D01*
X55435Y-45231D01*
X55637Y-45147D01*
X55792Y-44993D01*
X55824Y-44917D01*
X55845Y-44968D01*
X55940Y-44996D01*
X56256Y-44681D01*
X55940Y-44365D01*
X55845Y-44393D01*
X55825Y-44448D01*
X55793Y-44369D01*
X55638Y-44215D01*
X55436Y-44131D01*
X55301Y-44131D01*
X56538Y-42893D01*
X56543Y-42886D01*
X56547Y-42883D01*
X56566Y-42852D01*
X56603Y-42795D01*
X56605Y-42787D01*
X56607Y-42783D01*
X56612Y-42750D01*
X56626Y-42681D01*
X56625Y-42672D01*
X56625Y-42668D01*
X56024Y-28910D01*
X56170Y-28764D01*
X56202Y-28689D01*
X56223Y-28740D01*
X56318Y-28767D01*
X56634Y-28452D01*
X56318Y-28137D01*
X56223Y-28164D01*
X56203Y-28220D01*
X56171Y-28141D01*
X56016Y-27986D01*
X55934Y-27952D01*
X56015Y-27919D01*
X56170Y-27764D01*
X56204Y-27682D01*
X56238Y-27763D01*
X56392Y-27918D01*
X56468Y-27950D01*
X56416Y-27971D01*
X56389Y-28066D01*
X56704Y-28382D01*
X57019Y-28066D01*
X56992Y-27971D01*
X56937Y-27951D01*
X57015Y-27919D01*
X57170Y-27764D01*
X57204Y-27682D01*
X57238Y-27763D01*
X57392Y-27918D01*
X57474Y-27952D01*
X57393Y-27986D01*
X57238Y-28140D01*
X57207Y-28216D01*
X57185Y-28164D01*
X57090Y-28137D01*
X56775Y-28452D01*
X57090Y-28767D01*
X57185Y-28740D01*
X57205Y-28685D01*
X57238Y-28763D01*
X57392Y-28918D01*
X57422Y-28931D01*
X58006Y-44131D01*
X57977Y-44131D01*
X57885Y-44169D01*
X57814Y-44239D01*
X57776Y-44331D01*
X57776Y-44430D01*
X57776Y-45030D01*
X57814Y-45122D01*
X57884Y-45192D01*
X57976Y-45231D01*
X58076Y-45231D01*
X58676Y-45231D01*
X58768Y-45193D01*
X58838Y-45122D01*
X58876Y-45031D01*
X58876Y-45008D01*
X59014Y-45147D01*
X59216Y-45231D01*
X59435Y-45231D01*
X59637Y-45147D01*
X59792Y-44993D01*
X59824Y-44917D01*
X59845Y-44968D01*
X59940Y-44996D01*
X60256Y-44681D01*
X59940Y-44365D01*
X59845Y-44393D01*
X59825Y-44448D01*
X59793Y-44369D01*
X59638Y-44215D01*
X59436Y-44131D01*
X59217Y-44131D01*
X59015Y-44214D01*
X58876Y-44353D01*
X58876Y-44331D01*
X58838Y-44239D01*
X58768Y-44169D01*
X58676Y-44131D01*
X58607Y-44131D01*
X58022Y-28912D01*
X58170Y-28764D01*
X58204Y-28682D01*
X58238Y-28763D01*
X58392Y-28918D01*
X58594Y-29002D01*
X58813Y-29002D01*
X59015Y-28919D01*
X59170Y-28764D01*
X59204Y-28682D01*
X59238Y-28763D01*
X59392Y-28918D01*
X59594Y-29002D01*
X59813Y-29002D01*
X60015Y-28919D01*
X60170Y-28764D01*
X60204Y-28682D01*
X60238Y-28763D01*
X60392Y-28918D01*
X60594Y-29002D01*
X60813Y-29002D01*
X61015Y-28919D01*
X61170Y-28764D01*
X61204Y-28682D01*
X61238Y-28763D01*
X61392Y-28918D01*
X61594Y-29002D01*
X61813Y-29002D01*
X62015Y-28919D01*
X62170Y-28764D01*
X62204Y-28682D01*
X62238Y-28763D01*
X62392Y-28918D01*
X62594Y-29002D01*
X62813Y-29002D01*
X63015Y-28919D01*
X63170Y-28764D01*
X63204Y-28682D01*
X63238Y-28763D01*
X63392Y-28918D01*
X63594Y-29002D01*
X63813Y-29002D01*
X64015Y-28919D01*
X64170Y-28764D01*
X64204Y-28682D01*
X64238Y-28763D01*
X64392Y-28918D01*
X64594Y-29002D01*
X64813Y-29002D01*
X65015Y-28919D01*
X65170Y-28764D01*
X65204Y-28682D01*
X65238Y-28763D01*
X65392Y-28918D01*
X65594Y-29002D01*
X65813Y-29002D01*
X66015Y-28919D01*
X66170Y-28764D01*
X66204Y-28682D01*
X66238Y-28763D01*
X66392Y-28918D01*
X66594Y-29002D01*
X66813Y-29002D01*
X67015Y-28919D01*
X67170Y-28764D01*
X67204Y-28682D01*
X67238Y-28763D01*
X67392Y-28918D01*
X67594Y-29002D01*
X67813Y-29002D01*
X68015Y-28919D01*
X68170Y-28764D01*
X68204Y-28682D01*
X68238Y-28763D01*
X68392Y-28918D01*
X68594Y-29002D01*
X68813Y-29002D01*
X69015Y-28919D01*
X69170Y-28764D01*
X69204Y-28682D01*
X69238Y-28763D01*
X69392Y-28918D01*
X69594Y-29002D01*
X69813Y-29002D01*
X70015Y-28919D01*
X70170Y-28764D01*
X70204Y-28682D01*
X70238Y-28763D01*
X70392Y-28918D01*
X70594Y-29002D01*
X70813Y-29002D01*
X71015Y-28919D01*
X71170Y-28764D01*
X71204Y-28682D01*
X71238Y-28763D01*
X71392Y-28918D01*
X71594Y-29002D01*
X71813Y-29002D01*
X72015Y-28919D01*
X72170Y-28764D01*
X72184Y-28731D01*
X72915Y-28731D01*
X73026Y-28842D01*
X73412Y-29002D01*
X73829Y-29002D01*
X74216Y-28843D01*
X74276Y-28782D01*
X74276Y-43631D01*
X74276Y-43631D01*
G37*
G54D21*
X74276Y-43631D02*
X72673Y-43631D01*
X72673Y-33983D01*
X72673Y-30483D01*
X72635Y-30392D01*
X72565Y-30321D01*
X72473Y-30283D01*
X72373Y-30283D01*
X68873Y-30283D01*
X68781Y-30321D01*
X68711Y-30391D01*
X68673Y-30483D01*
X68673Y-30582D01*
X68673Y-34082D01*
X68711Y-34174D01*
X68781Y-34245D01*
X68873Y-34283D01*
X68972Y-34283D01*
X72472Y-34283D01*
X72564Y-34245D01*
X72635Y-34175D01*
X72673Y-34083D01*
X72673Y-33983D01*
X72673Y-43631D01*
X71776Y-43631D01*
X71776Y-46131D01*
X64773Y-46131D01*
X64773Y-33164D01*
X64773Y-31164D01*
X64682Y-30944D01*
X64513Y-30775D01*
X64293Y-30683D01*
X64054Y-30683D01*
X63833Y-30774D01*
X63664Y-30943D01*
X63573Y-31163D01*
X63573Y-31402D01*
X63664Y-31622D01*
X63739Y-31697D01*
X63681Y-31721D01*
X63611Y-31791D01*
X63573Y-31883D01*
X63573Y-31982D01*
X63573Y-32170D01*
X63635Y-32233D01*
X64123Y-32233D01*
X64123Y-32225D01*
X64223Y-32225D01*
X64223Y-32233D01*
X64710Y-32233D01*
X64773Y-32170D01*
X64773Y-31982D01*
X64773Y-31883D01*
X64735Y-31791D01*
X64664Y-31721D01*
X64607Y-31697D01*
X64681Y-31623D01*
X64773Y-31403D01*
X64773Y-31164D01*
X64773Y-33164D01*
X64682Y-32944D01*
X64607Y-32869D01*
X64664Y-32845D01*
X64735Y-32775D01*
X64773Y-32683D01*
X64773Y-32583D01*
X64773Y-32395D01*
X64710Y-32333D01*
X64223Y-32333D01*
X64223Y-32341D01*
X64123Y-32341D01*
X64123Y-32333D01*
X63635Y-32333D01*
X63573Y-32395D01*
X63573Y-32583D01*
X63573Y-32683D01*
X63611Y-32775D01*
X63681Y-32845D01*
X63738Y-32869D01*
X63664Y-32943D01*
X63573Y-33163D01*
X63573Y-33402D01*
X63664Y-33622D01*
X63832Y-33791D01*
X64053Y-33883D01*
X64292Y-33883D01*
X64512Y-33792D01*
X64681Y-33623D01*
X64773Y-33403D01*
X64773Y-33164D01*
X64773Y-46131D01*
X62734Y-46131D01*
X62734Y-32465D01*
X62729Y-32377D01*
X62729Y-31285D01*
X62650Y-31092D01*
X62502Y-30944D01*
X62309Y-30864D01*
X62100Y-30864D01*
X61907Y-30944D01*
X61759Y-31091D01*
X61679Y-31284D01*
X61679Y-31493D01*
X61759Y-31686D01*
X61906Y-31834D01*
X62033Y-31887D01*
X61931Y-31929D01*
X61907Y-32021D01*
X62204Y-32319D01*
X62501Y-32021D01*
X62477Y-31929D01*
X62367Y-31890D01*
X62501Y-31835D01*
X62649Y-31687D01*
X62729Y-31494D01*
X62729Y-31285D01*
X62729Y-32377D01*
X62723Y-32257D01*
X62665Y-32116D01*
X62572Y-32092D01*
X62275Y-32389D01*
X62572Y-32686D01*
X62665Y-32662D01*
X62734Y-32465D01*
X62734Y-46131D01*
X62501Y-46131D01*
X62501Y-32757D01*
X62204Y-32460D01*
X62134Y-32531D01*
X62134Y-32389D01*
X61836Y-32092D01*
X61744Y-32116D01*
X61674Y-32313D01*
X61686Y-32522D01*
X61744Y-32662D01*
X61836Y-32686D01*
X62134Y-32389D01*
X62134Y-32531D01*
X61907Y-32757D01*
X61931Y-32850D01*
X62128Y-32919D01*
X62337Y-32908D01*
X62477Y-32850D01*
X62501Y-32757D01*
X62501Y-46131D01*
X60881Y-46131D01*
X60881Y-44762D01*
X60870Y-44544D01*
X60808Y-44393D01*
X60712Y-44365D01*
X60641Y-44436D01*
X60641Y-44295D01*
X60614Y-44199D01*
X60408Y-44126D01*
X60190Y-44137D01*
X60038Y-44199D01*
X60011Y-44295D01*
X60326Y-44610D01*
X60641Y-44295D01*
X60641Y-44436D01*
X60397Y-44681D01*
X60712Y-44996D01*
X60808Y-44968D01*
X60881Y-44762D01*
X60881Y-46131D01*
X60641Y-46131D01*
X60641Y-45067D01*
X60326Y-44751D01*
X60011Y-45067D01*
X60038Y-45162D01*
X60245Y-45235D01*
X60463Y-45224D01*
X60614Y-45162D01*
X60641Y-45067D01*
X60641Y-46131D01*
X57019Y-46131D01*
X57019Y-28838D01*
X56704Y-28523D01*
X56389Y-28838D01*
X56416Y-28934D01*
X56622Y-29007D01*
X56841Y-28996D01*
X56992Y-28934D01*
X57019Y-28838D01*
X57019Y-46131D01*
X56881Y-46131D01*
X56881Y-44762D01*
X56870Y-44544D01*
X56808Y-44393D01*
X56712Y-44365D01*
X56641Y-44436D01*
X56641Y-44295D01*
X56614Y-44199D01*
X56408Y-44126D01*
X56190Y-44137D01*
X56038Y-44199D01*
X56011Y-44295D01*
X56326Y-44610D01*
X56641Y-44295D01*
X56641Y-44436D01*
X56397Y-44681D01*
X56712Y-44996D01*
X56808Y-44968D01*
X56881Y-44762D01*
X56881Y-46131D01*
X56641Y-46131D01*
X56641Y-45067D01*
X56326Y-44751D01*
X56011Y-45067D01*
X56038Y-45162D01*
X56245Y-45235D01*
X56463Y-45224D01*
X56614Y-45162D01*
X56641Y-45067D01*
X56641Y-46131D01*
X52876Y-46131D01*
X52876Y-44137D01*
X51931Y-43999D01*
X51931Y-42190D01*
X51931Y-36284D01*
X51931Y-36284D01*
X51931Y-34982D01*
X51931Y-33883D01*
X51893Y-33791D01*
X51822Y-33721D01*
X51731Y-33683D01*
X51631Y-33683D01*
X51293Y-33683D01*
X51231Y-33745D01*
X51231Y-34383D01*
X51868Y-34383D01*
X51931Y-34320D01*
X51931Y-33883D01*
X51931Y-34982D01*
X51931Y-34545D01*
X51868Y-34483D01*
X51231Y-34483D01*
X51231Y-35120D01*
X51293Y-35183D01*
X51631Y-35183D01*
X51731Y-35183D01*
X51822Y-35144D01*
X51893Y-35074D01*
X51931Y-34982D01*
X51931Y-36284D01*
X51817Y-36008D01*
X51606Y-35797D01*
X51330Y-35683D01*
X51131Y-35683D01*
X51131Y-35120D01*
X51131Y-34483D01*
X51131Y-34383D01*
X51131Y-33745D01*
X51068Y-33683D01*
X50730Y-33683D01*
X50631Y-33683D01*
X50539Y-33721D01*
X50469Y-33791D01*
X50431Y-33883D01*
X50431Y-34320D01*
X50493Y-34383D01*
X51131Y-34383D01*
X51131Y-34483D01*
X50493Y-34483D01*
X50431Y-34545D01*
X50431Y-34982D01*
X50469Y-35074D01*
X50539Y-35144D01*
X50631Y-35183D01*
X50730Y-35183D01*
X51068Y-35183D01*
X51131Y-35120D01*
X51131Y-35683D01*
X51032Y-35682D01*
X50756Y-35796D01*
X50545Y-36007D01*
X50431Y-36283D01*
X50430Y-36581D01*
X50544Y-36857D01*
X50755Y-37068D01*
X51031Y-37182D01*
X51329Y-37183D01*
X51605Y-37069D01*
X51816Y-36858D01*
X51930Y-36582D01*
X51931Y-36284D01*
X51931Y-42190D01*
X51931Y-42189D01*
X51931Y-40789D01*
X51931Y-39789D01*
X51893Y-39697D01*
X51822Y-39626D01*
X51731Y-39588D01*
X51631Y-39588D01*
X50631Y-39588D01*
X50539Y-39626D01*
X50469Y-39696D01*
X50431Y-39788D01*
X50431Y-39888D01*
X50431Y-40888D01*
X50469Y-40980D01*
X50539Y-41050D01*
X50631Y-41088D01*
X50730Y-41088D01*
X51730Y-41088D01*
X51822Y-41050D01*
X51892Y-40980D01*
X51931Y-40888D01*
X51931Y-40789D01*
X51931Y-42189D01*
X51817Y-41914D01*
X51606Y-41703D01*
X51330Y-41588D01*
X51032Y-41588D01*
X50756Y-41702D01*
X50545Y-41913D01*
X50431Y-42188D01*
X50430Y-42487D01*
X50544Y-42762D01*
X50755Y-42974D01*
X51031Y-43088D01*
X51329Y-43088D01*
X51605Y-42974D01*
X51816Y-42763D01*
X51930Y-42488D01*
X51931Y-42190D01*
X51931Y-43999D01*
X50195Y-43744D01*
X50195Y-28843D01*
X50577Y-29002D01*
X50995Y-29002D01*
X51381Y-28843D01*
X51438Y-28786D01*
X52154Y-28757D01*
X52154Y-28802D01*
X52192Y-28894D01*
X52262Y-28964D01*
X52354Y-29002D01*
X52454Y-29002D01*
X53054Y-29002D01*
X53146Y-28964D01*
X53216Y-28894D01*
X53254Y-28802D01*
X53254Y-28780D01*
X53392Y-28918D01*
X53594Y-29002D01*
X53813Y-29002D01*
X54015Y-28919D01*
X54170Y-28764D01*
X54204Y-28682D01*
X54238Y-28763D01*
X54392Y-28918D01*
X54594Y-29002D01*
X54813Y-29002D01*
X55015Y-28919D01*
X55170Y-28764D01*
X55204Y-28682D01*
X55238Y-28763D01*
X55392Y-28918D01*
X55425Y-28932D01*
X56020Y-42563D01*
X55309Y-43274D01*
X55309Y-34628D01*
X55298Y-34397D01*
X55230Y-34233D01*
X55132Y-34202D01*
X55061Y-34273D01*
X55061Y-34131D01*
X55030Y-34033D01*
X54813Y-33954D01*
X54582Y-33965D01*
X54418Y-34033D01*
X54387Y-34131D01*
X54724Y-34468D01*
X55061Y-34131D01*
X55061Y-34273D01*
X54795Y-34539D01*
X55132Y-34876D01*
X55230Y-34845D01*
X55309Y-34628D01*
X55309Y-43274D01*
X55304Y-43279D01*
X55304Y-35424D01*
X55216Y-35211D01*
X55053Y-35047D01*
X55032Y-35039D01*
X55061Y-34947D01*
X54724Y-34610D01*
X54653Y-34680D01*
X54653Y-34539D01*
X54316Y-34202D01*
X54218Y-34233D01*
X54139Y-34450D01*
X54150Y-34680D01*
X54218Y-34845D01*
X54316Y-34876D01*
X54653Y-34539D01*
X54653Y-34680D01*
X54387Y-34947D01*
X54416Y-35039D01*
X54396Y-35047D01*
X54232Y-35210D01*
X54144Y-35423D01*
X54144Y-35654D01*
X54232Y-35867D01*
X54395Y-36030D01*
X54608Y-36119D01*
X54839Y-36119D01*
X55052Y-36031D01*
X55215Y-35868D01*
X55304Y-35655D01*
X55304Y-35424D01*
X55304Y-43279D01*
X55249Y-43334D01*
X55249Y-39978D01*
X55249Y-36978D01*
X55169Y-36785D01*
X55022Y-36637D01*
X54829Y-36557D01*
X54620Y-36557D01*
X54427Y-36637D01*
X54279Y-36784D01*
X54199Y-36977D01*
X54199Y-37186D01*
X54279Y-37379D01*
X54426Y-37527D01*
X54619Y-37607D01*
X54828Y-37607D01*
X55021Y-37528D01*
X55169Y-37380D01*
X55249Y-37187D01*
X55249Y-36978D01*
X55249Y-39978D01*
X55169Y-39785D01*
X55022Y-39637D01*
X54829Y-39557D01*
X54620Y-39557D01*
X54427Y-39637D01*
X54279Y-39784D01*
X54199Y-39977D01*
X54199Y-40186D01*
X54279Y-40379D01*
X54426Y-40527D01*
X54619Y-40607D01*
X54828Y-40607D01*
X55021Y-40528D01*
X55169Y-40380D01*
X55249Y-40187D01*
X55249Y-39978D01*
X55249Y-43334D01*
X54452Y-44131D01*
X53977Y-44131D01*
X53885Y-44169D01*
X53814Y-44239D01*
X53776Y-44331D01*
X53776Y-44430D01*
X53776Y-45030D01*
X53814Y-45122D01*
X53884Y-45192D01*
X53976Y-45231D01*
X54076Y-45231D01*
X54676Y-45231D01*
X54768Y-45193D01*
X54838Y-45122D01*
X54876Y-45031D01*
X54876Y-45008D01*
X55014Y-45147D01*
X55216Y-45231D01*
X55435Y-45231D01*
X55637Y-45147D01*
X55792Y-44993D01*
X55824Y-44917D01*
X55845Y-44968D01*
X55940Y-44996D01*
X56256Y-44681D01*
X55940Y-44365D01*
X55845Y-44393D01*
X55825Y-44448D01*
X55793Y-44369D01*
X55638Y-44215D01*
X55436Y-44131D01*
X55301Y-44131D01*
X56538Y-42893D01*
X56543Y-42886D01*
X56547Y-42883D01*
X56566Y-42852D01*
X56603Y-42795D01*
X56605Y-42787D01*
X56607Y-42783D01*
X56612Y-42750D01*
X56626Y-42681D01*
X56625Y-42672D01*
X56625Y-42668D01*
X56024Y-28910D01*
X56170Y-28764D01*
X56202Y-28689D01*
X56223Y-28740D01*
X56318Y-28767D01*
X56634Y-28452D01*
X56318Y-28137D01*
X56223Y-28164D01*
X56203Y-28220D01*
X56171Y-28141D01*
X56016Y-27986D01*
X55934Y-27952D01*
X56015Y-27919D01*
X56170Y-27764D01*
X56204Y-27682D01*
X56238Y-27763D01*
X56392Y-27918D01*
X56468Y-27950D01*
X56416Y-27971D01*
X56389Y-28066D01*
X56704Y-28382D01*
X57019Y-28066D01*
X56992Y-27971D01*
X56937Y-27951D01*
X57015Y-27919D01*
X57170Y-27764D01*
X57204Y-27682D01*
X57238Y-27763D01*
X57392Y-27918D01*
X57474Y-27952D01*
X57393Y-27986D01*
X57238Y-28140D01*
X57207Y-28216D01*
X57185Y-28164D01*
X57090Y-28137D01*
X56775Y-28452D01*
X57090Y-28767D01*
X57185Y-28740D01*
X57205Y-28685D01*
X57238Y-28763D01*
X57392Y-28918D01*
X57422Y-28931D01*
X58006Y-44131D01*
X57977Y-44131D01*
X57885Y-44169D01*
X57814Y-44239D01*
X57776Y-44331D01*
X57776Y-44430D01*
X57776Y-45030D01*
X57814Y-45122D01*
X57884Y-45192D01*
X57976Y-45231D01*
X58076Y-45231D01*
X58676Y-45231D01*
X58768Y-45193D01*
X58838Y-45122D01*
X58876Y-45031D01*
X58876Y-45008D01*
X59014Y-45147D01*
X59216Y-45231D01*
X59435Y-45231D01*
X59637Y-45147D01*
X59792Y-44993D01*
X59824Y-44917D01*
X59845Y-44968D01*
X59940Y-44996D01*
X60256Y-44681D01*
X59940Y-44365D01*
X59845Y-44393D01*
X59825Y-44448D01*
X59793Y-44369D01*
X59638Y-44215D01*
X59436Y-44131D01*
X59217Y-44131D01*
X59015Y-44214D01*
X58876Y-44353D01*
X58876Y-44331D01*
X58838Y-44239D01*
X58768Y-44169D01*
X58676Y-44131D01*
X58607Y-44131D01*
X58022Y-28912D01*
X58170Y-28764D01*
X58204Y-28682D01*
X58238Y-28763D01*
X58392Y-28918D01*
X58594Y-29002D01*
X58813Y-29002D01*
X59015Y-28919D01*
X59170Y-28764D01*
X59204Y-28682D01*
X59238Y-28763D01*
X59392Y-28918D01*
X59594Y-29002D01*
X59813Y-29002D01*
X60015Y-28919D01*
X60170Y-28764D01*
X60204Y-28682D01*
X60238Y-28763D01*
X60392Y-28918D01*
X60594Y-29002D01*
X60813Y-29002D01*
X61015Y-28919D01*
X61170Y-28764D01*
X61204Y-28682D01*
X61238Y-28763D01*
X61392Y-28918D01*
X61594Y-29002D01*
X61813Y-29002D01*
X62015Y-28919D01*
X62170Y-28764D01*
X62204Y-28682D01*
X62238Y-28763D01*
X62392Y-28918D01*
X62594Y-29002D01*
X62813Y-29002D01*
X63015Y-28919D01*
X63170Y-28764D01*
X63204Y-28682D01*
X63238Y-28763D01*
X63392Y-28918D01*
X63594Y-29002D01*
X63813Y-29002D01*
X64015Y-28919D01*
X64170Y-28764D01*
X64204Y-28682D01*
X64238Y-28763D01*
X64392Y-28918D01*
X64594Y-29002D01*
X64813Y-29002D01*
X65015Y-28919D01*
X65170Y-28764D01*
X65204Y-28682D01*
X65238Y-28763D01*
X65392Y-28918D01*
X65594Y-29002D01*
X65813Y-29002D01*
X66015Y-28919D01*
X66170Y-28764D01*
X66204Y-28682D01*
X66238Y-28763D01*
X66392Y-28918D01*
X66594Y-29002D01*
X66813Y-29002D01*
X67015Y-28919D01*
X67170Y-28764D01*
X67204Y-28682D01*
X67238Y-28763D01*
X67392Y-28918D01*
X67594Y-29002D01*
X67813Y-29002D01*
X68015Y-28919D01*
X68170Y-28764D01*
X68204Y-28682D01*
X68238Y-28763D01*
X68392Y-28918D01*
X68594Y-29002D01*
X68813Y-29002D01*
X69015Y-28919D01*
X69170Y-28764D01*
X69204Y-28682D01*
X69238Y-28763D01*
X69392Y-28918D01*
X69594Y-29002D01*
X69813Y-29002D01*
X70015Y-28919D01*
X70170Y-28764D01*
X70204Y-28682D01*
X70238Y-28763D01*
X70392Y-28918D01*
X70594Y-29002D01*
X70813Y-29002D01*
X71015Y-28919D01*
X71170Y-28764D01*
X71204Y-28682D01*
X71238Y-28763D01*
X71392Y-28918D01*
X71594Y-29002D01*
X71813Y-29002D01*
X72015Y-28919D01*
X72170Y-28764D01*
X72184Y-28731D01*
X72915Y-28731D01*
X73026Y-28842D01*
X73412Y-29002D01*
X73829Y-29002D01*
X74216Y-28843D01*
X74276Y-28782D01*
X74276Y-43631D01*
M02*
