G04 (created by PCBNEW (2013-07-07 BZR 4022)-stable) date 1/3/2015 3:59:36 PM*
%MOIN*%
G04 Gerber Fmt 3.4, Leading zero omitted, Abs format*
%FSLAX34Y34*%
G01*
G70*
G90*
G04 APERTURE LIST*
%ADD10C,0.005*%
%ADD11C,0.00393701*%
%ADD12C,0.00787402*%
%ADD13C,0.011811*%
G04 APERTURE END LIST*
G54D10*
G54D11*
X74803Y-48818D02*
X49606Y-48818D01*
X74803Y-26771D02*
X49606Y-26771D01*
X74803Y-48818D02*
X74803Y-26771D01*
X49606Y-27165D02*
X49606Y-26771D01*
X49606Y-26771D02*
X49606Y-27165D01*
X49606Y-48818D02*
X49606Y-27165D01*
G54D12*
X52989Y-36741D02*
X53309Y-37061D01*
X53309Y-36741D02*
X52989Y-37061D01*
X52989Y-37741D02*
X53309Y-38061D01*
X53309Y-37741D02*
X52989Y-38061D01*
X52989Y-38891D02*
X53309Y-39211D01*
X53309Y-38891D02*
X52989Y-39211D01*
X52989Y-41891D02*
X53309Y-42211D01*
X53309Y-41891D02*
X52989Y-42211D01*
X62044Y-31229D02*
X62364Y-31549D01*
X62364Y-31229D02*
X62044Y-31549D01*
X62044Y-32229D02*
X62364Y-32549D01*
X62364Y-32229D02*
X62044Y-32549D01*
X50983Y-33751D02*
G75*
G03X50983Y-33751I-196J0D01*
G74*
G01*
X50983Y-34751D02*
G75*
G03X50983Y-34751I-196J0D01*
G74*
G01*
X52704Y-27252D02*
X52704Y-27652D01*
X52504Y-27452D02*
X52904Y-27452D01*
X52704Y-28252D02*
X52704Y-28652D01*
X52504Y-28452D02*
X52904Y-28452D01*
X53704Y-27252D02*
X53704Y-27652D01*
X53504Y-27452D02*
X53904Y-27452D01*
X53704Y-28252D02*
X53704Y-28652D01*
X53504Y-28452D02*
X53904Y-28452D01*
X54326Y-44481D02*
X54326Y-44881D01*
X54126Y-44681D02*
X54526Y-44681D01*
X54704Y-27252D02*
X54704Y-27652D01*
X54504Y-27452D02*
X54904Y-27452D01*
X54704Y-28252D02*
X54704Y-28652D01*
X54504Y-28452D02*
X54904Y-28452D01*
X55326Y-44481D02*
X55326Y-44881D01*
X55126Y-44681D02*
X55526Y-44681D01*
X55704Y-27252D02*
X55704Y-27652D01*
X55504Y-27452D02*
X55904Y-27452D01*
X55704Y-28252D02*
X55704Y-28652D01*
X55504Y-28452D02*
X55904Y-28452D01*
X56326Y-44481D02*
X56326Y-44881D01*
X56126Y-44681D02*
X56526Y-44681D01*
X56704Y-27252D02*
X56704Y-27652D01*
X56504Y-27452D02*
X56904Y-27452D01*
X56704Y-28252D02*
X56704Y-28652D01*
X56504Y-28452D02*
X56904Y-28452D01*
X57704Y-27252D02*
X57704Y-27652D01*
X57504Y-27452D02*
X57904Y-27452D01*
X57704Y-28252D02*
X57704Y-28652D01*
X57504Y-28452D02*
X57904Y-28452D01*
X58326Y-44481D02*
X58326Y-44881D01*
X58126Y-44681D02*
X58526Y-44681D01*
X58704Y-27252D02*
X58704Y-27652D01*
X58504Y-27452D02*
X58904Y-27452D01*
X58704Y-28252D02*
X58704Y-28652D01*
X58504Y-28452D02*
X58904Y-28452D01*
X59326Y-44481D02*
X59326Y-44881D01*
X59126Y-44681D02*
X59526Y-44681D01*
X59704Y-27252D02*
X59704Y-27652D01*
X59504Y-27452D02*
X59904Y-27452D01*
X59704Y-28252D02*
X59704Y-28652D01*
X59504Y-28452D02*
X59904Y-28452D01*
X60326Y-44481D02*
X60326Y-44881D01*
X60126Y-44681D02*
X60526Y-44681D01*
X60704Y-27252D02*
X60704Y-27652D01*
X60504Y-27452D02*
X60904Y-27452D01*
X60704Y-28252D02*
X60704Y-28652D01*
X60504Y-28452D02*
X60904Y-28452D01*
X61704Y-27252D02*
X61704Y-27652D01*
X61504Y-27452D02*
X61904Y-27452D01*
X61704Y-28252D02*
X61704Y-28652D01*
X61504Y-28452D02*
X61904Y-28452D01*
X62704Y-27252D02*
X62704Y-27652D01*
X62504Y-27452D02*
X62904Y-27452D01*
X62704Y-28252D02*
X62704Y-28652D01*
X62504Y-28452D02*
X62904Y-28452D01*
X63704Y-27252D02*
X63704Y-27652D01*
X63504Y-27452D02*
X63904Y-27452D01*
X63704Y-28252D02*
X63704Y-28652D01*
X63504Y-28452D02*
X63904Y-28452D01*
X64704Y-27252D02*
X64704Y-27652D01*
X64504Y-27452D02*
X64904Y-27452D01*
X64704Y-28252D02*
X64704Y-28652D01*
X64504Y-28452D02*
X64904Y-28452D01*
X65704Y-27252D02*
X65704Y-27652D01*
X65504Y-27452D02*
X65904Y-27452D01*
X65704Y-28252D02*
X65704Y-28652D01*
X65504Y-28452D02*
X65904Y-28452D01*
X66704Y-27252D02*
X66704Y-27652D01*
X66504Y-27452D02*
X66904Y-27452D01*
X66704Y-28252D02*
X66704Y-28652D01*
X66504Y-28452D02*
X66904Y-28452D01*
X67704Y-27252D02*
X67704Y-27652D01*
X67504Y-27452D02*
X67904Y-27452D01*
X67704Y-28252D02*
X67704Y-28652D01*
X67504Y-28452D02*
X67904Y-28452D01*
X68704Y-27252D02*
X68704Y-27652D01*
X68504Y-27452D02*
X68904Y-27452D01*
X68704Y-28252D02*
X68704Y-28652D01*
X68504Y-28452D02*
X68904Y-28452D01*
X69704Y-27252D02*
X69704Y-27652D01*
X69504Y-27452D02*
X69904Y-27452D01*
X69704Y-28252D02*
X69704Y-28652D01*
X69504Y-28452D02*
X69904Y-28452D01*
X70704Y-27252D02*
X70704Y-27652D01*
X70504Y-27452D02*
X70904Y-27452D01*
X70704Y-28252D02*
X70704Y-28652D01*
X70504Y-28452D02*
X70904Y-28452D01*
X71704Y-27252D02*
X71704Y-27652D01*
X71504Y-27452D02*
X71904Y-27452D01*
X71704Y-28252D02*
X71704Y-28652D01*
X71504Y-28452D02*
X71904Y-28452D01*
X64332Y-31442D02*
X64332Y-31124D01*
X64014Y-31124D01*
X64014Y-31442D01*
X64332Y-31442D01*
X64332Y-32442D02*
X64332Y-32124D01*
X64014Y-32124D01*
X64014Y-32442D01*
X64332Y-32442D01*
X64332Y-33442D02*
X64332Y-33124D01*
X64014Y-33124D01*
X64014Y-33442D01*
X64332Y-33442D01*
X50787Y-28552D02*
X51387Y-27952D01*
X50787Y-27352D01*
X50187Y-27952D01*
X50787Y-28552D01*
X50787Y-48237D02*
X51387Y-47637D01*
X50787Y-47037D01*
X50187Y-47637D01*
X50787Y-48237D01*
X70673Y-32883D02*
X71273Y-32283D01*
X70673Y-31683D01*
X70073Y-32283D01*
X70673Y-32883D01*
X73622Y-28552D02*
X74222Y-27952D01*
X73622Y-27352D01*
X73022Y-27952D01*
X73622Y-28552D01*
X73622Y-48237D02*
X74222Y-47637D01*
X73622Y-47037D01*
X73022Y-47637D01*
X73622Y-48237D01*
G54D13*
X50655Y-50615D02*
X50655Y-49434D01*
X50936Y-49434D01*
X51105Y-49491D01*
X51217Y-49603D01*
X51273Y-49715D01*
X51330Y-49940D01*
X51330Y-50109D01*
X51273Y-50334D01*
X51217Y-50447D01*
X51105Y-50559D01*
X50936Y-50615D01*
X50655Y-50615D01*
X51836Y-50615D02*
X51836Y-49828D01*
X51836Y-50053D02*
X51892Y-49940D01*
X51948Y-49884D01*
X52061Y-49828D01*
X52173Y-49828D01*
X52567Y-50615D02*
X52567Y-49828D01*
X52567Y-49434D02*
X52511Y-49491D01*
X52567Y-49547D01*
X52623Y-49491D01*
X52567Y-49434D01*
X52567Y-49547D01*
X53298Y-50615D02*
X53186Y-50559D01*
X53129Y-50447D01*
X53129Y-49434D01*
X53917Y-50615D02*
X53804Y-50559D01*
X53748Y-50447D01*
X53748Y-49434D01*
X55267Y-50615D02*
X55267Y-49434D01*
X55660Y-50278D01*
X56054Y-49434D01*
X56054Y-50615D01*
X57123Y-50615D02*
X57123Y-49997D01*
X57066Y-49884D01*
X56954Y-49828D01*
X56729Y-49828D01*
X56616Y-49884D01*
X57123Y-50559D02*
X57010Y-50615D01*
X56729Y-50615D01*
X56616Y-50559D01*
X56560Y-50447D01*
X56560Y-50334D01*
X56616Y-50222D01*
X56729Y-50165D01*
X57010Y-50165D01*
X57123Y-50109D01*
X57685Y-49828D02*
X57685Y-51009D01*
X57685Y-49884D02*
X57798Y-49828D01*
X58023Y-49828D01*
X58135Y-49884D01*
X58191Y-49940D01*
X58248Y-50053D01*
X58248Y-50390D01*
X58191Y-50503D01*
X58135Y-50559D01*
X58023Y-50615D01*
X57798Y-50615D01*
X57685Y-50559D01*
X58754Y-50503D02*
X58810Y-50559D01*
X58754Y-50615D01*
X58697Y-50559D01*
X58754Y-50503D01*
X58754Y-50615D01*
X58754Y-49884D02*
X58810Y-49940D01*
X58754Y-49997D01*
X58697Y-49940D01*
X58754Y-49884D01*
X58754Y-49997D01*
X49266Y-52458D02*
X49586Y-52778D01*
X49586Y-52458D02*
X49266Y-52778D01*
X50880Y-51915D02*
X50992Y-51915D01*
X51105Y-51971D01*
X51161Y-52027D01*
X51217Y-52140D01*
X51273Y-52365D01*
X51273Y-52646D01*
X51217Y-52871D01*
X51161Y-52983D01*
X51105Y-53039D01*
X50992Y-53096D01*
X50880Y-53096D01*
X50767Y-53039D01*
X50711Y-52983D01*
X50655Y-52871D01*
X50598Y-52646D01*
X50598Y-52365D01*
X50655Y-52140D01*
X50711Y-52027D01*
X50767Y-51971D01*
X50880Y-51915D01*
X51780Y-52983D02*
X51836Y-53039D01*
X51780Y-53096D01*
X51723Y-53039D01*
X51780Y-52983D01*
X51780Y-53096D01*
X52511Y-52421D02*
X52398Y-52365D01*
X52342Y-52308D01*
X52286Y-52196D01*
X52286Y-52140D01*
X52342Y-52027D01*
X52398Y-51971D01*
X52511Y-51915D01*
X52736Y-51915D01*
X52848Y-51971D01*
X52904Y-52027D01*
X52961Y-52140D01*
X52961Y-52196D01*
X52904Y-52308D01*
X52848Y-52365D01*
X52736Y-52421D01*
X52511Y-52421D01*
X52398Y-52477D01*
X52342Y-52533D01*
X52286Y-52646D01*
X52286Y-52871D01*
X52342Y-52983D01*
X52398Y-53039D01*
X52511Y-53096D01*
X52736Y-53096D01*
X52848Y-53039D01*
X52904Y-52983D01*
X52961Y-52871D01*
X52961Y-52646D01*
X52904Y-52533D01*
X52848Y-52477D01*
X52736Y-52421D01*
X54086Y-53096D02*
X53411Y-53096D01*
X53748Y-53096D02*
X53748Y-51915D01*
X53636Y-52083D01*
X53523Y-52196D01*
X53411Y-52252D01*
X54592Y-53096D02*
X54592Y-52308D01*
X54592Y-52421D02*
X54648Y-52365D01*
X54760Y-52308D01*
X54929Y-52308D01*
X55042Y-52365D01*
X55098Y-52477D01*
X55098Y-53096D01*
X55098Y-52477D02*
X55154Y-52365D01*
X55267Y-52308D01*
X55435Y-52308D01*
X55548Y-52365D01*
X55604Y-52477D01*
X55604Y-53096D01*
X56167Y-53096D02*
X56167Y-52308D01*
X56167Y-52421D02*
X56223Y-52365D01*
X56335Y-52308D01*
X56504Y-52308D01*
X56616Y-52365D01*
X56673Y-52477D01*
X56673Y-53096D01*
X56673Y-52477D02*
X56729Y-52365D01*
X56841Y-52308D01*
X57010Y-52308D01*
X57123Y-52365D01*
X57179Y-52477D01*
X57179Y-53096D01*
X59485Y-51858D02*
X58473Y-53377D01*
X61003Y-51915D02*
X61116Y-51915D01*
X61228Y-51971D01*
X61285Y-52027D01*
X61341Y-52140D01*
X61397Y-52365D01*
X61397Y-52646D01*
X61341Y-52871D01*
X61285Y-52983D01*
X61228Y-53039D01*
X61116Y-53096D01*
X61003Y-53096D01*
X60891Y-53039D01*
X60835Y-52983D01*
X60778Y-52871D01*
X60722Y-52646D01*
X60722Y-52365D01*
X60778Y-52140D01*
X60835Y-52027D01*
X60891Y-51971D01*
X61003Y-51915D01*
X61903Y-52983D02*
X61960Y-53039D01*
X61903Y-53096D01*
X61847Y-53039D01*
X61903Y-52983D01*
X61903Y-53096D01*
X62691Y-51915D02*
X62803Y-51915D01*
X62916Y-51971D01*
X62972Y-52027D01*
X63028Y-52140D01*
X63084Y-52365D01*
X63084Y-52646D01*
X63028Y-52871D01*
X62972Y-52983D01*
X62916Y-53039D01*
X62803Y-53096D01*
X62691Y-53096D01*
X62578Y-53039D01*
X62522Y-52983D01*
X62466Y-52871D01*
X62410Y-52646D01*
X62410Y-52365D01*
X62466Y-52140D01*
X62522Y-52027D01*
X62578Y-51971D01*
X62691Y-51915D01*
X63478Y-51915D02*
X64209Y-51915D01*
X63816Y-52365D01*
X63984Y-52365D01*
X64097Y-52421D01*
X64153Y-52477D01*
X64209Y-52589D01*
X64209Y-52871D01*
X64153Y-52983D01*
X64097Y-53039D01*
X63984Y-53096D01*
X63647Y-53096D01*
X63534Y-53039D01*
X63478Y-52983D01*
X64659Y-52027D02*
X64715Y-51971D01*
X64828Y-51915D01*
X65109Y-51915D01*
X65222Y-51971D01*
X65278Y-52027D01*
X65334Y-52140D01*
X65334Y-52252D01*
X65278Y-52421D01*
X64603Y-53096D01*
X65334Y-53096D01*
X65784Y-51915D02*
X65784Y-52140D01*
X66234Y-51915D02*
X66234Y-52140D01*
X67978Y-53546D02*
X67921Y-53489D01*
X67809Y-53321D01*
X67753Y-53208D01*
X67696Y-53039D01*
X67640Y-52758D01*
X67640Y-52533D01*
X67696Y-52252D01*
X67753Y-52083D01*
X67809Y-51971D01*
X67921Y-51802D01*
X67978Y-51746D01*
X68934Y-51915D02*
X68709Y-51915D01*
X68596Y-51971D01*
X68540Y-52027D01*
X68428Y-52196D01*
X68371Y-52421D01*
X68371Y-52871D01*
X68428Y-52983D01*
X68484Y-53039D01*
X68596Y-53096D01*
X68821Y-53096D01*
X68934Y-53039D01*
X68990Y-52983D01*
X69046Y-52871D01*
X69046Y-52589D01*
X68990Y-52477D01*
X68934Y-52421D01*
X68821Y-52365D01*
X68596Y-52365D01*
X68484Y-52421D01*
X68428Y-52477D01*
X68371Y-52589D01*
X70452Y-53096D02*
X70452Y-51915D01*
X70958Y-53096D02*
X70958Y-52477D01*
X70902Y-52365D01*
X70790Y-52308D01*
X70621Y-52308D01*
X70508Y-52365D01*
X70452Y-52421D01*
X71690Y-53096D02*
X71577Y-53039D01*
X71521Y-52983D01*
X71465Y-52871D01*
X71465Y-52533D01*
X71521Y-52421D01*
X71577Y-52365D01*
X71690Y-52308D01*
X71858Y-52308D01*
X71971Y-52365D01*
X72027Y-52421D01*
X72083Y-52533D01*
X72083Y-52871D01*
X72027Y-52983D01*
X71971Y-53039D01*
X71858Y-53096D01*
X71690Y-53096D01*
X72758Y-53096D02*
X72646Y-53039D01*
X72589Y-52927D01*
X72589Y-51915D01*
X73658Y-53039D02*
X73546Y-53096D01*
X73321Y-53096D01*
X73208Y-53039D01*
X73152Y-52927D01*
X73152Y-52477D01*
X73208Y-52365D01*
X73321Y-52308D01*
X73546Y-52308D01*
X73658Y-52365D01*
X73714Y-52477D01*
X73714Y-52589D01*
X73152Y-52702D01*
X74164Y-53039D02*
X74277Y-53096D01*
X74502Y-53096D01*
X74614Y-53039D01*
X74670Y-52927D01*
X74670Y-52871D01*
X74614Y-52758D01*
X74502Y-52702D01*
X74333Y-52702D01*
X74221Y-52646D01*
X74164Y-52533D01*
X74164Y-52477D01*
X74221Y-52365D01*
X74333Y-52308D01*
X74502Y-52308D01*
X74614Y-52365D01*
X75064Y-53546D02*
X75120Y-53489D01*
X75233Y-53321D01*
X75289Y-53208D01*
X75345Y-53039D01*
X75402Y-52758D01*
X75402Y-52533D01*
X75345Y-52252D01*
X75289Y-52083D01*
X75233Y-51971D01*
X75120Y-51802D01*
X75064Y-51746D01*
G54D12*
X49586Y-54177D02*
G75*
G03X49586Y-54177I-196J0D01*
G74*
G01*
G54D13*
X51273Y-54655D02*
X50598Y-54655D01*
X50936Y-54655D02*
X50936Y-53474D01*
X50823Y-53642D01*
X50711Y-53755D01*
X50598Y-53811D01*
X51780Y-54542D02*
X51836Y-54598D01*
X51780Y-54655D01*
X51723Y-54598D01*
X51780Y-54542D01*
X51780Y-54655D01*
X52567Y-53474D02*
X52679Y-53474D01*
X52792Y-53530D01*
X52848Y-53586D01*
X52904Y-53699D01*
X52961Y-53924D01*
X52961Y-54205D01*
X52904Y-54430D01*
X52848Y-54542D01*
X52792Y-54598D01*
X52679Y-54655D01*
X52567Y-54655D01*
X52455Y-54598D01*
X52398Y-54542D01*
X52342Y-54430D01*
X52286Y-54205D01*
X52286Y-53924D01*
X52342Y-53699D01*
X52398Y-53586D01*
X52455Y-53530D01*
X52567Y-53474D01*
X53692Y-53474D02*
X53804Y-53474D01*
X53917Y-53530D01*
X53973Y-53586D01*
X54029Y-53699D01*
X54086Y-53924D01*
X54086Y-54205D01*
X54029Y-54430D01*
X53973Y-54542D01*
X53917Y-54598D01*
X53804Y-54655D01*
X53692Y-54655D01*
X53579Y-54598D01*
X53523Y-54542D01*
X53467Y-54430D01*
X53411Y-54205D01*
X53411Y-53924D01*
X53467Y-53699D01*
X53523Y-53586D01*
X53579Y-53530D01*
X53692Y-53474D01*
X54592Y-54655D02*
X54592Y-53867D01*
X54592Y-53980D02*
X54648Y-53924D01*
X54760Y-53867D01*
X54929Y-53867D01*
X55042Y-53924D01*
X55098Y-54036D01*
X55098Y-54655D01*
X55098Y-54036D02*
X55154Y-53924D01*
X55267Y-53867D01*
X55435Y-53867D01*
X55548Y-53924D01*
X55604Y-54036D01*
X55604Y-54655D01*
X56167Y-54655D02*
X56167Y-53867D01*
X56167Y-53980D02*
X56223Y-53924D01*
X56335Y-53867D01*
X56504Y-53867D01*
X56616Y-53924D01*
X56673Y-54036D01*
X56673Y-54655D01*
X56673Y-54036D02*
X56729Y-53924D01*
X56841Y-53867D01*
X57010Y-53867D01*
X57123Y-53924D01*
X57179Y-54036D01*
X57179Y-54655D01*
X59485Y-53417D02*
X58473Y-54936D01*
X61003Y-53474D02*
X61116Y-53474D01*
X61228Y-53530D01*
X61285Y-53586D01*
X61341Y-53699D01*
X61397Y-53924D01*
X61397Y-54205D01*
X61341Y-54430D01*
X61285Y-54542D01*
X61228Y-54598D01*
X61116Y-54655D01*
X61003Y-54655D01*
X60891Y-54598D01*
X60835Y-54542D01*
X60778Y-54430D01*
X60722Y-54205D01*
X60722Y-53924D01*
X60778Y-53699D01*
X60835Y-53586D01*
X60891Y-53530D01*
X61003Y-53474D01*
X61903Y-54542D02*
X61960Y-54598D01*
X61903Y-54655D01*
X61847Y-54598D01*
X61903Y-54542D01*
X61903Y-54655D01*
X62691Y-53474D02*
X62803Y-53474D01*
X62916Y-53530D01*
X62972Y-53586D01*
X63028Y-53699D01*
X63084Y-53924D01*
X63084Y-54205D01*
X63028Y-54430D01*
X62972Y-54542D01*
X62916Y-54598D01*
X62803Y-54655D01*
X62691Y-54655D01*
X62578Y-54598D01*
X62522Y-54542D01*
X62466Y-54430D01*
X62410Y-54205D01*
X62410Y-53924D01*
X62466Y-53699D01*
X62522Y-53586D01*
X62578Y-53530D01*
X62691Y-53474D01*
X63478Y-53474D02*
X64209Y-53474D01*
X63816Y-53924D01*
X63984Y-53924D01*
X64097Y-53980D01*
X64153Y-54036D01*
X64209Y-54149D01*
X64209Y-54430D01*
X64153Y-54542D01*
X64097Y-54598D01*
X63984Y-54655D01*
X63647Y-54655D01*
X63534Y-54598D01*
X63478Y-54542D01*
X64772Y-54655D02*
X64997Y-54655D01*
X65109Y-54598D01*
X65165Y-54542D01*
X65278Y-54374D01*
X65334Y-54149D01*
X65334Y-53699D01*
X65278Y-53586D01*
X65222Y-53530D01*
X65109Y-53474D01*
X64884Y-53474D01*
X64772Y-53530D01*
X64715Y-53586D01*
X64659Y-53699D01*
X64659Y-53980D01*
X64715Y-54092D01*
X64772Y-54149D01*
X64884Y-54205D01*
X65109Y-54205D01*
X65222Y-54149D01*
X65278Y-54092D01*
X65334Y-53980D01*
X65784Y-53474D02*
X65784Y-53699D01*
X66234Y-53474D02*
X66234Y-53699D01*
X67978Y-55105D02*
X67921Y-55048D01*
X67809Y-54880D01*
X67753Y-54767D01*
X67696Y-54598D01*
X67640Y-54317D01*
X67640Y-54092D01*
X67696Y-53811D01*
X67753Y-53642D01*
X67809Y-53530D01*
X67921Y-53361D01*
X67978Y-53305D01*
X68371Y-53586D02*
X68428Y-53530D01*
X68540Y-53474D01*
X68821Y-53474D01*
X68934Y-53530D01*
X68990Y-53586D01*
X69046Y-53699D01*
X69046Y-53811D01*
X68990Y-53980D01*
X68315Y-54655D01*
X69046Y-54655D01*
X70452Y-54655D02*
X70452Y-53474D01*
X70958Y-54655D02*
X70958Y-54036D01*
X70902Y-53924D01*
X70790Y-53867D01*
X70621Y-53867D01*
X70508Y-53924D01*
X70452Y-53980D01*
X71690Y-54655D02*
X71577Y-54598D01*
X71521Y-54542D01*
X71465Y-54430D01*
X71465Y-54092D01*
X71521Y-53980D01*
X71577Y-53924D01*
X71690Y-53867D01*
X71858Y-53867D01*
X71971Y-53924D01*
X72027Y-53980D01*
X72083Y-54092D01*
X72083Y-54430D01*
X72027Y-54542D01*
X71971Y-54598D01*
X71858Y-54655D01*
X71690Y-54655D01*
X72758Y-54655D02*
X72646Y-54598D01*
X72589Y-54486D01*
X72589Y-53474D01*
X73658Y-54598D02*
X73546Y-54655D01*
X73321Y-54655D01*
X73208Y-54598D01*
X73152Y-54486D01*
X73152Y-54036D01*
X73208Y-53924D01*
X73321Y-53867D01*
X73546Y-53867D01*
X73658Y-53924D01*
X73714Y-54036D01*
X73714Y-54149D01*
X73152Y-54261D01*
X74164Y-54598D02*
X74277Y-54655D01*
X74502Y-54655D01*
X74614Y-54598D01*
X74670Y-54486D01*
X74670Y-54430D01*
X74614Y-54317D01*
X74502Y-54261D01*
X74333Y-54261D01*
X74221Y-54205D01*
X74164Y-54092D01*
X74164Y-54036D01*
X74221Y-53924D01*
X74333Y-53867D01*
X74502Y-53867D01*
X74614Y-53924D01*
X75064Y-55105D02*
X75120Y-55048D01*
X75233Y-54880D01*
X75289Y-54767D01*
X75345Y-54598D01*
X75402Y-54317D01*
X75402Y-54092D01*
X75345Y-53811D01*
X75289Y-53642D01*
X75233Y-53530D01*
X75120Y-53361D01*
X75064Y-53305D01*
X49386Y-55536D02*
X49386Y-55936D01*
X49186Y-55736D02*
X49586Y-55736D01*
X51273Y-56214D02*
X50598Y-56214D01*
X50936Y-56214D02*
X50936Y-55033D01*
X50823Y-55201D01*
X50711Y-55314D01*
X50598Y-55370D01*
X51780Y-56101D02*
X51836Y-56158D01*
X51780Y-56214D01*
X51723Y-56158D01*
X51780Y-56101D01*
X51780Y-56214D01*
X52567Y-55033D02*
X52679Y-55033D01*
X52792Y-55089D01*
X52848Y-55145D01*
X52904Y-55258D01*
X52961Y-55483D01*
X52961Y-55764D01*
X52904Y-55989D01*
X52848Y-56101D01*
X52792Y-56158D01*
X52679Y-56214D01*
X52567Y-56214D01*
X52455Y-56158D01*
X52398Y-56101D01*
X52342Y-55989D01*
X52286Y-55764D01*
X52286Y-55483D01*
X52342Y-55258D01*
X52398Y-55145D01*
X52455Y-55089D01*
X52567Y-55033D01*
X53411Y-55145D02*
X53467Y-55089D01*
X53579Y-55033D01*
X53861Y-55033D01*
X53973Y-55089D01*
X54029Y-55145D01*
X54086Y-55258D01*
X54086Y-55370D01*
X54029Y-55539D01*
X53354Y-56214D01*
X54086Y-56214D01*
X54592Y-56214D02*
X54592Y-55426D01*
X54592Y-55539D02*
X54648Y-55483D01*
X54760Y-55426D01*
X54929Y-55426D01*
X55042Y-55483D01*
X55098Y-55595D01*
X55098Y-56214D01*
X55098Y-55595D02*
X55154Y-55483D01*
X55267Y-55426D01*
X55435Y-55426D01*
X55548Y-55483D01*
X55604Y-55595D01*
X55604Y-56214D01*
X56167Y-56214D02*
X56167Y-55426D01*
X56167Y-55539D02*
X56223Y-55483D01*
X56335Y-55426D01*
X56504Y-55426D01*
X56616Y-55483D01*
X56673Y-55595D01*
X56673Y-56214D01*
X56673Y-55595D02*
X56729Y-55483D01*
X56841Y-55426D01*
X57010Y-55426D01*
X57123Y-55483D01*
X57179Y-55595D01*
X57179Y-56214D01*
X59485Y-54976D02*
X58473Y-56495D01*
X61003Y-55033D02*
X61116Y-55033D01*
X61228Y-55089D01*
X61285Y-55145D01*
X61341Y-55258D01*
X61397Y-55483D01*
X61397Y-55764D01*
X61341Y-55989D01*
X61285Y-56101D01*
X61228Y-56158D01*
X61116Y-56214D01*
X61003Y-56214D01*
X60891Y-56158D01*
X60835Y-56101D01*
X60778Y-55989D01*
X60722Y-55764D01*
X60722Y-55483D01*
X60778Y-55258D01*
X60835Y-55145D01*
X60891Y-55089D01*
X61003Y-55033D01*
X61903Y-56101D02*
X61960Y-56158D01*
X61903Y-56214D01*
X61847Y-56158D01*
X61903Y-56101D01*
X61903Y-56214D01*
X62691Y-55033D02*
X62803Y-55033D01*
X62916Y-55089D01*
X62972Y-55145D01*
X63028Y-55258D01*
X63084Y-55483D01*
X63084Y-55764D01*
X63028Y-55989D01*
X62972Y-56101D01*
X62916Y-56158D01*
X62803Y-56214D01*
X62691Y-56214D01*
X62578Y-56158D01*
X62522Y-56101D01*
X62466Y-55989D01*
X62410Y-55764D01*
X62410Y-55483D01*
X62466Y-55258D01*
X62522Y-55145D01*
X62578Y-55089D01*
X62691Y-55033D01*
X64097Y-55426D02*
X64097Y-56214D01*
X63816Y-54976D02*
X63534Y-55820D01*
X64266Y-55820D01*
X64940Y-55033D02*
X65053Y-55033D01*
X65165Y-55089D01*
X65222Y-55145D01*
X65278Y-55258D01*
X65334Y-55483D01*
X65334Y-55764D01*
X65278Y-55989D01*
X65222Y-56101D01*
X65165Y-56158D01*
X65053Y-56214D01*
X64940Y-56214D01*
X64828Y-56158D01*
X64772Y-56101D01*
X64715Y-55989D01*
X64659Y-55764D01*
X64659Y-55483D01*
X64715Y-55258D01*
X64772Y-55145D01*
X64828Y-55089D01*
X64940Y-55033D01*
X65784Y-55033D02*
X65784Y-55258D01*
X66234Y-55033D02*
X66234Y-55258D01*
X67978Y-56664D02*
X67921Y-56607D01*
X67809Y-56439D01*
X67753Y-56326D01*
X67696Y-56158D01*
X67640Y-55876D01*
X67640Y-55651D01*
X67696Y-55370D01*
X67753Y-55201D01*
X67809Y-55089D01*
X67921Y-54920D01*
X67978Y-54864D01*
X68934Y-55426D02*
X68934Y-56214D01*
X68652Y-54976D02*
X68371Y-55820D01*
X69102Y-55820D01*
X70059Y-55033D02*
X69834Y-55033D01*
X69721Y-55089D01*
X69665Y-55145D01*
X69552Y-55314D01*
X69496Y-55539D01*
X69496Y-55989D01*
X69552Y-56101D01*
X69609Y-56158D01*
X69721Y-56214D01*
X69946Y-56214D01*
X70059Y-56158D01*
X70115Y-56101D01*
X70171Y-55989D01*
X70171Y-55708D01*
X70115Y-55595D01*
X70059Y-55539D01*
X69946Y-55483D01*
X69721Y-55483D01*
X69609Y-55539D01*
X69552Y-55595D01*
X69496Y-55708D01*
X71577Y-56214D02*
X71577Y-55033D01*
X72083Y-56214D02*
X72083Y-55595D01*
X72027Y-55483D01*
X71915Y-55426D01*
X71746Y-55426D01*
X71633Y-55483D01*
X71577Y-55539D01*
X72814Y-56214D02*
X72702Y-56158D01*
X72646Y-56101D01*
X72589Y-55989D01*
X72589Y-55651D01*
X72646Y-55539D01*
X72702Y-55483D01*
X72814Y-55426D01*
X72983Y-55426D01*
X73096Y-55483D01*
X73152Y-55539D01*
X73208Y-55651D01*
X73208Y-55989D01*
X73152Y-56101D01*
X73096Y-56158D01*
X72983Y-56214D01*
X72814Y-56214D01*
X73883Y-56214D02*
X73771Y-56158D01*
X73714Y-56045D01*
X73714Y-55033D01*
X74783Y-56158D02*
X74670Y-56214D01*
X74446Y-56214D01*
X74333Y-56158D01*
X74277Y-56045D01*
X74277Y-55595D01*
X74333Y-55483D01*
X74446Y-55426D01*
X74670Y-55426D01*
X74783Y-55483D01*
X74839Y-55595D01*
X74839Y-55708D01*
X74277Y-55820D01*
X75289Y-56158D02*
X75402Y-56214D01*
X75627Y-56214D01*
X75739Y-56158D01*
X75795Y-56045D01*
X75795Y-55989D01*
X75739Y-55876D01*
X75627Y-55820D01*
X75458Y-55820D01*
X75345Y-55764D01*
X75289Y-55651D01*
X75289Y-55595D01*
X75345Y-55483D01*
X75458Y-55426D01*
X75627Y-55426D01*
X75739Y-55483D01*
X76189Y-56664D02*
X76245Y-56607D01*
X76358Y-56439D01*
X76414Y-56326D01*
X76470Y-56158D01*
X76526Y-55876D01*
X76526Y-55651D01*
X76470Y-55370D01*
X76414Y-55201D01*
X76358Y-55089D01*
X76245Y-54920D01*
X76189Y-54864D01*
G54D12*
X49520Y-57454D02*
X49520Y-57136D01*
X49202Y-57136D01*
X49202Y-57454D01*
X49520Y-57454D01*
G54D13*
X51273Y-57773D02*
X50598Y-57773D01*
X50936Y-57773D02*
X50936Y-56592D01*
X50823Y-56760D01*
X50711Y-56873D01*
X50598Y-56929D01*
X51780Y-57660D02*
X51836Y-57717D01*
X51780Y-57773D01*
X51723Y-57717D01*
X51780Y-57660D01*
X51780Y-57773D01*
X52961Y-57773D02*
X52286Y-57773D01*
X52623Y-57773D02*
X52623Y-56592D01*
X52511Y-56760D01*
X52398Y-56873D01*
X52286Y-56929D01*
X53973Y-56985D02*
X53973Y-57773D01*
X53692Y-56535D02*
X53411Y-57379D01*
X54142Y-57379D01*
X54592Y-57773D02*
X54592Y-56985D01*
X54592Y-57098D02*
X54648Y-57042D01*
X54760Y-56985D01*
X54929Y-56985D01*
X55042Y-57042D01*
X55098Y-57154D01*
X55098Y-57773D01*
X55098Y-57154D02*
X55154Y-57042D01*
X55267Y-56985D01*
X55435Y-56985D01*
X55548Y-57042D01*
X55604Y-57154D01*
X55604Y-57773D01*
X56167Y-57773D02*
X56167Y-56985D01*
X56167Y-57098D02*
X56223Y-57042D01*
X56335Y-56985D01*
X56504Y-56985D01*
X56616Y-57042D01*
X56673Y-57154D01*
X56673Y-57773D01*
X56673Y-57154D02*
X56729Y-57042D01*
X56841Y-56985D01*
X57010Y-56985D01*
X57123Y-57042D01*
X57179Y-57154D01*
X57179Y-57773D01*
X59485Y-56535D02*
X58473Y-58054D01*
X61003Y-56592D02*
X61116Y-56592D01*
X61228Y-56648D01*
X61285Y-56704D01*
X61341Y-56817D01*
X61397Y-57042D01*
X61397Y-57323D01*
X61341Y-57548D01*
X61285Y-57660D01*
X61228Y-57717D01*
X61116Y-57773D01*
X61003Y-57773D01*
X60891Y-57717D01*
X60835Y-57660D01*
X60778Y-57548D01*
X60722Y-57323D01*
X60722Y-57042D01*
X60778Y-56817D01*
X60835Y-56704D01*
X60891Y-56648D01*
X61003Y-56592D01*
X61903Y-57660D02*
X61960Y-57717D01*
X61903Y-57773D01*
X61847Y-57717D01*
X61903Y-57660D01*
X61903Y-57773D01*
X62691Y-56592D02*
X62803Y-56592D01*
X62916Y-56648D01*
X62972Y-56704D01*
X63028Y-56817D01*
X63084Y-57042D01*
X63084Y-57323D01*
X63028Y-57548D01*
X62972Y-57660D01*
X62916Y-57717D01*
X62803Y-57773D01*
X62691Y-57773D01*
X62578Y-57717D01*
X62522Y-57660D01*
X62466Y-57548D01*
X62410Y-57323D01*
X62410Y-57042D01*
X62466Y-56817D01*
X62522Y-56704D01*
X62578Y-56648D01*
X62691Y-56592D01*
X64097Y-56985D02*
X64097Y-57773D01*
X63816Y-56535D02*
X63534Y-57379D01*
X64266Y-57379D01*
X65278Y-56592D02*
X64715Y-56592D01*
X64659Y-57154D01*
X64715Y-57098D01*
X64828Y-57042D01*
X65109Y-57042D01*
X65222Y-57098D01*
X65278Y-57154D01*
X65334Y-57267D01*
X65334Y-57548D01*
X65278Y-57660D01*
X65222Y-57717D01*
X65109Y-57773D01*
X64828Y-57773D01*
X64715Y-57717D01*
X64659Y-57660D01*
X65784Y-56592D02*
X65784Y-56817D01*
X66234Y-56592D02*
X66234Y-56817D01*
X67978Y-58223D02*
X67921Y-58167D01*
X67809Y-57998D01*
X67753Y-57885D01*
X67696Y-57717D01*
X67640Y-57435D01*
X67640Y-57210D01*
X67696Y-56929D01*
X67753Y-56760D01*
X67809Y-56648D01*
X67921Y-56479D01*
X67978Y-56423D01*
X68315Y-56592D02*
X69046Y-56592D01*
X68652Y-57042D01*
X68821Y-57042D01*
X68934Y-57098D01*
X68990Y-57154D01*
X69046Y-57267D01*
X69046Y-57548D01*
X68990Y-57660D01*
X68934Y-57717D01*
X68821Y-57773D01*
X68484Y-57773D01*
X68371Y-57717D01*
X68315Y-57660D01*
X70452Y-57773D02*
X70452Y-56592D01*
X70958Y-57773D02*
X70958Y-57154D01*
X70902Y-57042D01*
X70790Y-56985D01*
X70621Y-56985D01*
X70508Y-57042D01*
X70452Y-57098D01*
X71690Y-57773D02*
X71577Y-57717D01*
X71521Y-57660D01*
X71465Y-57548D01*
X71465Y-57210D01*
X71521Y-57098D01*
X71577Y-57042D01*
X71690Y-56985D01*
X71858Y-56985D01*
X71971Y-57042D01*
X72027Y-57098D01*
X72083Y-57210D01*
X72083Y-57548D01*
X72027Y-57660D01*
X71971Y-57717D01*
X71858Y-57773D01*
X71690Y-57773D01*
X72758Y-57773D02*
X72646Y-57717D01*
X72589Y-57604D01*
X72589Y-56592D01*
X73658Y-57717D02*
X73546Y-57773D01*
X73321Y-57773D01*
X73208Y-57717D01*
X73152Y-57604D01*
X73152Y-57154D01*
X73208Y-57042D01*
X73321Y-56985D01*
X73546Y-56985D01*
X73658Y-57042D01*
X73714Y-57154D01*
X73714Y-57267D01*
X73152Y-57379D01*
X74164Y-57717D02*
X74277Y-57773D01*
X74502Y-57773D01*
X74614Y-57717D01*
X74670Y-57604D01*
X74670Y-57548D01*
X74614Y-57435D01*
X74502Y-57379D01*
X74333Y-57379D01*
X74221Y-57323D01*
X74164Y-57210D01*
X74164Y-57154D01*
X74221Y-57042D01*
X74333Y-56985D01*
X74502Y-56985D01*
X74614Y-57042D01*
X75064Y-58223D02*
X75120Y-58167D01*
X75233Y-57998D01*
X75289Y-57885D01*
X75345Y-57717D01*
X75402Y-57435D01*
X75402Y-57210D01*
X75345Y-56929D01*
X75289Y-56760D01*
X75233Y-56648D01*
X75120Y-56479D01*
X75064Y-56423D01*
G54D12*
X48986Y-59454D02*
X49586Y-58854D01*
X48986Y-58254D01*
X48386Y-58854D01*
X48986Y-59454D01*
G54D13*
X50542Y-58151D02*
X51273Y-58151D01*
X50880Y-58601D01*
X51048Y-58601D01*
X51161Y-58657D01*
X51217Y-58713D01*
X51273Y-58826D01*
X51273Y-59107D01*
X51217Y-59219D01*
X51161Y-59276D01*
X51048Y-59332D01*
X50711Y-59332D01*
X50598Y-59276D01*
X50542Y-59219D01*
X51780Y-59219D02*
X51836Y-59276D01*
X51780Y-59332D01*
X51723Y-59276D01*
X51780Y-59219D01*
X51780Y-59332D01*
X52567Y-58151D02*
X52679Y-58151D01*
X52792Y-58207D01*
X52848Y-58263D01*
X52904Y-58376D01*
X52961Y-58601D01*
X52961Y-58882D01*
X52904Y-59107D01*
X52848Y-59219D01*
X52792Y-59276D01*
X52679Y-59332D01*
X52567Y-59332D01*
X52455Y-59276D01*
X52398Y-59219D01*
X52342Y-59107D01*
X52286Y-58882D01*
X52286Y-58601D01*
X52342Y-58376D01*
X52398Y-58263D01*
X52455Y-58207D01*
X52567Y-58151D01*
X54029Y-58151D02*
X53467Y-58151D01*
X53411Y-58713D01*
X53467Y-58657D01*
X53579Y-58601D01*
X53861Y-58601D01*
X53973Y-58657D01*
X54029Y-58713D01*
X54086Y-58826D01*
X54086Y-59107D01*
X54029Y-59219D01*
X53973Y-59276D01*
X53861Y-59332D01*
X53579Y-59332D01*
X53467Y-59276D01*
X53411Y-59219D01*
X54592Y-59332D02*
X54592Y-58544D01*
X54592Y-58657D02*
X54648Y-58601D01*
X54760Y-58544D01*
X54929Y-58544D01*
X55042Y-58601D01*
X55098Y-58713D01*
X55098Y-59332D01*
X55098Y-58713D02*
X55154Y-58601D01*
X55267Y-58544D01*
X55435Y-58544D01*
X55548Y-58601D01*
X55604Y-58713D01*
X55604Y-59332D01*
X56167Y-59332D02*
X56167Y-58544D01*
X56167Y-58657D02*
X56223Y-58601D01*
X56335Y-58544D01*
X56504Y-58544D01*
X56616Y-58601D01*
X56673Y-58713D01*
X56673Y-59332D01*
X56673Y-58713D02*
X56729Y-58601D01*
X56841Y-58544D01*
X57010Y-58544D01*
X57123Y-58601D01*
X57179Y-58713D01*
X57179Y-59332D01*
X59485Y-58095D02*
X58473Y-59613D01*
X61003Y-58151D02*
X61116Y-58151D01*
X61228Y-58207D01*
X61285Y-58263D01*
X61341Y-58376D01*
X61397Y-58601D01*
X61397Y-58882D01*
X61341Y-59107D01*
X61285Y-59219D01*
X61228Y-59276D01*
X61116Y-59332D01*
X61003Y-59332D01*
X60891Y-59276D01*
X60835Y-59219D01*
X60778Y-59107D01*
X60722Y-58882D01*
X60722Y-58601D01*
X60778Y-58376D01*
X60835Y-58263D01*
X60891Y-58207D01*
X61003Y-58151D01*
X61903Y-59219D02*
X61960Y-59276D01*
X61903Y-59332D01*
X61847Y-59276D01*
X61903Y-59219D01*
X61903Y-59332D01*
X63084Y-59332D02*
X62410Y-59332D01*
X62747Y-59332D02*
X62747Y-58151D01*
X62634Y-58320D01*
X62522Y-58432D01*
X62410Y-58488D01*
X63534Y-58263D02*
X63591Y-58207D01*
X63703Y-58151D01*
X63984Y-58151D01*
X64097Y-58207D01*
X64153Y-58263D01*
X64209Y-58376D01*
X64209Y-58488D01*
X64153Y-58657D01*
X63478Y-59332D01*
X64209Y-59332D01*
X64940Y-58151D02*
X65053Y-58151D01*
X65165Y-58207D01*
X65222Y-58263D01*
X65278Y-58376D01*
X65334Y-58601D01*
X65334Y-58882D01*
X65278Y-59107D01*
X65222Y-59219D01*
X65165Y-59276D01*
X65053Y-59332D01*
X64940Y-59332D01*
X64828Y-59276D01*
X64772Y-59219D01*
X64715Y-59107D01*
X64659Y-58882D01*
X64659Y-58601D01*
X64715Y-58376D01*
X64772Y-58263D01*
X64828Y-58207D01*
X64940Y-58151D01*
X65784Y-58151D02*
X65784Y-58376D01*
X66234Y-58151D02*
X66234Y-58376D01*
X67978Y-59782D02*
X67921Y-59726D01*
X67809Y-59557D01*
X67753Y-59444D01*
X67696Y-59276D01*
X67640Y-58994D01*
X67640Y-58769D01*
X67696Y-58488D01*
X67753Y-58320D01*
X67809Y-58207D01*
X67921Y-58038D01*
X67978Y-57982D01*
X68990Y-58151D02*
X68428Y-58151D01*
X68371Y-58713D01*
X68428Y-58657D01*
X68540Y-58601D01*
X68821Y-58601D01*
X68934Y-58657D01*
X68990Y-58713D01*
X69046Y-58826D01*
X69046Y-59107D01*
X68990Y-59219D01*
X68934Y-59276D01*
X68821Y-59332D01*
X68540Y-59332D01*
X68428Y-59276D01*
X68371Y-59219D01*
X70452Y-59332D02*
X70452Y-58151D01*
X70958Y-59332D02*
X70958Y-58713D01*
X70902Y-58601D01*
X70790Y-58544D01*
X70621Y-58544D01*
X70508Y-58601D01*
X70452Y-58657D01*
X71690Y-59332D02*
X71577Y-59276D01*
X71521Y-59219D01*
X71465Y-59107D01*
X71465Y-58769D01*
X71521Y-58657D01*
X71577Y-58601D01*
X71690Y-58544D01*
X71858Y-58544D01*
X71971Y-58601D01*
X72027Y-58657D01*
X72083Y-58769D01*
X72083Y-59107D01*
X72027Y-59219D01*
X71971Y-59276D01*
X71858Y-59332D01*
X71690Y-59332D01*
X72758Y-59332D02*
X72646Y-59276D01*
X72589Y-59163D01*
X72589Y-58151D01*
X73658Y-59276D02*
X73546Y-59332D01*
X73321Y-59332D01*
X73208Y-59276D01*
X73152Y-59163D01*
X73152Y-58713D01*
X73208Y-58601D01*
X73321Y-58544D01*
X73546Y-58544D01*
X73658Y-58601D01*
X73714Y-58713D01*
X73714Y-58826D01*
X73152Y-58938D01*
X74164Y-59276D02*
X74277Y-59332D01*
X74502Y-59332D01*
X74614Y-59276D01*
X74670Y-59163D01*
X74670Y-59107D01*
X74614Y-58994D01*
X74502Y-58938D01*
X74333Y-58938D01*
X74221Y-58882D01*
X74164Y-58769D01*
X74164Y-58713D01*
X74221Y-58601D01*
X74333Y-58544D01*
X74502Y-58544D01*
X74614Y-58601D01*
X75064Y-59782D02*
X75120Y-59726D01*
X75233Y-59557D01*
X75289Y-59444D01*
X75345Y-59276D01*
X75402Y-58994D01*
X75402Y-58769D01*
X75345Y-58488D01*
X75289Y-58320D01*
X75233Y-58207D01*
X75120Y-58038D01*
X75064Y-57982D01*
M02*
