M48
;DRILL file {Pcbnew (2013-07-07 BZR 4022)-stable} date 1/3/2015 3:59:36 PM
;FORMAT={-:-/ absolute / metric / decimal}
FMAT,2
METRIC,TZ
T1C0.813
T2C0.998
T3C1.016
T4C1.143
T5C3.048
%
G90
G05
M71
T1
X135.Y-93.73
X135.Y-96.27
X135.Y-99.19
X135.Y-106.81
X158.Y-79.73
X158.Y-82.27
T2
X129.Y-85.73
X129.Y-88.27
T3
X133.87Y-69.73
X133.87Y-72.27
X136.41Y-69.73
X136.41Y-72.27
X137.99Y-113.49
X138.95Y-69.73
X138.95Y-72.27
X140.53Y-113.49
X141.49Y-69.73
X141.49Y-72.27
X143.07Y-113.49
X144.03Y-69.73
X144.03Y-72.27
X146.57Y-69.73
X146.57Y-72.27
X148.15Y-113.49
X149.11Y-69.73
X149.11Y-72.27
X150.69Y-113.49
X151.65Y-69.73
X151.65Y-72.27
X153.23Y-113.49
X154.19Y-69.73
X154.19Y-72.27
X156.73Y-69.73
X156.73Y-72.27
X159.27Y-69.73
X159.27Y-72.27
X161.81Y-69.73
X161.81Y-72.27
X164.35Y-69.73
X164.35Y-72.27
X166.89Y-69.73
X166.89Y-72.27
X169.43Y-69.73
X169.43Y-72.27
X171.97Y-69.73
X171.97Y-72.27
X174.51Y-69.73
X174.51Y-72.27
X177.05Y-69.73
X177.05Y-72.27
X179.59Y-69.73
X179.59Y-72.27
X182.13Y-69.73
X182.13Y-72.27
T4
X163.Y-79.46
X163.Y-82.
X163.Y-84.54
T5
X129.Y-71.
X129.Y-121.
X179.51Y-82.
X187.Y-71.
X187.Y-121.
T0
M30
