M48
;DRILL file {Pcbnew (2013-07-07 BZR 4022)-stable} date 1/3/2015 11:47:02 AM
;FORMAT={-:-/ absolute / metric / decimal}
FMAT,2
METRIC,TZ
T1C0.635
T2C0.813
T3C0.998
T4C1.016
T5C1.143
T6C3.048
%
G90
G05
M71
T1
X45.72Y-76.2
X49.53Y-81.28
X50.8Y-97.79
X59.69Y-100.33
T2
X40.64Y-90.17
X40.64Y-92.71
X40.64Y-95.25
X40.64Y-102.87
X63.5Y-95.25
X63.5Y-97.79
T3
X40.64Y-83.82
X40.64Y-86.36
T4
X44.45Y-67.31
X44.45Y-69.85
X46.99Y-67.31
X46.99Y-69.85
X46.99Y-110.49
X49.53Y-67.31
X49.53Y-69.85
X49.53Y-110.49
X52.07Y-67.31
X52.07Y-69.85
X52.07Y-110.49
X54.61Y-67.31
X54.61Y-69.85
X57.15Y-67.31
X57.15Y-69.85
X57.15Y-110.49
X59.69Y-67.31
X59.69Y-69.85
X59.69Y-110.49
X62.23Y-67.31
X62.23Y-69.85
X62.23Y-110.49
X64.77Y-67.31
X64.77Y-69.85
X67.31Y-67.31
X67.31Y-69.85
X69.85Y-67.31
X69.85Y-69.85
X72.39Y-67.31
X72.39Y-69.85
X74.93Y-67.31
X74.93Y-69.85
X77.47Y-67.31
X77.47Y-69.85
X80.01Y-67.31
X80.01Y-69.85
X82.55Y-67.31
X82.55Y-69.85
X85.09Y-67.31
X85.09Y-69.85
X87.63Y-67.31
X87.63Y-69.85
X90.17Y-67.31
X90.17Y-69.85
X92.71Y-67.31
X92.71Y-69.85
T5
X68.58Y-95.25
X68.58Y-97.79
X68.58Y-100.33
T6
X40.64Y-67.31
X40.64Y-111.76
X85.09Y-97.79
X95.25Y-111.76
T0
M30
