G04 (created by PCBNEW (2013-07-07 BZR 4022)-stable) date 1/3/2015 11:45:17 PM*
%MOIN*%
G04 Gerber Fmt 3.4, Leading zero omitted, Abs format*
%FSLAX34Y34*%
G01*
G70*
G90*
G04 APERTURE LIST*
%ADD10C,0.00590551*%
%ADD11C,0.00787402*%
%ADD12C,0.011811*%
%ADD13C,0.008*%
%ADD14C,0.012*%
%ADD15C,0.01*%
%ADD16C,0.006*%
%ADD17C,0.015*%
%ADD18C,0.0108*%
%ADD19C,0.0035*%
G04 APERTURE END LIST*
G54D10*
G54D11*
X66551Y-39554D02*
G75*
G03X67050Y-41054I999J-500D01*
G74*
G01*
X67051Y-41055D02*
G75*
G03X67551Y-41555I500J0D01*
G74*
G01*
X67551Y-41555D02*
G75*
G03X68051Y-41055I0J500D01*
G74*
G01*
X68051Y-41055D02*
G75*
G03X70051Y-41055I1000J1000D01*
G74*
G01*
X70051Y-41055D02*
G75*
G03X70551Y-41555I500J0D01*
G74*
G01*
X70551Y-41555D02*
G75*
G03X71051Y-41055I0J500D01*
G74*
G01*
X71051Y-41055D02*
G75*
G03X70551Y-40555I-500J0D01*
G74*
G01*
X71051Y-41055D02*
G75*
G03X70551Y-38555I-1499J1000D01*
G74*
G01*
X68051Y-38555D02*
G75*
G03X66551Y-40055I0J-1500D01*
G74*
G01*
X70552Y-38555D02*
G75*
G03X67051Y-39054I-1501J-1999D01*
G74*
G01*
X66758Y-40555D02*
G75*
G03X66758Y-40555I-707J0D01*
G74*
G01*
G54D12*
X60714Y-42235D02*
X61052Y-42235D01*
X60883Y-42825D02*
X60883Y-42235D01*
X61502Y-42431D02*
X61502Y-42825D01*
X61249Y-42431D02*
X61249Y-42741D01*
X61277Y-42797D01*
X61333Y-42825D01*
X61417Y-42825D01*
X61474Y-42797D01*
X61502Y-42769D01*
X61783Y-42825D02*
X61783Y-42431D01*
X61783Y-42544D02*
X61811Y-42488D01*
X61839Y-42460D01*
X61895Y-42431D01*
X61952Y-42431D01*
X62064Y-42431D02*
X62289Y-42431D01*
X62149Y-42235D02*
X62149Y-42741D01*
X62177Y-42797D01*
X62233Y-42825D01*
X62289Y-42825D01*
X62570Y-42825D02*
X62514Y-42797D01*
X62486Y-42741D01*
X62486Y-42235D01*
X63020Y-42797D02*
X62964Y-42825D01*
X62852Y-42825D01*
X62795Y-42797D01*
X62767Y-42741D01*
X62767Y-42516D01*
X62795Y-42460D01*
X62852Y-42431D01*
X62964Y-42431D01*
X63020Y-42460D01*
X63048Y-42516D01*
X63048Y-42572D01*
X62767Y-42628D01*
X63498Y-42516D02*
X63583Y-42544D01*
X63611Y-42572D01*
X63639Y-42628D01*
X63639Y-42713D01*
X63611Y-42769D01*
X63583Y-42797D01*
X63526Y-42825D01*
X63302Y-42825D01*
X63302Y-42235D01*
X63498Y-42235D01*
X63555Y-42263D01*
X63583Y-42291D01*
X63611Y-42347D01*
X63611Y-42403D01*
X63583Y-42460D01*
X63555Y-42488D01*
X63498Y-42516D01*
X63302Y-42516D01*
X63976Y-42825D02*
X63920Y-42797D01*
X63892Y-42769D01*
X63864Y-42713D01*
X63864Y-42544D01*
X63892Y-42488D01*
X63920Y-42460D01*
X63976Y-42431D01*
X64061Y-42431D01*
X64117Y-42460D01*
X64145Y-42488D01*
X64173Y-42544D01*
X64173Y-42713D01*
X64145Y-42769D01*
X64117Y-42797D01*
X64061Y-42825D01*
X63976Y-42825D01*
X64342Y-42431D02*
X64567Y-42431D01*
X64426Y-42235D02*
X64426Y-42741D01*
X64455Y-42797D01*
X64511Y-42825D01*
X64567Y-42825D01*
X65186Y-42797D02*
X65270Y-42825D01*
X65411Y-42825D01*
X65467Y-42797D01*
X65495Y-42769D01*
X65523Y-42713D01*
X65523Y-42656D01*
X65495Y-42600D01*
X65467Y-42572D01*
X65411Y-42544D01*
X65298Y-42516D01*
X65242Y-42488D01*
X65214Y-42460D01*
X65186Y-42403D01*
X65186Y-42347D01*
X65214Y-42291D01*
X65242Y-42263D01*
X65298Y-42235D01*
X65439Y-42235D01*
X65523Y-42263D01*
X66001Y-42797D02*
X65945Y-42825D01*
X65832Y-42825D01*
X65776Y-42797D01*
X65748Y-42741D01*
X65748Y-42516D01*
X65776Y-42460D01*
X65832Y-42431D01*
X65945Y-42431D01*
X66001Y-42460D01*
X66029Y-42516D01*
X66029Y-42572D01*
X65748Y-42628D01*
X66282Y-42825D02*
X66282Y-42431D01*
X66282Y-42544D02*
X66311Y-42488D01*
X66339Y-42460D01*
X66395Y-42431D01*
X66451Y-42431D01*
X66592Y-42431D02*
X66732Y-42825D01*
X66873Y-42431D01*
X67182Y-42825D02*
X67126Y-42797D01*
X67098Y-42769D01*
X67070Y-42713D01*
X67070Y-42544D01*
X67098Y-42488D01*
X67126Y-42460D01*
X67182Y-42431D01*
X67267Y-42431D01*
X67323Y-42460D01*
X67351Y-42488D01*
X67379Y-42544D01*
X67379Y-42713D01*
X67351Y-42769D01*
X67323Y-42797D01*
X67267Y-42825D01*
X67182Y-42825D01*
X67829Y-42516D02*
X67913Y-42544D01*
X67942Y-42572D01*
X67970Y-42628D01*
X67970Y-42713D01*
X67942Y-42769D01*
X67913Y-42797D01*
X67857Y-42825D01*
X67632Y-42825D01*
X67632Y-42235D01*
X67829Y-42235D01*
X67885Y-42263D01*
X67913Y-42291D01*
X67942Y-42347D01*
X67942Y-42403D01*
X67913Y-42460D01*
X67885Y-42488D01*
X67829Y-42516D01*
X67632Y-42516D01*
X68307Y-42825D02*
X68251Y-42797D01*
X68223Y-42769D01*
X68195Y-42713D01*
X68195Y-42544D01*
X68223Y-42488D01*
X68251Y-42460D01*
X68307Y-42431D01*
X68392Y-42431D01*
X68448Y-42460D01*
X68476Y-42488D01*
X68504Y-42544D01*
X68504Y-42713D01*
X68476Y-42769D01*
X68448Y-42797D01*
X68392Y-42825D01*
X68307Y-42825D01*
X69010Y-42825D02*
X69010Y-42516D01*
X68982Y-42460D01*
X68926Y-42431D01*
X68813Y-42431D01*
X68757Y-42460D01*
X69010Y-42797D02*
X68954Y-42825D01*
X68813Y-42825D01*
X68757Y-42797D01*
X68729Y-42741D01*
X68729Y-42685D01*
X68757Y-42628D01*
X68813Y-42600D01*
X68954Y-42600D01*
X69010Y-42572D01*
X69291Y-42825D02*
X69291Y-42431D01*
X69291Y-42544D02*
X69320Y-42488D01*
X69348Y-42460D01*
X69404Y-42431D01*
X69460Y-42431D01*
X69910Y-42825D02*
X69910Y-42235D01*
X69910Y-42797D02*
X69854Y-42825D01*
X69741Y-42825D01*
X69685Y-42797D01*
X69657Y-42769D01*
X69629Y-42713D01*
X69629Y-42544D01*
X69657Y-42488D01*
X69685Y-42460D01*
X69741Y-42431D01*
X69854Y-42431D01*
X69910Y-42460D01*
X70585Y-42431D02*
X70726Y-42825D01*
X70866Y-42431D01*
X71204Y-42235D02*
X71260Y-42235D01*
X71316Y-42263D01*
X71344Y-42291D01*
X71372Y-42347D01*
X71401Y-42460D01*
X71401Y-42600D01*
X71372Y-42713D01*
X71344Y-42769D01*
X71316Y-42797D01*
X71260Y-42825D01*
X71204Y-42825D01*
X71147Y-42797D01*
X71119Y-42769D01*
X71091Y-42713D01*
X71063Y-42600D01*
X71063Y-42460D01*
X71091Y-42347D01*
X71119Y-42291D01*
X71147Y-42263D01*
X71204Y-42235D01*
X71654Y-42769D02*
X71682Y-42797D01*
X71654Y-42825D01*
X71625Y-42797D01*
X71654Y-42769D01*
X71654Y-42825D01*
X72244Y-42825D02*
X71907Y-42825D01*
X72075Y-42825D02*
X72075Y-42235D01*
X72019Y-42319D01*
X71963Y-42375D01*
X71907Y-42403D01*
G54D13*
X53149Y-42051D02*
X53149Y-41851D01*
X53149Y-39051D02*
X53149Y-39251D01*
X53149Y-39251D02*
X52749Y-39251D01*
X52749Y-39251D02*
X52749Y-41851D01*
X52749Y-41851D02*
X53549Y-41851D01*
X53549Y-41851D02*
X53549Y-39251D01*
X53549Y-39251D02*
X53149Y-39251D01*
X52949Y-41851D02*
X52749Y-41651D01*
G54D14*
X72204Y-28952D02*
X52204Y-28952D01*
X72204Y-26952D02*
X52204Y-26952D01*
X72204Y-26952D02*
X72204Y-28952D01*
X52204Y-26952D02*
X52204Y-28952D01*
X64173Y-31283D02*
X66173Y-31283D01*
X64173Y-32283D02*
X66173Y-32283D01*
X64173Y-33283D02*
X66173Y-33283D01*
X66173Y-30783D02*
X66173Y-34283D01*
X66173Y-34283D02*
X72173Y-34283D01*
X72173Y-34283D02*
X72173Y-30283D01*
X66173Y-30783D02*
X66173Y-30283D01*
X69173Y-33783D02*
X69173Y-30283D01*
X69173Y-33783D02*
X69173Y-34283D01*
X66173Y-30283D02*
X72173Y-30283D01*
G54D15*
X53649Y-36681D02*
X52649Y-36681D01*
G54D16*
X52765Y-37762D02*
G75*
G03X53149Y-37901I384J460D01*
G74*
G01*
X53149Y-37900D02*
G75*
G03X53547Y-37749I0J599D01*
G74*
G01*
X53149Y-36702D02*
G75*
G03X52759Y-36846I0J-599D01*
G74*
G01*
X53533Y-36840D02*
G75*
G03X53149Y-36701I-384J-460D01*
G74*
G01*
X52800Y-36813D02*
G75*
G03X52549Y-37301I349J-487D01*
G74*
G01*
X52549Y-37301D02*
G75*
G03X52789Y-37781I600J0D01*
G74*
G01*
X53748Y-37301D02*
G75*
G03X53517Y-36828I-599J0D01*
G74*
G01*
X53518Y-37775D02*
G75*
G03X53749Y-37301I-368J473D01*
G74*
G01*
X52899Y-37301D02*
G75*
G03X53149Y-37551I250J0D01*
G74*
G01*
X52749Y-37301D02*
G75*
G03X53149Y-37701I400J0D01*
G74*
G01*
X53399Y-37301D02*
G75*
G03X53149Y-37051I-250J0D01*
G74*
G01*
X53549Y-37301D02*
G75*
G03X53149Y-36901I-400J0D01*
G74*
G01*
G54D15*
X52636Y-36687D02*
G75*
G03X52349Y-37301I513J-613D01*
G74*
G01*
X52350Y-37301D02*
G75*
G03X52773Y-38006I799J0D01*
G74*
G01*
X53948Y-37300D02*
G75*
G03X53665Y-36691I-798J-1D01*
G74*
G01*
X53547Y-37995D02*
G75*
G03X53949Y-37301I-397J694D01*
G74*
G01*
X52770Y-38005D02*
G75*
G03X53149Y-38101I379J704D01*
G74*
G01*
X53149Y-38101D02*
G75*
G03X53568Y-37982I0J799D01*
G74*
G01*
G54D14*
X62704Y-30909D02*
X62704Y-32889D01*
X62704Y-32889D02*
X61704Y-32889D01*
X61704Y-32889D02*
X61704Y-30889D01*
X61704Y-30889D02*
X62704Y-30889D01*
X62454Y-30889D02*
X62704Y-31139D01*
G54D16*
X53826Y-45181D02*
X53826Y-44181D01*
X53826Y-44181D02*
X56826Y-44181D01*
X56826Y-44181D02*
X56826Y-45181D01*
X56826Y-45181D02*
X53826Y-45181D01*
X54826Y-44181D02*
X54826Y-45181D01*
X57826Y-45181D02*
X57826Y-44181D01*
X57826Y-44181D02*
X60826Y-44181D01*
X60826Y-44181D02*
X60826Y-45181D01*
X60826Y-45181D02*
X57826Y-45181D01*
X58826Y-44181D02*
X58826Y-45181D01*
G54D17*
X51687Y-27952D02*
G75*
G03X51687Y-27952I-900J0D01*
G74*
G01*
X51687Y-47637D02*
G75*
G03X51687Y-47637I-900J0D01*
G74*
G01*
X74522Y-47637D02*
G75*
G03X74522Y-47637I-900J0D01*
G74*
G01*
G54D15*
X50287Y-33251D02*
X50287Y-35251D01*
X52037Y-33251D02*
X52037Y-35251D01*
X49537Y-35251D02*
X49537Y-33251D01*
X49537Y-35251D02*
X52037Y-35251D01*
X49537Y-33251D02*
X52037Y-33251D01*
G54D17*
X74522Y-27952D02*
G75*
G03X74522Y-27952I-900J0D01*
G74*
G01*
G54D15*
X50287Y-30496D02*
X50287Y-32496D01*
X52037Y-30496D02*
X52037Y-32496D01*
X49537Y-32496D02*
X49537Y-30496D01*
X49537Y-32496D02*
X52037Y-32496D01*
X49537Y-30496D02*
X52037Y-30496D01*
G54D13*
X53422Y-40884D02*
X53422Y-41170D01*
X53422Y-41027D02*
X52872Y-41027D01*
X52950Y-41074D01*
X53003Y-41122D01*
X53029Y-41170D01*
X52872Y-40574D02*
X52872Y-40527D01*
X52898Y-40479D01*
X52924Y-40455D01*
X52976Y-40432D01*
X53081Y-40408D01*
X53212Y-40408D01*
X53317Y-40432D01*
X53369Y-40455D01*
X53396Y-40479D01*
X53422Y-40527D01*
X53422Y-40574D01*
X53396Y-40622D01*
X53369Y-40646D01*
X53317Y-40670D01*
X53212Y-40694D01*
X53081Y-40694D01*
X52976Y-40670D01*
X52924Y-40646D01*
X52898Y-40622D01*
X52872Y-40574D01*
X52872Y-40098D02*
X52872Y-40051D01*
X52898Y-40003D01*
X52924Y-39979D01*
X52976Y-39955D01*
X53081Y-39932D01*
X53212Y-39932D01*
X53317Y-39955D01*
X53369Y-39979D01*
X53396Y-40003D01*
X53422Y-40051D01*
X53422Y-40098D01*
X53396Y-40146D01*
X53369Y-40170D01*
X53317Y-40194D01*
X53212Y-40217D01*
X53081Y-40217D01*
X52976Y-40194D01*
X52924Y-40170D01*
X52898Y-40146D01*
X52872Y-40098D01*
G54D15*
X61909Y-26614D02*
X61909Y-26214D01*
X62061Y-26214D01*
X62099Y-26233D01*
X62119Y-26252D01*
X62138Y-26290D01*
X62138Y-26347D01*
X62119Y-26386D01*
X62099Y-26405D01*
X62061Y-26424D01*
X61909Y-26424D01*
X62519Y-26614D02*
X62290Y-26614D01*
X62404Y-26614D02*
X62404Y-26214D01*
X62366Y-26271D01*
X62328Y-26309D01*
X62290Y-26328D01*
G54D18*
G54D13*
X59957Y-29614D02*
X59957Y-29214D01*
X60109Y-29214D01*
X60147Y-29233D01*
X60166Y-29252D01*
X60185Y-29290D01*
X60185Y-29347D01*
X60166Y-29386D01*
X60147Y-29405D01*
X60109Y-29424D01*
X59957Y-29424D01*
X60357Y-29614D02*
X60357Y-29347D01*
X60357Y-29214D02*
X60338Y-29233D01*
X60357Y-29252D01*
X60376Y-29233D01*
X60357Y-29214D01*
X60357Y-29252D01*
X61061Y-29233D02*
X61023Y-29214D01*
X60966Y-29214D01*
X60909Y-29233D01*
X60871Y-29271D01*
X60852Y-29309D01*
X60833Y-29386D01*
X60833Y-29443D01*
X60852Y-29519D01*
X60871Y-29557D01*
X60909Y-29595D01*
X60966Y-29614D01*
X61004Y-29614D01*
X61061Y-29595D01*
X61080Y-29576D01*
X61080Y-29443D01*
X61004Y-29443D01*
X61252Y-29614D02*
X61252Y-29214D01*
X61404Y-29214D01*
X61442Y-29233D01*
X61461Y-29252D01*
X61480Y-29290D01*
X61480Y-29347D01*
X61461Y-29386D01*
X61442Y-29405D01*
X61404Y-29424D01*
X61252Y-29424D01*
X61652Y-29614D02*
X61652Y-29214D01*
X61919Y-29214D02*
X61995Y-29214D01*
X62033Y-29233D01*
X62071Y-29271D01*
X62090Y-29347D01*
X62090Y-29481D01*
X62071Y-29557D01*
X62033Y-29595D01*
X61995Y-29614D01*
X61919Y-29614D01*
X61880Y-29595D01*
X61842Y-29557D01*
X61823Y-29481D01*
X61823Y-29347D01*
X61842Y-29271D01*
X61880Y-29233D01*
X61919Y-29214D01*
X62566Y-29614D02*
X62566Y-29214D01*
X62566Y-29405D02*
X62795Y-29405D01*
X62795Y-29614D02*
X62795Y-29214D01*
X63138Y-29595D02*
X63099Y-29614D01*
X63023Y-29614D01*
X62985Y-29595D01*
X62966Y-29557D01*
X62966Y-29405D01*
X62985Y-29367D01*
X63023Y-29347D01*
X63099Y-29347D01*
X63138Y-29367D01*
X63157Y-29405D01*
X63157Y-29443D01*
X62966Y-29481D01*
X63499Y-29614D02*
X63499Y-29405D01*
X63480Y-29367D01*
X63442Y-29347D01*
X63366Y-29347D01*
X63328Y-29367D01*
X63499Y-29595D02*
X63461Y-29614D01*
X63366Y-29614D01*
X63328Y-29595D01*
X63309Y-29557D01*
X63309Y-29519D01*
X63328Y-29481D01*
X63366Y-29462D01*
X63461Y-29462D01*
X63499Y-29443D01*
X63861Y-29614D02*
X63861Y-29214D01*
X63861Y-29595D02*
X63823Y-29614D01*
X63747Y-29614D01*
X63709Y-29595D01*
X63690Y-29576D01*
X63671Y-29538D01*
X63671Y-29424D01*
X63690Y-29386D01*
X63709Y-29367D01*
X63747Y-29347D01*
X63823Y-29347D01*
X63861Y-29367D01*
X64204Y-29595D02*
X64166Y-29614D01*
X64090Y-29614D01*
X64052Y-29595D01*
X64033Y-29557D01*
X64033Y-29405D01*
X64052Y-29367D01*
X64090Y-29347D01*
X64166Y-29347D01*
X64204Y-29367D01*
X64223Y-29405D01*
X64223Y-29443D01*
X64033Y-29481D01*
X64395Y-29614D02*
X64395Y-29347D01*
X64395Y-29424D02*
X64414Y-29386D01*
X64433Y-29367D01*
X64471Y-29347D01*
X64509Y-29347D01*
X66816Y-32588D02*
X67301Y-32588D01*
X67358Y-32569D01*
X67387Y-32550D01*
X67416Y-32512D01*
X67416Y-32435D01*
X67387Y-32397D01*
X67358Y-32378D01*
X67301Y-32359D01*
X66816Y-32359D01*
X67416Y-31959D02*
X67416Y-32188D01*
X67416Y-32073D02*
X66816Y-32073D01*
X66901Y-32112D01*
X66958Y-32150D01*
X66987Y-32188D01*
X68016Y-33038D02*
X68016Y-32771D01*
X68616Y-32942D01*
X68273Y-32562D02*
X68244Y-32600D01*
X68216Y-32619D01*
X68158Y-32638D01*
X68130Y-32638D01*
X68073Y-32619D01*
X68044Y-32600D01*
X68016Y-32562D01*
X68016Y-32485D01*
X68044Y-32447D01*
X68073Y-32428D01*
X68130Y-32409D01*
X68158Y-32409D01*
X68216Y-32428D01*
X68244Y-32447D01*
X68273Y-32485D01*
X68273Y-32562D01*
X68301Y-32600D01*
X68330Y-32619D01*
X68387Y-32638D01*
X68501Y-32638D01*
X68558Y-32619D01*
X68587Y-32600D01*
X68616Y-32562D01*
X68616Y-32485D01*
X68587Y-32447D01*
X68558Y-32428D01*
X68501Y-32409D01*
X68387Y-32409D01*
X68330Y-32428D01*
X68301Y-32447D01*
X68273Y-32485D01*
X68016Y-32162D02*
X68016Y-32123D01*
X68044Y-32085D01*
X68073Y-32066D01*
X68130Y-32047D01*
X68244Y-32028D01*
X68387Y-32028D01*
X68501Y-32047D01*
X68558Y-32066D01*
X68587Y-32085D01*
X68616Y-32123D01*
X68616Y-32162D01*
X68587Y-32200D01*
X68558Y-32219D01*
X68501Y-32238D01*
X68387Y-32257D01*
X68244Y-32257D01*
X68130Y-32238D01*
X68073Y-32219D01*
X68044Y-32200D01*
X68016Y-32162D01*
X68016Y-31666D02*
X68016Y-31857D01*
X68301Y-31876D01*
X68273Y-31857D01*
X68244Y-31819D01*
X68244Y-31723D01*
X68273Y-31685D01*
X68301Y-31666D01*
X68358Y-31647D01*
X68501Y-31647D01*
X68558Y-31666D01*
X68587Y-31685D01*
X68616Y-31723D01*
X68616Y-31819D01*
X68587Y-31857D01*
X68558Y-31876D01*
G54D19*
X52171Y-36923D02*
X51871Y-36923D01*
X51871Y-36851D01*
X51885Y-36808D01*
X51913Y-36780D01*
X51942Y-36765D01*
X51999Y-36751D01*
X52042Y-36751D01*
X52099Y-36765D01*
X52128Y-36780D01*
X52156Y-36808D01*
X52171Y-36851D01*
X52171Y-36923D01*
X52171Y-36465D02*
X52171Y-36637D01*
X52171Y-36551D02*
X51871Y-36551D01*
X51913Y-36580D01*
X51942Y-36608D01*
X51956Y-36637D01*
X54271Y-37594D02*
X54271Y-37737D01*
X53971Y-37737D01*
X54113Y-37494D02*
X54113Y-37394D01*
X54271Y-37351D02*
X54271Y-37494D01*
X53971Y-37494D01*
X53971Y-37351D01*
X54271Y-37223D02*
X53971Y-37223D01*
X53971Y-37151D01*
X53985Y-37108D01*
X54013Y-37080D01*
X54042Y-37065D01*
X54099Y-37051D01*
X54142Y-37051D01*
X54199Y-37065D01*
X54228Y-37080D01*
X54256Y-37108D01*
X54271Y-37151D01*
X54271Y-37223D01*
G54D13*
X63228Y-32056D02*
X63247Y-32075D01*
X63266Y-32132D01*
X63266Y-32170D01*
X63247Y-32227D01*
X63209Y-32265D01*
X63171Y-32285D01*
X63095Y-32304D01*
X63038Y-32304D01*
X62961Y-32285D01*
X62923Y-32265D01*
X62885Y-32227D01*
X62866Y-32170D01*
X62866Y-32132D01*
X62885Y-32075D01*
X62904Y-32056D01*
X63266Y-31675D02*
X63266Y-31904D01*
X63266Y-31789D02*
X62866Y-31789D01*
X62923Y-31827D01*
X62961Y-31865D01*
X62980Y-31904D01*
G54D16*
X55131Y-43993D02*
X55131Y-43593D01*
X55360Y-43993D02*
X55188Y-43764D01*
X55360Y-43593D02*
X55131Y-43821D01*
X55741Y-43993D02*
X55512Y-43993D01*
X55626Y-43993D02*
X55626Y-43593D01*
X55588Y-43650D01*
X55550Y-43688D01*
X55512Y-43707D01*
X59131Y-43993D02*
X59131Y-43593D01*
X59360Y-43993D02*
X59188Y-43764D01*
X59360Y-43593D02*
X59131Y-43821D01*
X59512Y-43631D02*
X59531Y-43612D01*
X59569Y-43593D01*
X59664Y-43593D01*
X59702Y-43612D01*
X59722Y-43631D01*
X59741Y-43669D01*
X59741Y-43707D01*
X59722Y-43764D01*
X59493Y-43993D01*
X59741Y-43993D01*
G54D15*
X50492Y-26914D02*
X50492Y-26514D01*
X50644Y-26514D01*
X50682Y-26533D01*
X50701Y-26552D01*
X50720Y-26590D01*
X50720Y-26647D01*
X50701Y-26686D01*
X50682Y-26705D01*
X50644Y-26724D01*
X50492Y-26724D01*
X50854Y-26514D02*
X51101Y-26514D01*
X50968Y-26667D01*
X51025Y-26667D01*
X51063Y-26686D01*
X51082Y-26705D01*
X51101Y-26743D01*
X51101Y-26838D01*
X51082Y-26876D01*
X51063Y-26895D01*
X51025Y-26914D01*
X50911Y-26914D01*
X50873Y-26895D01*
X50854Y-26876D01*
X50492Y-46599D02*
X50492Y-46199D01*
X50644Y-46199D01*
X50682Y-46218D01*
X50701Y-46237D01*
X50720Y-46275D01*
X50720Y-46333D01*
X50701Y-46371D01*
X50682Y-46390D01*
X50644Y-46409D01*
X50492Y-46409D01*
X51082Y-46199D02*
X50892Y-46199D01*
X50873Y-46390D01*
X50892Y-46371D01*
X50930Y-46352D01*
X51025Y-46352D01*
X51063Y-46371D01*
X51082Y-46390D01*
X51101Y-46428D01*
X51101Y-46523D01*
X51082Y-46561D01*
X51063Y-46580D01*
X51025Y-46599D01*
X50930Y-46599D01*
X50892Y-46580D01*
X50873Y-46561D01*
X73326Y-46599D02*
X73326Y-46199D01*
X73479Y-46199D01*
X73517Y-46218D01*
X73536Y-46237D01*
X73555Y-46275D01*
X73555Y-46333D01*
X73536Y-46371D01*
X73517Y-46390D01*
X73479Y-46409D01*
X73326Y-46409D01*
X73898Y-46333D02*
X73898Y-46599D01*
X73803Y-46180D02*
X73707Y-46466D01*
X73955Y-46466D01*
G54D19*
X49449Y-35297D02*
X49049Y-35297D01*
X49049Y-35144D01*
X49068Y-35106D01*
X49087Y-35087D01*
X49125Y-35068D01*
X49182Y-35068D01*
X49220Y-35087D01*
X49239Y-35106D01*
X49258Y-35144D01*
X49258Y-35297D01*
X49087Y-34916D02*
X49068Y-34897D01*
X49049Y-34859D01*
X49049Y-34763D01*
X49068Y-34725D01*
X49087Y-34706D01*
X49125Y-34687D01*
X49163Y-34687D01*
X49220Y-34706D01*
X49449Y-34935D01*
X49449Y-34687D01*
X52411Y-35099D02*
X52430Y-35118D01*
X52449Y-35175D01*
X52449Y-35213D01*
X52430Y-35271D01*
X52392Y-35309D01*
X52354Y-35328D01*
X52277Y-35347D01*
X52220Y-35347D01*
X52144Y-35328D01*
X52106Y-35309D01*
X52068Y-35271D01*
X52049Y-35213D01*
X52049Y-35175D01*
X52068Y-35118D01*
X52087Y-35099D01*
X52049Y-34851D02*
X52049Y-34775D01*
X52068Y-34737D01*
X52106Y-34699D01*
X52182Y-34680D01*
X52315Y-34680D01*
X52392Y-34699D01*
X52430Y-34737D01*
X52449Y-34775D01*
X52449Y-34851D01*
X52430Y-34890D01*
X52392Y-34928D01*
X52315Y-34947D01*
X52182Y-34947D01*
X52106Y-34928D01*
X52068Y-34890D01*
X52049Y-34851D01*
X52449Y-34509D02*
X52049Y-34509D01*
X52449Y-34280D01*
X52049Y-34280D01*
X52449Y-34090D02*
X52049Y-34090D01*
X52449Y-33861D01*
X52049Y-33861D01*
X52487Y-33766D02*
X52487Y-33461D01*
X52087Y-33385D02*
X52068Y-33366D01*
X52049Y-33328D01*
X52049Y-33232D01*
X52068Y-33194D01*
X52087Y-33175D01*
X52125Y-33156D01*
X52163Y-33156D01*
X52220Y-33175D01*
X52449Y-33404D01*
X52449Y-33156D01*
G54D15*
X73326Y-26914D02*
X73326Y-26514D01*
X73479Y-26514D01*
X73517Y-26533D01*
X73536Y-26552D01*
X73555Y-26590D01*
X73555Y-26647D01*
X73536Y-26686D01*
X73517Y-26705D01*
X73479Y-26724D01*
X73326Y-26724D01*
X73898Y-26514D02*
X73822Y-26514D01*
X73783Y-26533D01*
X73764Y-26552D01*
X73726Y-26609D01*
X73707Y-26686D01*
X73707Y-26838D01*
X73726Y-26876D01*
X73745Y-26895D01*
X73783Y-26914D01*
X73860Y-26914D01*
X73898Y-26895D01*
X73917Y-26876D01*
X73936Y-26838D01*
X73936Y-26743D01*
X73917Y-26705D01*
X73898Y-26686D01*
X73860Y-26667D01*
X73783Y-26667D01*
X73745Y-26686D01*
X73726Y-26705D01*
X73707Y-26743D01*
G54D19*
X49449Y-32541D02*
X49049Y-32541D01*
X49049Y-32388D01*
X49068Y-32350D01*
X49087Y-32331D01*
X49125Y-32312D01*
X49182Y-32312D01*
X49220Y-32331D01*
X49239Y-32350D01*
X49258Y-32388D01*
X49258Y-32541D01*
X49049Y-32179D02*
X49049Y-31912D01*
X49449Y-32084D01*
X52411Y-32343D02*
X52430Y-32362D01*
X52449Y-32419D01*
X52449Y-32457D01*
X52430Y-32515D01*
X52392Y-32553D01*
X52354Y-32572D01*
X52277Y-32591D01*
X52220Y-32591D01*
X52144Y-32572D01*
X52106Y-32553D01*
X52068Y-32515D01*
X52049Y-32457D01*
X52049Y-32419D01*
X52068Y-32362D01*
X52087Y-32343D01*
X52049Y-32096D02*
X52049Y-32019D01*
X52068Y-31981D01*
X52106Y-31943D01*
X52182Y-31924D01*
X52315Y-31924D01*
X52392Y-31943D01*
X52430Y-31981D01*
X52449Y-32019D01*
X52449Y-32096D01*
X52430Y-32134D01*
X52392Y-32172D01*
X52315Y-32191D01*
X52182Y-32191D01*
X52106Y-32172D01*
X52068Y-32134D01*
X52049Y-32096D01*
X52449Y-31753D02*
X52049Y-31753D01*
X52449Y-31524D01*
X52049Y-31524D01*
X52449Y-31334D02*
X52049Y-31334D01*
X52449Y-31105D01*
X52049Y-31105D01*
X52487Y-31010D02*
X52487Y-30705D01*
X52087Y-30629D02*
X52068Y-30610D01*
X52049Y-30572D01*
X52049Y-30477D01*
X52068Y-30438D01*
X52087Y-30419D01*
X52125Y-30400D01*
X52163Y-30400D01*
X52220Y-30419D01*
X52449Y-30648D01*
X52449Y-30400D01*
M02*
