G04 (created by PCBNEW (2013-07-07 BZR 4022)-stable) date 1/3/2015 11:46:25 AM*
%MOIN*%
G04 Gerber Fmt 3.4, Leading zero omitted, Abs format*
%FSLAX34Y34*%
G01*
G70*
G90*
G04 APERTURE LIST*
%ADD10C,0.00590551*%
%ADD11C,0.055*%
%ADD12R,0.06X0.06*%
%ADD13C,0.06*%
%ADD14R,0.35X0.35*%
%ADD15C,0.07*%
%ADD16R,0.07X0.07*%
%ADD17C,0.066*%
%ADD18C,0.16*%
%ADD19O,0.1187X0.0593*%
%ADD20C,0.035*%
%ADD21C,0.01*%
G04 APERTURE END LIST*
G54D10*
G54D11*
X16000Y-40500D03*
X16000Y-37500D03*
G54D12*
X17500Y-27500D03*
G54D13*
X17500Y-26500D03*
X22500Y-27500D03*
X18500Y-26500D03*
X23500Y-27500D03*
X19500Y-26500D03*
X24500Y-27500D03*
X20500Y-26500D03*
X25500Y-27500D03*
X21500Y-26500D03*
X26500Y-27500D03*
X22500Y-26500D03*
X27500Y-27500D03*
X23500Y-26500D03*
X28500Y-27500D03*
X24500Y-26500D03*
X29500Y-27500D03*
X25500Y-26500D03*
X30500Y-27500D03*
X26500Y-26500D03*
X31500Y-27500D03*
X27500Y-26500D03*
X32500Y-27500D03*
X28500Y-26500D03*
X29500Y-26500D03*
X33500Y-27500D03*
X30500Y-26500D03*
X32500Y-26500D03*
X33500Y-26500D03*
X34500Y-26500D03*
X35500Y-26500D03*
X34500Y-27500D03*
X35500Y-27500D03*
X18500Y-27500D03*
X19500Y-27500D03*
X20500Y-27500D03*
X21500Y-27500D03*
X36500Y-27500D03*
X36500Y-26500D03*
X31500Y-26500D03*
G54D14*
X33500Y-38500D03*
G54D15*
X27000Y-37500D03*
G54D16*
X27000Y-38500D03*
G54D15*
X27000Y-39500D03*
G54D17*
X16000Y-36500D03*
X16000Y-35500D03*
G54D11*
X25000Y-37500D03*
X25000Y-38500D03*
G54D12*
X18500Y-43500D03*
G54D13*
X19500Y-43500D03*
X20500Y-43500D03*
G54D12*
X22500Y-43500D03*
G54D13*
X23500Y-43500D03*
X24500Y-43500D03*
G54D18*
X16000Y-26500D03*
X16000Y-44000D03*
X37500Y-44000D03*
G54D19*
X16000Y-34000D03*
X16000Y-33000D03*
G54D20*
X18000Y-30000D03*
X19500Y-32000D03*
X20000Y-38500D03*
X23500Y-39500D03*
G54D21*
X17500Y-27500D02*
X17500Y-26500D01*
X27000Y-39500D02*
X23500Y-39500D01*
X17500Y-29500D02*
X17500Y-26500D01*
X18000Y-30000D02*
X17500Y-29500D01*
X19500Y-38000D02*
X19500Y-32000D01*
X20000Y-38500D02*
X19500Y-38000D01*
X20500Y-27500D02*
X20500Y-41500D01*
X20500Y-41500D02*
X18500Y-43500D01*
X22500Y-27500D02*
X22500Y-43500D01*
G54D10*
G36*
X38230Y-42450D02*
X35950Y-42450D01*
X35950Y-44730D01*
X35500Y-44730D01*
X35500Y-40200D01*
X35500Y-36700D01*
X35462Y-36608D01*
X35391Y-36538D01*
X35299Y-36500D01*
X35200Y-36499D01*
X31700Y-36499D01*
X31608Y-36537D01*
X31538Y-36608D01*
X31500Y-36700D01*
X31499Y-36799D01*
X31499Y-40299D01*
X31537Y-40391D01*
X31608Y-40461D01*
X31700Y-40499D01*
X31799Y-40500D01*
X35299Y-40500D01*
X35391Y-40462D01*
X35461Y-40391D01*
X35499Y-40299D01*
X35500Y-40200D01*
X35500Y-44730D01*
X27600Y-44730D01*
X27600Y-39381D01*
X27600Y-37381D01*
X27508Y-37160D01*
X27340Y-36991D01*
X27119Y-36900D01*
X26881Y-36899D01*
X26660Y-36991D01*
X26491Y-37159D01*
X26400Y-37380D01*
X26399Y-37618D01*
X26491Y-37839D01*
X26565Y-37914D01*
X26508Y-37937D01*
X26438Y-38008D01*
X26400Y-38100D01*
X26399Y-38199D01*
X26400Y-38387D01*
X26462Y-38450D01*
X26950Y-38450D01*
X26950Y-38442D01*
X27050Y-38442D01*
X27050Y-38450D01*
X27537Y-38450D01*
X27600Y-38387D01*
X27600Y-38199D01*
X27599Y-38100D01*
X27561Y-38008D01*
X27491Y-37937D01*
X27434Y-37914D01*
X27508Y-37840D01*
X27599Y-37619D01*
X27600Y-37381D01*
X27600Y-39381D01*
X27508Y-39160D01*
X27434Y-39085D01*
X27491Y-39062D01*
X27561Y-38991D01*
X27599Y-38899D01*
X27600Y-38800D01*
X27600Y-38612D01*
X27537Y-38550D01*
X27050Y-38550D01*
X27050Y-38557D01*
X26950Y-38557D01*
X26950Y-38550D01*
X26462Y-38550D01*
X26400Y-38612D01*
X26399Y-38800D01*
X26400Y-38899D01*
X26438Y-38991D01*
X26508Y-39062D01*
X26565Y-39085D01*
X26491Y-39159D01*
X26474Y-39200D01*
X25529Y-39200D01*
X25529Y-38575D01*
X25525Y-38487D01*
X25525Y-37396D01*
X25445Y-37203D01*
X25297Y-37055D01*
X25104Y-36975D01*
X24896Y-36974D01*
X24703Y-37054D01*
X24555Y-37202D01*
X24475Y-37395D01*
X24474Y-37603D01*
X24554Y-37797D01*
X24702Y-37944D01*
X24828Y-37997D01*
X24727Y-38039D01*
X24702Y-38132D01*
X25000Y-38429D01*
X25297Y-38132D01*
X25272Y-38039D01*
X25162Y-38000D01*
X25297Y-37945D01*
X25444Y-37797D01*
X25524Y-37604D01*
X25525Y-37396D01*
X25525Y-38487D01*
X25518Y-38367D01*
X25460Y-38227D01*
X25367Y-38202D01*
X25070Y-38500D01*
X25367Y-38797D01*
X25460Y-38772D01*
X25529Y-38575D01*
X25529Y-39200D01*
X25297Y-39200D01*
X25297Y-38867D01*
X25000Y-38570D01*
X24929Y-38641D01*
X24929Y-38500D01*
X24632Y-38202D01*
X24539Y-38227D01*
X24470Y-38424D01*
X24481Y-38632D01*
X24539Y-38772D01*
X24632Y-38797D01*
X24929Y-38500D01*
X24929Y-38641D01*
X24702Y-38867D01*
X24727Y-38960D01*
X24924Y-39029D01*
X25132Y-39018D01*
X25272Y-38960D01*
X25297Y-38867D01*
X25297Y-39200D01*
X23801Y-39200D01*
X23741Y-39139D01*
X23584Y-39075D01*
X23415Y-39074D01*
X23259Y-39139D01*
X23139Y-39258D01*
X23075Y-39415D01*
X23074Y-39584D01*
X23139Y-39740D01*
X23258Y-39860D01*
X23415Y-39924D01*
X23584Y-39925D01*
X23740Y-39860D01*
X23801Y-39800D01*
X26474Y-39800D01*
X26491Y-39839D01*
X26659Y-40008D01*
X26880Y-40099D01*
X27118Y-40100D01*
X27339Y-40008D01*
X27508Y-39840D01*
X27599Y-39619D01*
X27600Y-39381D01*
X27600Y-44730D01*
X25054Y-44730D01*
X25054Y-43581D01*
X25043Y-43363D01*
X24981Y-43212D01*
X24885Y-43184D01*
X24815Y-43255D01*
X24815Y-43114D01*
X24787Y-43018D01*
X24581Y-42945D01*
X24363Y-42956D01*
X24212Y-43018D01*
X24184Y-43114D01*
X24500Y-43429D01*
X24815Y-43114D01*
X24815Y-43255D01*
X24570Y-43500D01*
X24885Y-43815D01*
X24981Y-43787D01*
X25054Y-43581D01*
X25054Y-44730D01*
X24815Y-44730D01*
X24815Y-43885D01*
X24500Y-43570D01*
X24184Y-43885D01*
X24212Y-43981D01*
X24418Y-44054D01*
X24636Y-44043D01*
X24787Y-43981D01*
X24815Y-43885D01*
X24815Y-44730D01*
X21815Y-44730D01*
X21815Y-27885D01*
X21500Y-27570D01*
X21184Y-27885D01*
X21212Y-27981D01*
X21418Y-28054D01*
X21636Y-28043D01*
X21787Y-27981D01*
X21815Y-27885D01*
X21815Y-44730D01*
X21054Y-44730D01*
X21054Y-43581D01*
X21043Y-43363D01*
X20981Y-43212D01*
X20885Y-43184D01*
X20815Y-43255D01*
X20815Y-43114D01*
X20787Y-43018D01*
X20581Y-42945D01*
X20363Y-42956D01*
X20212Y-43018D01*
X20184Y-43114D01*
X20500Y-43429D01*
X20815Y-43114D01*
X20815Y-43255D01*
X20570Y-43500D01*
X20885Y-43815D01*
X20981Y-43787D01*
X21054Y-43581D01*
X21054Y-44730D01*
X20815Y-44730D01*
X20815Y-43885D01*
X20500Y-43570D01*
X20184Y-43885D01*
X20212Y-43981D01*
X20418Y-44054D01*
X20636Y-44043D01*
X20787Y-43981D01*
X20815Y-43885D01*
X20815Y-44730D01*
X17050Y-44730D01*
X17050Y-44000D01*
X17050Y-43792D01*
X17050Y-43791D01*
X17050Y-42950D01*
X16826Y-42950D01*
X16826Y-34134D01*
X16778Y-34050D01*
X16050Y-34050D01*
X16050Y-34546D01*
X16347Y-34546D01*
X16552Y-34485D01*
X16718Y-34351D01*
X16821Y-34162D01*
X16826Y-34134D01*
X16826Y-42950D01*
X16584Y-42950D01*
X16584Y-35588D01*
X16574Y-35358D01*
X16506Y-35194D01*
X16407Y-35163D01*
X16336Y-35233D01*
X16336Y-35092D01*
X16305Y-34993D01*
X16088Y-34915D01*
X15858Y-34925D01*
X15694Y-34993D01*
X15663Y-35092D01*
X16000Y-35429D01*
X16336Y-35092D01*
X16336Y-35233D01*
X16070Y-35500D01*
X16407Y-35836D01*
X16506Y-35805D01*
X16584Y-35588D01*
X16584Y-42950D01*
X16000Y-42950D01*
X15792Y-42949D01*
X15791Y-42950D01*
X15550Y-42950D01*
X15550Y-40785D01*
X15554Y-40797D01*
X15702Y-40944D01*
X15895Y-41024D01*
X16103Y-41025D01*
X16297Y-40945D01*
X16444Y-40797D01*
X16524Y-40604D01*
X16525Y-40396D01*
X16445Y-40203D01*
X16297Y-40055D01*
X16104Y-39975D01*
X15896Y-39974D01*
X15703Y-40054D01*
X15555Y-40202D01*
X15550Y-40214D01*
X15550Y-37785D01*
X15554Y-37797D01*
X15702Y-37944D01*
X15895Y-38024D01*
X16103Y-38025D01*
X16297Y-37945D01*
X16444Y-37797D01*
X16524Y-37604D01*
X16525Y-37396D01*
X16445Y-37203D01*
X16297Y-37055D01*
X16236Y-37029D01*
X16328Y-36991D01*
X16491Y-36828D01*
X16579Y-36615D01*
X16580Y-36385D01*
X16491Y-36171D01*
X16328Y-36008D01*
X16307Y-35999D01*
X16336Y-35907D01*
X16000Y-35570D01*
X15663Y-35907D01*
X15692Y-35999D01*
X15671Y-36008D01*
X15550Y-36129D01*
X15550Y-35823D01*
X15592Y-35836D01*
X15929Y-35500D01*
X15592Y-35163D01*
X15550Y-35176D01*
X15550Y-34516D01*
X15653Y-34546D01*
X15950Y-34546D01*
X15950Y-34050D01*
X15942Y-34050D01*
X15942Y-33950D01*
X15950Y-33950D01*
X15950Y-33942D01*
X16050Y-33942D01*
X16050Y-33950D01*
X16778Y-33950D01*
X16826Y-33865D01*
X16821Y-33837D01*
X16718Y-33648D01*
X16552Y-33514D01*
X16521Y-33505D01*
X16522Y-33504D01*
X16699Y-33386D01*
X16818Y-33209D01*
X16860Y-33000D01*
X16818Y-32790D01*
X16699Y-32613D01*
X16522Y-32495D01*
X16313Y-32453D01*
X15686Y-32453D01*
X15550Y-32480D01*
X15550Y-28036D01*
X16949Y-27569D01*
X16949Y-27849D01*
X16987Y-27941D01*
X17058Y-28011D01*
X17150Y-28049D01*
X17200Y-28049D01*
X17200Y-29500D01*
X17222Y-29614D01*
X17287Y-29712D01*
X17575Y-29999D01*
X17574Y-30084D01*
X17639Y-30240D01*
X17758Y-30360D01*
X17915Y-30424D01*
X18084Y-30425D01*
X18240Y-30360D01*
X18360Y-30241D01*
X18424Y-30084D01*
X18425Y-29915D01*
X18360Y-29759D01*
X18241Y-29639D01*
X18084Y-29575D01*
X17999Y-29574D01*
X17800Y-29375D01*
X17800Y-28050D01*
X17849Y-28050D01*
X17941Y-28012D01*
X18011Y-27941D01*
X18049Y-27849D01*
X18049Y-27827D01*
X18188Y-27965D01*
X18390Y-28049D01*
X18608Y-28050D01*
X18811Y-27966D01*
X18965Y-27811D01*
X18999Y-27730D01*
X19033Y-27811D01*
X19188Y-27965D01*
X19390Y-28049D01*
X19608Y-28050D01*
X19811Y-27966D01*
X19965Y-27811D01*
X19999Y-27730D01*
X20033Y-27811D01*
X20188Y-27965D01*
X20200Y-27970D01*
X20200Y-38122D01*
X20084Y-38075D01*
X19999Y-38074D01*
X19800Y-37875D01*
X19800Y-32301D01*
X19860Y-32241D01*
X19924Y-32084D01*
X19925Y-31915D01*
X19860Y-31759D01*
X19741Y-31639D01*
X19584Y-31575D01*
X19415Y-31574D01*
X19259Y-31639D01*
X19139Y-31758D01*
X19075Y-31915D01*
X19074Y-32084D01*
X19139Y-32240D01*
X19200Y-32301D01*
X19200Y-38000D01*
X19222Y-38114D01*
X19287Y-38212D01*
X19575Y-38499D01*
X19574Y-38584D01*
X19639Y-38740D01*
X19758Y-38860D01*
X19915Y-38924D01*
X20084Y-38925D01*
X20200Y-38877D01*
X20200Y-41375D01*
X18625Y-42949D01*
X18150Y-42949D01*
X18058Y-42987D01*
X17988Y-43058D01*
X17950Y-43150D01*
X17949Y-43249D01*
X17949Y-43849D01*
X17987Y-43941D01*
X18058Y-44011D01*
X18150Y-44049D01*
X18249Y-44050D01*
X18849Y-44050D01*
X18941Y-44012D01*
X19011Y-43941D01*
X19049Y-43849D01*
X19049Y-43827D01*
X19188Y-43965D01*
X19390Y-44049D01*
X19608Y-44050D01*
X19811Y-43966D01*
X19965Y-43811D01*
X19997Y-43736D01*
X20018Y-43787D01*
X20114Y-43815D01*
X20429Y-43500D01*
X20114Y-43184D01*
X20018Y-43212D01*
X19999Y-43267D01*
X19966Y-43188D01*
X19811Y-43034D01*
X19609Y-42950D01*
X19474Y-42949D01*
X20712Y-41712D01*
X20712Y-41712D01*
X20777Y-41614D01*
X20799Y-41500D01*
X20800Y-41500D01*
X20800Y-27971D01*
X20811Y-27966D01*
X20965Y-27811D01*
X20997Y-27736D01*
X21018Y-27787D01*
X21114Y-27815D01*
X21429Y-27500D01*
X21114Y-27184D01*
X21018Y-27212D01*
X20999Y-27267D01*
X20966Y-27188D01*
X20811Y-27034D01*
X20730Y-27000D01*
X20811Y-26966D01*
X20965Y-26811D01*
X20999Y-26730D01*
X21033Y-26811D01*
X21188Y-26965D01*
X21263Y-26997D01*
X21212Y-27018D01*
X21184Y-27114D01*
X21500Y-27429D01*
X21815Y-27114D01*
X21787Y-27018D01*
X21732Y-26999D01*
X21811Y-26966D01*
X21965Y-26811D01*
X21999Y-26730D01*
X22033Y-26811D01*
X22188Y-26965D01*
X22269Y-26999D01*
X22188Y-27033D01*
X22034Y-27188D01*
X22002Y-27263D01*
X21981Y-27212D01*
X21885Y-27184D01*
X21570Y-27500D01*
X21885Y-27815D01*
X21981Y-27787D01*
X22000Y-27732D01*
X22033Y-27811D01*
X22188Y-27965D01*
X22200Y-27970D01*
X22200Y-42949D01*
X22150Y-42949D01*
X22058Y-42987D01*
X21988Y-43058D01*
X21950Y-43150D01*
X21949Y-43249D01*
X21949Y-43849D01*
X21987Y-43941D01*
X22058Y-44011D01*
X22150Y-44049D01*
X22249Y-44050D01*
X22849Y-44050D01*
X22941Y-44012D01*
X23011Y-43941D01*
X23049Y-43849D01*
X23049Y-43827D01*
X23188Y-43965D01*
X23390Y-44049D01*
X23608Y-44050D01*
X23811Y-43966D01*
X23965Y-43811D01*
X23997Y-43736D01*
X24018Y-43787D01*
X24114Y-43815D01*
X24429Y-43500D01*
X24114Y-43184D01*
X24018Y-43212D01*
X23999Y-43267D01*
X23966Y-43188D01*
X23811Y-43034D01*
X23609Y-42950D01*
X23391Y-42949D01*
X23188Y-43033D01*
X23050Y-43172D01*
X23050Y-43150D01*
X23012Y-43058D01*
X22941Y-42988D01*
X22849Y-42950D01*
X22800Y-42950D01*
X22800Y-27971D01*
X22811Y-27966D01*
X22965Y-27811D01*
X22999Y-27730D01*
X23033Y-27811D01*
X23188Y-27965D01*
X23390Y-28049D01*
X23608Y-28050D01*
X23811Y-27966D01*
X23965Y-27811D01*
X23999Y-27730D01*
X24033Y-27811D01*
X24188Y-27965D01*
X24390Y-28049D01*
X24608Y-28050D01*
X24811Y-27966D01*
X24965Y-27811D01*
X24999Y-27730D01*
X25033Y-27811D01*
X25188Y-27965D01*
X25390Y-28049D01*
X25608Y-28050D01*
X25811Y-27966D01*
X25965Y-27811D01*
X25999Y-27730D01*
X26033Y-27811D01*
X26188Y-27965D01*
X26390Y-28049D01*
X26608Y-28050D01*
X26811Y-27966D01*
X26965Y-27811D01*
X26999Y-27730D01*
X27033Y-27811D01*
X27188Y-27965D01*
X27390Y-28049D01*
X27608Y-28050D01*
X27811Y-27966D01*
X27965Y-27811D01*
X27999Y-27730D01*
X28033Y-27811D01*
X28188Y-27965D01*
X28390Y-28049D01*
X28608Y-28050D01*
X28811Y-27966D01*
X28965Y-27811D01*
X28999Y-27730D01*
X29033Y-27811D01*
X29188Y-27965D01*
X29390Y-28049D01*
X29608Y-28050D01*
X29811Y-27966D01*
X29965Y-27811D01*
X29999Y-27730D01*
X30033Y-27811D01*
X30188Y-27965D01*
X30390Y-28049D01*
X30608Y-28050D01*
X30811Y-27966D01*
X30965Y-27811D01*
X30999Y-27730D01*
X31033Y-27811D01*
X31188Y-27965D01*
X31390Y-28049D01*
X31608Y-28050D01*
X31811Y-27966D01*
X31965Y-27811D01*
X31999Y-27730D01*
X32033Y-27811D01*
X32188Y-27965D01*
X32390Y-28049D01*
X32608Y-28050D01*
X32811Y-27966D01*
X32965Y-27811D01*
X32999Y-27730D01*
X33033Y-27811D01*
X33188Y-27965D01*
X33390Y-28049D01*
X33608Y-28050D01*
X33811Y-27966D01*
X33965Y-27811D01*
X33999Y-27730D01*
X34033Y-27811D01*
X34188Y-27965D01*
X34390Y-28049D01*
X34608Y-28050D01*
X34811Y-27966D01*
X34965Y-27811D01*
X34999Y-27730D01*
X35033Y-27811D01*
X35188Y-27965D01*
X35390Y-28049D01*
X35608Y-28050D01*
X35811Y-27966D01*
X35965Y-27811D01*
X35999Y-27730D01*
X36033Y-27811D01*
X36188Y-27965D01*
X36390Y-28049D01*
X36608Y-28050D01*
X36811Y-27966D01*
X36965Y-27811D01*
X37049Y-27609D01*
X37049Y-27550D01*
X38230Y-27550D01*
X38230Y-42450D01*
X38230Y-42450D01*
G37*
G54D21*
X38230Y-42450D02*
X35950Y-42450D01*
X35950Y-44730D01*
X35500Y-44730D01*
X35500Y-40200D01*
X35500Y-36700D01*
X35462Y-36608D01*
X35391Y-36538D01*
X35299Y-36500D01*
X35200Y-36499D01*
X31700Y-36499D01*
X31608Y-36537D01*
X31538Y-36608D01*
X31500Y-36700D01*
X31499Y-36799D01*
X31499Y-40299D01*
X31537Y-40391D01*
X31608Y-40461D01*
X31700Y-40499D01*
X31799Y-40500D01*
X35299Y-40500D01*
X35391Y-40462D01*
X35461Y-40391D01*
X35499Y-40299D01*
X35500Y-40200D01*
X35500Y-44730D01*
X27600Y-44730D01*
X27600Y-39381D01*
X27600Y-37381D01*
X27508Y-37160D01*
X27340Y-36991D01*
X27119Y-36900D01*
X26881Y-36899D01*
X26660Y-36991D01*
X26491Y-37159D01*
X26400Y-37380D01*
X26399Y-37618D01*
X26491Y-37839D01*
X26565Y-37914D01*
X26508Y-37937D01*
X26438Y-38008D01*
X26400Y-38100D01*
X26399Y-38199D01*
X26400Y-38387D01*
X26462Y-38450D01*
X26950Y-38450D01*
X26950Y-38442D01*
X27050Y-38442D01*
X27050Y-38450D01*
X27537Y-38450D01*
X27600Y-38387D01*
X27600Y-38199D01*
X27599Y-38100D01*
X27561Y-38008D01*
X27491Y-37937D01*
X27434Y-37914D01*
X27508Y-37840D01*
X27599Y-37619D01*
X27600Y-37381D01*
X27600Y-39381D01*
X27508Y-39160D01*
X27434Y-39085D01*
X27491Y-39062D01*
X27561Y-38991D01*
X27599Y-38899D01*
X27600Y-38800D01*
X27600Y-38612D01*
X27537Y-38550D01*
X27050Y-38550D01*
X27050Y-38557D01*
X26950Y-38557D01*
X26950Y-38550D01*
X26462Y-38550D01*
X26400Y-38612D01*
X26399Y-38800D01*
X26400Y-38899D01*
X26438Y-38991D01*
X26508Y-39062D01*
X26565Y-39085D01*
X26491Y-39159D01*
X26474Y-39200D01*
X25529Y-39200D01*
X25529Y-38575D01*
X25525Y-38487D01*
X25525Y-37396D01*
X25445Y-37203D01*
X25297Y-37055D01*
X25104Y-36975D01*
X24896Y-36974D01*
X24703Y-37054D01*
X24555Y-37202D01*
X24475Y-37395D01*
X24474Y-37603D01*
X24554Y-37797D01*
X24702Y-37944D01*
X24828Y-37997D01*
X24727Y-38039D01*
X24702Y-38132D01*
X25000Y-38429D01*
X25297Y-38132D01*
X25272Y-38039D01*
X25162Y-38000D01*
X25297Y-37945D01*
X25444Y-37797D01*
X25524Y-37604D01*
X25525Y-37396D01*
X25525Y-38487D01*
X25518Y-38367D01*
X25460Y-38227D01*
X25367Y-38202D01*
X25070Y-38500D01*
X25367Y-38797D01*
X25460Y-38772D01*
X25529Y-38575D01*
X25529Y-39200D01*
X25297Y-39200D01*
X25297Y-38867D01*
X25000Y-38570D01*
X24929Y-38641D01*
X24929Y-38500D01*
X24632Y-38202D01*
X24539Y-38227D01*
X24470Y-38424D01*
X24481Y-38632D01*
X24539Y-38772D01*
X24632Y-38797D01*
X24929Y-38500D01*
X24929Y-38641D01*
X24702Y-38867D01*
X24727Y-38960D01*
X24924Y-39029D01*
X25132Y-39018D01*
X25272Y-38960D01*
X25297Y-38867D01*
X25297Y-39200D01*
X23801Y-39200D01*
X23741Y-39139D01*
X23584Y-39075D01*
X23415Y-39074D01*
X23259Y-39139D01*
X23139Y-39258D01*
X23075Y-39415D01*
X23074Y-39584D01*
X23139Y-39740D01*
X23258Y-39860D01*
X23415Y-39924D01*
X23584Y-39925D01*
X23740Y-39860D01*
X23801Y-39800D01*
X26474Y-39800D01*
X26491Y-39839D01*
X26659Y-40008D01*
X26880Y-40099D01*
X27118Y-40100D01*
X27339Y-40008D01*
X27508Y-39840D01*
X27599Y-39619D01*
X27600Y-39381D01*
X27600Y-44730D01*
X25054Y-44730D01*
X25054Y-43581D01*
X25043Y-43363D01*
X24981Y-43212D01*
X24885Y-43184D01*
X24815Y-43255D01*
X24815Y-43114D01*
X24787Y-43018D01*
X24581Y-42945D01*
X24363Y-42956D01*
X24212Y-43018D01*
X24184Y-43114D01*
X24500Y-43429D01*
X24815Y-43114D01*
X24815Y-43255D01*
X24570Y-43500D01*
X24885Y-43815D01*
X24981Y-43787D01*
X25054Y-43581D01*
X25054Y-44730D01*
X24815Y-44730D01*
X24815Y-43885D01*
X24500Y-43570D01*
X24184Y-43885D01*
X24212Y-43981D01*
X24418Y-44054D01*
X24636Y-44043D01*
X24787Y-43981D01*
X24815Y-43885D01*
X24815Y-44730D01*
X21815Y-44730D01*
X21815Y-27885D01*
X21500Y-27570D01*
X21184Y-27885D01*
X21212Y-27981D01*
X21418Y-28054D01*
X21636Y-28043D01*
X21787Y-27981D01*
X21815Y-27885D01*
X21815Y-44730D01*
X21054Y-44730D01*
X21054Y-43581D01*
X21043Y-43363D01*
X20981Y-43212D01*
X20885Y-43184D01*
X20815Y-43255D01*
X20815Y-43114D01*
X20787Y-43018D01*
X20581Y-42945D01*
X20363Y-42956D01*
X20212Y-43018D01*
X20184Y-43114D01*
X20500Y-43429D01*
X20815Y-43114D01*
X20815Y-43255D01*
X20570Y-43500D01*
X20885Y-43815D01*
X20981Y-43787D01*
X21054Y-43581D01*
X21054Y-44730D01*
X20815Y-44730D01*
X20815Y-43885D01*
X20500Y-43570D01*
X20184Y-43885D01*
X20212Y-43981D01*
X20418Y-44054D01*
X20636Y-44043D01*
X20787Y-43981D01*
X20815Y-43885D01*
X20815Y-44730D01*
X17050Y-44730D01*
X17050Y-44000D01*
X17050Y-43792D01*
X17050Y-43791D01*
X17050Y-42950D01*
X16826Y-42950D01*
X16826Y-34134D01*
X16778Y-34050D01*
X16050Y-34050D01*
X16050Y-34546D01*
X16347Y-34546D01*
X16552Y-34485D01*
X16718Y-34351D01*
X16821Y-34162D01*
X16826Y-34134D01*
X16826Y-42950D01*
X16584Y-42950D01*
X16584Y-35588D01*
X16574Y-35358D01*
X16506Y-35194D01*
X16407Y-35163D01*
X16336Y-35233D01*
X16336Y-35092D01*
X16305Y-34993D01*
X16088Y-34915D01*
X15858Y-34925D01*
X15694Y-34993D01*
X15663Y-35092D01*
X16000Y-35429D01*
X16336Y-35092D01*
X16336Y-35233D01*
X16070Y-35500D01*
X16407Y-35836D01*
X16506Y-35805D01*
X16584Y-35588D01*
X16584Y-42950D01*
X16000Y-42950D01*
X15792Y-42949D01*
X15791Y-42950D01*
X15550Y-42950D01*
X15550Y-40785D01*
X15554Y-40797D01*
X15702Y-40944D01*
X15895Y-41024D01*
X16103Y-41025D01*
X16297Y-40945D01*
X16444Y-40797D01*
X16524Y-40604D01*
X16525Y-40396D01*
X16445Y-40203D01*
X16297Y-40055D01*
X16104Y-39975D01*
X15896Y-39974D01*
X15703Y-40054D01*
X15555Y-40202D01*
X15550Y-40214D01*
X15550Y-37785D01*
X15554Y-37797D01*
X15702Y-37944D01*
X15895Y-38024D01*
X16103Y-38025D01*
X16297Y-37945D01*
X16444Y-37797D01*
X16524Y-37604D01*
X16525Y-37396D01*
X16445Y-37203D01*
X16297Y-37055D01*
X16236Y-37029D01*
X16328Y-36991D01*
X16491Y-36828D01*
X16579Y-36615D01*
X16580Y-36385D01*
X16491Y-36171D01*
X16328Y-36008D01*
X16307Y-35999D01*
X16336Y-35907D01*
X16000Y-35570D01*
X15663Y-35907D01*
X15692Y-35999D01*
X15671Y-36008D01*
X15550Y-36129D01*
X15550Y-35823D01*
X15592Y-35836D01*
X15929Y-35500D01*
X15592Y-35163D01*
X15550Y-35176D01*
X15550Y-34516D01*
X15653Y-34546D01*
X15950Y-34546D01*
X15950Y-34050D01*
X15942Y-34050D01*
X15942Y-33950D01*
X15950Y-33950D01*
X15950Y-33942D01*
X16050Y-33942D01*
X16050Y-33950D01*
X16778Y-33950D01*
X16826Y-33865D01*
X16821Y-33837D01*
X16718Y-33648D01*
X16552Y-33514D01*
X16521Y-33505D01*
X16522Y-33504D01*
X16699Y-33386D01*
X16818Y-33209D01*
X16860Y-33000D01*
X16818Y-32790D01*
X16699Y-32613D01*
X16522Y-32495D01*
X16313Y-32453D01*
X15686Y-32453D01*
X15550Y-32480D01*
X15550Y-28036D01*
X16949Y-27569D01*
X16949Y-27849D01*
X16987Y-27941D01*
X17058Y-28011D01*
X17150Y-28049D01*
X17200Y-28049D01*
X17200Y-29500D01*
X17222Y-29614D01*
X17287Y-29712D01*
X17575Y-29999D01*
X17574Y-30084D01*
X17639Y-30240D01*
X17758Y-30360D01*
X17915Y-30424D01*
X18084Y-30425D01*
X18240Y-30360D01*
X18360Y-30241D01*
X18424Y-30084D01*
X18425Y-29915D01*
X18360Y-29759D01*
X18241Y-29639D01*
X18084Y-29575D01*
X17999Y-29574D01*
X17800Y-29375D01*
X17800Y-28050D01*
X17849Y-28050D01*
X17941Y-28012D01*
X18011Y-27941D01*
X18049Y-27849D01*
X18049Y-27827D01*
X18188Y-27965D01*
X18390Y-28049D01*
X18608Y-28050D01*
X18811Y-27966D01*
X18965Y-27811D01*
X18999Y-27730D01*
X19033Y-27811D01*
X19188Y-27965D01*
X19390Y-28049D01*
X19608Y-28050D01*
X19811Y-27966D01*
X19965Y-27811D01*
X19999Y-27730D01*
X20033Y-27811D01*
X20188Y-27965D01*
X20200Y-27970D01*
X20200Y-38122D01*
X20084Y-38075D01*
X19999Y-38074D01*
X19800Y-37875D01*
X19800Y-32301D01*
X19860Y-32241D01*
X19924Y-32084D01*
X19925Y-31915D01*
X19860Y-31759D01*
X19741Y-31639D01*
X19584Y-31575D01*
X19415Y-31574D01*
X19259Y-31639D01*
X19139Y-31758D01*
X19075Y-31915D01*
X19074Y-32084D01*
X19139Y-32240D01*
X19200Y-32301D01*
X19200Y-38000D01*
X19222Y-38114D01*
X19287Y-38212D01*
X19575Y-38499D01*
X19574Y-38584D01*
X19639Y-38740D01*
X19758Y-38860D01*
X19915Y-38924D01*
X20084Y-38925D01*
X20200Y-38877D01*
X20200Y-41375D01*
X18625Y-42949D01*
X18150Y-42949D01*
X18058Y-42987D01*
X17988Y-43058D01*
X17950Y-43150D01*
X17949Y-43249D01*
X17949Y-43849D01*
X17987Y-43941D01*
X18058Y-44011D01*
X18150Y-44049D01*
X18249Y-44050D01*
X18849Y-44050D01*
X18941Y-44012D01*
X19011Y-43941D01*
X19049Y-43849D01*
X19049Y-43827D01*
X19188Y-43965D01*
X19390Y-44049D01*
X19608Y-44050D01*
X19811Y-43966D01*
X19965Y-43811D01*
X19997Y-43736D01*
X20018Y-43787D01*
X20114Y-43815D01*
X20429Y-43500D01*
X20114Y-43184D01*
X20018Y-43212D01*
X19999Y-43267D01*
X19966Y-43188D01*
X19811Y-43034D01*
X19609Y-42950D01*
X19474Y-42949D01*
X20712Y-41712D01*
X20712Y-41712D01*
X20777Y-41614D01*
X20799Y-41500D01*
X20800Y-41500D01*
X20800Y-27971D01*
X20811Y-27966D01*
X20965Y-27811D01*
X20997Y-27736D01*
X21018Y-27787D01*
X21114Y-27815D01*
X21429Y-27500D01*
X21114Y-27184D01*
X21018Y-27212D01*
X20999Y-27267D01*
X20966Y-27188D01*
X20811Y-27034D01*
X20730Y-27000D01*
X20811Y-26966D01*
X20965Y-26811D01*
X20999Y-26730D01*
X21033Y-26811D01*
X21188Y-26965D01*
X21263Y-26997D01*
X21212Y-27018D01*
X21184Y-27114D01*
X21500Y-27429D01*
X21815Y-27114D01*
X21787Y-27018D01*
X21732Y-26999D01*
X21811Y-26966D01*
X21965Y-26811D01*
X21999Y-26730D01*
X22033Y-26811D01*
X22188Y-26965D01*
X22269Y-26999D01*
X22188Y-27033D01*
X22034Y-27188D01*
X22002Y-27263D01*
X21981Y-27212D01*
X21885Y-27184D01*
X21570Y-27500D01*
X21885Y-27815D01*
X21981Y-27787D01*
X22000Y-27732D01*
X22033Y-27811D01*
X22188Y-27965D01*
X22200Y-27970D01*
X22200Y-42949D01*
X22150Y-42949D01*
X22058Y-42987D01*
X21988Y-43058D01*
X21950Y-43150D01*
X21949Y-43249D01*
X21949Y-43849D01*
X21987Y-43941D01*
X22058Y-44011D01*
X22150Y-44049D01*
X22249Y-44050D01*
X22849Y-44050D01*
X22941Y-44012D01*
X23011Y-43941D01*
X23049Y-43849D01*
X23049Y-43827D01*
X23188Y-43965D01*
X23390Y-44049D01*
X23608Y-44050D01*
X23811Y-43966D01*
X23965Y-43811D01*
X23997Y-43736D01*
X24018Y-43787D01*
X24114Y-43815D01*
X24429Y-43500D01*
X24114Y-43184D01*
X24018Y-43212D01*
X23999Y-43267D01*
X23966Y-43188D01*
X23811Y-43034D01*
X23609Y-42950D01*
X23391Y-42949D01*
X23188Y-43033D01*
X23050Y-43172D01*
X23050Y-43150D01*
X23012Y-43058D01*
X22941Y-42988D01*
X22849Y-42950D01*
X22800Y-42950D01*
X22800Y-27971D01*
X22811Y-27966D01*
X22965Y-27811D01*
X22999Y-27730D01*
X23033Y-27811D01*
X23188Y-27965D01*
X23390Y-28049D01*
X23608Y-28050D01*
X23811Y-27966D01*
X23965Y-27811D01*
X23999Y-27730D01*
X24033Y-27811D01*
X24188Y-27965D01*
X24390Y-28049D01*
X24608Y-28050D01*
X24811Y-27966D01*
X24965Y-27811D01*
X24999Y-27730D01*
X25033Y-27811D01*
X25188Y-27965D01*
X25390Y-28049D01*
X25608Y-28050D01*
X25811Y-27966D01*
X25965Y-27811D01*
X25999Y-27730D01*
X26033Y-27811D01*
X26188Y-27965D01*
X26390Y-28049D01*
X26608Y-28050D01*
X26811Y-27966D01*
X26965Y-27811D01*
X26999Y-27730D01*
X27033Y-27811D01*
X27188Y-27965D01*
X27390Y-28049D01*
X27608Y-28050D01*
X27811Y-27966D01*
X27965Y-27811D01*
X27999Y-27730D01*
X28033Y-27811D01*
X28188Y-27965D01*
X28390Y-28049D01*
X28608Y-28050D01*
X28811Y-27966D01*
X28965Y-27811D01*
X28999Y-27730D01*
X29033Y-27811D01*
X29188Y-27965D01*
X29390Y-28049D01*
X29608Y-28050D01*
X29811Y-27966D01*
X29965Y-27811D01*
X29999Y-27730D01*
X30033Y-27811D01*
X30188Y-27965D01*
X30390Y-28049D01*
X30608Y-28050D01*
X30811Y-27966D01*
X30965Y-27811D01*
X30999Y-27730D01*
X31033Y-27811D01*
X31188Y-27965D01*
X31390Y-28049D01*
X31608Y-28050D01*
X31811Y-27966D01*
X31965Y-27811D01*
X31999Y-27730D01*
X32033Y-27811D01*
X32188Y-27965D01*
X32390Y-28049D01*
X32608Y-28050D01*
X32811Y-27966D01*
X32965Y-27811D01*
X32999Y-27730D01*
X33033Y-27811D01*
X33188Y-27965D01*
X33390Y-28049D01*
X33608Y-28050D01*
X33811Y-27966D01*
X33965Y-27811D01*
X33999Y-27730D01*
X34033Y-27811D01*
X34188Y-27965D01*
X34390Y-28049D01*
X34608Y-28050D01*
X34811Y-27966D01*
X34965Y-27811D01*
X34999Y-27730D01*
X35033Y-27811D01*
X35188Y-27965D01*
X35390Y-28049D01*
X35608Y-28050D01*
X35811Y-27966D01*
X35965Y-27811D01*
X35999Y-27730D01*
X36033Y-27811D01*
X36188Y-27965D01*
X36390Y-28049D01*
X36608Y-28050D01*
X36811Y-27966D01*
X36965Y-27811D01*
X37049Y-27609D01*
X37049Y-27550D01*
X38230Y-27550D01*
X38230Y-42450D01*
M02*
