G04 (created by PCBNEW (2013-07-07 BZR 4022)-stable) date 1/3/2015 11:46:25 AM*
%MOIN*%
G04 Gerber Fmt 3.4, Leading zero omitted, Abs format*
%FSLAX34Y34*%
G01*
G70*
G90*
G04 APERTURE LIST*
%ADD10C,0.00590551*%
%ADD11C,0.00787402*%
%ADD12C,0.011811*%
%ADD13C,0.008*%
%ADD14C,0.012*%
%ADD15C,0.01*%
%ADD16C,0.006*%
%ADD17C,0.015*%
%ADD18C,0.0108*%
%ADD19C,0.0035*%
G04 APERTURE END LIST*
G54D10*
G54D11*
X26000Y-30499D02*
G75*
G03X26499Y-31999I999J-500D01*
G74*
G01*
X26500Y-32000D02*
G75*
G03X27000Y-32500I500J0D01*
G74*
G01*
X27000Y-32500D02*
G75*
G03X27500Y-32000I0J500D01*
G74*
G01*
X27500Y-32000D02*
G75*
G03X29500Y-32000I1000J1000D01*
G74*
G01*
X29500Y-32000D02*
G75*
G03X30000Y-32500I500J0D01*
G74*
G01*
X30000Y-32500D02*
G75*
G03X30500Y-32000I0J500D01*
G74*
G01*
X30500Y-32000D02*
G75*
G03X30000Y-31500I-500J0D01*
G74*
G01*
X30499Y-32000D02*
G75*
G03X30000Y-29500I-1499J1000D01*
G74*
G01*
X27500Y-29500D02*
G75*
G03X26000Y-31000I0J-1500D01*
G74*
G01*
X30001Y-29500D02*
G75*
G03X26500Y-29998I-1501J-1999D01*
G74*
G01*
X26207Y-31500D02*
G75*
G03X26207Y-31500I-707J0D01*
G74*
G01*
G54D12*
X23706Y-35148D02*
X24044Y-35148D01*
X23875Y-35739D02*
X23875Y-35148D01*
X24494Y-35345D02*
X24494Y-35739D01*
X24241Y-35345D02*
X24241Y-35654D01*
X24269Y-35710D01*
X24325Y-35739D01*
X24410Y-35739D01*
X24466Y-35710D01*
X24494Y-35682D01*
X24775Y-35739D02*
X24775Y-35345D01*
X24775Y-35457D02*
X24803Y-35401D01*
X24831Y-35373D01*
X24888Y-35345D01*
X24944Y-35345D01*
X25056Y-35345D02*
X25281Y-35345D01*
X25141Y-35148D02*
X25141Y-35654D01*
X25169Y-35710D01*
X25225Y-35739D01*
X25281Y-35739D01*
X25562Y-35739D02*
X25506Y-35710D01*
X25478Y-35654D01*
X25478Y-35148D01*
X26012Y-35710D02*
X25956Y-35739D01*
X25844Y-35739D01*
X25787Y-35710D01*
X25759Y-35654D01*
X25759Y-35429D01*
X25787Y-35373D01*
X25844Y-35345D01*
X25956Y-35345D01*
X26012Y-35373D01*
X26041Y-35429D01*
X26041Y-35485D01*
X25759Y-35542D01*
X26491Y-35429D02*
X26575Y-35457D01*
X26603Y-35485D01*
X26631Y-35542D01*
X26631Y-35626D01*
X26603Y-35682D01*
X26575Y-35710D01*
X26519Y-35739D01*
X26294Y-35739D01*
X26294Y-35148D01*
X26491Y-35148D01*
X26547Y-35176D01*
X26575Y-35204D01*
X26603Y-35260D01*
X26603Y-35317D01*
X26575Y-35373D01*
X26547Y-35401D01*
X26491Y-35429D01*
X26294Y-35429D01*
X26969Y-35739D02*
X26912Y-35710D01*
X26884Y-35682D01*
X26856Y-35626D01*
X26856Y-35457D01*
X26884Y-35401D01*
X26912Y-35373D01*
X26969Y-35345D01*
X27053Y-35345D01*
X27109Y-35373D01*
X27137Y-35401D01*
X27165Y-35457D01*
X27165Y-35626D01*
X27137Y-35682D01*
X27109Y-35710D01*
X27053Y-35739D01*
X26969Y-35739D01*
X27334Y-35345D02*
X27559Y-35345D01*
X27419Y-35148D02*
X27419Y-35654D01*
X27447Y-35710D01*
X27503Y-35739D01*
X27559Y-35739D01*
X28178Y-35710D02*
X28262Y-35739D01*
X28403Y-35739D01*
X28459Y-35710D01*
X28487Y-35682D01*
X28515Y-35626D01*
X28515Y-35570D01*
X28487Y-35514D01*
X28459Y-35485D01*
X28403Y-35457D01*
X28290Y-35429D01*
X28234Y-35401D01*
X28206Y-35373D01*
X28178Y-35317D01*
X28178Y-35260D01*
X28206Y-35204D01*
X28234Y-35176D01*
X28290Y-35148D01*
X28431Y-35148D01*
X28515Y-35176D01*
X28993Y-35710D02*
X28937Y-35739D01*
X28825Y-35739D01*
X28768Y-35710D01*
X28740Y-35654D01*
X28740Y-35429D01*
X28768Y-35373D01*
X28825Y-35345D01*
X28937Y-35345D01*
X28993Y-35373D01*
X29021Y-35429D01*
X29021Y-35485D01*
X28740Y-35542D01*
X29275Y-35739D02*
X29275Y-35345D01*
X29275Y-35457D02*
X29303Y-35401D01*
X29331Y-35373D01*
X29387Y-35345D01*
X29443Y-35345D01*
X29584Y-35345D02*
X29724Y-35739D01*
X29865Y-35345D01*
X30174Y-35739D02*
X30118Y-35710D01*
X30090Y-35682D01*
X30062Y-35626D01*
X30062Y-35457D01*
X30090Y-35401D01*
X30118Y-35373D01*
X30174Y-35345D01*
X30259Y-35345D01*
X30315Y-35373D01*
X30343Y-35401D01*
X30371Y-35457D01*
X30371Y-35626D01*
X30343Y-35682D01*
X30315Y-35710D01*
X30259Y-35739D01*
X30174Y-35739D01*
X30821Y-35429D02*
X30906Y-35457D01*
X30934Y-35485D01*
X30962Y-35542D01*
X30962Y-35626D01*
X30934Y-35682D01*
X30906Y-35710D01*
X30849Y-35739D01*
X30624Y-35739D01*
X30624Y-35148D01*
X30821Y-35148D01*
X30877Y-35176D01*
X30906Y-35204D01*
X30934Y-35260D01*
X30934Y-35317D01*
X30906Y-35373D01*
X30877Y-35401D01*
X30821Y-35429D01*
X30624Y-35429D01*
X31299Y-35739D02*
X31243Y-35710D01*
X31215Y-35682D01*
X31187Y-35626D01*
X31187Y-35457D01*
X31215Y-35401D01*
X31243Y-35373D01*
X31299Y-35345D01*
X31384Y-35345D01*
X31440Y-35373D01*
X31468Y-35401D01*
X31496Y-35457D01*
X31496Y-35626D01*
X31468Y-35682D01*
X31440Y-35710D01*
X31384Y-35739D01*
X31299Y-35739D01*
X32002Y-35739D02*
X32002Y-35429D01*
X31974Y-35373D01*
X31918Y-35345D01*
X31805Y-35345D01*
X31749Y-35373D01*
X32002Y-35710D02*
X31946Y-35739D01*
X31805Y-35739D01*
X31749Y-35710D01*
X31721Y-35654D01*
X31721Y-35598D01*
X31749Y-35542D01*
X31805Y-35514D01*
X31946Y-35514D01*
X32002Y-35485D01*
X32284Y-35739D02*
X32284Y-35345D01*
X32284Y-35457D02*
X32312Y-35401D01*
X32340Y-35373D01*
X32396Y-35345D01*
X32452Y-35345D01*
X32902Y-35739D02*
X32902Y-35148D01*
X32902Y-35710D02*
X32846Y-35739D01*
X32733Y-35739D01*
X32677Y-35710D01*
X32649Y-35682D01*
X32621Y-35626D01*
X32621Y-35457D01*
X32649Y-35401D01*
X32677Y-35373D01*
X32733Y-35345D01*
X32846Y-35345D01*
X32902Y-35373D01*
X33577Y-35345D02*
X33718Y-35739D01*
X33858Y-35345D01*
X34196Y-35148D02*
X34252Y-35148D01*
X34308Y-35176D01*
X34336Y-35204D01*
X34365Y-35260D01*
X34393Y-35373D01*
X34393Y-35514D01*
X34365Y-35626D01*
X34336Y-35682D01*
X34308Y-35710D01*
X34252Y-35739D01*
X34196Y-35739D01*
X34140Y-35710D01*
X34111Y-35682D01*
X34083Y-35626D01*
X34055Y-35514D01*
X34055Y-35373D01*
X34083Y-35260D01*
X34111Y-35204D01*
X34140Y-35176D01*
X34196Y-35148D01*
X34646Y-35682D02*
X34674Y-35710D01*
X34646Y-35739D01*
X34618Y-35710D01*
X34646Y-35682D01*
X34646Y-35739D01*
X35236Y-35739D02*
X34899Y-35739D01*
X35068Y-35739D02*
X35068Y-35148D01*
X35011Y-35232D01*
X34955Y-35289D01*
X34899Y-35317D01*
G54D13*
X16000Y-40500D02*
X16000Y-40300D01*
X16000Y-37500D02*
X16000Y-37700D01*
X16000Y-37700D02*
X15600Y-37700D01*
X15600Y-37700D02*
X15600Y-40300D01*
X15600Y-40300D02*
X16400Y-40300D01*
X16400Y-40300D02*
X16400Y-37700D01*
X16400Y-37700D02*
X16000Y-37700D01*
X15800Y-40300D02*
X15600Y-40100D01*
G54D14*
X37000Y-28000D02*
X17000Y-28000D01*
X37000Y-26000D02*
X17000Y-26000D01*
X37000Y-26000D02*
X37000Y-28000D01*
X17000Y-26000D02*
X17000Y-28000D01*
X27000Y-37500D02*
X29000Y-37500D01*
X27000Y-38500D02*
X29000Y-38500D01*
X27000Y-39500D02*
X29000Y-39500D01*
X29000Y-37000D02*
X29000Y-40500D01*
X29000Y-40500D02*
X35000Y-40500D01*
X35000Y-40500D02*
X35000Y-36500D01*
X29000Y-37000D02*
X29000Y-36500D01*
X32000Y-40000D02*
X32000Y-36500D01*
X32000Y-40000D02*
X32000Y-40500D01*
X29000Y-36500D02*
X35000Y-36500D01*
G54D15*
X16500Y-35280D02*
X15500Y-35280D01*
G54D16*
X15615Y-36360D02*
G75*
G03X16000Y-36500I384J460D01*
G74*
G01*
X16000Y-36499D02*
G75*
G03X16397Y-36348I0J599D01*
G74*
G01*
X16000Y-35300D02*
G75*
G03X15610Y-35444I0J-599D01*
G74*
G01*
X16384Y-35439D02*
G75*
G03X16000Y-35300I-384J-460D01*
G74*
G01*
X15650Y-35412D02*
G75*
G03X15400Y-35900I349J-487D01*
G74*
G01*
X15400Y-35900D02*
G75*
G03X15639Y-36379I600J0D01*
G74*
G01*
X16599Y-35900D02*
G75*
G03X16368Y-35427I-599J0D01*
G74*
G01*
X16368Y-36373D02*
G75*
G03X16600Y-35900I-368J473D01*
G74*
G01*
X15750Y-35900D02*
G75*
G03X16000Y-36150I250J0D01*
G74*
G01*
X15600Y-35900D02*
G75*
G03X16000Y-36300I400J0D01*
G74*
G01*
X16250Y-35900D02*
G75*
G03X16000Y-35650I-250J0D01*
G74*
G01*
X16400Y-35900D02*
G75*
G03X16000Y-35500I-400J0D01*
G74*
G01*
G54D15*
X15486Y-35286D02*
G75*
G03X15200Y-35900I513J-613D01*
G74*
G01*
X15201Y-35900D02*
G75*
G03X15623Y-36604I799J0D01*
G74*
G01*
X16798Y-35898D02*
G75*
G03X16515Y-35289I-798J-1D01*
G74*
G01*
X16397Y-36594D02*
G75*
G03X16800Y-35900I-397J694D01*
G74*
G01*
X15620Y-36604D02*
G75*
G03X16000Y-36700I379J704D01*
G74*
G01*
X16000Y-36699D02*
G75*
G03X16418Y-36581I0J799D01*
G74*
G01*
G54D14*
X25500Y-37020D02*
X25500Y-39000D01*
X25500Y-39000D02*
X24500Y-39000D01*
X24500Y-39000D02*
X24500Y-37000D01*
X24500Y-37000D02*
X25500Y-37000D01*
X25250Y-37000D02*
X25500Y-37250D01*
G54D16*
X18000Y-44000D02*
X18000Y-43000D01*
X18000Y-43000D02*
X21000Y-43000D01*
X21000Y-43000D02*
X21000Y-44000D01*
X21000Y-44000D02*
X18000Y-44000D01*
X19000Y-43000D02*
X19000Y-44000D01*
X22000Y-44000D02*
X22000Y-43000D01*
X22000Y-43000D02*
X25000Y-43000D01*
X25000Y-43000D02*
X25000Y-44000D01*
X25000Y-44000D02*
X22000Y-44000D01*
X23000Y-43000D02*
X23000Y-44000D01*
G54D17*
X16900Y-26500D02*
G75*
G03X16900Y-26500I-900J0D01*
G74*
G01*
X16900Y-44000D02*
G75*
G03X16900Y-44000I-900J0D01*
G74*
G01*
X38400Y-44000D02*
G75*
G03X38400Y-44000I-900J0D01*
G74*
G01*
G54D15*
X15500Y-32500D02*
X15500Y-34500D01*
X17250Y-32500D02*
X17250Y-34500D01*
X14750Y-34500D02*
X14750Y-32500D01*
X14750Y-34500D02*
X17250Y-34500D01*
X14750Y-32500D02*
X17250Y-32500D01*
G54D13*
X16272Y-39333D02*
X16272Y-39619D01*
X16272Y-39476D02*
X15722Y-39476D01*
X15801Y-39523D01*
X15853Y-39571D01*
X15879Y-39619D01*
X15722Y-39023D02*
X15722Y-38976D01*
X15748Y-38928D01*
X15775Y-38904D01*
X15827Y-38880D01*
X15932Y-38857D01*
X16063Y-38857D01*
X16167Y-38880D01*
X16220Y-38904D01*
X16246Y-38928D01*
X16272Y-38976D01*
X16272Y-39023D01*
X16246Y-39071D01*
X16220Y-39095D01*
X16167Y-39119D01*
X16063Y-39142D01*
X15932Y-39142D01*
X15827Y-39119D01*
X15775Y-39095D01*
X15748Y-39071D01*
X15722Y-39023D01*
X15722Y-38547D02*
X15722Y-38500D01*
X15748Y-38452D01*
X15775Y-38428D01*
X15827Y-38404D01*
X15932Y-38380D01*
X16063Y-38380D01*
X16167Y-38404D01*
X16220Y-38428D01*
X16246Y-38452D01*
X16272Y-38500D01*
X16272Y-38547D01*
X16246Y-38595D01*
X16220Y-38619D01*
X16167Y-38642D01*
X16063Y-38666D01*
X15932Y-38666D01*
X15827Y-38642D01*
X15775Y-38619D01*
X15748Y-38595D01*
X15722Y-38547D01*
G54D15*
X26704Y-25661D02*
X26704Y-25261D01*
X26857Y-25261D01*
X26895Y-25280D01*
X26914Y-25300D01*
X26933Y-25338D01*
X26933Y-25395D01*
X26914Y-25433D01*
X26895Y-25452D01*
X26857Y-25471D01*
X26704Y-25471D01*
X27314Y-25661D02*
X27085Y-25661D01*
X27200Y-25661D02*
X27200Y-25261D01*
X27161Y-25319D01*
X27123Y-25357D01*
X27085Y-25376D01*
G54D18*
G54D13*
X24752Y-28661D02*
X24752Y-28261D01*
X24904Y-28261D01*
X24942Y-28280D01*
X24961Y-28300D01*
X24980Y-28338D01*
X24980Y-28395D01*
X24961Y-28433D01*
X24942Y-28452D01*
X24904Y-28471D01*
X24752Y-28471D01*
X25152Y-28661D02*
X25152Y-28395D01*
X25152Y-28261D02*
X25133Y-28280D01*
X25152Y-28300D01*
X25171Y-28280D01*
X25152Y-28261D01*
X25152Y-28300D01*
X25857Y-28280D02*
X25819Y-28261D01*
X25761Y-28261D01*
X25704Y-28280D01*
X25666Y-28319D01*
X25647Y-28357D01*
X25628Y-28433D01*
X25628Y-28490D01*
X25647Y-28566D01*
X25666Y-28604D01*
X25704Y-28642D01*
X25761Y-28661D01*
X25800Y-28661D01*
X25857Y-28642D01*
X25876Y-28623D01*
X25876Y-28490D01*
X25800Y-28490D01*
X26047Y-28661D02*
X26047Y-28261D01*
X26200Y-28261D01*
X26238Y-28280D01*
X26257Y-28300D01*
X26276Y-28338D01*
X26276Y-28395D01*
X26257Y-28433D01*
X26238Y-28452D01*
X26200Y-28471D01*
X26047Y-28471D01*
X26447Y-28661D02*
X26447Y-28261D01*
X26714Y-28261D02*
X26790Y-28261D01*
X26828Y-28280D01*
X26866Y-28319D01*
X26885Y-28395D01*
X26885Y-28528D01*
X26866Y-28604D01*
X26828Y-28642D01*
X26790Y-28661D01*
X26714Y-28661D01*
X26676Y-28642D01*
X26638Y-28604D01*
X26619Y-28528D01*
X26619Y-28395D01*
X26638Y-28319D01*
X26676Y-28280D01*
X26714Y-28261D01*
X27361Y-28661D02*
X27361Y-28261D01*
X27361Y-28452D02*
X27590Y-28452D01*
X27590Y-28661D02*
X27590Y-28261D01*
X27933Y-28642D02*
X27895Y-28661D01*
X27819Y-28661D01*
X27780Y-28642D01*
X27761Y-28604D01*
X27761Y-28452D01*
X27780Y-28414D01*
X27819Y-28395D01*
X27895Y-28395D01*
X27933Y-28414D01*
X27952Y-28452D01*
X27952Y-28490D01*
X27761Y-28528D01*
X28295Y-28661D02*
X28295Y-28452D01*
X28276Y-28414D01*
X28238Y-28395D01*
X28161Y-28395D01*
X28123Y-28414D01*
X28295Y-28642D02*
X28257Y-28661D01*
X28161Y-28661D01*
X28123Y-28642D01*
X28104Y-28604D01*
X28104Y-28566D01*
X28123Y-28528D01*
X28161Y-28509D01*
X28257Y-28509D01*
X28295Y-28490D01*
X28657Y-28661D02*
X28657Y-28261D01*
X28657Y-28642D02*
X28619Y-28661D01*
X28542Y-28661D01*
X28504Y-28642D01*
X28485Y-28623D01*
X28466Y-28585D01*
X28466Y-28471D01*
X28485Y-28433D01*
X28504Y-28414D01*
X28542Y-28395D01*
X28619Y-28395D01*
X28657Y-28414D01*
X29000Y-28642D02*
X28961Y-28661D01*
X28885Y-28661D01*
X28847Y-28642D01*
X28828Y-28604D01*
X28828Y-28452D01*
X28847Y-28414D01*
X28885Y-28395D01*
X28961Y-28395D01*
X29000Y-28414D01*
X29019Y-28452D01*
X29019Y-28490D01*
X28828Y-28528D01*
X29190Y-28661D02*
X29190Y-28395D01*
X29190Y-28471D02*
X29209Y-28433D01*
X29228Y-28414D01*
X29266Y-28395D01*
X29304Y-28395D01*
X29642Y-38804D02*
X30128Y-38804D01*
X30185Y-38785D01*
X30214Y-38766D01*
X30242Y-38728D01*
X30242Y-38652D01*
X30214Y-38614D01*
X30185Y-38595D01*
X30128Y-38576D01*
X29642Y-38576D01*
X30242Y-38176D02*
X30242Y-38404D01*
X30242Y-38290D02*
X29642Y-38290D01*
X29728Y-38328D01*
X29785Y-38366D01*
X29814Y-38404D01*
X30842Y-39254D02*
X30842Y-38988D01*
X31442Y-39159D01*
X31100Y-38778D02*
X31071Y-38816D01*
X31042Y-38835D01*
X30985Y-38854D01*
X30957Y-38854D01*
X30900Y-38835D01*
X30871Y-38816D01*
X30842Y-38778D01*
X30842Y-38702D01*
X30871Y-38664D01*
X30900Y-38645D01*
X30957Y-38626D01*
X30985Y-38626D01*
X31042Y-38645D01*
X31071Y-38664D01*
X31100Y-38702D01*
X31100Y-38778D01*
X31128Y-38816D01*
X31157Y-38835D01*
X31214Y-38854D01*
X31328Y-38854D01*
X31385Y-38835D01*
X31414Y-38816D01*
X31442Y-38778D01*
X31442Y-38702D01*
X31414Y-38664D01*
X31385Y-38645D01*
X31328Y-38626D01*
X31214Y-38626D01*
X31157Y-38645D01*
X31128Y-38664D01*
X31100Y-38702D01*
X30842Y-38378D02*
X30842Y-38340D01*
X30871Y-38302D01*
X30900Y-38283D01*
X30957Y-38264D01*
X31071Y-38245D01*
X31214Y-38245D01*
X31328Y-38264D01*
X31385Y-38283D01*
X31414Y-38302D01*
X31442Y-38340D01*
X31442Y-38378D01*
X31414Y-38416D01*
X31385Y-38435D01*
X31328Y-38454D01*
X31214Y-38473D01*
X31071Y-38473D01*
X30957Y-38454D01*
X30900Y-38435D01*
X30871Y-38416D01*
X30842Y-38378D01*
X30842Y-37883D02*
X30842Y-38073D01*
X31128Y-38092D01*
X31100Y-38073D01*
X31071Y-38035D01*
X31071Y-37940D01*
X31100Y-37902D01*
X31128Y-37883D01*
X31185Y-37864D01*
X31328Y-37864D01*
X31385Y-37883D01*
X31414Y-37902D01*
X31442Y-37940D01*
X31442Y-38035D01*
X31414Y-38073D01*
X31385Y-38092D01*
G54D19*
X15021Y-35521D02*
X14721Y-35521D01*
X14721Y-35450D01*
X14735Y-35407D01*
X14764Y-35378D01*
X14792Y-35364D01*
X14850Y-35350D01*
X14892Y-35350D01*
X14950Y-35364D01*
X14978Y-35378D01*
X15007Y-35407D01*
X15021Y-35450D01*
X15021Y-35521D01*
X15021Y-35064D02*
X15021Y-35235D01*
X15021Y-35150D02*
X14721Y-35150D01*
X14764Y-35178D01*
X14792Y-35207D01*
X14807Y-35235D01*
X17121Y-36192D02*
X17121Y-36335D01*
X16821Y-36335D01*
X16964Y-36092D02*
X16964Y-35992D01*
X17121Y-35950D02*
X17121Y-36092D01*
X16821Y-36092D01*
X16821Y-35950D01*
X17121Y-35821D02*
X16821Y-35821D01*
X16821Y-35750D01*
X16835Y-35707D01*
X16864Y-35678D01*
X16892Y-35664D01*
X16950Y-35650D01*
X16992Y-35650D01*
X17050Y-35664D01*
X17078Y-35678D01*
X17107Y-35707D01*
X17121Y-35750D01*
X17121Y-35821D01*
G54D13*
X26023Y-38166D02*
X26042Y-38185D01*
X26061Y-38242D01*
X26061Y-38280D01*
X26042Y-38338D01*
X26004Y-38376D01*
X25966Y-38395D01*
X25890Y-38414D01*
X25833Y-38414D01*
X25757Y-38395D01*
X25719Y-38376D01*
X25680Y-38338D01*
X25661Y-38280D01*
X25661Y-38242D01*
X25680Y-38185D01*
X25700Y-38166D01*
X26061Y-37785D02*
X26061Y-38014D01*
X26061Y-37899D02*
X25661Y-37899D01*
X25719Y-37938D01*
X25757Y-37976D01*
X25776Y-38014D01*
G54D16*
X19304Y-42811D02*
X19304Y-42411D01*
X19533Y-42811D02*
X19361Y-42583D01*
X19533Y-42411D02*
X19304Y-42640D01*
X19914Y-42811D02*
X19685Y-42811D01*
X19800Y-42811D02*
X19800Y-42411D01*
X19761Y-42469D01*
X19723Y-42507D01*
X19685Y-42526D01*
X23304Y-42811D02*
X23304Y-42411D01*
X23533Y-42811D02*
X23361Y-42583D01*
X23533Y-42411D02*
X23304Y-42640D01*
X23685Y-42450D02*
X23704Y-42430D01*
X23742Y-42411D01*
X23838Y-42411D01*
X23876Y-42430D01*
X23895Y-42450D01*
X23914Y-42488D01*
X23914Y-42526D01*
X23895Y-42583D01*
X23666Y-42811D01*
X23914Y-42811D01*
G54D15*
X15704Y-25461D02*
X15704Y-25061D01*
X15857Y-25061D01*
X15895Y-25080D01*
X15914Y-25100D01*
X15933Y-25138D01*
X15933Y-25195D01*
X15914Y-25233D01*
X15895Y-25252D01*
X15857Y-25271D01*
X15704Y-25271D01*
X16066Y-25061D02*
X16314Y-25061D01*
X16180Y-25214D01*
X16238Y-25214D01*
X16276Y-25233D01*
X16295Y-25252D01*
X16314Y-25290D01*
X16314Y-25385D01*
X16295Y-25423D01*
X16276Y-25442D01*
X16238Y-25461D01*
X16123Y-25461D01*
X16085Y-25442D01*
X16066Y-25423D01*
X15704Y-42961D02*
X15704Y-42561D01*
X15857Y-42561D01*
X15895Y-42580D01*
X15914Y-42600D01*
X15933Y-42638D01*
X15933Y-42695D01*
X15914Y-42733D01*
X15895Y-42752D01*
X15857Y-42771D01*
X15704Y-42771D01*
X16295Y-42561D02*
X16104Y-42561D01*
X16085Y-42752D01*
X16104Y-42733D01*
X16142Y-42714D01*
X16238Y-42714D01*
X16276Y-42733D01*
X16295Y-42752D01*
X16314Y-42790D01*
X16314Y-42885D01*
X16295Y-42923D01*
X16276Y-42942D01*
X16238Y-42961D01*
X16142Y-42961D01*
X16104Y-42942D01*
X16085Y-42923D01*
X37204Y-42961D02*
X37204Y-42561D01*
X37357Y-42561D01*
X37395Y-42580D01*
X37414Y-42600D01*
X37433Y-42638D01*
X37433Y-42695D01*
X37414Y-42733D01*
X37395Y-42752D01*
X37357Y-42771D01*
X37204Y-42771D01*
X37776Y-42695D02*
X37776Y-42961D01*
X37680Y-42542D02*
X37585Y-42828D01*
X37833Y-42828D01*
G54D19*
X14661Y-34545D02*
X14261Y-34545D01*
X14261Y-34392D01*
X14280Y-34354D01*
X14300Y-34335D01*
X14338Y-34316D01*
X14395Y-34316D01*
X14433Y-34335D01*
X14452Y-34354D01*
X14471Y-34392D01*
X14471Y-34545D01*
X14300Y-34164D02*
X14280Y-34145D01*
X14261Y-34107D01*
X14261Y-34011D01*
X14280Y-33973D01*
X14300Y-33954D01*
X14338Y-33935D01*
X14376Y-33935D01*
X14433Y-33954D01*
X14661Y-34183D01*
X14661Y-33935D01*
X17623Y-34347D02*
X17642Y-34366D01*
X17661Y-34423D01*
X17661Y-34461D01*
X17642Y-34519D01*
X17604Y-34557D01*
X17566Y-34576D01*
X17490Y-34595D01*
X17433Y-34595D01*
X17357Y-34576D01*
X17319Y-34557D01*
X17280Y-34519D01*
X17261Y-34461D01*
X17261Y-34423D01*
X17280Y-34366D01*
X17300Y-34347D01*
X17261Y-34099D02*
X17261Y-34023D01*
X17280Y-33985D01*
X17319Y-33947D01*
X17395Y-33928D01*
X17528Y-33928D01*
X17604Y-33947D01*
X17642Y-33985D01*
X17661Y-34023D01*
X17661Y-34099D01*
X17642Y-34138D01*
X17604Y-34176D01*
X17528Y-34195D01*
X17395Y-34195D01*
X17319Y-34176D01*
X17280Y-34138D01*
X17261Y-34099D01*
X17661Y-33757D02*
X17261Y-33757D01*
X17661Y-33528D01*
X17261Y-33528D01*
X17661Y-33338D02*
X17261Y-33338D01*
X17661Y-33109D01*
X17261Y-33109D01*
X17700Y-33014D02*
X17700Y-32709D01*
X17300Y-32633D02*
X17280Y-32614D01*
X17261Y-32576D01*
X17261Y-32480D01*
X17280Y-32442D01*
X17300Y-32423D01*
X17338Y-32404D01*
X17376Y-32404D01*
X17433Y-32423D01*
X17661Y-32652D01*
X17661Y-32404D01*
M02*
