solid OpenSCAD_Model
  facet normal -1 0 0
    outer loop
      vertex -33.25 0 0
      vertex -33.25 0 4
      vertex -33.25 59.5 0
    endloop
  endfacet
  facet normal -1 0 0
    outer loop
      vertex -33.25 59.5 0
      vertex -33.25 0 4
      vertex -33.25 59.5 4
    endloop
  endfacet
  facet normal 0 -1 0
    outer loop
      vertex -33.25 0 4
      vertex -33.25 0 0
      vertex -4.75 0 0
    endloop
  endfacet
  facet normal 0 -1 0
    outer loop
      vertex -4.75 0 4
      vertex -33.25 0 4
      vertex -4.75 0 0
    endloop
  endfacet
  facet normal 0 0 -1
    outer loop
      vertex -33.25 0 0
      vertex -33.25 59.5 0
      vertex -4.75 0 0
    endloop
  endfacet
  facet normal 0 0 -1
    outer loop
      vertex -4.75 0 0
      vertex -33.25 59.5 0
      vertex -19.125 59.5 0
    endloop
  endfacet
  facet normal 0 0 -1
    outer loop
      vertex -4.75 0 0
      vertex -19.125 59.5 0
      vertex -19.125 62.5 0
    endloop
  endfacet
  facet normal 0 0 -1
    outer loop
      vertex -14.125 59.5 0
      vertex -19.125 62.5 0
      vertex -14.125 62.5 0
    endloop
  endfacet
  facet normal 0 0 -1
    outer loop
      vertex -4.75 0 0
      vertex -19.125 62.5 0
      vertex -14.125 59.5 0
    endloop
  endfacet
  facet normal 0 0 -1
    outer loop
      vertex -3.84283 -6.54198 0
      vertex 1.46783 -8.26752 0
      vertex -2.375 -7.86362 0
    endloop
  endfacet
  facet normal 0 0 -1
    outer loop
      vertex 14.125 59.5 0
      vertex 14.125 62.5 0
      vertex 19.125 62.5 0
    endloop
  endfacet
  facet normal 0 0 -1
    outer loop
      vertex 14.125 59.5 0
      vertex 19.125 62.5 0
      vertex -4.75 0 0
    endloop
  endfacet
  facet normal 0 0 -1
    outer loop
      vertex -4.75 0 0
      vertex 19.125 62.5 0
      vertex 19.125 59.5 0
    endloop
  endfacet
  facet normal 0 0 -1
    outer loop
      vertex -4.75 0 0
      vertex 19.125 59.5 0
      vertex 33.25 59.5 0
    endloop
  endfacet
  facet normal 0 0 -1
    outer loop
      vertex 4.75 0 0
      vertex 33.25 59.5 0
      vertex 33.25 0 0
    endloop
  endfacet
  facet normal 0 0 -1
    outer loop
      vertex -4.75 0 0
      vertex 33.25 59.5 0
      vertex 4.75 0 0
    endloop
  endfacet
  facet normal 0 0 -1
    outer loop
      vertex 4.75 0 0
      vertex 4.75 -3.75 0
      vertex -4.75 0 0
    endloop
  endfacet
  facet normal 0 0 -1
    outer loop
      vertex 0.463525 -5.42658 0
      vertex -4.6462 -4.73758 0
      vertex -1.21352 -4.88168 0
    endloop
  endfacet
  facet normal 0 0 -1
    outer loop
      vertex -4.6462 -4.73758 0
      vertex 3.17837 -7.27994 0
      vertex -3.84283 -6.54198 0
    endloop
  endfacet
  facet normal 0 0 -1
    outer loop
      vertex 1.46783 -8.26752 0
      vertex -0.49651 -8.47398 0
      vertex -2.375 -7.86362 0
    endloop
  endfacet
  facet normal 0 0 -1
    outer loop
      vertex 3.17837 -7.27994 0
      vertex 1.46783 -8.26752 0
      vertex -3.84283 -6.54198 0
    endloop
  endfacet
  facet normal 0 0 -1
    outer loop
      vertex -4.6462 -3.75 0
      vertex -1.21352 -4.88168 0
      vertex -4.6462 -4.73758 0
    endloop
  endfacet
  facet normal 0 0 -1
    outer loop
      vertex 0.463525 -5.42658 0
      vertex 3.17837 -7.27994 0
      vertex -4.6462 -4.73758 0
    endloop
  endfacet
  facet normal 0 0 -1
    outer loop
      vertex -1.21352 -4.88168 0
      vertex -4.6462 -3.75 0
      vertex -1.21352 -3.11832 0
    endloop
  endfacet
  facet normal 0 0 -1
    outer loop
      vertex 14.125 59.5 0
      vertex -4.75 0 0
      vertex -14.125 59.5 0
    endloop
  endfacet
  facet normal 0 0 -1
    outer loop
      vertex 0.463525 -2.57341 0
      vertex 4.75 -3.75 0
      vertex 1.5 -4 0
    endloop
  endfacet
  facet normal 0 0 -1
    outer loop
      vertex 4.33934 -5.682 0
      vertex 3.17837 -7.27994 0
      vertex 0.463525 -5.42658 0
    endloop
  endfacet
  facet normal 0 0 -1
    outer loop
      vertex 1.5 -4 0
      vertex 4.33934 -5.682 0
      vertex 0.463525 -5.42658 0
    endloop
  endfacet
  facet normal 0 0 -1
    outer loop
      vertex 4.75 -3.75 0
      vertex 4.33934 -5.682 0
      vertex 1.5 -4 0
    endloop
  endfacet
  facet normal 0 0 -1
    outer loop
      vertex -4.75 0 0
      vertex 4.75 -3.75 0
      vertex 0.463525 -2.57341 0
    endloop
  endfacet
  facet normal 0 0 -1
    outer loop
      vertex -4.75 0 0
      vertex 0.463525 -2.57341 0
      vertex -1.21352 -3.11832 0
    endloop
  endfacet
  facet normal 0 0 -1
    outer loop
      vertex -4.75 0 0
      vertex -1.21352 -3.11832 0
      vertex -4.6462 -3.75 0
    endloop
  endfacet
  facet normal 0 0 -1
    outer loop
      vertex -4.75 0 0
      vertex -4.6462 -3.75 0
      vertex -4.75 -3.75 0
    endloop
  endfacet
  facet normal 0 1 0
    outer loop
      vertex -33.25 59.5 0
      vertex -33.25 59.5 4
      vertex -19.125 59.5 0
    endloop
  endfacet
  facet normal 0 1 0
    outer loop
      vertex -14.125 59.5 1.9
      vertex -33.25 59.5 4
      vertex 33.25 59.5 4
    endloop
  endfacet
  facet normal 0 1 0
    outer loop
      vertex 19.125 59.5 0
      vertex 33.25 59.5 4
      vertex 33.25 59.5 0
    endloop
  endfacet
  facet normal 0 1 0
    outer loop
      vertex 19.125 59.5 1.9
      vertex 33.25 59.5 4
      vertex 19.125 59.5 0
    endloop
  endfacet
  facet normal 0 1 0
    outer loop
      vertex 14.125 59.5 1.9
      vertex 33.25 59.5 4
      vertex 19.125 59.5 1.9
    endloop
  endfacet
  facet normal 0 1 0
    outer loop
      vertex -14.125 59.5 1.9
      vertex 33.25 59.5 4
      vertex 14.125 59.5 1.9
    endloop
  endfacet
  facet normal 0 1 0
    outer loop
      vertex -14.125 59.5 1.9
      vertex 14.125 59.5 1.9
      vertex -14.125 59.5 0
    endloop
  endfacet
  facet normal 0 1 0
    outer loop
      vertex -19.125 59.5 1.9
      vertex -33.25 59.5 4
      vertex -14.125 59.5 1.9
    endloop
  endfacet
  facet normal 0 1 0
    outer loop
      vertex -19.125 59.5 0
      vertex -33.25 59.5 4
      vertex -19.125 59.5 1.9
    endloop
  endfacet
  facet normal 0 1 0
    outer loop
      vertex 14.125 59.5 0
      vertex -14.125 59.5 0
      vertex 14.125 59.5 1.9
    endloop
  endfacet
  facet normal 0 0 1
    outer loop
      vertex -4.6462 -3.75 4
      vertex -3.84283 -6.54198 4
      vertex -4.75 0 4
    endloop
  endfacet
  facet normal 0 0 1
    outer loop
      vertex -33.25 59.5 4
      vertex -33.25 0 4
      vertex -4.75 0 4
    endloop
  endfacet
  facet normal 0 0 1
    outer loop
      vertex -2.42705 -2.23664 4
      vertex -0.927051 -1.14683 4
      vertex -33.25 59.5 4
    endloop
  endfacet
  facet normal 0 0 1
    outer loop
      vertex -4.75 -3.75 4
      vertex -4.6462 -3.75 4
      vertex -4.75 0 4
    endloop
  endfacet
  facet normal 0 0 1
    outer loop
      vertex 4.75 0 4
      vertex 33.25 0 4
      vertex -33.25 59.5 4
    endloop
  endfacet
  facet normal 0 0 1
    outer loop
      vertex -4.6462 -4.73758 4
      vertex -3.84283 -6.54198 4
      vertex -4.6462 -3.75 4
    endloop
  endfacet
  facet normal 0 0 1
    outer loop
      vertex -3.84283 -6.54198 4
      vertex -2.375 -7.86362 4
      vertex -4.75 0 4
    endloop
  endfacet
  facet normal 0 0 1
    outer loop
      vertex -0.927051 -1.14683 4
      vertex 0.927051 -1.14683 4
      vertex -33.25 59.5 4
    endloop
  endfacet
  facet normal 0 0 1
    outer loop
      vertex 2.42705 -5.76336 4
      vertex 0.927051 -6.85317 4
      vertex 1.46783 -8.26752 4
    endloop
  endfacet
  facet normal 0 0 1
    outer loop
      vertex 2.42705 -2.23664 4
      vertex 3 -4 4
      vertex 4.33934 -5.682 4
    endloop
  endfacet
  facet normal 0 0 1
    outer loop
      vertex 2.42705 -2.23664 4
      vertex 4.75 -3.75 4
      vertex -33.25 59.5 4
    endloop
  endfacet
  facet normal 0 0 1
    outer loop
      vertex 4.75 -3.75 4
      vertex 4.75 0 4
      vertex -33.25 59.5 4
    endloop
  endfacet
  facet normal 0 0 1
    outer loop
      vertex 33.25 0 4
      vertex 33.25 59.5 4
      vertex -33.25 59.5 4
    endloop
  endfacet
  facet normal 0 0 1
    outer loop
      vertex -2.375 -7.86362 4
      vertex -2.42705 -5.76336 4
      vertex -4.75 0 4
    endloop
  endfacet
  facet normal 0 0 1
    outer loop
      vertex -2.375 -7.86362 4
      vertex -0.49651 -8.47398 4
      vertex -2.42705 -5.76336 4
    endloop
  endfacet
  facet normal 0 0 1
    outer loop
      vertex -2.42705 -5.76336 4
      vertex -3 -4 4
      vertex -4.75 0 4
    endloop
  endfacet
  facet normal 0 0 1
    outer loop
      vertex 0.927051 -6.85317 4
      vertex -0.927051 -6.85317 4
      vertex 1.46783 -8.26752 4
    endloop
  endfacet
  facet normal 0 0 1
    outer loop
      vertex 3 -4 4
      vertex 2.42705 -5.76336 4
      vertex 3.17837 -7.27994 4
    endloop
  endfacet
  facet normal 0 0 1
    outer loop
      vertex 4.33934 -5.682 4
      vertex 4.75 -3.75 4
      vertex 2.42705 -2.23664 4
    endloop
  endfacet
  facet normal 0 0 1
    outer loop
      vertex 2.42705 -5.76336 4
      vertex 1.46783 -8.26752 4
      vertex 3.17837 -7.27994 4
    endloop
  endfacet
  facet normal 0 0 1
    outer loop
      vertex 3.17837 -7.27994 4
      vertex 4.33934 -5.682 4
      vertex 3 -4 4
    endloop
  endfacet
  facet normal 0 0 1
    outer loop
      vertex 0.927051 -1.14683 4
      vertex 2.42705 -2.23664 4
      vertex -33.25 59.5 4
    endloop
  endfacet
  facet normal 0 0 1
    outer loop
      vertex -0.49651 -8.47398 4
      vertex 1.46783 -8.26752 4
      vertex -0.927051 -6.85317 4
    endloop
  endfacet
  facet normal 0 0 1
    outer loop
      vertex -4.75 0 4
      vertex -2.42705 -2.23664 4
      vertex -33.25 59.5 4
    endloop
  endfacet
  facet normal 0 0 1
    outer loop
      vertex -3 -4 4
      vertex -2.42705 -2.23664 4
      vertex -4.75 0 4
    endloop
  endfacet
  facet normal 0 0 1
    outer loop
      vertex -0.927051 -6.85317 4
      vertex -2.42705 -5.76336 4
      vertex -0.49651 -8.47398 4
    endloop
  endfacet
  facet normal -1 0 0
    outer loop
      vertex -4.75 0 4
      vertex -4.75 0 0
      vertex -4.75 -3.75 4
    endloop
  endfacet
  facet normal -1 0 0
    outer loop
      vertex -4.75 -3.75 4
      vertex -4.75 0 0
      vertex -4.75 -3.75 0
    endloop
  endfacet
  facet normal 0 -1 0
    outer loop
      vertex -4.6462 -3.75 0
      vertex -4.6462 -3.75 4
      vertex -4.75 -3.75 4
    endloop
  endfacet
  facet normal 0 -1 0
    outer loop
      vertex -4.75 -3.75 0
      vertex -4.6462 -3.75 0
      vertex -4.75 -3.75 4
    endloop
  endfacet
  facet normal -1 0 0
    outer loop
      vertex -4.6462 -3.75 4
      vertex -4.6462 -3.75 0
      vertex -4.6462 -4.73758 4
    endloop
  endfacet
  facet normal -1 0 0
    outer loop
      vertex -4.6462 -4.73758 4
      vertex -4.6462 -3.75 0
      vertex -4.6462 -4.73758 0
    endloop
  endfacet
  facet normal -0.913545 -0.406737 0
    outer loop
      vertex -3.84283 -6.54198 4
      vertex -4.6462 -4.73758 4
      vertex -3.84283 -6.54198 0
    endloop
  endfacet
  facet normal -0.913545 -0.406737 0
    outer loop
      vertex -3.84283 -6.54198 0
      vertex -4.6462 -4.73758 4
      vertex -4.6462 -4.73758 0
    endloop
  endfacet
  facet normal -0.669131 -0.743145 0
    outer loop
      vertex -2.375 -7.86362 0
      vertex -2.375 -7.86362 4
      vertex -3.84283 -6.54198 4
    endloop
  endfacet
  facet normal -0.669131 -0.743145 0
    outer loop
      vertex -3.84283 -6.54198 0
      vertex -2.375 -7.86362 0
      vertex -3.84283 -6.54198 4
    endloop
  endfacet
  facet normal -0.309017 -0.951057 0
    outer loop
      vertex -0.49651 -8.47398 0
      vertex -0.49651 -8.47398 4
      vertex -2.375 -7.86362 4
    endloop
  endfacet
  facet normal -0.309017 -0.951057 0
    outer loop
      vertex -2.375 -7.86362 0
      vertex -0.49651 -8.47398 0
      vertex -2.375 -7.86362 4
    endloop
  endfacet
  facet normal 0.104529 -0.994522 0
    outer loop
      vertex 1.46783 -8.26752 0
      vertex 1.46783 -8.26752 4
      vertex -0.49651 -8.47398 4
    endloop
  endfacet
  facet normal 0.104529 -0.994522 0
    outer loop
      vertex -0.49651 -8.47398 0
      vertex 1.46783 -8.26752 0
      vertex -0.49651 -8.47398 4
    endloop
  endfacet
  facet normal 0.5 -0.866025 0
    outer loop
      vertex 3.17837 -7.27994 0
      vertex 3.17837 -7.27994 4
      vertex 1.46783 -8.26752 4
    endloop
  endfacet
  facet normal 0.5 -0.866025 0
    outer loop
      vertex 1.46783 -8.26752 0
      vertex 3.17837 -7.27994 0
      vertex 1.46783 -8.26752 4
    endloop
  endfacet
  facet normal 0.809017 -0.587785 0
    outer loop
      vertex 4.33934 -5.682 0
      vertex 4.33934 -5.682 4
      vertex 3.17837 -7.27994 4
    endloop
  endfacet
  facet normal 0.809017 -0.587785 0
    outer loop
      vertex 3.17837 -7.27994 0
      vertex 4.33934 -5.682 0
      vertex 3.17837 -7.27994 4
    endloop
  endfacet
  facet normal 0.978148 -0.207912 0
    outer loop
      vertex 4.75 -3.75 0
      vertex 4.75 -3.75 4
      vertex 4.33934 -5.682 4
    endloop
  endfacet
  facet normal 0.978148 -0.207912 0
    outer loop
      vertex 4.33934 -5.682 0
      vertex 4.75 -3.75 0
      vertex 4.33934 -5.682 4
    endloop
  endfacet
  facet normal 1 0 0
    outer loop
      vertex 4.75 0 0
      vertex 4.75 0 4
      vertex 4.75 -3.75 4
    endloop
  endfacet
  facet normal 1 0 0
    outer loop
      vertex 4.75 -3.75 0
      vertex 4.75 0 0
      vertex 4.75 -3.75 4
    endloop
  endfacet
  facet normal 0 -1 0
    outer loop
      vertex 4.75 0 4
      vertex 4.75 0 0
      vertex 33.25 0 0
    endloop
  endfacet
  facet normal 0 -1 0
    outer loop
      vertex 33.25 0 4
      vertex 4.75 0 4
      vertex 33.25 0 0
    endloop
  endfacet
  facet normal 1 0 0
    outer loop
      vertex 33.25 0 4
      vertex 33.25 0 0
      vertex 33.25 59.5 0
    endloop
  endfacet
  facet normal 1 0 0
    outer loop
      vertex 33.25 59.5 4
      vertex 33.25 0 4
      vertex 33.25 59.5 0
    endloop
  endfacet
  facet normal 1 0 0
    outer loop
      vertex 19.125 59.5 1.9
      vertex 19.125 59.5 0
      vertex 19.125 62.5 0
    endloop
  endfacet
  facet normal 1 0 0
    outer loop
      vertex 19.125 62.5 1.9
      vertex 19.125 59.5 1.9
      vertex 19.125 62.5 0
    endloop
  endfacet
  facet normal 0 1 0
    outer loop
      vertex 14.125 62.5 0
      vertex 14.125 62.5 1.9
      vertex 19.125 62.5 0
    endloop
  endfacet
  facet normal 0 1 0
    outer loop
      vertex 19.125 62.5 0
      vertex 14.125 62.5 1.9
      vertex 19.125 62.5 1.9
    endloop
  endfacet
  facet normal -1 0 0
    outer loop
      vertex 14.125 59.5 0
      vertex 14.125 59.5 1.9
      vertex 14.125 62.5 0
    endloop
  endfacet
  facet normal -1 0 0
    outer loop
      vertex 14.125 62.5 0
      vertex 14.125 59.5 1.9
      vertex 14.125 62.5 1.9
    endloop
  endfacet
  facet normal 1 0 0
    outer loop
      vertex -14.125 59.5 1.9
      vertex -14.125 59.5 0
      vertex -14.125 62.5 0
    endloop
  endfacet
  facet normal 1 0 0
    outer loop
      vertex -14.125 62.5 1.9
      vertex -14.125 59.5 1.9
      vertex -14.125 62.5 0
    endloop
  endfacet
  facet normal 0 1 0
    outer loop
      vertex -19.125 62.5 0
      vertex -19.125 62.5 1.9
      vertex -14.125 62.5 0
    endloop
  endfacet
  facet normal 0 1 0
    outer loop
      vertex -14.125 62.5 0
      vertex -19.125 62.5 1.9
      vertex -14.125 62.5 1.9
    endloop
  endfacet
  facet normal -1 0 0
    outer loop
      vertex -19.125 59.5 0
      vertex -19.125 59.5 1.9
      vertex -19.125 62.5 0
    endloop
  endfacet
  facet normal -1 0 0
    outer loop
      vertex -19.125 62.5 0
      vertex -19.125 59.5 1.9
      vertex -19.125 62.5 1.9
    endloop
  endfacet
  facet normal 1 0 0
    outer loop
      vertex -1.21352 -4.88168 2
      vertex -1.21352 -4.88168 0
      vertex -1.21352 -3.11832 0
    endloop
  endfacet
  facet normal 1 0 0
    outer loop
      vertex -1.21352 -3.11832 2
      vertex -1.21352 -4.88168 2
      vertex -1.21352 -3.11832 0
    endloop
  endfacet
  facet normal 0.309017 -0.951056 0
    outer loop
      vertex -1.21352 -3.11832 2
      vertex -1.21352 -3.11832 0
      vertex 0.463525 -2.57341 0
    endloop
  endfacet
  facet normal 0.309017 -0.951056 0
    outer loop
      vertex 0.463525 -2.57341 2
      vertex -1.21352 -3.11832 2
      vertex 0.463525 -2.57341 0
    endloop
  endfacet
  facet normal -0.809017 -0.587785 0
    outer loop
      vertex 0.463525 -2.57341 0
      vertex 1.5 -4 0
      vertex 0.463525 -2.57341 2
    endloop
  endfacet
  facet normal -0.809017 -0.587785 0
    outer loop
      vertex 0.463525 -2.57341 2
      vertex 1.5 -4 0
      vertex 1.5 -4 2
    endloop
  endfacet
  facet normal -0.809017 0.587785 0
    outer loop
      vertex 0.463525 -5.42658 0
      vertex 0.463525 -5.42658 2
      vertex 1.5 -4 0
    endloop
  endfacet
  facet normal -0.809017 0.587785 0
    outer loop
      vertex 1.5 -4 0
      vertex 0.463525 -5.42658 2
      vertex 1.5 -4 2
    endloop
  endfacet
  facet normal 0.309017 0.951056 0
    outer loop
      vertex -1.21352 -4.88168 0
      vertex -1.21352 -4.88168 2
      vertex 0.463525 -5.42658 0
    endloop
  endfacet
  facet normal 0.309017 0.951056 0
    outer loop
      vertex 0.463525 -5.42658 0
      vertex -1.21352 -4.88168 2
      vertex 0.463525 -5.42658 2
    endloop
  endfacet
  facet normal 0 0 1
    outer loop
      vertex -19.125 62.5 1.9
      vertex -19.125 59.5 1.9
      vertex -14.125 59.5 1.9
    endloop
  endfacet
  facet normal 0 0 1
    outer loop
      vertex -14.125 62.5 1.9
      vertex -19.125 62.5 1.9
      vertex -14.125 59.5 1.9
    endloop
  endfacet
  facet normal 0 0 1
    outer loop
      vertex 14.125 62.5 1.9
      vertex 14.125 59.5 1.9
      vertex 19.125 59.5 1.9
    endloop
  endfacet
  facet normal 0 0 1
    outer loop
      vertex 19.125 62.5 1.9
      vertex 14.125 62.5 1.9
      vertex 19.125 59.5 1.9
    endloop
  endfacet
  facet normal 0.951057 0.309017 0
    outer loop
      vertex -2.42705 -5.76336 2
      vertex -3 -4 2
      vertex -3 -4 4
    endloop
  endfacet
  facet normal 0.951057 0.309017 0
    outer loop
      vertex -2.42705 -5.76336 4
      vertex -2.42705 -5.76336 2
      vertex -3 -4 4
    endloop
  endfacet
  facet normal 0.587785 0.809017 0
    outer loop
      vertex -2.42705 -5.76336 2
      vertex -2.42705 -5.76336 4
      vertex -0.927051 -6.85317 2
    endloop
  endfacet
  facet normal 0.587785 0.809017 0
    outer loop
      vertex -0.927051 -6.85317 2
      vertex -2.42705 -5.76336 4
      vertex -0.927051 -6.85317 4
    endloop
  endfacet
  facet normal 0 1 0
    outer loop
      vertex -0.927051 -6.85317 2
      vertex -0.927051 -6.85317 4
      vertex 0.927051 -6.85317 2
    endloop
  endfacet
  facet normal 0 1 0
    outer loop
      vertex 0.927051 -6.85317 2
      vertex -0.927051 -6.85317 4
      vertex 0.927051 -6.85317 4
    endloop
  endfacet
  facet normal -0.587785 0.809017 0
    outer loop
      vertex 0.927051 -6.85317 2
      vertex 0.927051 -6.85317 4
      vertex 2.42705 -5.76336 2
    endloop
  endfacet
  facet normal -0.587785 0.809017 0
    outer loop
      vertex 2.42705 -5.76336 2
      vertex 0.927051 -6.85317 4
      vertex 2.42705 -5.76336 4
    endloop
  endfacet
  facet normal -0.951057 0.309017 0
    outer loop
      vertex 2.42705 -5.76336 2
      vertex 2.42705 -5.76336 4
      vertex 3 -4 2
    endloop
  endfacet
  facet normal -0.951057 0.309017 0
    outer loop
      vertex 3 -4 2
      vertex 2.42705 -5.76336 4
      vertex 3 -4 4
    endloop
  endfacet
  facet normal -0.951057 -0.309017 0
    outer loop
      vertex 2.42705 -2.23664 2
      vertex 3 -4 2
      vertex 2.42705 -2.23664 4
    endloop
  endfacet
  facet normal -0.951057 -0.309017 0
    outer loop
      vertex 2.42705 -2.23664 4
      vertex 3 -4 2
      vertex 3 -4 4
    endloop
  endfacet
  facet normal -0.587785 -0.809017 0
    outer loop
      vertex 0.927051 -1.14683 4
      vertex 0.927051 -1.14683 2
      vertex 2.42705 -2.23664 2
    endloop
  endfacet
  facet normal -0.587785 -0.809017 0
    outer loop
      vertex 2.42705 -2.23664 4
      vertex 0.927051 -1.14683 4
      vertex 2.42705 -2.23664 2
    endloop
  endfacet
  facet normal 0 -1 0
    outer loop
      vertex -0.927051 -1.14683 4
      vertex -0.927051 -1.14683 2
      vertex 0.927051 -1.14683 2
    endloop
  endfacet
  facet normal 0 -1 0
    outer loop
      vertex 0.927051 -1.14683 4
      vertex -0.927051 -1.14683 4
      vertex 0.927051 -1.14683 2
    endloop
  endfacet
  facet normal 0.587785 -0.809017 0
    outer loop
      vertex -2.42705 -2.23664 4
      vertex -2.42705 -2.23664 2
      vertex -0.927051 -1.14683 2
    endloop
  endfacet
  facet normal 0.587785 -0.809017 0
    outer loop
      vertex -0.927051 -1.14683 4
      vertex -2.42705 -2.23664 4
      vertex -0.927051 -1.14683 2
    endloop
  endfacet
  facet normal 0.951057 -0.309017 0
    outer loop
      vertex -3 -4 4
      vertex -3 -4 2
      vertex -2.42705 -2.23664 2
    endloop
  endfacet
  facet normal 0.951057 -0.309017 0
    outer loop
      vertex -2.42705 -2.23664 4
      vertex -3 -4 4
      vertex -2.42705 -2.23664 2
    endloop
  endfacet
  facet normal 0 0 1
    outer loop
      vertex -2.42705 -2.23664 2
      vertex -3 -4 2
      vertex -2.42705 -5.76336 2
    endloop
  endfacet
  facet normal 0 0 1
    outer loop
      vertex -1.21352 -4.88168 2
      vertex -2.42705 -2.23664 2
      vertex -0.927051 -6.85317 2
    endloop
  endfacet
  facet normal 0 0 1
    outer loop
      vertex -0.927051 -6.85317 2
      vertex -2.42705 -2.23664 2
      vertex -2.42705 -5.76336 2
    endloop
  endfacet
  facet normal 0 0 1
    outer loop
      vertex 1.5 -4 2
      vertex 0.463525 -5.42658 2
      vertex 2.42705 -5.76336 2
    endloop
  endfacet
  facet normal 0 0 1
    outer loop
      vertex 0.927051 -1.14683 2
      vertex -2.42705 -2.23664 2
      vertex 2.42705 -2.23664 2
    endloop
  endfacet
  facet normal 0 0 1
    outer loop
      vertex -0.927051 -1.14683 2
      vertex -2.42705 -2.23664 2
      vertex 0.927051 -1.14683 2
    endloop
  endfacet
  facet normal 0 0 1
    outer loop
      vertex 0.927051 -6.85317 2
      vertex -1.21352 -4.88168 2
      vertex -0.927051 -6.85317 2
    endloop
  endfacet
  facet normal 0 0 1
    outer loop
      vertex 0.463525 -2.57341 2
      vertex 1.5 -4 2
      vertex 3 -4 2
    endloop
  endfacet
  facet normal 0 0 1
    outer loop
      vertex 2.42705 -2.23664 2
      vertex 0.463525 -2.57341 2
      vertex 3 -4 2
    endloop
  endfacet
  facet normal 0 0 1
    outer loop
      vertex 2.42705 -2.23664 2
      vertex -2.42705 -2.23664 2
      vertex 0.463525 -2.57341 2
    endloop
  endfacet
  facet normal 0 0 1
    outer loop
      vertex 3 -4 2
      vertex 1.5 -4 2
      vertex 2.42705 -5.76336 2
    endloop
  endfacet
  facet normal 0 0 1
    outer loop
      vertex 2.42705 -5.76336 2
      vertex 0.463525 -5.42658 2
      vertex 0.927051 -6.85317 2
    endloop
  endfacet
  facet normal 0 0 1
    outer loop
      vertex -1.21352 -3.11832 2
      vertex 0.463525 -2.57341 2
      vertex -2.42705 -2.23664 2
    endloop
  endfacet
  facet normal 0 0 1
    outer loop
      vertex 0.463525 -5.42658 2
      vertex -1.21352 -4.88168 2
      vertex 0.927051 -6.85317 2
    endloop
  endfacet
  facet normal 0 0 1
    outer loop
      vertex -1.21352 -4.88168 2
      vertex -1.21352 -3.11832 2
      vertex -2.42705 -2.23664 2
    endloop
  endfacet
endsolid OpenSCAD_Model
