solid OpenSCAD_Model
  facet normal -0.994522 0.104528 0
    outer loop
      vertex -25 0 0
      vertex -25 0 6
      vertex -24.4537 5.19779 0
    endloop
  endfacet
  facet normal -0.994522 0.104528 0
    outer loop
      vertex -24.4537 5.19779 0
      vertex -25 0 6
      vertex -24.4537 5.19779 6
    endloop
  endfacet
  facet normal -0.997897 -0.0648214 0
    outer loop
      vertex -25 0 0
      vertex -24.4537 -8.4102 0
      vertex -25 0 6
    endloop
  endfacet
  facet normal -0.997897 -0.0648214 0
    outer loop
      vertex -25 0 6
      vertex -24.4537 -8.4102 0
      vertex -24.4537 -8.4102 6
    endloop
  endfacet
  facet normal 0 0 -1
    outer loop
      vertex -25 0 0
      vertex -24.4537 5.19779 0
      vertex -24.4537 -8.4102 0
    endloop
  endfacet
  facet normal 0 0 -1
    outer loop
      vertex -24.4537 -8.4102 0
      vertex -24.4537 5.19779 0
      vertex -22.8386 10.1684 0
    endloop
  endfacet
  facet normal 0 0 -1
    outer loop
      vertex -24.4537 -8.4102 0
      vertex -22.8386 10.1684 0
      vertex -20.2254 14.6946 0
    endloop
  endfacet
  facet normal 0 0 -1
    outer loop
      vertex -24.4537 -8.4102 0
      vertex -20.2254 14.6946 0
      vertex -16.7283 18.5786 0
    endloop
  endfacet
  facet normal 0 0 -1
    outer loop
      vertex -24.4537 -8.4102 0
      vertex -16.7283 18.5786 0
      vertex -12.5 21.6506 0
    endloop
  endfacet
  facet normal 0 0 -1
    outer loop
      vertex -24.4537 -8.4102 0
      vertex -12.5 21.6506 0
      vertex -7.72542 23.7764 0
    endloop
  endfacet
  facet normal 0 0 -1
    outer loop
      vertex -24.4537 -8.4102 0
      vertex -7.72542 23.7764 0
      vertex -2.61321 24.863 0
    endloop
  endfacet
  facet normal 0 0 -1
    outer loop
      vertex -24.4537 -8.4102 0
      vertex -2.61321 24.863 0
      vertex 2.61321 24.863 0
    endloop
  endfacet
  facet normal 0 0 -1
    outer loop
      vertex -24.4537 -8.4102 0
      vertex 2.61321 24.863 0
      vertex 7.72542 23.7764 0
    endloop
  endfacet
  facet normal 0 0 -1
    outer loop
      vertex -24.4537 -8.4102 0
      vertex 7.72542 23.7764 0
      vertex 12.5 21.6506 0
    endloop
  endfacet
  facet normal 0 0 -1
    outer loop
      vertex -24.4537 -8.4102 0
      vertex 12.5 21.6506 0
      vertex 16.7283 18.5786 0
    endloop
  endfacet
  facet normal 0 0 -1
    outer loop
      vertex -24.4537 -8.4102 0
      vertex 16.7283 18.5786 0
      vertex 20.2254 14.6946 0
    endloop
  endfacet
  facet normal 0 0 -1
    outer loop
      vertex -1.28229 0.93164 0
      vertex 20.2254 14.6946 0
      vertex 22.8386 10.1684 0
    endloop
  endfacet
  facet normal 0 0 -1
    outer loop
      vertex 1.585 0 0
      vertex 22.8386 10.1684 0
      vertex 24.4537 5.19779 0
    endloop
  endfacet
  facet normal 0 0 -1
    outer loop
      vertex 0.489792 -1.50743 0
      vertex 24.4537 5.19779 0
      vertex 25 0 0
    endloop
  endfacet
  facet normal 0 0 -1
    outer loop
      vertex -24.4537 -8.4102 0
      vertex 25 0 0
      vertex 24.4537 -8.4102 0
    endloop
  endfacet
  facet normal 0 0 -1
    outer loop
      vertex -24.4537 -8.4102 0
      vertex 24.4537 -8.4102 0
      vertex 22.8386 -16.4528 0
    endloop
  endfacet
  facet normal 0 0 -1
    outer loop
      vertex -24.4537 -8.4102 0
      vertex 22.8386 -16.4528 0
      vertex 20.2254 -23.7764 0
    endloop
  endfacet
  facet normal 0 0 -1
    outer loop
      vertex -24.4537 -8.4102 0
      vertex 20.2254 -23.7764 0
      vertex 16.7283 -30.0608 0
    endloop
  endfacet
  facet normal 0 0 -1
    outer loop
      vertex -24.4537 -8.4102 0
      vertex 16.7283 -30.0608 0
      vertex 12.5 -35.0315 0
    endloop
  endfacet
  facet normal 0 0 -1
    outer loop
      vertex -24.4537 -8.4102 0
      vertex 12.5 -35.0315 0
      vertex 7.72542 -38.471 0
    endloop
  endfacet
  facet normal 0 0 -1
    outer loop
      vertex -24.4537 -8.4102 0
      vertex 7.72542 -38.471 0
      vertex 2.61321 -40.2293 0
    endloop
  endfacet
  facet normal 0 0 -1
    outer loop
      vertex -24.4537 -8.4102 0
      vertex 2.61321 -40.2293 0
      vertex -2.61321 -40.2293 0
    endloop
  endfacet
  facet normal 0 0 -1
    outer loop
      vertex -24.4537 -8.4102 0
      vertex -2.61321 -40.2293 0
      vertex -7.72542 -38.471 0
    endloop
  endfacet
  facet normal 0 0 -1
    outer loop
      vertex -24.4537 -8.4102 0
      vertex -7.72542 -38.471 0
      vertex -12.5 -35.0315 0
    endloop
  endfacet
  facet normal 0 0 -1
    outer loop
      vertex -24.4537 -8.4102 0
      vertex -12.5 -35.0315 0
      vertex -16.7283 -30.0608 0
    endloop
  endfacet
  facet normal 0 0 -1
    outer loop
      vertex -24.4537 -8.4102 0
      vertex -16.7283 -30.0608 0
      vertex -20.2254 -23.7764 0
    endloop
  endfacet
  facet normal 0 0 -1
    outer loop
      vertex -24.4537 -8.4102 0
      vertex -20.2254 -23.7764 0
      vertex -22.8386 -16.4528 0
    endloop
  endfacet
  facet normal 0 0 -1
    outer loop
      vertex -24.4537 -8.4102 0
      vertex 20.2254 14.6946 0
      vertex -1.28229 0.93164 0
    endloop
  endfacet
  facet normal 0 0 -1
    outer loop
      vertex 0.489792 1.50743 0
      vertex -1.28229 0.93164 0
      vertex 22.8386 10.1684 0
    endloop
  endfacet
  facet normal 0 0 -1
    outer loop
      vertex 0.489792 -1.50743 0
      vertex -24.4537 -8.4102 0
      vertex -1.28229 -0.93164 0
    endloop
  endfacet
  facet normal 0 0 -1
    outer loop
      vertex 1.585 0 0
      vertex 24.4537 5.19779 0
      vertex 0.489792 -1.50743 0
    endloop
  endfacet
  facet normal 0 0 -1
    outer loop
      vertex -24.4537 -8.4102 0
      vertex 0.489792 -1.50743 0
      vertex 25 0 0
    endloop
  endfacet
  facet normal 0 0 -1
    outer loop
      vertex 0.489792 1.50743 0
      vertex 22.8386 10.1684 0
      vertex 1.585 0 0
    endloop
  endfacet
  facet normal 0 0 -1
    outer loop
      vertex -1.28229 -0.93164 0
      vertex -24.4537 -8.4102 0
      vertex -1.28229 0.93164 0
    endloop
  endfacet
  facet normal -0.951056 0.309017 0
    outer loop
      vertex -24.4537 5.19779 0
      vertex -24.4537 5.19779 6
      vertex -22.8386 10.1684 0
    endloop
  endfacet
  facet normal -0.951056 0.309017 0
    outer loop
      vertex -22.8386 10.1684 0
      vertex -24.4537 5.19779 6
      vertex -22.8386 10.1684 6
    endloop
  endfacet
  facet normal 0 0 1
    outer loop
      vertex -24.4537 5.19779 6
      vertex -25 0 6
      vertex -24.4537 -8.4102 6
    endloop
  endfacet
  facet normal 0 0 1
    outer loop
      vertex -20.2254 -23.7764 6
      vertex -24.4537 5.19779 6
      vertex -22.8386 -16.4528 6
    endloop
  endfacet
  facet normal 0 0 1
    outer loop
      vertex -22.8386 -16.4528 6
      vertex -24.4537 5.19779 6
      vertex -24.4537 -8.4102 6
    endloop
  endfacet
  facet normal 0 0 1
    outer loop
      vertex -16.7283 -30.0608 6
      vertex -24.4537 5.19779 6
      vertex -20.2254 -23.7764 6
    endloop
  endfacet
  facet normal 0 0 1
    outer loop
      vertex -12.5 -35.0315 6
      vertex -24.4537 5.19779 6
      vertex -16.7283 -30.0608 6
    endloop
  endfacet
  facet normal 0 0 1
    outer loop
      vertex -7.72542 -38.471 6
      vertex -24.4537 5.19779 6
      vertex -12.5 -35.0315 6
    endloop
  endfacet
  facet normal 0 0 1
    outer loop
      vertex -2.61321 -40.2293 6
      vertex -24.4537 5.19779 6
      vertex -7.72542 -38.471 6
    endloop
  endfacet
  facet normal 0 0 1
    outer loop
      vertex 2.61321 -40.2293 6
      vertex -24.4537 5.19779 6
      vertex -2.61321 -40.2293 6
    endloop
  endfacet
  facet normal 0 0 1
    outer loop
      vertex 7.72542 -38.471 6
      vertex -24.4537 5.19779 6
      vertex 2.61321 -40.2293 6
    endloop
  endfacet
  facet normal 0 0 1
    outer loop
      vertex 12.5 -35.0315 6
      vertex -24.4537 5.19779 6
      vertex 7.72542 -38.471 6
    endloop
  endfacet
  facet normal 0 0 1
    outer loop
      vertex 16.7283 -30.0608 6
      vertex -24.4537 5.19779 6
      vertex 12.5 -35.0315 6
    endloop
  endfacet
  facet normal 0 0 1
    outer loop
      vertex 20.2254 -23.7764 6
      vertex -24.4537 5.19779 6
      vertex 16.7283 -30.0608 6
    endloop
  endfacet
  facet normal 0 0 1
    outer loop
      vertex 22.8386 -16.4528 6
      vertex -24.4537 5.19779 6
      vertex 20.2254 -23.7764 6
    endloop
  endfacet
  facet normal 0 0 1
    outer loop
      vertex -0.959498 -2.95303 6
      vertex -24.4537 5.19779 6
      vertex 22.8386 -16.4528 6
    endloop
  endfacet
  facet normal 0 0 1
    outer loop
      vertex 22.8386 10.1684 6
      vertex -24.4537 5.19779 6
      vertex 24.4537 5.19779 6
    endloop
  endfacet
  facet normal 0 0 1
    outer loop
      vertex 20.2254 14.6946 6
      vertex -24.4537 5.19779 6
      vertex 22.8386 10.1684 6
    endloop
  endfacet
  facet normal 0 0 1
    outer loop
      vertex 16.7283 18.5786 6
      vertex -24.4537 5.19779 6
      vertex 20.2254 14.6946 6
    endloop
  endfacet
  facet normal 0 0 1
    outer loop
      vertex 12.5 21.6506 6
      vertex -24.4537 5.19779 6
      vertex 16.7283 18.5786 6
    endloop
  endfacet
  facet normal 0 0 1
    outer loop
      vertex 7.72542 23.7764 6
      vertex -24.4537 5.19779 6
      vertex 12.5 21.6506 6
    endloop
  endfacet
  facet normal 0 0 1
    outer loop
      vertex 2.61321 24.863 6
      vertex -24.4537 5.19779 6
      vertex 7.72542 23.7764 6
    endloop
  endfacet
  facet normal 0 0 1
    outer loop
      vertex -2.61321 24.863 6
      vertex -24.4537 5.19779 6
      vertex 2.61321 24.863 6
    endloop
  endfacet
  facet normal 0 0 1
    outer loop
      vertex -7.72542 23.7764 6
      vertex -24.4537 5.19779 6
      vertex -2.61321 24.863 6
    endloop
  endfacet
  facet normal 0 0 1
    outer loop
      vertex -12.5 21.6506 6
      vertex -24.4537 5.19779 6
      vertex -7.72542 23.7764 6
    endloop
  endfacet
  facet normal 0 0 1
    outer loop
      vertex -16.7283 18.5786 6
      vertex -24.4537 5.19779 6
      vertex -12.5 21.6506 6
    endloop
  endfacet
  facet normal 0 0 1
    outer loop
      vertex -20.2254 14.6946 6
      vertex -24.4537 5.19779 6
      vertex -16.7283 18.5786 6
    endloop
  endfacet
  facet normal 0 0 1
    outer loop
      vertex -22.8386 10.1684 6
      vertex -24.4537 5.19779 6
      vertex -20.2254 14.6946 6
    endloop
  endfacet
  facet normal 0 0 1
    outer loop
      vertex -2.512 1.82507 6
      vertex -0.959498 2.95303 6
      vertex -24.4537 5.19779 6
    endloop
  endfacet
  facet normal 0 0 1
    outer loop
      vertex 25 0 6
      vertex 3.105 0 6
      vertex 24.4537 -8.4102 6
    endloop
  endfacet
  facet normal 0 0 1
    outer loop
      vertex -2.512 1.82507 6
      vertex -24.4537 5.19779 6
      vertex -3.105 0 6
    endloop
  endfacet
  facet normal 0 0 1
    outer loop
      vertex 2.512 1.82507 6
      vertex 3.105 0 6
      vertex 25 0 6
    endloop
  endfacet
  facet normal 0 0 1
    outer loop
      vertex 24.4537 5.19779 6
      vertex -24.4537 5.19779 6
      vertex -0.959498 2.95303 6
    endloop
  endfacet
  facet normal 0 0 1
    outer loop
      vertex 24.4537 5.19779 6
      vertex 0.959498 2.95303 6
      vertex 25 0 6
    endloop
  endfacet
  facet normal 0 0 1
    outer loop
      vertex 24.4537 5.19779 6
      vertex -0.959498 2.95303 6
      vertex 0.959498 2.95303 6
    endloop
  endfacet
  facet normal 0 0 1
    outer loop
      vertex 3.105 0 6
      vertex 2.512 -1.82507 6
      vertex 24.4537 -8.4102 6
    endloop
  endfacet
  facet normal 0 0 1
    outer loop
      vertex 0.959498 2.95303 6
      vertex 2.512 1.82507 6
      vertex 25 0 6
    endloop
  endfacet
  facet normal 0 0 1
    outer loop
      vertex 2.512 -1.82507 6
      vertex 0.959498 -2.95303 6
      vertex 24.4537 -8.4102 6
    endloop
  endfacet
  facet normal 0 0 1
    outer loop
      vertex 24.4537 -8.4102 6
      vertex 0.959498 -2.95303 6
      vertex 22.8386 -16.4528 6
    endloop
  endfacet
  facet normal 0 0 1
    outer loop
      vertex -2.512 -1.82507 6
      vertex -24.4537 5.19779 6
      vertex -0.959498 -2.95303 6
    endloop
  endfacet
  facet normal 0 0 1
    outer loop
      vertex 0.959498 -2.95303 6
      vertex -0.959498 -2.95303 6
      vertex 22.8386 -16.4528 6
    endloop
  endfacet
  facet normal 0 0 1
    outer loop
      vertex -2.512 -1.82507 6
      vertex -3.105 0 6
      vertex -24.4537 5.19779 6
    endloop
  endfacet
  facet normal -0.980427 -0.196881 0
    outer loop
      vertex -24.4537 -8.4102 0
      vertex -22.8386 -16.4528 0
      vertex -24.4537 -8.4102 6
    endloop
  endfacet
  facet normal -0.980427 -0.196881 0
    outer loop
      vertex -24.4537 -8.4102 6
      vertex -22.8386 -16.4528 0
      vertex -22.8386 -16.4528 6
    endloop
  endfacet
  facet normal -0.941838 -0.336068 0
    outer loop
      vertex -22.8386 -16.4528 0
      vertex -20.2254 -23.7764 0
      vertex -22.8386 -16.4528 6
    endloop
  endfacet
  facet normal -0.941838 -0.336068 0
    outer loop
      vertex -22.8386 -16.4528 6
      vertex -20.2254 -23.7764 0
      vertex -20.2254 -23.7764 6
    endloop
  endfacet
  facet normal -0.873814 -0.48626 0
    outer loop
      vertex -20.2254 -23.7764 0
      vertex -16.7283 -30.0608 0
      vertex -20.2254 -23.7764 6
    endloop
  endfacet
  facet normal -0.873814 -0.48626 0
    outer loop
      vertex -20.2254 -23.7764 6
      vertex -16.7283 -30.0608 0
      vertex -16.7283 -30.0608 6
    endloop
  endfacet
  facet normal -0.761695 -0.647936 0
    outer loop
      vertex -16.7283 -30.0608 0
      vertex -12.5 -35.0315 0
      vertex -16.7283 -30.0608 6
    endloop
  endfacet
  facet normal -0.761695 -0.647936 0
    outer loop
      vertex -16.7283 -30.0608 6
      vertex -12.5 -35.0315 0
      vertex -12.5 -35.0315 6
    endloop
  endfacet
  facet normal -0.584516 -0.811382 0
    outer loop
      vertex -12.5 -35.0315 6
      vertex -12.5 -35.0315 0
      vertex -7.72542 -38.471 0
    endloop
  endfacet
  facet normal -0.584516 -0.811382 0
    outer loop
      vertex -7.72542 -38.471 6
      vertex -12.5 -35.0315 6
      vertex -7.72542 -38.471 0
    endloop
  endfacet
  facet normal -0.325227 -0.945636 0
    outer loop
      vertex -7.72542 -38.471 6
      vertex -7.72542 -38.471 0
      vertex -2.61321 -40.2293 0
    endloop
  endfacet
  facet normal -0.325227 -0.945636 0
    outer loop
      vertex -2.61321 -40.2293 6
      vertex -7.72542 -38.471 6
      vertex -2.61321 -40.2293 0
    endloop
  endfacet
  facet normal 0 -1 0
    outer loop
      vertex -2.61321 -40.2293 6
      vertex -2.61321 -40.2293 0
      vertex 2.61321 -40.2293 0
    endloop
  endfacet
  facet normal 0 -1 0
    outer loop
      vertex 2.61321 -40.2293 6
      vertex -2.61321 -40.2293 6
      vertex 2.61321 -40.2293 0
    endloop
  endfacet
  facet normal 0.325227 -0.945636 0
    outer loop
      vertex 2.61321 -40.2293 6
      vertex 2.61321 -40.2293 0
      vertex 7.72542 -38.471 0
    endloop
  endfacet
  facet normal 0.325227 -0.945636 0
    outer loop
      vertex 7.72542 -38.471 6
      vertex 2.61321 -40.2293 6
      vertex 7.72542 -38.471 0
    endloop
  endfacet
  facet normal 0.584516 -0.811382 0
    outer loop
      vertex 7.72542 -38.471 6
      vertex 7.72542 -38.471 0
      vertex 12.5 -35.0315 0
    endloop
  endfacet
  facet normal 0.584516 -0.811382 0
    outer loop
      vertex 12.5 -35.0315 6
      vertex 7.72542 -38.471 6
      vertex 12.5 -35.0315 0
    endloop
  endfacet
  facet normal 0.761695 -0.647936 0
    outer loop
      vertex 12.5 -35.0315 6
      vertex 12.5 -35.0315 0
      vertex 16.7283 -30.0608 0
    endloop
  endfacet
  facet normal 0.761695 -0.647936 0
    outer loop
      vertex 16.7283 -30.0608 6
      vertex 12.5 -35.0315 6
      vertex 16.7283 -30.0608 0
    endloop
  endfacet
  facet normal 0.873814 -0.48626 0
    outer loop
      vertex 16.7283 -30.0608 6
      vertex 16.7283 -30.0608 0
      vertex 20.2254 -23.7764 0
    endloop
  endfacet
  facet normal 0.873814 -0.48626 0
    outer loop
      vertex 20.2254 -23.7764 6
      vertex 16.7283 -30.0608 6
      vertex 20.2254 -23.7764 0
    endloop
  endfacet
  facet normal 0.941838 -0.336068 0
    outer loop
      vertex 20.2254 -23.7764 6
      vertex 20.2254 -23.7764 0
      vertex 22.8386 -16.4528 0
    endloop
  endfacet
  facet normal 0.941838 -0.336068 0
    outer loop
      vertex 22.8386 -16.4528 6
      vertex 20.2254 -23.7764 6
      vertex 22.8386 -16.4528 0
    endloop
  endfacet
  facet normal 0.980427 -0.196881 0
    outer loop
      vertex 22.8386 -16.4528 6
      vertex 22.8386 -16.4528 0
      vertex 24.4537 -8.4102 0
    endloop
  endfacet
  facet normal 0.980427 -0.196881 0
    outer loop
      vertex 24.4537 -8.4102 6
      vertex 22.8386 -16.4528 6
      vertex 24.4537 -8.4102 0
    endloop
  endfacet
  facet normal 0.997897 -0.0648214 0
    outer loop
      vertex 24.4537 -8.4102 6
      vertex 24.4537 -8.4102 0
      vertex 25 0 0
    endloop
  endfacet
  facet normal 0.997897 -0.0648214 0
    outer loop
      vertex 25 0 6
      vertex 24.4537 -8.4102 6
      vertex 25 0 0
    endloop
  endfacet
  facet normal 0.994522 0.104528 0
    outer loop
      vertex 25 0 0
      vertex 24.4537 5.19779 0
      vertex 24.4537 5.19779 6
    endloop
  endfacet
  facet normal 0.994522 0.104528 0
    outer loop
      vertex 25 0 6
      vertex 25 0 0
      vertex 24.4537 5.19779 6
    endloop
  endfacet
  facet normal 0.951056 0.309017 0
    outer loop
      vertex 24.4537 5.19779 0
      vertex 22.8386 10.1684 0
      vertex 22.8386 10.1684 6
    endloop
  endfacet
  facet normal 0.951056 0.309017 0
    outer loop
      vertex 24.4537 5.19779 6
      vertex 24.4537 5.19779 0
      vertex 22.8386 10.1684 6
    endloop
  endfacet
  facet normal 0.866025 0.5 0
    outer loop
      vertex 22.8386 10.1684 0
      vertex 20.2254 14.6946 0
      vertex 20.2254 14.6946 6
    endloop
  endfacet
  facet normal 0.866025 0.5 0
    outer loop
      vertex 22.8386 10.1684 6
      vertex 22.8386 10.1684 0
      vertex 20.2254 14.6946 6
    endloop
  endfacet
  facet normal 0.743145 0.669131 0
    outer loop
      vertex 20.2254 14.6946 0
      vertex 16.7283 18.5786 0
      vertex 16.7283 18.5786 6
    endloop
  endfacet
  facet normal 0.743145 0.669131 0
    outer loop
      vertex 20.2254 14.6946 6
      vertex 20.2254 14.6946 0
      vertex 16.7283 18.5786 6
    endloop
  endfacet
  facet normal 0.587785 0.809017 0
    outer loop
      vertex 12.5 21.6506 0
      vertex 12.5 21.6506 6
      vertex 16.7283 18.5786 0
    endloop
  endfacet
  facet normal 0.587785 0.809017 0
    outer loop
      vertex 16.7283 18.5786 0
      vertex 12.5 21.6506 6
      vertex 16.7283 18.5786 6
    endloop
  endfacet
  facet normal 0.406737 0.913545 0
    outer loop
      vertex 7.72542 23.7764 0
      vertex 7.72542 23.7764 6
      vertex 12.5 21.6506 0
    endloop
  endfacet
  facet normal 0.406737 0.913545 0
    outer loop
      vertex 12.5 21.6506 0
      vertex 7.72542 23.7764 6
      vertex 12.5 21.6506 6
    endloop
  endfacet
  facet normal 0.207912 0.978148 0
    outer loop
      vertex 2.61321 24.863 0
      vertex 2.61321 24.863 6
      vertex 7.72542 23.7764 0
    endloop
  endfacet
  facet normal 0.207912 0.978148 0
    outer loop
      vertex 7.72542 23.7764 0
      vertex 2.61321 24.863 6
      vertex 7.72542 23.7764 6
    endloop
  endfacet
  facet normal 0 1 0
    outer loop
      vertex -2.61321 24.863 0
      vertex -2.61321 24.863 6
      vertex 2.61321 24.863 0
    endloop
  endfacet
  facet normal 0 1 0
    outer loop
      vertex 2.61321 24.863 0
      vertex -2.61321 24.863 6
      vertex 2.61321 24.863 6
    endloop
  endfacet
  facet normal -0.207912 0.978148 0
    outer loop
      vertex -7.72542 23.7764 0
      vertex -7.72542 23.7764 6
      vertex -2.61321 24.863 0
    endloop
  endfacet
  facet normal -0.207912 0.978148 0
    outer loop
      vertex -2.61321 24.863 0
      vertex -7.72542 23.7764 6
      vertex -2.61321 24.863 6
    endloop
  endfacet
  facet normal -0.406737 0.913545 0
    outer loop
      vertex -12.5 21.6506 0
      vertex -12.5 21.6506 6
      vertex -7.72542 23.7764 0
    endloop
  endfacet
  facet normal -0.406737 0.913545 0
    outer loop
      vertex -7.72542 23.7764 0
      vertex -12.5 21.6506 6
      vertex -7.72542 23.7764 6
    endloop
  endfacet
  facet normal -0.587785 0.809017 0
    outer loop
      vertex -16.7283 18.5786 0
      vertex -16.7283 18.5786 6
      vertex -12.5 21.6506 0
    endloop
  endfacet
  facet normal -0.587785 0.809017 0
    outer loop
      vertex -12.5 21.6506 0
      vertex -16.7283 18.5786 6
      vertex -12.5 21.6506 6
    endloop
  endfacet
  facet normal -0.743145 0.669131 0
    outer loop
      vertex -20.2254 14.6946 0
      vertex -20.2254 14.6946 6
      vertex -16.7283 18.5786 0
    endloop
  endfacet
  facet normal -0.743145 0.669131 0
    outer loop
      vertex -16.7283 18.5786 0
      vertex -20.2254 14.6946 6
      vertex -16.7283 18.5786 6
    endloop
  endfacet
  facet normal -0.866025 0.5 0
    outer loop
      vertex -22.8386 10.1684 0
      vertex -22.8386 10.1684 6
      vertex -20.2254 14.6946 0
    endloop
  endfacet
  facet normal -0.866025 0.5 0
    outer loop
      vertex -20.2254 14.6946 0
      vertex -22.8386 10.1684 6
      vertex -20.2254 14.6946 6
    endloop
  endfacet
  facet normal 1 0 0
    outer loop
      vertex -1.28229 0.93164 0
      vertex -1.28229 0.93164 2.25
      vertex -1.28229 -0.93164 2.25
    endloop
  endfacet
  facet normal 1 0 0
    outer loop
      vertex -1.28229 -0.93164 0
      vertex -1.28229 0.93164 0
      vertex -1.28229 -0.93164 2.25
    endloop
  endfacet
  facet normal 0.309017 -0.951057 0
    outer loop
      vertex 0.489792 1.50743 0
      vertex 0.489792 1.50743 2.25
      vertex -1.28229 0.93164 2.25
    endloop
  endfacet
  facet normal 0.309017 -0.951057 0
    outer loop
      vertex -1.28229 0.93164 0
      vertex 0.489792 1.50743 0
      vertex -1.28229 0.93164 2.25
    endloop
  endfacet
  facet normal -0.809017 -0.587785 0
    outer loop
      vertex 1.585 0 2.25
      vertex 0.489792 1.50743 2.25
      vertex 1.585 0 0
    endloop
  endfacet
  facet normal -0.809017 -0.587785 0
    outer loop
      vertex 1.585 0 0
      vertex 0.489792 1.50743 2.25
      vertex 0.489792 1.50743 0
    endloop
  endfacet
  facet normal -0.809017 0.587785 0
    outer loop
      vertex 1.585 0 2.25
      vertex 1.585 0 0
      vertex 0.489792 -1.50743 2.25
    endloop
  endfacet
  facet normal -0.809017 0.587785 0
    outer loop
      vertex 0.489792 -1.50743 2.25
      vertex 1.585 0 0
      vertex 0.489792 -1.50743 0
    endloop
  endfacet
  facet normal 0.309017 0.951057 0
    outer loop
      vertex 0.489792 -1.50743 2.25
      vertex 0.489792 -1.50743 0
      vertex -1.28229 -0.93164 2.25
    endloop
  endfacet
  facet normal 0.309017 0.951057 0
    outer loop
      vertex -1.28229 -0.93164 2.25
      vertex 0.489792 -1.50743 0
      vertex -1.28229 -0.93164 0
    endloop
  endfacet
  facet normal 0.951057 0.309017 0
    outer loop
      vertex -3.105 0 6
      vertex -2.512 -1.82507 6
      vertex -2.512 -1.82507 2.25
    endloop
  endfacet
  facet normal 0.951057 0.309017 0
    outer loop
      vertex -3.105 0 2.25
      vertex -3.105 0 6
      vertex -2.512 -1.82507 2.25
    endloop
  endfacet
  facet normal 0.587785 0.809017 0
    outer loop
      vertex -0.959498 -2.95303 6
      vertex -0.959498 -2.95303 2.25
      vertex -2.512 -1.82507 6
    endloop
  endfacet
  facet normal 0.587785 0.809017 0
    outer loop
      vertex -2.512 -1.82507 6
      vertex -0.959498 -2.95303 2.25
      vertex -2.512 -1.82507 2.25
    endloop
  endfacet
  facet normal 0 1 0
    outer loop
      vertex 0.959498 -2.95303 6
      vertex 0.959498 -2.95303 2.25
      vertex -0.959498 -2.95303 6
    endloop
  endfacet
  facet normal 0 1 0
    outer loop
      vertex -0.959498 -2.95303 6
      vertex 0.959498 -2.95303 2.25
      vertex -0.959498 -2.95303 2.25
    endloop
  endfacet
  facet normal -0.587785 0.809017 0
    outer loop
      vertex 2.512 -1.82507 6
      vertex 2.512 -1.82507 2.25
      vertex 0.959498 -2.95303 6
    endloop
  endfacet
  facet normal -0.587785 0.809017 0
    outer loop
      vertex 0.959498 -2.95303 6
      vertex 2.512 -1.82507 2.25
      vertex 0.959498 -2.95303 2.25
    endloop
  endfacet
  facet normal -0.951057 0.309017 0
    outer loop
      vertex 3.105 0 6
      vertex 3.105 0 2.25
      vertex 2.512 -1.82507 6
    endloop
  endfacet
  facet normal -0.951057 0.309017 0
    outer loop
      vertex 2.512 -1.82507 6
      vertex 3.105 0 2.25
      vertex 2.512 -1.82507 2.25
    endloop
  endfacet
  facet normal -0.951057 -0.309017 0
    outer loop
      vertex 3.105 0 6
      vertex 2.512 1.82507 6
      vertex 3.105 0 2.25
    endloop
  endfacet
  facet normal -0.951057 -0.309017 0
    outer loop
      vertex 3.105 0 2.25
      vertex 2.512 1.82507 6
      vertex 2.512 1.82507 2.25
    endloop
  endfacet
  facet normal -0.587785 -0.809017 0
    outer loop
      vertex 2.512 1.82507 2.25
      vertex 2.512 1.82507 6
      vertex 0.959498 2.95303 6
    endloop
  endfacet
  facet normal -0.587785 -0.809017 0
    outer loop
      vertex 0.959498 2.95303 2.25
      vertex 2.512 1.82507 2.25
      vertex 0.959498 2.95303 6
    endloop
  endfacet
  facet normal 0 -1 0
    outer loop
      vertex 0.959498 2.95303 2.25
      vertex 0.959498 2.95303 6
      vertex -0.959498 2.95303 6
    endloop
  endfacet
  facet normal 0 -1 0
    outer loop
      vertex -0.959498 2.95303 2.25
      vertex 0.959498 2.95303 2.25
      vertex -0.959498 2.95303 6
    endloop
  endfacet
  facet normal 0.587785 -0.809017 0
    outer loop
      vertex -0.959498 2.95303 2.25
      vertex -0.959498 2.95303 6
      vertex -2.512 1.82507 6
    endloop
  endfacet
  facet normal 0.587785 -0.809017 0
    outer loop
      vertex -2.512 1.82507 2.25
      vertex -0.959498 2.95303 2.25
      vertex -2.512 1.82507 6
    endloop
  endfacet
  facet normal 0.951057 -0.309017 0
    outer loop
      vertex -2.512 1.82507 2.25
      vertex -2.512 1.82507 6
      vertex -3.105 0 6
    endloop
  endfacet
  facet normal 0.951057 -0.309017 0
    outer loop
      vertex -3.105 0 2.25
      vertex -2.512 1.82507 2.25
      vertex -3.105 0 6
    endloop
  endfacet
  facet normal 0 0 1
    outer loop
      vertex -2.512 -1.82507 2.25
      vertex -0.959498 -2.95303 2.25
      vertex 0.959498 -2.95303 2.25
    endloop
  endfacet
  facet normal 0 0 1
    outer loop
      vertex 0.489792 -1.50743 2.25
      vertex -2.512 -1.82507 2.25
      vertex 2.512 -1.82507 2.25
    endloop
  endfacet
  facet normal 0 0 1
    outer loop
      vertex 2.512 -1.82507 2.25
      vertex -2.512 -1.82507 2.25
      vertex 0.959498 -2.95303 2.25
    endloop
  endfacet
  facet normal 0 0 1
    outer loop
      vertex 0.489792 -1.50743 2.25
      vertex -1.28229 -0.93164 2.25
      vertex -2.512 -1.82507 2.25
    endloop
  endfacet
  facet normal 0 0 1
    outer loop
      vertex 0.489792 1.50743 2.25
      vertex 1.585 0 2.25
      vertex 2.512 1.82507 2.25
    endloop
  endfacet
  facet normal 0 0 1
    outer loop
      vertex -2.512 1.82507 2.25
      vertex -2.512 -1.82507 2.25
      vertex -0.959498 2.95303 2.25
    endloop
  endfacet
  facet normal 0 0 1
    outer loop
      vertex -3.105 0 2.25
      vertex -2.512 -1.82507 2.25
      vertex -2.512 1.82507 2.25
    endloop
  endfacet
  facet normal 0 0 1
    outer loop
      vertex -0.959498 2.95303 2.25
      vertex -1.28229 0.93164 2.25
      vertex 0.959498 2.95303 2.25
    endloop
  endfacet
  facet normal 0 0 1
    outer loop
      vertex -0.959498 2.95303 2.25
      vertex -2.512 -1.82507 2.25
      vertex -1.28229 0.93164 2.25
    endloop
  endfacet
  facet normal 0 0 1
    outer loop
      vertex 0.959498 2.95303 2.25
      vertex 0.489792 1.50743 2.25
      vertex 2.512 1.82507 2.25
    endloop
  endfacet
  facet normal 0 0 1
    outer loop
      vertex 2.512 1.82507 2.25
      vertex 1.585 0 2.25
      vertex 3.105 0 2.25
    endloop
  endfacet
  facet normal 0 0 1
    outer loop
      vertex 3.105 0 2.25
      vertex 0.489792 -1.50743 2.25
      vertex 2.512 -1.82507 2.25
    endloop
  endfacet
  facet normal 0 0 1
    outer loop
      vertex -1.28229 0.93164 2.25
      vertex 0.489792 1.50743 2.25
      vertex 0.959498 2.95303 2.25
    endloop
  endfacet
  facet normal 0 0 1
    outer loop
      vertex 1.585 0 2.25
      vertex 0.489792 -1.50743 2.25
      vertex 3.105 0 2.25
    endloop
  endfacet
  facet normal 0 0 1
    outer loop
      vertex -1.28229 -0.93164 2.25
      vertex -1.28229 0.93164 2.25
      vertex -2.512 -1.82507 2.25
    endloop
  endfacet
endsolid OpenSCAD_Model
