solid OpenSCAD_Model
  facet normal 0 0 -1
    outer loop
      vertex -25 0 0
      vertex -24.4537 5.19779 0
      vertex -24.4537 -5.19779 0
    endloop
  endfacet
  facet normal 0 0 -1
    outer loop
      vertex -24.4537 -5.19779 0
      vertex -24.4537 5.19779 0
      vertex -22.8386 10.1684 0
    endloop
  endfacet
  facet normal 0 0 -1
    outer loop
      vertex -24.4537 -5.19779 0
      vertex -22.8386 10.1684 0
      vertex -20.2254 14.6946 0
    endloop
  endfacet
  facet normal 0 0 -1
    outer loop
      vertex -24.4537 -5.19779 0
      vertex -20.2254 14.6946 0
      vertex -16.7283 18.5786 0
    endloop
  endfacet
  facet normal 0 0 -1
    outer loop
      vertex -24.4537 -5.19779 0
      vertex -16.7283 18.5786 0
      vertex -12.5 21.6506 0
    endloop
  endfacet
  facet normal 0 0 -1
    outer loop
      vertex -24.4537 -5.19779 0
      vertex -12.5 21.6506 0
      vertex -7.72542 23.7764 0
    endloop
  endfacet
  facet normal 0 0 -1
    outer loop
      vertex -24.4537 -5.19779 0
      vertex -7.72542 23.7764 0
      vertex -2.61321 24.863 0
    endloop
  endfacet
  facet normal 0 0 -1
    outer loop
      vertex -24.4537 -5.19779 0
      vertex -2.61321 24.863 0
      vertex 2.61321 24.863 0
    endloop
  endfacet
  facet normal 0 0 -1
    outer loop
      vertex -24.4537 -5.19779 0
      vertex 2.61321 24.863 0
      vertex 7.72542 23.7764 0
    endloop
  endfacet
  facet normal 0 0 -1
    outer loop
      vertex -24.4537 -5.19779 0
      vertex 7.72542 23.7764 0
      vertex 12.5 21.6506 0
    endloop
  endfacet
  facet normal 0 0 -1
    outer loop
      vertex -24.4537 -5.19779 0
      vertex 12.5 21.6506 0
      vertex 16.7283 18.5786 0
    endloop
  endfacet
  facet normal 0 0 -1
    outer loop
      vertex -24.4537 -5.19779 0
      vertex 16.7283 18.5786 0
      vertex 20.2254 14.6946 0
    endloop
  endfacet
  facet normal 0 0 -1
    outer loop
      vertex -24.4537 -5.19779 0
      vertex 20.2254 14.6946 0
      vertex 22.8386 10.1684 0
    endloop
  endfacet
  facet normal 0 0 -1
    outer loop
      vertex 0.483612 1.4884 0
      vertex 22.8386 10.1684 0
      vertex 24.4537 5.19779 0
    endloop
  endfacet
  facet normal 0 0 -1
    outer loop
      vertex -24.4537 -5.19779 0
      vertex 25 0 0
      vertex 24.4537 -5.19779 0
    endloop
  endfacet
  facet normal 0 0 -1
    outer loop
      vertex -24.4537 -5.19779 0
      vertex 24.4537 -5.19779 0
      vertex 22.8386 -10.1684 0
    endloop
  endfacet
  facet normal 0 0 -1
    outer loop
      vertex -24.4537 -5.19779 0
      vertex 22.8386 -10.1684 0
      vertex 20.2254 -14.6946 0
    endloop
  endfacet
  facet normal 0 0 -1
    outer loop
      vertex -24.4537 -5.19779 0
      vertex 20.2254 -14.6946 0
      vertex 16.7283 -18.5786 0
    endloop
  endfacet
  facet normal 0 0 -1
    outer loop
      vertex -24.4537 -5.19779 0
      vertex 16.7283 -18.5786 0
      vertex 12.5 -21.6506 0
    endloop
  endfacet
  facet normal 0 0 -1
    outer loop
      vertex -24.4537 -5.19779 0
      vertex 12.5 -21.6506 0
      vertex 7.72542 -23.7764 0
    endloop
  endfacet
  facet normal 0 0 -1
    outer loop
      vertex -24.4537 -5.19779 0
      vertex 7.72542 -23.7764 0
      vertex 2.61321 -24.863 0
    endloop
  endfacet
  facet normal 0 0 -1
    outer loop
      vertex -24.4537 -5.19779 0
      vertex 2.61321 -24.863 0
      vertex -2.61321 -24.863 0
    endloop
  endfacet
  facet normal 0 0 -1
    outer loop
      vertex -24.4537 -5.19779 0
      vertex -2.61321 -24.863 0
      vertex -7.72542 -23.7764 0
    endloop
  endfacet
  facet normal 0 0 -1
    outer loop
      vertex -24.4537 -5.19779 0
      vertex -7.72542 -23.7764 0
      vertex -12.5 -21.6506 0
    endloop
  endfacet
  facet normal 0 0 -1
    outer loop
      vertex -24.4537 -5.19779 0
      vertex -12.5 -21.6506 0
      vertex -16.7283 -18.5786 0
    endloop
  endfacet
  facet normal 0 0 -1
    outer loop
      vertex -24.4537 -5.19779 0
      vertex -16.7283 -18.5786 0
      vertex -20.2254 -14.6946 0
    endloop
  endfacet
  facet normal 0 0 -1
    outer loop
      vertex -24.4537 -5.19779 0
      vertex -20.2254 -14.6946 0
      vertex -22.8386 -10.1684 0
    endloop
  endfacet
  facet normal 0 0 -1
    outer loop
      vertex -24.4537 -5.19779 0
      vertex 22.8386 10.1684 0
      vertex -1.26611 0.919884 0
    endloop
  endfacet
  facet normal 0 0 -1
    outer loop
      vertex 0.483612 1.4884 0
      vertex 24.4537 5.19779 0
      vertex 1.565 0 0
    endloop
  endfacet
  facet normal 0 0 -1
    outer loop
      vertex -24.4537 -5.19779 0
      vertex -1.26611 -0.919884 0
      vertex 0.483612 -1.4884 0
    endloop
  endfacet
  facet normal 0 0 -1
    outer loop
      vertex -24.4537 -5.19779 0
      vertex 0.483612 -1.4884 0
      vertex 25 0 0
    endloop
  endfacet
  facet normal 0 0 -1
    outer loop
      vertex 1.565 0 0
      vertex 25 0 0
      vertex 0.483612 -1.4884 0
    endloop
  endfacet
  facet normal 0 0 -1
    outer loop
      vertex 1.565 0 0
      vertex 24.4537 5.19779 0
      vertex 25 0 0
    endloop
  endfacet
  facet normal 0 0 -1
    outer loop
      vertex -1.26611 0.919884 0
      vertex 22.8386 10.1684 0
      vertex 0.483612 1.4884 0
    endloop
  endfacet
  facet normal 0 0 -1
    outer loop
      vertex -1.26611 -0.919884 0
      vertex -24.4537 -5.19779 0
      vertex -1.26611 0.919884 0
    endloop
  endfacet
  facet normal -0.994522 0.104528 0
    outer loop
      vertex -25 0 0
      vertex -25 0 5
      vertex -24.4537 5.19779 0
    endloop
  endfacet
  facet normal -0.994522 0.104528 0
    outer loop
      vertex -24.4537 5.19779 0
      vertex -25 0 5
      vertex -24.4537 5.19779 5
    endloop
  endfacet
  facet normal -0.994522 -0.104528 0
    outer loop
      vertex -25 0 0
      vertex -24.4537 -5.19779 0
      vertex -25 0 5
    endloop
  endfacet
  facet normal -0.994522 -0.104528 0
    outer loop
      vertex -25 0 5
      vertex -24.4537 -5.19779 0
      vertex -24.4537 -5.19779 5
    endloop
  endfacet
  facet normal -0.951056 -0.309017 0
    outer loop
      vertex -24.4537 -5.19779 0
      vertex -22.8386 -10.1684 0
      vertex -24.4537 -5.19779 5
    endloop
  endfacet
  facet normal -0.951056 -0.309017 0
    outer loop
      vertex -24.4537 -5.19779 5
      vertex -22.8386 -10.1684 0
      vertex -22.8386 -10.1684 5
    endloop
  endfacet
  facet normal -0.866025 -0.5 0
    outer loop
      vertex -22.8386 -10.1684 0
      vertex -20.2254 -14.6946 0
      vertex -22.8386 -10.1684 5
    endloop
  endfacet
  facet normal -0.866025 -0.5 0
    outer loop
      vertex -22.8386 -10.1684 5
      vertex -20.2254 -14.6946 0
      vertex -20.2254 -14.6946 5
    endloop
  endfacet
  facet normal -0.743145 -0.669131 0
    outer loop
      vertex -20.2254 -14.6946 0
      vertex -16.7283 -18.5786 0
      vertex -20.2254 -14.6946 5
    endloop
  endfacet
  facet normal -0.743145 -0.669131 0
    outer loop
      vertex -20.2254 -14.6946 5
      vertex -16.7283 -18.5786 0
      vertex -16.7283 -18.5786 5
    endloop
  endfacet
  facet normal -0.587785 -0.809017 0
    outer loop
      vertex -16.7283 -18.5786 5
      vertex -16.7283 -18.5786 0
      vertex -12.5 -21.6506 0
    endloop
  endfacet
  facet normal -0.587785 -0.809017 0
    outer loop
      vertex -12.5 -21.6506 5
      vertex -16.7283 -18.5786 5
      vertex -12.5 -21.6506 0
    endloop
  endfacet
  facet normal -0.406737 -0.913545 0
    outer loop
      vertex -12.5 -21.6506 5
      vertex -12.5 -21.6506 0
      vertex -7.72542 -23.7764 0
    endloop
  endfacet
  facet normal -0.406737 -0.913545 0
    outer loop
      vertex -7.72542 -23.7764 5
      vertex -12.5 -21.6506 5
      vertex -7.72542 -23.7764 0
    endloop
  endfacet
  facet normal -0.207912 -0.978148 0
    outer loop
      vertex -7.72542 -23.7764 5
      vertex -7.72542 -23.7764 0
      vertex -2.61321 -24.863 0
    endloop
  endfacet
  facet normal -0.207912 -0.978148 0
    outer loop
      vertex -2.61321 -24.863 5
      vertex -7.72542 -23.7764 5
      vertex -2.61321 -24.863 0
    endloop
  endfacet
  facet normal 0 -1 0
    outer loop
      vertex -2.61321 -24.863 5
      vertex -2.61321 -24.863 0
      vertex 2.61321 -24.863 0
    endloop
  endfacet
  facet normal 0 -1 0
    outer loop
      vertex 2.61321 -24.863 5
      vertex -2.61321 -24.863 5
      vertex 2.61321 -24.863 0
    endloop
  endfacet
  facet normal 0.207912 -0.978148 0
    outer loop
      vertex 2.61321 -24.863 5
      vertex 2.61321 -24.863 0
      vertex 7.72542 -23.7764 0
    endloop
  endfacet
  facet normal 0.207912 -0.978148 0
    outer loop
      vertex 7.72542 -23.7764 5
      vertex 2.61321 -24.863 5
      vertex 7.72542 -23.7764 0
    endloop
  endfacet
  facet normal 0.406737 -0.913545 0
    outer loop
      vertex 7.72542 -23.7764 5
      vertex 7.72542 -23.7764 0
      vertex 12.5 -21.6506 0
    endloop
  endfacet
  facet normal 0.406737 -0.913545 0
    outer loop
      vertex 12.5 -21.6506 5
      vertex 7.72542 -23.7764 5
      vertex 12.5 -21.6506 0
    endloop
  endfacet
  facet normal 0.587785 -0.809017 0
    outer loop
      vertex 12.5 -21.6506 5
      vertex 12.5 -21.6506 0
      vertex 16.7283 -18.5786 0
    endloop
  endfacet
  facet normal 0.587785 -0.809017 0
    outer loop
      vertex 16.7283 -18.5786 5
      vertex 12.5 -21.6506 5
      vertex 16.7283 -18.5786 0
    endloop
  endfacet
  facet normal 0.743145 -0.669131 0
    outer loop
      vertex 16.7283 -18.5786 5
      vertex 16.7283 -18.5786 0
      vertex 20.2254 -14.6946 0
    endloop
  endfacet
  facet normal 0.743145 -0.669131 0
    outer loop
      vertex 20.2254 -14.6946 5
      vertex 16.7283 -18.5786 5
      vertex 20.2254 -14.6946 0
    endloop
  endfacet
  facet normal 0.866025 -0.5 0
    outer loop
      vertex 20.2254 -14.6946 5
      vertex 20.2254 -14.6946 0
      vertex 22.8386 -10.1684 0
    endloop
  endfacet
  facet normal 0.866025 -0.5 0
    outer loop
      vertex 22.8386 -10.1684 5
      vertex 20.2254 -14.6946 5
      vertex 22.8386 -10.1684 0
    endloop
  endfacet
  facet normal 0.951056 -0.309017 0
    outer loop
      vertex 22.8386 -10.1684 5
      vertex 22.8386 -10.1684 0
      vertex 24.4537 -5.19779 0
    endloop
  endfacet
  facet normal 0.951056 -0.309017 0
    outer loop
      vertex 24.4537 -5.19779 5
      vertex 22.8386 -10.1684 5
      vertex 24.4537 -5.19779 0
    endloop
  endfacet
  facet normal 0.994522 -0.104528 0
    outer loop
      vertex 24.4537 -5.19779 5
      vertex 24.4537 -5.19779 0
      vertex 25 0 0
    endloop
  endfacet
  facet normal 0.994522 -0.104528 0
    outer loop
      vertex 25 0 5
      vertex 24.4537 -5.19779 5
      vertex 25 0 0
    endloop
  endfacet
  facet normal 0.994522 0.104528 0
    outer loop
      vertex 25 0 0
      vertex 24.4537 5.19779 0
      vertex 24.4537 5.19779 5
    endloop
  endfacet
  facet normal 0.994522 0.104528 0
    outer loop
      vertex 25 0 5
      vertex 25 0 0
      vertex 24.4537 5.19779 5
    endloop
  endfacet
  facet normal 0.951056 0.309017 0
    outer loop
      vertex 24.4537 5.19779 0
      vertex 22.8386 10.1684 0
      vertex 22.8386 10.1684 5
    endloop
  endfacet
  facet normal 0.951056 0.309017 0
    outer loop
      vertex 24.4537 5.19779 5
      vertex 24.4537 5.19779 0
      vertex 22.8386 10.1684 5
    endloop
  endfacet
  facet normal 0.866025 0.5 0
    outer loop
      vertex 22.8386 10.1684 0
      vertex 20.2254 14.6946 0
      vertex 20.2254 14.6946 5
    endloop
  endfacet
  facet normal 0.866025 0.5 0
    outer loop
      vertex 22.8386 10.1684 5
      vertex 22.8386 10.1684 0
      vertex 20.2254 14.6946 5
    endloop
  endfacet
  facet normal 0.743145 0.669131 0
    outer loop
      vertex 20.2254 14.6946 0
      vertex 16.7283 18.5786 0
      vertex 16.7283 18.5786 5
    endloop
  endfacet
  facet normal 0.743145 0.669131 0
    outer loop
      vertex 20.2254 14.6946 5
      vertex 20.2254 14.6946 0
      vertex 16.7283 18.5786 5
    endloop
  endfacet
  facet normal 0.587785 0.809017 0
    outer loop
      vertex 12.5 21.6506 0
      vertex 12.5 21.6506 5
      vertex 16.7283 18.5786 0
    endloop
  endfacet
  facet normal 0.587785 0.809017 0
    outer loop
      vertex 16.7283 18.5786 0
      vertex 12.5 21.6506 5
      vertex 16.7283 18.5786 5
    endloop
  endfacet
  facet normal 0.406737 0.913545 0
    outer loop
      vertex 7.72542 23.7764 0
      vertex 7.72542 23.7764 5
      vertex 12.5 21.6506 0
    endloop
  endfacet
  facet normal 0.406737 0.913545 0
    outer loop
      vertex 12.5 21.6506 0
      vertex 7.72542 23.7764 5
      vertex 12.5 21.6506 5
    endloop
  endfacet
  facet normal 0.207912 0.978148 0
    outer loop
      vertex 2.61321 24.863 0
      vertex 2.61321 24.863 5
      vertex 7.72542 23.7764 0
    endloop
  endfacet
  facet normal 0.207912 0.978148 0
    outer loop
      vertex 7.72542 23.7764 0
      vertex 2.61321 24.863 5
      vertex 7.72542 23.7764 5
    endloop
  endfacet
  facet normal 0 1 0
    outer loop
      vertex -2.61321 24.863 0
      vertex -2.61321 24.863 5
      vertex 2.61321 24.863 0
    endloop
  endfacet
  facet normal 0 1 0
    outer loop
      vertex 2.61321 24.863 0
      vertex -2.61321 24.863 5
      vertex 2.61321 24.863 5
    endloop
  endfacet
  facet normal -0.207912 0.978148 0
    outer loop
      vertex -7.72542 23.7764 0
      vertex -7.72542 23.7764 5
      vertex -2.61321 24.863 0
    endloop
  endfacet
  facet normal -0.207912 0.978148 0
    outer loop
      vertex -2.61321 24.863 0
      vertex -7.72542 23.7764 5
      vertex -2.61321 24.863 5
    endloop
  endfacet
  facet normal -0.406737 0.913545 0
    outer loop
      vertex -12.5 21.6506 0
      vertex -12.5 21.6506 5
      vertex -7.72542 23.7764 0
    endloop
  endfacet
  facet normal -0.406737 0.913545 0
    outer loop
      vertex -7.72542 23.7764 0
      vertex -12.5 21.6506 5
      vertex -7.72542 23.7764 5
    endloop
  endfacet
  facet normal -0.587785 0.809017 0
    outer loop
      vertex -16.7283 18.5786 0
      vertex -16.7283 18.5786 5
      vertex -12.5 21.6506 0
    endloop
  endfacet
  facet normal -0.587785 0.809017 0
    outer loop
      vertex -12.5 21.6506 0
      vertex -16.7283 18.5786 5
      vertex -12.5 21.6506 5
    endloop
  endfacet
  facet normal -0.743145 0.669131 0
    outer loop
      vertex -20.2254 14.6946 0
      vertex -20.2254 14.6946 5
      vertex -16.7283 18.5786 0
    endloop
  endfacet
  facet normal -0.743145 0.669131 0
    outer loop
      vertex -16.7283 18.5786 0
      vertex -20.2254 14.6946 5
      vertex -16.7283 18.5786 5
    endloop
  endfacet
  facet normal -0.866025 0.5 0
    outer loop
      vertex -22.8386 10.1684 0
      vertex -22.8386 10.1684 5
      vertex -20.2254 14.6946 0
    endloop
  endfacet
  facet normal -0.866025 0.5 0
    outer loop
      vertex -20.2254 14.6946 0
      vertex -22.8386 10.1684 5
      vertex -20.2254 14.6946 5
    endloop
  endfacet
  facet normal -0.951056 0.309017 0
    outer loop
      vertex -24.4537 5.19779 0
      vertex -24.4537 5.19779 5
      vertex -22.8386 10.1684 0
    endloop
  endfacet
  facet normal -0.951056 0.309017 0
    outer loop
      vertex -22.8386 10.1684 0
      vertex -24.4537 5.19779 5
      vertex -22.8386 10.1684 5
    endloop
  endfacet
  facet normal 1 0 0
    outer loop
      vertex -1.26611 0.919884 0
      vertex -1.26611 0.919884 2
      vertex -1.26611 -0.919884 2
    endloop
  endfacet
  facet normal 1 0 0
    outer loop
      vertex -1.26611 -0.919884 0
      vertex -1.26611 0.919884 0
      vertex -1.26611 -0.919884 2
    endloop
  endfacet
  facet normal 0.309017 -0.951057 0
    outer loop
      vertex 0.483612 1.4884 0
      vertex 0.483612 1.4884 2
      vertex -1.26611 0.919884 2
    endloop
  endfacet
  facet normal 0.309017 -0.951057 0
    outer loop
      vertex -1.26611 0.919884 0
      vertex 0.483612 1.4884 0
      vertex -1.26611 0.919884 2
    endloop
  endfacet
  facet normal -0.809017 -0.587785 0
    outer loop
      vertex 1.565 0 2
      vertex 0.483612 1.4884 2
      vertex 1.565 0 0
    endloop
  endfacet
  facet normal -0.809017 -0.587785 0
    outer loop
      vertex 1.565 0 0
      vertex 0.483612 1.4884 2
      vertex 0.483612 1.4884 0
    endloop
  endfacet
  facet normal -0.809017 0.587785 0
    outer loop
      vertex 1.565 0 2
      vertex 1.565 0 0
      vertex 0.483612 -1.4884 2
    endloop
  endfacet
  facet normal -0.809017 0.587785 0
    outer loop
      vertex 0.483612 -1.4884 2
      vertex 1.565 0 0
      vertex 0.483612 -1.4884 0
    endloop
  endfacet
  facet normal 0.309017 0.951057 0
    outer loop
      vertex 0.483612 -1.4884 2
      vertex 0.483612 -1.4884 0
      vertex -1.26611 -0.919884 2
    endloop
  endfacet
  facet normal 0.309017 0.951057 0
    outer loop
      vertex -1.26611 -0.919884 2
      vertex 0.483612 -1.4884 0
      vertex -1.26611 -0.919884 0
    endloop
  endfacet
  facet normal 0 0 1
    outer loop
      vertex -24.4537 5.19779 5
      vertex -25 0 5
      vertex -24.4537 -5.19779 5
    endloop
  endfacet
  facet normal 0 0 1
    outer loop
      vertex -20.2254 -14.6946 5
      vertex -24.4537 5.19779 5
      vertex -22.8386 -10.1684 5
    endloop
  endfacet
  facet normal 0 0 1
    outer loop
      vertex -22.8386 -10.1684 5
      vertex -24.4537 5.19779 5
      vertex -24.4537 -5.19779 5
    endloop
  endfacet
  facet normal 0 0 1
    outer loop
      vertex -16.7283 -18.5786 5
      vertex -24.4537 5.19779 5
      vertex -20.2254 -14.6946 5
    endloop
  endfacet
  facet normal 0 0 1
    outer loop
      vertex -12.5 -21.6506 5
      vertex -24.4537 5.19779 5
      vertex -16.7283 -18.5786 5
    endloop
  endfacet
  facet normal 0 0 1
    outer loop
      vertex -7.72542 -23.7764 5
      vertex -24.4537 5.19779 5
      vertex -12.5 -21.6506 5
    endloop
  endfacet
  facet normal 0 0 1
    outer loop
      vertex -2.61321 -24.863 5
      vertex -24.4537 5.19779 5
      vertex -7.72542 -23.7764 5
    endloop
  endfacet
  facet normal 0 0 1
    outer loop
      vertex 2.61321 -24.863 5
      vertex -24.4537 5.19779 5
      vertex -2.61321 -24.863 5
    endloop
  endfacet
  facet normal 0 0 1
    outer loop
      vertex 7.72542 -23.7764 5
      vertex -24.4537 5.19779 5
      vertex 2.61321 -24.863 5
    endloop
  endfacet
  facet normal 0 0 1
    outer loop
      vertex 12.5 -21.6506 5
      vertex -24.4537 5.19779 5
      vertex 7.72542 -23.7764 5
    endloop
  endfacet
  facet normal 0 0 1
    outer loop
      vertex 16.7283 -18.5786 5
      vertex -24.4537 5.19779 5
      vertex 12.5 -21.6506 5
    endloop
  endfacet
  facet normal 0 0 1
    outer loop
      vertex 20.2254 -14.6946 5
      vertex -24.4537 5.19779 5
      vertex 16.7283 -18.5786 5
    endloop
  endfacet
  facet normal 0 0 1
    outer loop
      vertex -0.467504 -3.25156 5
      vertex -24.4537 5.19779 5
      vertex 20.2254 -14.6946 5
    endloop
  endfacet
  facet normal 0 0 1
    outer loop
      vertex 2.76352 1.776 5
      vertex 3.285 0 5
      vertex 25 0 5
    endloop
  endfacet
  facet normal 0 0 1
    outer loop
      vertex 1.36464 2.98814 5
      vertex 2.76352 1.776 5
      vertex 25 0 5
    endloop
  endfacet
  facet normal 0 0 1
    outer loop
      vertex 22.8386 10.1684 5
      vertex -24.4537 5.19779 5
      vertex 24.4537 5.19779 5
    endloop
  endfacet
  facet normal 0 0 1
    outer loop
      vertex 20.2254 14.6946 5
      vertex -24.4537 5.19779 5
      vertex 22.8386 10.1684 5
    endloop
  endfacet
  facet normal 0 0 1
    outer loop
      vertex 16.7283 18.5786 5
      vertex -24.4537 5.19779 5
      vertex 20.2254 14.6946 5
    endloop
  endfacet
  facet normal 0 0 1
    outer loop
      vertex 12.5 21.6506 5
      vertex -24.4537 5.19779 5
      vertex 16.7283 18.5786 5
    endloop
  endfacet
  facet normal 0 0 1
    outer loop
      vertex 7.72542 23.7764 5
      vertex -24.4537 5.19779 5
      vertex 12.5 21.6506 5
    endloop
  endfacet
  facet normal 0 0 1
    outer loop
      vertex 2.61321 24.863 5
      vertex -24.4537 5.19779 5
      vertex 7.72542 23.7764 5
    endloop
  endfacet
  facet normal 0 0 1
    outer loop
      vertex -2.61321 24.863 5
      vertex -24.4537 5.19779 5
      vertex 2.61321 24.863 5
    endloop
  endfacet
  facet normal 0 0 1
    outer loop
      vertex -7.72542 23.7764 5
      vertex -24.4537 5.19779 5
      vertex -2.61321 24.863 5
    endloop
  endfacet
  facet normal 0 0 1
    outer loop
      vertex -12.5 21.6506 5
      vertex -24.4537 5.19779 5
      vertex -7.72542 23.7764 5
    endloop
  endfacet
  facet normal 0 0 1
    outer loop
      vertex -16.7283 18.5786 5
      vertex -24.4537 5.19779 5
      vertex -12.5 21.6506 5
    endloop
  endfacet
  facet normal 0 0 1
    outer loop
      vertex -20.2254 14.6946 5
      vertex -24.4537 5.19779 5
      vertex -16.7283 18.5786 5
    endloop
  endfacet
  facet normal 0 0 1
    outer loop
      vertex -22.8386 10.1684 5
      vertex -24.4537 5.19779 5
      vertex -20.2254 14.6946 5
    endloop
  endfacet
  facet normal 0 0 1
    outer loop
      vertex 1.36464 -2.98814 5
      vertex -0.467504 -3.25156 5
      vertex 22.8386 -10.1684 5
    endloop
  endfacet
  facet normal 0 0 1
    outer loop
      vertex -2.15122 2.48264 5
      vertex -0.467504 3.25156 5
      vertex -24.4537 5.19779 5
    endloop
  endfacet
  facet normal 0 0 1
    outer loop
      vertex 2.76352 -1.776 5
      vertex 22.8386 -10.1684 5
      vertex 24.4537 -5.19779 5
    endloop
  endfacet
  facet normal 0 0 1
    outer loop
      vertex -2.15122 2.48264 5
      vertex -24.4537 5.19779 5
      vertex -3.15193 0.925491 5
    endloop
  endfacet
  facet normal 0 0 1
    outer loop
      vertex 2.76352 -1.776 5
      vertex 1.36464 -2.98814 5
      vertex 22.8386 -10.1684 5
    endloop
  endfacet
  facet normal 0 0 1
    outer loop
      vertex 24.4537 5.19779 5
      vertex -0.467504 3.25156 5
      vertex 25 0 5
    endloop
  endfacet
  facet normal 0 0 1
    outer loop
      vertex 24.4537 5.19779 5
      vertex -24.4537 5.19779 5
      vertex -0.467504 3.25156 5
    endloop
  endfacet
  facet normal 0 0 1
    outer loop
      vertex -0.467504 3.25156 5
      vertex 1.36464 2.98814 5
      vertex 25 0 5
    endloop
  endfacet
  facet normal 0 0 1
    outer loop
      vertex 3.285 0 5
      vertex 2.76352 -1.776 5
      vertex 24.4537 -5.19779 5
    endloop
  endfacet
  facet normal 0 0 1
    outer loop
      vertex 25 0 5
      vertex 3.285 0 5
      vertex 24.4537 -5.19779 5
    endloop
  endfacet
  facet normal 0 0 1
    outer loop
      vertex 22.8386 -10.1684 5
      vertex -0.467504 -3.25156 5
      vertex 20.2254 -14.6946 5
    endloop
  endfacet
  facet normal 0 0 1
    outer loop
      vertex -2.15122 -2.48264 5
      vertex -24.4537 5.19779 5
      vertex -0.467504 -3.25156 5
    endloop
  endfacet
  facet normal 0 0 1
    outer loop
      vertex -3.15193 -0.925491 5
      vertex -3.15193 0.925491 5
      vertex -24.4537 5.19779 5
    endloop
  endfacet
  facet normal 0 0 1
    outer loop
      vertex -2.15122 -2.48264 5
      vertex -3.15193 -0.925491 5
      vertex -24.4537 5.19779 5
    endloop
  endfacet
  facet normal 0 0 1
    outer loop
      vertex -2.15122 -2.48264 2
      vertex -0.467504 -3.25156 2
      vertex 1.36464 -2.98814 2
    endloop
  endfacet
  facet normal 0 0 1
    outer loop
      vertex 0.483612 -1.4884 2
      vertex -2.15122 -2.48264 2
      vertex 2.76352 -1.776 2
    endloop
  endfacet
  facet normal 0 0 1
    outer loop
      vertex 2.76352 -1.776 2
      vertex -2.15122 -2.48264 2
      vertex 1.36464 -2.98814 2
    endloop
  endfacet
  facet normal 0 0 1
    outer loop
      vertex 1.565 0 2
      vertex 0.483612 -1.4884 2
      vertex 3.285 0 2
    endloop
  endfacet
  facet normal 0 0 1
    outer loop
      vertex 0.483612 1.4884 2
      vertex 1.565 0 2
      vertex 2.76352 1.776 2
    endloop
  endfacet
  facet normal 0 0 1
    outer loop
      vertex -3.15193 0.925491 2
      vertex -2.15122 -2.48264 2
      vertex -2.15122 2.48264 2
    endloop
  endfacet
  facet normal 0 0 1
    outer loop
      vertex -3.15193 -0.925491 2
      vertex -2.15122 -2.48264 2
      vertex -3.15193 0.925491 2
    endloop
  endfacet
  facet normal 0 0 1
    outer loop
      vertex -2.15122 2.48264 2
      vertex -1.26611 0.919884 2
      vertex -0.467504 3.25156 2
    endloop
  endfacet
  facet normal 0 0 1
    outer loop
      vertex -2.15122 2.48264 2
      vertex -2.15122 -2.48264 2
      vertex -1.26611 0.919884 2
    endloop
  endfacet
  facet normal 0 0 1
    outer loop
      vertex 1.36464 2.98814 2
      vertex 0.483612 1.4884 2
      vertex 2.76352 1.776 2
    endloop
  endfacet
  facet normal 0 0 1
    outer loop
      vertex 2.76352 1.776 2
      vertex 1.565 0 2
      vertex 3.285 0 2
    endloop
  endfacet
  facet normal 0 0 1
    outer loop
      vertex 3.285 0 2
      vertex 0.483612 -1.4884 2
      vertex 2.76352 -1.776 2
    endloop
  endfacet
  facet normal 0 0 1
    outer loop
      vertex 0.483612 -1.4884 2
      vertex -1.26611 -0.919884 2
      vertex -2.15122 -2.48264 2
    endloop
  endfacet
  facet normal 0 0 1
    outer loop
      vertex -1.26611 -0.919884 2
      vertex -1.26611 0.919884 2
      vertex -2.15122 -2.48264 2
    endloop
  endfacet
  facet normal 0 0 1
    outer loop
      vertex -1.26611 0.919884 2
      vertex 1.36464 2.98814 2
      vertex -0.467504 3.25156 2
    endloop
  endfacet
  facet normal 0 0 1
    outer loop
      vertex -1.26611 0.919884 2
      vertex 0.483612 1.4884 2
      vertex 1.36464 2.98814 2
    endloop
  endfacet
  facet normal 1 0 0
    outer loop
      vertex -3.15193 0.925491 2
      vertex -3.15193 0.925491 5
      vertex -3.15193 -0.925491 5
    endloop
  endfacet
  facet normal 1 0 0
    outer loop
      vertex -3.15193 -0.925491 2
      vertex -3.15193 0.925491 2
      vertex -3.15193 -0.925491 5
    endloop
  endfacet
  facet normal 0.841254 0.54064 0
    outer loop
      vertex -3.15193 -0.925491 5
      vertex -2.15122 -2.48264 5
      vertex -2.15122 -2.48264 2
    endloop
  endfacet
  facet normal 0.841254 0.54064 0
    outer loop
      vertex -3.15193 -0.925491 2
      vertex -3.15193 -0.925491 5
      vertex -2.15122 -2.48264 2
    endloop
  endfacet
  facet normal 0.415415 0.909632 0
    outer loop
      vertex -0.467504 -3.25156 5
      vertex -0.467504 -3.25156 2
      vertex -2.15122 -2.48264 5
    endloop
  endfacet
  facet normal 0.415415 0.909632 0
    outer loop
      vertex -2.15122 -2.48264 5
      vertex -0.467504 -3.25156 2
      vertex -2.15122 -2.48264 2
    endloop
  endfacet
  facet normal -0.142315 0.989821 0
    outer loop
      vertex 1.36464 -2.98814 5
      vertex 1.36464 -2.98814 2
      vertex -0.467504 -3.25156 5
    endloop
  endfacet
  facet normal -0.142315 0.989821 0
    outer loop
      vertex -0.467504 -3.25156 5
      vertex 1.36464 -2.98814 2
      vertex -0.467504 -3.25156 2
    endloop
  endfacet
  facet normal -0.654861 0.75575 0
    outer loop
      vertex 2.76352 -1.776 5
      vertex 2.76352 -1.776 2
      vertex 1.36464 -2.98814 5
    endloop
  endfacet
  facet normal -0.654861 0.75575 0
    outer loop
      vertex 1.36464 -2.98814 5
      vertex 2.76352 -1.776 2
      vertex 1.36464 -2.98814 2
    endloop
  endfacet
  facet normal -0.959493 0.281732 0
    outer loop
      vertex 3.285 0 5
      vertex 3.285 0 2
      vertex 2.76352 -1.776 5
    endloop
  endfacet
  facet normal -0.959493 0.281732 0
    outer loop
      vertex 2.76352 -1.776 5
      vertex 3.285 0 2
      vertex 2.76352 -1.776 2
    endloop
  endfacet
  facet normal -0.959493 -0.281732 0
    outer loop
      vertex 3.285 0 5
      vertex 2.76352 1.776 5
      vertex 3.285 0 2
    endloop
  endfacet
  facet normal -0.959493 -0.281732 0
    outer loop
      vertex 3.285 0 2
      vertex 2.76352 1.776 5
      vertex 2.76352 1.776 2
    endloop
  endfacet
  facet normal -0.654861 -0.75575 0
    outer loop
      vertex 2.76352 1.776 2
      vertex 2.76352 1.776 5
      vertex 1.36464 2.98814 5
    endloop
  endfacet
  facet normal -0.654861 -0.75575 0
    outer loop
      vertex 1.36464 2.98814 2
      vertex 2.76352 1.776 2
      vertex 1.36464 2.98814 5
    endloop
  endfacet
  facet normal -0.142315 -0.989821 0
    outer loop
      vertex 1.36464 2.98814 2
      vertex 1.36464 2.98814 5
      vertex -0.467504 3.25156 5
    endloop
  endfacet
  facet normal -0.142315 -0.989821 0
    outer loop
      vertex -0.467504 3.25156 2
      vertex 1.36464 2.98814 2
      vertex -0.467504 3.25156 5
    endloop
  endfacet
  facet normal 0.415415 -0.909632 0
    outer loop
      vertex -0.467504 3.25156 2
      vertex -0.467504 3.25156 5
      vertex -2.15122 2.48264 5
    endloop
  endfacet
  facet normal 0.415415 -0.909632 0
    outer loop
      vertex -2.15122 2.48264 2
      vertex -0.467504 3.25156 2
      vertex -2.15122 2.48264 5
    endloop
  endfacet
  facet normal 0.841254 -0.54064 0
    outer loop
      vertex -2.15122 2.48264 2
      vertex -2.15122 2.48264 5
      vertex -3.15193 0.925491 5
    endloop
  endfacet
  facet normal 0.841254 -0.54064 0
    outer loop
      vertex -3.15193 0.925491 2
      vertex -2.15122 2.48264 2
      vertex -3.15193 0.925491 5
    endloop
  endfacet
endsolid OpenSCAD_Model
