solid OpenSCAD_Model
  facet normal -1 0 0
    outer loop
      vertex -42.5 7.5 5
      vertex -42.5 8 0
      vertex -42.5 -32.5 5
    endloop
  endfacet
  facet normal -1 0 0
    outer loop
      vertex -42.5 -57.2829 0
      vertex -42.5 -57.2829 10
      vertex -42.5 -32.5 5
    endloop
  endfacet
  facet normal -1 0 0
    outer loop
      vertex -42.5 -57.2829 0
      vertex -42.5 -32.5 5
      vertex -42.5 8 0
    endloop
  endfacet
  facet normal -1 0 0
    outer loop
      vertex -42.5 8 0
      vertex -42.5 7.5 5
      vertex -42.5 7.5 10
    endloop
  endfacet
  facet normal -1 0 0
    outer loop
      vertex -42.5 8 0
      vertex -42.5 7.5 10
      vertex -42.5 8 10
    endloop
  endfacet
  facet normal -1 0 0
    outer loop
      vertex -42.5 -32.5 5
      vertex -42.5 -57.2829 10
      vertex -42.5 -32.5 10
    endloop
  endfacet
  facet normal -0.996186 -0.0872528 0
    outer loop
      vertex -42.5 -57.2829 0
      vertex -41.5713 -67.8864 0
      vertex -42.5 -57.2829 10
    endloop
  endfacet
  facet normal -0.996186 -0.0872528 0
    outer loop
      vertex -42.5 -57.2829 10
      vertex -41.5713 -67.8864 0
      vertex -41.5713 -67.8864 10
    endloop
  endfacet
  facet normal 0 0 -1
    outer loop
      vertex -42.5 -57.2829 0
      vertex -42.5 8 0
      vertex -41.5713 -67.8864 0
    endloop
  endfacet
  facet normal 0 0 -1
    outer loop
      vertex -42.5 8 0
      vertex -41.5713 12.4181 0
      vertex -41.5713 -67.8864 0
    endloop
  endfacet
  facet normal 0 0 -1
    outer loop
      vertex -41.5713 -67.8864 0
      vertex -41.5713 12.4181 0
      vertex -38.8257 16.6432 0
    endloop
  endfacet
  facet normal 0 0 -1
    outer loop
      vertex -41.5713 -67.8864 0
      vertex -38.8257 16.6432 0
      vertex -34.3832 20.4904 0
    endloop
  endfacet
  facet normal 0 0 -1
    outer loop
      vertex -41.5713 -67.8864 0
      vertex -34.3832 20.4904 0
      vertex -28.4381 23.7918 0
    endloop
  endfacet
  facet normal 0 0 -1
    outer loop
      vertex -41.5713 -67.8864 0
      vertex -28.4381 23.7918 0
      vertex -21.25 26.403 0
    endloop
  endfacet
  facet normal 0 0 -1
    outer loop
      vertex -41.5713 -67.8864 0
      vertex -21.25 26.403 0
      vertex -13.1332 28.21 0
    endloop
  endfacet
  facet normal 0 0 -1
    outer loop
      vertex -41.5713 -67.8864 0
      vertex -13.1332 28.21 0
      vertex -4.44246 29.1336 0
    endloop
  endfacet
  facet normal 0 0 -1
    outer loop
      vertex -41.5713 -67.8864 0
      vertex -4.44246 29.1336 0
      vertex 4.44246 29.1336 0
    endloop
  endfacet
  facet normal 0 0 -1
    outer loop
      vertex -41.5713 -67.8864 0
      vertex 4.44246 29.1336 0
      vertex 13.1332 28.21 0
    endloop
  endfacet
  facet normal 0 0 -1
    outer loop
      vertex -41.5713 -67.8864 0
      vertex 13.1332 28.21 0
      vertex 21.25 26.403 0
    endloop
  endfacet
  facet normal 0 0 -1
    outer loop
      vertex -41.5713 -67.8864 0
      vertex 21.25 26.403 0
      vertex 28.4381 23.7918 0
    endloop
  endfacet
  facet normal 0 0 -1
    outer loop
      vertex -41.5713 -67.8864 0
      vertex 28.4381 23.7918 0
      vertex 34.3832 20.4904 0
    endloop
  endfacet
  facet normal 0 0 -1
    outer loop
      vertex -41.5713 -67.8864 0
      vertex 34.3832 20.4904 0
      vertex 38.8257 16.6432 0
    endloop
  endfacet
  facet normal 0 0 -1
    outer loop
      vertex -41.5713 -67.8864 0
      vertex 38.8257 16.6432 0
      vertex 41.5713 12.4181 0
    endloop
  endfacet
  facet normal 0 0 -1
    outer loop
      vertex -41.5713 -67.8864 0
      vertex 41.5713 12.4181 0
      vertex 42.5 8 0
    endloop
  endfacet
  facet normal 0 0 -1
    outer loop
      vertex -41.5713 -67.8864 0
      vertex 42.5 8 0
      vertex 42.5 -57.2829 0
    endloop
  endfacet
  facet normal 0 0 -1
    outer loop
      vertex -41.5713 -67.8864 0
      vertex 42.5 -57.2829 0
      vertex 41.5713 -67.8864 0
    endloop
  endfacet
  facet normal 0 0 -1
    outer loop
      vertex -41.5713 -67.8864 0
      vertex 41.5713 -67.8864 0
      vertex 38.8257 -78.0265 0
    endloop
  endfacet
  facet normal 0 0 -1
    outer loop
      vertex -41.5713 -67.8864 0
      vertex 38.8257 -78.0265 0
      vertex 34.3832 -87.2599 0
    endloop
  endfacet
  facet normal 0 0 -1
    outer loop
      vertex -41.5713 -67.8864 0
      vertex 34.3832 -87.2599 0
      vertex 28.4381 -95.1833 0
    endloop
  endfacet
  facet normal 0 0 -1
    outer loop
      vertex -41.5713 -67.8864 0
      vertex 28.4381 -95.1833 0
      vertex 21.25 -101.45 0
    endloop
  endfacet
  facet normal 0 0 -1
    outer loop
      vertex -41.5713 -67.8864 0
      vertex 21.25 -101.45 0
      vertex 13.1332 -105.787 0
    endloop
  endfacet
  facet normal 0 0 -1
    outer loop
      vertex -41.5713 -67.8864 0
      vertex 13.1332 -105.787 0
      vertex 4.44246 -108.004 0
    endloop
  endfacet
  facet normal 0 0 -1
    outer loop
      vertex -41.5713 -67.8864 0
      vertex 4.44246 -108.004 0
      vertex -4.44246 -108.004 0
    endloop
  endfacet
  facet normal 0 0 -1
    outer loop
      vertex -41.5713 -67.8864 0
      vertex -4.44246 -108.004 0
      vertex -13.1332 -105.787 0
    endloop
  endfacet
  facet normal 0 0 -1
    outer loop
      vertex -41.5713 -67.8864 0
      vertex -13.1332 -105.787 0
      vertex -21.25 -101.45 0
    endloop
  endfacet
  facet normal 0 0 -1
    outer loop
      vertex -41.5713 -67.8864 0
      vertex -21.25 -101.45 0
      vertex -28.4381 -95.1833 0
    endloop
  endfacet
  facet normal 0 0 -1
    outer loop
      vertex -41.5713 -67.8864 0
      vertex -28.4381 -95.1833 0
      vertex -34.3832 -87.2599 0
    endloop
  endfacet
  facet normal 0 0 -1
    outer loop
      vertex -41.5713 -67.8864 0
      vertex -34.3832 -87.2599 0
      vertex -38.8257 -78.0265 0
    endloop
  endfacet
  facet normal 0 0 1
    outer loop
      vertex -42.5 -32.5 10
      vertex -42.5 -57.2829 10
      vertex -41.5713 -67.8864 10
    endloop
  endfacet
  facet normal 0 0 1
    outer loop
      vertex -34.3832 -87.2599 10
      vertex -42.5 -32.5 10
      vertex -38.8257 -78.0265 10
    endloop
  endfacet
  facet normal 0 0 1
    outer loop
      vertex -38.8257 -78.0265 10
      vertex -42.5 -32.5 10
      vertex -41.5713 -67.8864 10
    endloop
  endfacet
  facet normal 0 0 1
    outer loop
      vertex -28.4381 -95.1833 10
      vertex -42.5 -32.5 10
      vertex -34.3832 -87.2599 10
    endloop
  endfacet
  facet normal 0 0 1
    outer loop
      vertex -21.25 -101.45 10
      vertex -42.5 -32.5 10
      vertex -28.4381 -95.1833 10
    endloop
  endfacet
  facet normal 0 0 1
    outer loop
      vertex -13.1332 -105.787 10
      vertex -42.5 -32.5 10
      vertex -21.25 -101.45 10
    endloop
  endfacet
  facet normal 0 0 1
    outer loop
      vertex -4.44246 -108.004 10
      vertex -42.5 -32.5 10
      vertex -13.1332 -105.787 10
    endloop
  endfacet
  facet normal 0 0 1
    outer loop
      vertex 4.44246 -108.004 10
      vertex -42.5 -32.5 10
      vertex -4.44246 -108.004 10
    endloop
  endfacet
  facet normal 0 0 1
    outer loop
      vertex 13.1332 -105.787 10
      vertex -42.5 -32.5 10
      vertex 4.44246 -108.004 10
    endloop
  endfacet
  facet normal 0 0 1
    outer loop
      vertex 21.25 -101.45 10
      vertex -42.5 -32.5 10
      vertex 13.1332 -105.787 10
    endloop
  endfacet
  facet normal 0 0 1
    outer loop
      vertex -35.5 -40 10
      vertex -42.5 -32.5 10
      vertex 21.25 -101.45 10
    endloop
  endfacet
  facet normal 0 0 1
    outer loop
      vertex -35.5 -40 10
      vertex -35.5 -32.5 10
      vertex -42.5 -32.5 10
    endloop
  endfacet
  facet normal 0 0 1
    outer loop
      vertex -32.5 -40 10
      vertex -35.5 -40 10
      vertex 28.4381 -95.1833 10
    endloop
  endfacet
  facet normal 0 0 1
    outer loop
      vertex -42.5 7.5 10
      vertex -38.8257 16.6432 10
      vertex -41.5713 12.4181 10
    endloop
  endfacet
  facet normal 0 0 1
    outer loop
      vertex 42.5 -32.5 10
      vertex 35.5 -32.5 10
      vertex 42.5 -57.2829 10
    endloop
  endfacet
  facet normal 0 0 1
    outer loop
      vertex -32.5 -32.5 10
      vertex 41.5713 -67.8864 10
      vertex 42.5 -57.2829 10
    endloop
  endfacet
  facet normal 0 0 1
    outer loop
      vertex 35.5 -32.5 10
      vertex 35.5 -40 10
      vertex 42.5 -57.2829 10
    endloop
  endfacet
  facet normal 0 0 1
    outer loop
      vertex 35.5 7.5 10
      vertex 42.5 7.5 10
      vertex 35.5 15 10
    endloop
  endfacet
  facet normal 0 0 1
    outer loop
      vertex 35.5 -40 10
      vertex 32.5 -40 10
      vertex 42.5 -57.2829 10
    endloop
  endfacet
  facet normal 0 0 1
    outer loop
      vertex -42.5 7.5 10
      vertex -35.5 7.5 10
      vertex -35.5 15 10
    endloop
  endfacet
  facet normal 0 0 1
    outer loop
      vertex 32.5 7.5 10
      vertex 32.5 15 10
      vertex 4.5 7.5 10
    endloop
  endfacet
  facet normal 0 0 1
    outer loop
      vertex 32.5 15 10
      vertex 34.3832 20.4904 10
      vertex 4.5 7.5 10
    endloop
  endfacet
  facet normal 0 0 1
    outer loop
      vertex 35.5 15 10
      vertex 38.8257 16.6432 10
      vertex 32.5 15 10
    endloop
  endfacet
  facet normal 0 0 1
    outer loop
      vertex -42.5 7.5 10
      vertex -41.5713 12.4181 10
      vertex -42.5 8 10
    endloop
  endfacet
  facet normal 0 0 1
    outer loop
      vertex 42.5 7.5 10
      vertex 42.5 8 10
      vertex 35.5 15 10
    endloop
  endfacet
  facet normal 0 0 1
    outer loop
      vertex 42.5 8 10
      vertex 41.5713 12.4181 10
      vertex 35.5 15 10
    endloop
  endfacet
  facet normal 0 0 1
    outer loop
      vertex 41.5713 12.4181 10
      vertex 38.8257 16.6432 10
      vertex 35.5 15 10
    endloop
  endfacet
  facet normal 0 0 1
    outer loop
      vertex 38.8257 16.6432 10
      vertex 34.3832 20.4904 10
      vertex 32.5 15 10
    endloop
  endfacet
  facet normal 0 0 1
    outer loop
      vertex 34.3832 20.4904 10
      vertex 28.4381 23.7918 10
      vertex 4.5 7.5 10
    endloop
  endfacet
  facet normal 0 0 1
    outer loop
      vertex 28.4381 23.7918 10
      vertex 21.25 26.403 10
      vertex 4.5 7.5 10
    endloop
  endfacet
  facet normal 0 0 1
    outer loop
      vertex -4.5 7.5 10
      vertex 4.5 7.5 10
      vertex 21.25 26.403 10
    endloop
  endfacet
  facet normal 0 0 1
    outer loop
      vertex -4.5 7.5 10
      vertex -4.5 -32.5 10
      vertex 4.5 7.5 10
    endloop
  endfacet
  facet normal 0 0 1
    outer loop
      vertex -32.5 15 10
      vertex -32.5 7.5 10
      vertex -28.4381 23.7918 10
    endloop
  endfacet
  facet normal 0 0 1
    outer loop
      vertex -32.5 7.5 10
      vertex 4.44246 29.1336 10
      vertex -4.44246 29.1336 10
    endloop
  endfacet
  facet normal 0 0 1
    outer loop
      vertex -32.5 7.5 10
      vertex 13.1332 28.21 10
      vertex 4.44246 29.1336 10
    endloop
  endfacet
  facet normal 0 0 1
    outer loop
      vertex -32.5 7.5 10
      vertex -4.5 7.5 10
      vertex 13.1332 28.21 10
    endloop
  endfacet
  facet normal 0 0 1
    outer loop
      vertex -32.5 7.5 10
      vertex -13.1332 28.21 10
      vertex -21.25 26.403 10
    endloop
  endfacet
  facet normal 0 0 1
    outer loop
      vertex -35.5 15 10
      vertex -32.5 15 10
      vertex -34.3832 20.4904 10
    endloop
  endfacet
  facet normal 0 0 1
    outer loop
      vertex -34.3832 20.4904 10
      vertex -38.8257 16.6432 10
      vertex -35.5 15 10
    endloop
  endfacet
  facet normal 0 0 1
    outer loop
      vertex -32.5 7.5 10
      vertex -4.44246 29.1336 10
      vertex -13.1332 28.21 10
    endloop
  endfacet
  facet normal 0 0 1
    outer loop
      vertex -28.4381 23.7918 10
      vertex -34.3832 20.4904 10
      vertex -32.5 15 10
    endloop
  endfacet
  facet normal 0 0 1
    outer loop
      vertex -32.5 -32.5 10
      vertex 34.3832 -87.2599 10
      vertex 38.8257 -78.0265 10
    endloop
  endfacet
  facet normal 0 0 1
    outer loop
      vertex -21.25 26.403 10
      vertex -28.4381 23.7918 10
      vertex -32.5 7.5 10
    endloop
  endfacet
  facet normal 0 0 1
    outer loop
      vertex -32.5 -32.5 10
      vertex 38.8257 -78.0265 10
      vertex 41.5713 -67.8864 10
    endloop
  endfacet
  facet normal 0 0 1
    outer loop
      vertex 21.25 26.403 10
      vertex 13.1332 28.21 10
      vertex -4.5 7.5 10
    endloop
  endfacet
  facet normal 0 0 1
    outer loop
      vertex 4.5 7.5 10
      vertex -4.5 -32.5 10
      vertex 4.5 -32.5 10
    endloop
  endfacet
  facet normal 0 0 1
    outer loop
      vertex -42.5 7.5 10
      vertex -35.5 15 10
      vertex -38.8257 16.6432 10
    endloop
  endfacet
  facet normal 0 0 1
    outer loop
      vertex 34.3832 -87.2599 10
      vertex -32.5 -40 10
      vertex 28.4381 -95.1833 10
    endloop
  endfacet
  facet normal 0 0 1
    outer loop
      vertex 28.4381 -95.1833 10
      vertex -35.5 -40 10
      vertex 21.25 -101.45 10
    endloop
  endfacet
  facet normal 0 0 1
    outer loop
      vertex -32.5 -32.5 10
      vertex 42.5 -57.2829 10
      vertex 32.5 -40 10
    endloop
  endfacet
  facet normal 0 0 1
    outer loop
      vertex 32.5 -40 10
      vertex -4.5 -32.5 10
      vertex -32.5 -32.5 10
    endloop
  endfacet
  facet normal 0 0 1
    outer loop
      vertex 32.5 -40 10
      vertex 4.5 -32.5 10
      vertex -4.5 -32.5 10
    endloop
  endfacet
  facet normal 0 0 1
    outer loop
      vertex 32.5 -40 10
      vertex 32.5 -32.5 10
      vertex 4.5 -32.5 10
    endloop
  endfacet
  facet normal 0 0 1
    outer loop
      vertex -32.5 -32.5 10
      vertex -32.5 -40 10
      vertex 34.3832 -87.2599 10
    endloop
  endfacet
  facet normal 0 -1 0
    outer loop
      vertex -35.5 7.5 5
      vertex -35.5 7.5 10
      vertex -42.5 7.5 10
    endloop
  endfacet
  facet normal 0 -1 0
    outer loop
      vertex -42.5 7.5 5
      vertex -35.5 7.5 5
      vertex -42.5 7.5 10
    endloop
  endfacet
  facet normal 0 0 1
    outer loop
      vertex -35.5 -32.5 5
      vertex -35.5 -40 5
      vertex -32.5 -40 5
    endloop
  endfacet
  facet normal 0 0 1
    outer loop
      vertex -4.5 7.5 5
      vertex -35.5 -32.5 5
      vertex -32.5 -32.5 5
    endloop
  endfacet
  facet normal 0 0 1
    outer loop
      vertex -32.5 -32.5 5
      vertex -35.5 -32.5 5
      vertex -32.5 -40 5
    endloop
  endfacet
  facet normal 0 0 1
    outer loop
      vertex -4.5 7.5 5
      vertex -32.5 -32.5 5
      vertex -4.5 -32.5 5
    endloop
  endfacet
  facet normal 0 0 1
    outer loop
      vertex -32.5 7.5 5
      vertex -35.5 -32.5 5
      vertex -4.5 7.5 5
    endloop
  endfacet
  facet normal 0 0 1
    outer loop
      vertex -32.5 15 5
      vertex -35.5 -32.5 5
      vertex -32.5 7.5 5
    endloop
  endfacet
  facet normal 0 0 1
    outer loop
      vertex -35.5 7.5 5
      vertex -35.5 -32.5 5
      vertex -32.5 15 5
    endloop
  endfacet
  facet normal 0 0 1
    outer loop
      vertex -42.5 7.5 5
      vertex -35.5 -32.5 5
      vertex -35.5 7.5 5
    endloop
  endfacet
  facet normal 0 0 1
    outer loop
      vertex -35.5 15 5
      vertex -35.5 7.5 5
      vertex -32.5 15 5
    endloop
  endfacet
  facet normal 0 0 1
    outer loop
      vertex -42.5 -32.5 5
      vertex -35.5 -32.5 5
      vertex -42.5 7.5 5
    endloop
  endfacet
  facet normal 0 1 0
    outer loop
      vertex -35.5 -32.5 10
      vertex -35.5 -32.5 5
      vertex -42.5 -32.5 10
    endloop
  endfacet
  facet normal 0 1 0
    outer loop
      vertex -42.5 -32.5 10
      vertex -35.5 -32.5 5
      vertex -42.5 -32.5 5
    endloop
  endfacet
  facet normal -0.965243 -0.261355 0
    outer loop
      vertex -41.5713 -67.8864 0
      vertex -38.8257 -78.0265 0
      vertex -41.5713 -67.8864 10
    endloop
  endfacet
  facet normal -0.965243 -0.261355 0
    outer loop
      vertex -41.5713 -67.8864 10
      vertex -38.8257 -78.0265 0
      vertex -38.8257 -78.0265 10
    endloop
  endfacet
  facet normal -0.901127 -0.433555 0
    outer loop
      vertex -38.8257 -78.0265 0
      vertex -34.3832 -87.2599 0
      vertex -38.8257 -78.0265 10
    endloop
  endfacet
  facet normal -0.901127 -0.433555 0
    outer loop
      vertex -38.8257 -78.0265 10
      vertex -34.3832 -87.2599 0
      vertex -34.3832 -87.2599 10
    endloop
  endfacet
  facet normal -0.799871 -0.600172 0
    outer loop
      vertex -34.3832 -87.2599 0
      vertex -28.4381 -95.1833 0
      vertex -34.3832 -87.2599 10
    endloop
  endfacet
  facet normal -0.799871 -0.600172 0
    outer loop
      vertex -34.3832 -87.2599 10
      vertex -28.4381 -95.1833 0
      vertex -28.4381 -95.1833 10
    endloop
  endfacet
  facet normal -0.657159 -0.753752 0
    outer loop
      vertex -28.4381 -95.1833 10
      vertex -28.4381 -95.1833 0
      vertex -21.25 -101.45 0
    endloop
  endfacet
  facet normal -0.657159 -0.753752 0
    outer loop
      vertex -21.25 -101.45 10
      vertex -28.4381 -95.1833 10
      vertex -21.25 -101.45 0
    endloop
  endfacet
  facet normal -0.471234 -0.882008 0
    outer loop
      vertex -21.25 -101.45 10
      vertex -21.25 -101.45 0
      vertex -13.1332 -105.787 0
    endloop
  endfacet
  facet normal -0.471234 -0.882008 0
    outer loop
      vertex -13.1332 -105.787 10
      vertex -21.25 -101.45 10
      vertex -13.1332 -105.787 0
    endloop
  endfacet
  facet normal -0.247155 -0.968976 0
    outer loop
      vertex -13.1332 -105.787 10
      vertex -13.1332 -105.787 0
      vertex -4.44246 -108.004 0
    endloop
  endfacet
  facet normal -0.247155 -0.968976 0
    outer loop
      vertex -4.44246 -108.004 10
      vertex -13.1332 -105.787 10
      vertex -4.44246 -108.004 0
    endloop
  endfacet
  facet normal 0 -1 0
    outer loop
      vertex -4.44246 -108.004 10
      vertex -4.44246 -108.004 0
      vertex 4.44246 -108.004 0
    endloop
  endfacet
  facet normal 0 -1 0
    outer loop
      vertex 4.44246 -108.004 10
      vertex -4.44246 -108.004 10
      vertex 4.44246 -108.004 0
    endloop
  endfacet
  facet normal 0.247155 -0.968976 0
    outer loop
      vertex 4.44246 -108.004 10
      vertex 4.44246 -108.004 0
      vertex 13.1332 -105.787 0
    endloop
  endfacet
  facet normal 0.247155 -0.968976 0
    outer loop
      vertex 13.1332 -105.787 10
      vertex 4.44246 -108.004 10
      vertex 13.1332 -105.787 0
    endloop
  endfacet
  facet normal 0.471234 -0.882008 0
    outer loop
      vertex 13.1332 -105.787 10
      vertex 13.1332 -105.787 0
      vertex 21.25 -101.45 0
    endloop
  endfacet
  facet normal 0.471234 -0.882008 0
    outer loop
      vertex 21.25 -101.45 10
      vertex 13.1332 -105.787 10
      vertex 21.25 -101.45 0
    endloop
  endfacet
  facet normal 0.657159 -0.753752 0
    outer loop
      vertex 21.25 -101.45 10
      vertex 21.25 -101.45 0
      vertex 28.4381 -95.1833 0
    endloop
  endfacet
  facet normal 0.657159 -0.753752 0
    outer loop
      vertex 28.4381 -95.1833 10
      vertex 21.25 -101.45 10
      vertex 28.4381 -95.1833 0
    endloop
  endfacet
  facet normal 0.799871 -0.600172 0
    outer loop
      vertex 28.4381 -95.1833 10
      vertex 28.4381 -95.1833 0
      vertex 34.3832 -87.2599 0
    endloop
  endfacet
  facet normal 0.799871 -0.600172 0
    outer loop
      vertex 34.3832 -87.2599 10
      vertex 28.4381 -95.1833 10
      vertex 34.3832 -87.2599 0
    endloop
  endfacet
  facet normal 0.901127 -0.433555 0
    outer loop
      vertex 34.3832 -87.2599 10
      vertex 34.3832 -87.2599 0
      vertex 38.8257 -78.0265 0
    endloop
  endfacet
  facet normal 0.901127 -0.433555 0
    outer loop
      vertex 38.8257 -78.0265 10
      vertex 34.3832 -87.2599 10
      vertex 38.8257 -78.0265 0
    endloop
  endfacet
  facet normal 0.965243 -0.261355 0
    outer loop
      vertex 38.8257 -78.0265 10
      vertex 38.8257 -78.0265 0
      vertex 41.5713 -67.8864 0
    endloop
  endfacet
  facet normal 0.965243 -0.261355 0
    outer loop
      vertex 41.5713 -67.8864 10
      vertex 38.8257 -78.0265 10
      vertex 41.5713 -67.8864 0
    endloop
  endfacet
  facet normal 0.996186 -0.0872528 0
    outer loop
      vertex 41.5713 -67.8864 10
      vertex 41.5713 -67.8864 0
      vertex 42.5 -57.2829 0
    endloop
  endfacet
  facet normal 0.996186 -0.0872528 0
    outer loop
      vertex 42.5 -57.2829 10
      vertex 41.5713 -67.8864 10
      vertex 42.5 -57.2829 0
    endloop
  endfacet
  facet normal 1 0 0
    outer loop
      vertex 42.5 -32.5 5
      vertex 42.5 -57.2829 0
      vertex 42.5 8 0
    endloop
  endfacet
  facet normal 1 0 0
    outer loop
      vertex 42.5 -32.5 5
      vertex 42.5 -32.5 10
      vertex 42.5 -57.2829 10
    endloop
  endfacet
  facet normal 1 0 0
    outer loop
      vertex 42.5 8 10
      vertex 42.5 7.5 10
      vertex 42.5 8 0
    endloop
  endfacet
  facet normal 1 0 0
    outer loop
      vertex 42.5 7.5 10
      vertex 42.5 7.5 5
      vertex 42.5 8 0
    endloop
  endfacet
  facet normal 1 0 0
    outer loop
      vertex 42.5 -57.2829 10
      vertex 42.5 -57.2829 0
      vertex 42.5 -32.5 5
    endloop
  endfacet
  facet normal 1 0 0
    outer loop
      vertex 42.5 7.5 5
      vertex 42.5 -32.5 5
      vertex 42.5 8 0
    endloop
  endfacet
  facet normal 0.978612 0.205713 0
    outer loop
      vertex 42.5 8 0
      vertex 41.5713 12.4181 0
      vertex 41.5713 12.4181 10
    endloop
  endfacet
  facet normal 0.978612 0.205713 0
    outer loop
      vertex 42.5 8 10
      vertex 42.5 8 0
      vertex 41.5713 12.4181 10
    endloop
  endfacet
  facet normal 0.838505 0.544894 0
    outer loop
      vertex 41.5713 12.4181 0
      vertex 38.8257 16.6432 0
      vertex 38.8257 16.6432 10
    endloop
  endfacet
  facet normal 0.838505 0.544894 0
    outer loop
      vertex 41.5713 12.4181 10
      vertex 41.5713 12.4181 0
      vertex 38.8257 16.6432 10
    endloop
  endfacet
  facet normal 0.654654 0.755929 0
    outer loop
      vertex 34.3832 20.4904 0
      vertex 34.3832 20.4904 10
      vertex 38.8257 16.6432 0
    endloop
  endfacet
  facet normal 0.654654 0.755929 0
    outer loop
      vertex 38.8257 16.6432 0
      vertex 34.3832 20.4904 10
      vertex 38.8257 16.6432 10
    endloop
  endfacet
  facet normal 0.485476 0.87425 0
    outer loop
      vertex 28.4381 23.7918 0
      vertex 28.4381 23.7918 10
      vertex 34.3832 20.4904 0
    endloop
  endfacet
  facet normal 0.485476 0.87425 0
    outer loop
      vertex 34.3832 20.4904 0
      vertex 28.4381 23.7918 10
      vertex 34.3832 20.4904 10
    endloop
  endfacet
  facet normal 0.34144 0.939904 0
    outer loop
      vertex 21.25 26.403 0
      vertex 21.25 26.403 10
      vertex 28.4381 23.7918 0
    endloop
  endfacet
  facet normal 0.34144 0.939904 0
    outer loop
      vertex 28.4381 23.7918 0
      vertex 21.25 26.403 10
      vertex 28.4381 23.7918 10
    endloop
  endfacet
  facet normal 0.217295 0.976106 0
    outer loop
      vertex 13.1332 28.21 0
      vertex 13.1332 28.21 10
      vertex 21.25 26.403 0
    endloop
  endfacet
  facet normal 0.217295 0.976106 0
    outer loop
      vertex 21.25 26.403 0
      vertex 13.1332 28.21 10
      vertex 21.25 26.403 10
    endloop
  endfacet
  facet normal 0.105683 0.9944 0
    outer loop
      vertex 4.44246 29.1336 0
      vertex 4.44246 29.1336 10
      vertex 13.1332 28.21 0
    endloop
  endfacet
  facet normal 0.105683 0.9944 0
    outer loop
      vertex 13.1332 28.21 0
      vertex 4.44246 29.1336 10
      vertex 13.1332 28.21 10
    endloop
  endfacet
  facet normal 0 1 0
    outer loop
      vertex -4.44246 29.1336 0
      vertex -4.44246 29.1336 10
      vertex 4.44246 29.1336 0
    endloop
  endfacet
  facet normal 0 1 0
    outer loop
      vertex 4.44246 29.1336 0
      vertex -4.44246 29.1336 10
      vertex 4.44246 29.1336 10
    endloop
  endfacet
  facet normal -0.105683 0.9944 0
    outer loop
      vertex -13.1332 28.21 0
      vertex -13.1332 28.21 10
      vertex -4.44246 29.1336 0
    endloop
  endfacet
  facet normal -0.105683 0.9944 0
    outer loop
      vertex -4.44246 29.1336 0
      vertex -13.1332 28.21 10
      vertex -4.44246 29.1336 10
    endloop
  endfacet
  facet normal -0.217295 0.976106 0
    outer loop
      vertex -21.25 26.403 0
      vertex -21.25 26.403 10
      vertex -13.1332 28.21 0
    endloop
  endfacet
  facet normal -0.217295 0.976106 0
    outer loop
      vertex -13.1332 28.21 0
      vertex -21.25 26.403 10
      vertex -13.1332 28.21 10
    endloop
  endfacet
  facet normal -0.34144 0.939904 0
    outer loop
      vertex -28.4381 23.7918 0
      vertex -28.4381 23.7918 10
      vertex -21.25 26.403 0
    endloop
  endfacet
  facet normal -0.34144 0.939904 0
    outer loop
      vertex -21.25 26.403 0
      vertex -28.4381 23.7918 10
      vertex -21.25 26.403 10
    endloop
  endfacet
  facet normal -0.485476 0.87425 0
    outer loop
      vertex -34.3832 20.4904 0
      vertex -34.3832 20.4904 10
      vertex -28.4381 23.7918 0
    endloop
  endfacet
  facet normal -0.485476 0.87425 0
    outer loop
      vertex -28.4381 23.7918 0
      vertex -34.3832 20.4904 10
      vertex -28.4381 23.7918 10
    endloop
  endfacet
  facet normal -0.654654 0.755929 0
    outer loop
      vertex -38.8257 16.6432 0
      vertex -38.8257 16.6432 10
      vertex -34.3832 20.4904 0
    endloop
  endfacet
  facet normal -0.654654 0.755929 0
    outer loop
      vertex -34.3832 20.4904 0
      vertex -38.8257 16.6432 10
      vertex -34.3832 20.4904 10
    endloop
  endfacet
  facet normal -0.838505 0.544894 0
    outer loop
      vertex -41.5713 12.4181 0
      vertex -41.5713 12.4181 10
      vertex -38.8257 16.6432 0
    endloop
  endfacet
  facet normal -0.838505 0.544894 0
    outer loop
      vertex -38.8257 16.6432 0
      vertex -41.5713 12.4181 10
      vertex -38.8257 16.6432 10
    endloop
  endfacet
  facet normal -0.978612 0.205713 0
    outer loop
      vertex -42.5 8 0
      vertex -42.5 8 10
      vertex -41.5713 12.4181 0
    endloop
  endfacet
  facet normal -0.978612 0.205713 0
    outer loop
      vertex -41.5713 12.4181 0
      vertex -42.5 8 10
      vertex -41.5713 12.4181 10
    endloop
  endfacet
  facet normal 1 0 0
    outer loop
      vertex -35.5 -32.5 5
      vertex -35.5 -32.5 10
      vertex -35.5 -40 10
    endloop
  endfacet
  facet normal 1 0 0
    outer loop
      vertex -35.5 -40 5
      vertex -35.5 -32.5 5
      vertex -35.5 -40 10
    endloop
  endfacet
  facet normal 0 1 0
    outer loop
      vertex -32.5 -40 10
      vertex -32.5 -40 5
      vertex -35.5 -40 10
    endloop
  endfacet
  facet normal 0 1 0
    outer loop
      vertex -35.5 -40 10
      vertex -32.5 -40 5
      vertex -35.5 -40 5
    endloop
  endfacet
  facet normal -1 0 0
    outer loop
      vertex -32.5 -32.5 10
      vertex -32.5 -32.5 5
      vertex -32.5 -40 10
    endloop
  endfacet
  facet normal -1 0 0
    outer loop
      vertex -32.5 -40 10
      vertex -32.5 -32.5 5
      vertex -32.5 -40 5
    endloop
  endfacet
  facet normal 0 1 0
    outer loop
      vertex -4.5 -32.5 10
      vertex -4.5 -32.5 5
      vertex -32.5 -32.5 10
    endloop
  endfacet
  facet normal 0 1 0
    outer loop
      vertex -32.5 -32.5 10
      vertex -4.5 -32.5 5
      vertex -32.5 -32.5 5
    endloop
  endfacet
  facet normal -1 0 0
    outer loop
      vertex -4.5 7.5 10
      vertex -4.5 7.5 5
      vertex -4.5 -32.5 10
    endloop
  endfacet
  facet normal -1 0 0
    outer loop
      vertex -4.5 -32.5 10
      vertex -4.5 7.5 5
      vertex -4.5 -32.5 5
    endloop
  endfacet
  facet normal 0 -1 0
    outer loop
      vertex -4.5 7.5 5
      vertex -4.5 7.5 10
      vertex -32.5 7.5 10
    endloop
  endfacet
  facet normal 0 -1 0
    outer loop
      vertex -32.5 7.5 5
      vertex -4.5 7.5 5
      vertex -32.5 7.5 10
    endloop
  endfacet
  facet normal -1 0 0
    outer loop
      vertex -32.5 15 10
      vertex -32.5 15 5
      vertex -32.5 7.5 10
    endloop
  endfacet
  facet normal -1 0 0
    outer loop
      vertex -32.5 7.5 10
      vertex -32.5 15 5
      vertex -32.5 7.5 5
    endloop
  endfacet
  facet normal 0 -1 0
    outer loop
      vertex -32.5 15 5
      vertex -32.5 15 10
      vertex -35.5 15 10
    endloop
  endfacet
  facet normal 0 -1 0
    outer loop
      vertex -35.5 15 5
      vertex -32.5 15 5
      vertex -35.5 15 10
    endloop
  endfacet
  facet normal 1 0 0
    outer loop
      vertex -35.5 15 5
      vertex -35.5 15 10
      vertex -35.5 7.5 10
    endloop
  endfacet
  facet normal 1 0 0
    outer loop
      vertex -35.5 7.5 5
      vertex -35.5 15 5
      vertex -35.5 7.5 10
    endloop
  endfacet
  facet normal 0 -1 0
    outer loop
      vertex 35.5 7.5 10
      vertex 35.5 7.5 5
      vertex 42.5 7.5 5
    endloop
  endfacet
  facet normal 0 -1 0
    outer loop
      vertex 42.5 7.5 10
      vertex 35.5 7.5 10
      vertex 42.5 7.5 5
    endloop
  endfacet
  facet normal -1 0 0
    outer loop
      vertex 35.5 7.5 5
      vertex 35.5 7.5 10
      vertex 35.5 15 5
    endloop
  endfacet
  facet normal -1 0 0
    outer loop
      vertex 35.5 15 5
      vertex 35.5 7.5 10
      vertex 35.5 15 10
    endloop
  endfacet
  facet normal 0 -1 0
    outer loop
      vertex 32.5 15 10
      vertex 32.5 15 5
      vertex 35.5 15 5
    endloop
  endfacet
  facet normal 0 -1 0
    outer loop
      vertex 35.5 15 10
      vertex 32.5 15 10
      vertex 35.5 15 5
    endloop
  endfacet
  facet normal 1 0 0
    outer loop
      vertex 32.5 7.5 10
      vertex 32.5 7.5 5
      vertex 32.5 15 5
    endloop
  endfacet
  facet normal 1 0 0
    outer loop
      vertex 32.5 15 10
      vertex 32.5 7.5 10
      vertex 32.5 15 5
    endloop
  endfacet
  facet normal 0 -1 0
    outer loop
      vertex 4.5 7.5 10
      vertex 4.5 7.5 5
      vertex 32.5 7.5 5
    endloop
  endfacet
  facet normal 0 -1 0
    outer loop
      vertex 32.5 7.5 10
      vertex 4.5 7.5 10
      vertex 32.5 7.5 5
    endloop
  endfacet
  facet normal 1 0 0
    outer loop
      vertex 4.5 -32.5 10
      vertex 4.5 -32.5 5
      vertex 4.5 7.5 5
    endloop
  endfacet
  facet normal 1 0 0
    outer loop
      vertex 4.5 7.5 10
      vertex 4.5 -32.5 10
      vertex 4.5 7.5 5
    endloop
  endfacet
  facet normal 0 1 0
    outer loop
      vertex 4.5 -32.5 5
      vertex 4.5 -32.5 10
      vertex 32.5 -32.5 5
    endloop
  endfacet
  facet normal 0 1 0
    outer loop
      vertex 32.5 -32.5 5
      vertex 4.5 -32.5 10
      vertex 32.5 -32.5 10
    endloop
  endfacet
  facet normal 1 0 0
    outer loop
      vertex 32.5 -40 10
      vertex 32.5 -40 5
      vertex 32.5 -32.5 5
    endloop
  endfacet
  facet normal 1 0 0
    outer loop
      vertex 32.5 -32.5 10
      vertex 32.5 -40 10
      vertex 32.5 -32.5 5
    endloop
  endfacet
  facet normal 0 1 0
    outer loop
      vertex 32.5 -40 5
      vertex 32.5 -40 10
      vertex 35.5 -40 5
    endloop
  endfacet
  facet normal 0 1 0
    outer loop
      vertex 35.5 -40 5
      vertex 32.5 -40 10
      vertex 35.5 -40 10
    endloop
  endfacet
  facet normal -1 0 0
    outer loop
      vertex 35.5 -40 5
      vertex 35.5 -40 10
      vertex 35.5 -32.5 5
    endloop
  endfacet
  facet normal -1 0 0
    outer loop
      vertex 35.5 -32.5 5
      vertex 35.5 -40 10
      vertex 35.5 -32.5 10
    endloop
  endfacet
  facet normal 0 1 0
    outer loop
      vertex 35.5 -32.5 5
      vertex 35.5 -32.5 10
      vertex 42.5 -32.5 5
    endloop
  endfacet
  facet normal 0 1 0
    outer loop
      vertex 42.5 -32.5 5
      vertex 35.5 -32.5 10
      vertex 42.5 -32.5 10
    endloop
  endfacet
  facet normal 0 0 1
    outer loop
      vertex 4.5 7.5 5
      vertex 4.5 -32.5 5
      vertex 32.5 -32.5 5
    endloop
  endfacet
  facet normal 0 0 1
    outer loop
      vertex 35.5 -32.5 5
      vertex 4.5 7.5 5
      vertex 32.5 -32.5 5
    endloop
  endfacet
  facet normal 0 0 1
    outer loop
      vertex 32.5 -40 5
      vertex 35.5 -40 5
      vertex 32.5 -32.5 5
    endloop
  endfacet
  facet normal 0 0 1
    outer loop
      vertex 35.5 -40 5
      vertex 35.5 -32.5 5
      vertex 32.5 -32.5 5
    endloop
  endfacet
  facet normal 0 0 1
    outer loop
      vertex 35.5 -32.5 5
      vertex 42.5 -32.5 5
      vertex 4.5 7.5 5
    endloop
  endfacet
  facet normal 0 0 1
    outer loop
      vertex 42.5 -32.5 5
      vertex 35.5 7.5 5
      vertex 32.5 7.5 5
    endloop
  endfacet
  facet normal 0 0 1
    outer loop
      vertex 42.5 -32.5 5
      vertex 42.5 7.5 5
      vertex 35.5 7.5 5
    endloop
  endfacet
  facet normal 0 0 1
    outer loop
      vertex 42.5 -32.5 5
      vertex 32.5 7.5 5
      vertex 4.5 7.5 5
    endloop
  endfacet
  facet normal 0 0 1
    outer loop
      vertex 35.5 7.5 5
      vertex 35.5 15 5
      vertex 32.5 7.5 5
    endloop
  endfacet
  facet normal 0 0 1
    outer loop
      vertex 32.5 15 5
      vertex 32.5 7.5 5
      vertex 35.5 15 5
    endloop
  endfacet
endsolid OpenSCAD_Model
